<svg width="495" height="345" viewBox="0 0 495 345" fill="none" xmlns="http://www.w3.org/2000/svg">
<circle cx="380.5" cy="110.5" r="95.5" stroke="#FCF7E7" stroke-width="30"/>
<circle cx="152.382" cy="191.647" r="127.382" stroke="#EFF9F3" stroke-width="50"/>
<g clip-path="url(#clip0_482_18889)">
<path opacity="0.3" d="M484.225 225.152L283.789 322.731L42.67 160.287L243.106 62.7079L484.225 225.152Z" fill="black"/>
<path d="M484.335 223.582L283.891 321.292L42.7716 158.848L243.207 61.2694L484.335 223.582Z" fill="#F5F6FD"/>
<path d="M234.446 81.1586L184.036 105.631L210.813 123.665L261.224 99.1924L234.446 81.1586Z" fill="#CFD1DF"/>
<path d="M282.853 113.713L126.836 189.686L120.43 185.297L276.315 109.314L282.853 113.713Z" fill="#CFD1DF"/>
<path d="M297.302 123.526L141.285 199.5L134.879 195.111L290.765 119.128L297.302 123.526Z" fill="#CFD1DF"/>
<path d="M311.763 133.21L155.746 209.183L149.34 204.794L305.226 128.811L311.763 133.21Z" fill="#CFD1DF"/>
<path d="M326.216 143.024L170.208 218.867L163.802 214.477L319.679 138.625L326.216 143.024Z" fill="#CFD1DF"/>
<path d="M390.961 186.575L329.512 216.453L327.376 214.99L388.826 185.112L390.961 186.575Z" fill="#CFD1DF"/>
<path d="M304.834 232.471L283.517 234.268L267.44 242.082L260.958 253.851L265.741 266.407L280.577 276.379L301.438 281.121L322.755 279.324L338.833 271.51L345.314 259.741L340.531 247.185L325.695 237.213L304.834 232.471ZM335.042 248.51L339.167 259.18L333.599 269.173L319.84 275.835L301.703 277.328L283.949 273.329L271.249 264.82L267.124 254.15L272.691 244.157L286.451 237.496L304.588 236.002L322.342 240.001L335.042 248.51Z" fill="#2ECC71"/>
<path d="M294.738 247.011L287.914 250.477L285.201 255.413L287.193 260.808L293.478 265.058L302.416 267.128L311.554 266.32L318.368 262.985L321.091 257.918L319.099 252.523L312.814 248.273L303.867 246.334L294.738 247.011Z" fill="#2ECC71"/>
<path d="M289.984 241.553L279.216 246.847L274.842 254.82L278.074 263.194L288.002 269.932L302.003 273.012L316.305 271.777L327.073 266.483L331.447 258.51L328.214 250.136L318.286 243.398L304.286 240.318L289.984 241.553ZM326.466 250.671L329.473 258.503L325.407 265.841L315.33 270.657L302.085 271.835L289.132 268.828L279.823 262.659L276.816 254.827L280.882 247.489L290.968 242.542L304.213 241.364L317.296 244.38L326.466 250.671Z" fill="#2ECC71"/>
<path d="M276.359 184.093L184.661 228.68L178.254 224.291L269.821 179.694L276.359 184.093Z" fill="#CFD1DF"/>
<path opacity="0.3" d="M192.769 278.397L156.935 254.342L195.773 235.37L231.598 259.555L192.769 278.397Z" fill="black"/>
<path d="M235.733 207.934L230.109 207.41L229.087 222.058L231.576 227.882L234.436 226.505L235.733 207.934Z" fill="#231F20"/>
<path d="M232.871 209.312L196.418 184.689L195.112 203.39L231.574 227.882L232.871 209.312Z" fill="#414042"/>
<path d="M194.152 183.216L190.537 235.005L224.357 257.735L226.23 247.879L229.243 204.721L194.152 183.216Z" fill="#857F79"/>
<path d="M195.064 234.269L192.7 273.792L224.995 258.043L227.734 218.809L195.064 234.269ZM222.195 251.013L219.545 255.034L197.336 265.836L195.078 264.233L196.95 237.423L199.6 233.403L221.809 222.601L224.067 224.204L222.195 251.013Z" fill="#D8D1C7"/>
<path d="M165.129 203.005L161.522 254.663L192.955 275.781L194.827 265.924L197.841 222.767L165.129 203.005Z" fill="#D8D1C7"/>
<path d="M179.419 260.38L179.3 262.08L175.656 259.592L178.551 218.135L179.928 219.151L177.926 257.254L179.419 260.38Z" fill="#A39C95"/>
<path d="M182.196 220.624L179.42 260.38L177.163 258.777L179.93 219.151L182.196 220.624Z" fill="#E6E1DD"/>
<path d="M196.562 224.124L192.955 275.781L226.746 259.348L230.352 207.69L196.562 224.124ZM224.086 252.197L221.436 256.217L199.227 267.02L196.969 265.417L198.841 238.607L201.491 234.587L223.7 223.784L225.958 225.387L224.086 252.197Z" fill="#A39C95"/>
<path d="M162.725 160.127L171.095 147.701L176.847 152.045L170.786 163.449L162.725 160.127Z" fill="#6D6E71"/>
<path d="M232.004 151.954L238.697 165.431L233.275 167.681L225.951 157.576L232.004 151.954Z" fill="#6D6E71"/>
<path d="M211.294 169.563L190.336 168.1L189.149 185.101L210.107 186.564L211.294 169.563Z" fill="#6D6E71"/>
<path d="M238.699 165.431L231.403 160.585L222.901 161.7L207.558 172.193L199.187 184.619L193.608 209.856L196.22 227.122L235.731 207.934L238.699 165.431Z" fill="#231F20"/>
<path d="M199.078 225.745L193.445 225.352L192.423 239.999L194.912 245.824L197.772 244.446L199.078 225.745Z" fill="#231F20"/>
<path d="M199.188 184.619L192.494 171.142L170.494 156.333L162.726 160.127L158.462 221.201L194.915 245.824L199.188 184.619Z" fill="#414042"/>
<path d="M174.549 215.227L175.634 214.777L179.914 217.573L178.562 219.975L174.549 215.227Z" fill="#808285"/>
<path d="M178.693 218.144L179.917 217.573L182.687 223.154L181.106 228.826L178.693 218.144Z" fill="#6D6E71"/>
<path d="M181.458 223.726L182.683 223.154L182.318 228.385L181.102 228.826L181.458 223.726Z" fill="#231F20"/>
<path d="M177.825 230.568L181.105 228.826L181.461 223.726L178.692 218.144L174.552 215.227L171.14 216.96L170.793 221.93L173.685 227.651L177.825 230.568Z" fill="#58595B"/>
<path d="M173.187 217.629L174.552 216.936L177.943 219.276L176.478 221.407L173.187 217.629Z" fill="#D52B83"/>
<path d="M176.587 219.838L177.943 219.276L180.13 223.765L178.482 228.512L176.587 219.838Z" fill="#AB281F"/>
<path d="M178.766 224.458L180.13 223.765L179.847 227.819L178.482 228.512L178.766 224.458Z" fill="#8A1C14"/>
<path d="M175.894 229.777L178.483 228.512L178.766 224.458L176.588 219.838L173.188 217.629L170.599 218.894L170.316 222.948L172.503 227.438L175.894 229.777Z" fill="#D52B83"/>
<path d="M231.4 160.585L232.003 151.954L210.002 137.145L194.939 136.093L171.093 147.701L170.491 156.333L192.492 171.142L207.555 172.193L231.4 160.585Z" fill="#58595B"/>
</g>
<defs>
<clipPath id="clip0_482_18889">
<rect width="445" height="258" fill="white" transform="translate(50.5234 47.8169) rotate(3.99371)"/>
</clipPath>
</defs>
</svg>
