<svg width="491" height="345" viewBox="0 0 491 345" fill="none" xmlns="http://www.w3.org/2000/svg">
<circle cx="380.5" cy="110.5" r="95.5" stroke="#FCF7E7" stroke-width="30"/>
<circle cx="152.382" cy="191.647" r="127.382" stroke="#EFF9F3" stroke-width="50"/>
<g clip-path="url(#clip0_482_17268)">
<path d="M286.903 134.4C297.003 136.7 306.003 140.3 308.703 145.8C311.303 151.3 311.803 160.5 311.203 163.7C310.603 166.9 299.003 166.9 295.403 165.1C291.703 163.4 287.803 159.3 283.503 158.6C278.903 158 280.503 133 286.903 134.4Z" fill="#FFA77B"/>
<path d="M354.1 73.8999H351.5V169.7H354.1V73.8999Z" fill="#2ECC71"/>
<path d="M354.002 87.7999V73.8999H351.402V88.3999C352.302 88.1999 353.202 87.8999 354.002 87.7999Z" fill="#22A358"/>
<path d="M351.504 154.1V169.6H354.104V154.5C353.204 154.4 352.304 154.3 351.504 154.1Z" fill="#197A42"/>
<path d="M320.801 36.8999L354.201 67.1999V73.3999L304.301 64.8999L307.101 45.9999L320.801 36.8999Z" fill="#1EB15D"/>
<path d="M333.103 64.9999C339.103 64.9999 344.703 64.2999 349.603 63.0999L320.703 36.8999L307.103 45.9999L305.203 58.6999C311.803 62.4999 321.903 64.9999 333.103 64.9999Z" fill="#2ECC71"/>
<path d="M374.201 172.4L352.701 165.4L331.301 172.4V174.8H374.201V172.4Z" fill="#2ECC71"/>
<path d="M223.101 90.4001C232.501 109.9 248.101 138.5 250.701 139.1C253.301 139.7 285.701 134.1 285.701 134.1L291.501 157.9C291.501 157.9 251.601 177.4 235.801 172.7C219.901 168 208.601 139.3 208.601 139.3L223.101 90.4001Z" fill="#EAD6B7"/>
<path d="M244.5 153.6C228.6 148.9 224.6 119.7 224.6 119.7L225 94.2999C224.3 92.9999 223.7 91.5999 223.1 90.3999L208.5 139.3C208.5 139.3 219.9 168 235.7 172.7C251.6 177.4 291.4 157.9 291.4 157.9L288.1 144.2C275.1 149.6 254.8 156.6 244.5 153.6Z" fill="#D8C0A0"/>
<path d="M260.699 326.2C260.699 271.9 257.899 226.1 257.899 226.1C250.799 223.1 251.499 214.5 251.499 214.5H269.999L264.199 331.7H257.699C255.899 327.1 260.699 326.2 260.699 326.2Z" fill="#7A3E26"/>
<path d="M378.302 326.2C379.702 271.9 383.802 226.1 383.802 226.1C391.002 223.1 390.502 214.5 390.502 214.5H371.902L374.602 331.7H381.102C383.102 327.1 378.302 326.2 378.302 326.2Z" fill="#7A3E26"/>
<path d="M156.903 244.1C156.903 244.1 159.903 316.6 153.703 331.6H159.203C159.203 331.6 156.503 256 175.603 246.9V244H156.903V244.1Z" fill="#261E20"/>
<path d="M146.104 112.9C152.304 112.9 157.704 117.9 158.204 124.2C158.304 125.2 158.204 126.1 158.104 127C156.404 124.3 153.804 122.5 151.004 122.5C145.104 122.5 143.504 125.9 143.304 129.1C143.104 131.9 140.204 132.9 138.504 130.7C137.104 128.9 136.104 126.6 135.904 124.2C135.304 117.9 139.904 112.9 146.104 112.9Z" fill="#2D2426"/>
<path d="M135.203 125.3H140.103L140.603 131.8H135.703L135.203 125.3Z" fill="#2D2426"/>
<path d="M140.701 112.9C146.301 112.9 151.301 117.9 151.801 124.2C151.901 125.2 151.801 126.1 151.701 127C150.101 124.3 147.701 122.5 145.201 122.5C139.901 122.5 138.401 125.9 138.201 129.1C138.001 131.9 135.401 132.9 133.801 130.7C132.501 128.9 131.601 126.6 131.401 124.2C130.901 117.9 135.001 112.9 140.701 112.9Z" fill="#443639"/>
<path d="M100.702 112.9C106.902 112.9 112.302 117.9 112.802 124.2C112.902 125.2 112.802 126.1 112.702 127C111.002 124.3 108.402 122.5 105.602 122.5C99.7019 122.5 98.1019 125.9 97.9019 129.1C97.7019 131.9 94.8019 132.9 93.1019 130.7C91.7019 128.9 90.7019 126.6 90.5019 124.2C89.9019 117.9 94.5019 112.9 100.702 112.9Z" fill="#2D2426"/>
<path d="M89.8008 125.3H94.7008L95.2008 131.8H90.4008L89.8008 125.3Z" fill="#2D2426"/>
<path d="M96.4023 117.9H155.802C162.702 126.1 173.202 188 177.602 241.6H118.202C113.202 181.7 102.902 125.7 96.4023 117.9Z" fill="#2D2426"/>
<path d="M100.402 117.9H155.802C162.302 126.1 173.102 188 178.102 241.6H122.702C117.202 181.7 106.702 125.7 100.402 117.9Z" fill="#443639"/>
<path d="M111.602 121.6H156.102C157.202 121.6 158.402 122.4 159.002 123.7C164.702 135.5 172.602 181.1 176.402 222.4C176.602 224.6 175.402 226.4 173.602 226.4H128.602C126.902 226.4 125.302 224.6 125.102 222.4C121.302 180.6 114.402 141.7 109.102 127C108.202 124.4 109.502 121.6 111.602 121.6Z" fill="#20B15E"/>
<path d="M95.3013 112.9C100.901 112.9 105.901 117.9 106.401 124.2C106.501 125.2 106.401 126.1 106.301 127C104.701 124.3 102.301 122.5 99.8013 122.5C94.5013 122.5 93.0013 125.9 92.8013 129.1C92.6013 131.9 90.0013 132.9 88.4013 130.7C87.1013 128.9 86.2013 126.6 86.0013 124.2C85.5013 117.9 89.7013 112.9 95.3013 112.9Z" fill="#443639"/>
<path d="M215.203 231.8H122.803C121.403 231.8 120.203 233 120.203 234.4V241.6H217.803V234.4C217.803 233 216.603 231.8 215.203 231.8Z" fill="#25A375"/>
<path d="M118.301 244.1C118.301 244.1 121.301 316.6 115.101 331.6H120.601C120.601 331.6 117.901 256 137.001 246.9V244H118.301V244.1Z" fill="#2D2426"/>
<path d="M219.403 244.1C219.403 264.1 217.803 316.7 223.803 331.6H218.303C218.303 331.6 219.903 256 200.703 246.9V244H219.403V244.1Z" fill="#443639"/>
<path d="M181.2 244.1C181.2 244.1 179.2 316.6 185.6 331.6H180.1C180.1 331.6 181.7 256 162.5 246.9V244H181.2V244.1Z" fill="#443639"/>
<path d="M219.401 240H118.301V247.2H219.401V240Z" fill="#443639"/>
<path d="M176.501 222.4C172.701 181.2 164.801 135.5 159.101 123.7C158.501 122.4 157.301 121.6 156.201 121.6H131.501C129.701 140.3 123.701 154.5 116.301 156.6C119.701 174.8 122.901 198.1 125.201 222.4C125.401 224.6 126.901 226.4 128.701 226.4H173.701C175.401 226.4 176.701 224.6 176.501 222.4Z" fill="#34D678"/>
<path d="M133.2 226.4C131.5 226.4 129.9 224.6 129.7 222.4C125.9 180.6 119 141.7 113.7 127C112.7 124.4 114 121.6 116.2 121.6H111.7C109.5 121.6 108.3 124.4 109.2 127C114.6 141.7 121.4 180.6 125.2 222.4C125.4 224.6 126.9 226.4 128.7 226.4H173.7H133.2Z" fill="#25A375"/>
<path d="M181.301 240H118.301V247.2H181.301V240Z" fill="#2D2426"/>
<path d="M181.101 252.8C181.201 247.5 181.301 244.1 181.301 244.1H162.601V247C168.601 249.8 172.501 259.1 175.101 270.5C176.501 260.7 178.701 254 181.101 252.8Z" fill="#2D2426"/>
<path d="M260.1 214.8C255.6 210 215.6 188.2 215.6 188.2H177.3L175.5 205.8C176.5 223.8 188 231.2 188 231.2H220.1C220.1 231.2 215.5 270.9 249.2 327.8L251.9 327C252 327 264.6 219.6 260.1 214.8Z" fill="#563A44"/>
<path d="M240.8 257.9C240.8 236.5 243.6 217.6 247.8 206.5C234.5 198.5 215.6 188.2 215.6 188.2H177.3L175.5 205.8C176.5 223.8 188 231.2 188 231.2H220.1C220.1 231.2 215.5 270.9 249.2 327.8L251.9 327C251.9 327 252.3 323.6 252.9 318.1C246 311.8 240.8 287.2 240.8 257.9Z" fill="#51333E"/>
<path d="M224.701 212.5C220.201 207.7 177.401 188.2 177.401 188.2L137.301 205.8C138.301 223.8 149.801 231.8 149.801 231.8L181.901 232.4C181.901 232.4 184.501 266.2 198.001 328.5L200.601 328.8C200.601 328.9 229.201 217.3 224.701 212.5Z" fill="#6B4853"/>
<path d="M205.201 222.5C184.701 222.5 168.101 216.3 168.101 208.7C168.101 202.6 178.601 197.5 193.201 195.6C184.501 191.4 177.401 188.2 177.401 188.2L137.301 205.8C138.301 223.8 149.801 231.8 149.801 231.8L181.901 232.4C181.901 232.4 184.501 266.2 198.001 328.5L200.601 328.8C200.601 328.8 221.701 246.7 224.801 220.3C219.101 221.7 212.401 222.5 205.201 222.5Z" fill="#51333E"/>
<path d="M205.9 331.7H192C192 331.7 196.7 325.6 199.3 324.7C201.8 323.7 205.9 331.7 205.9 331.7Z" fill="#EAD6B7"/>
<path d="M267.1 331.7H245.5C245.5 331.7 246.3 325.2 248.4 324.7C252.1 323.8 267.1 331.7 267.1 331.7Z" fill="#EAD6B7"/>
<path d="M138.6 214.7C123.6 190.3 138 115.5 143.5 103.5C149.1 91.5002 163.4 72.2002 176.9 70.5002C190.4 68.8002 219.1 76.8002 224.5 93.2002C228.8 106.3 203.5 149.1 215.5 188.3C198 189.2 172.7 189.6 138.6 214.7Z" fill="#EAD6B7"/>
<path d="M224.601 93.2002C219.201 76.8002 190.501 68.8002 177.001 70.5002C167.301 71.7002 157.101 82.1002 150.101 92.3002C156.801 99.3002 169.701 105.3 185.101 107.6C201.501 110 216.401 107.7 224.601 102.2C225.201 98.4002 225.301 95.4002 224.601 93.2002Z" fill="#DBC09E"/>
<path d="M162.602 133C162.602 106.3 170.702 83 182.802 70.3C180.602 70.2 178.702 70.3 176.902 70.5C163.402 72.2 149.002 91.5 143.502 103.5C137.902 115.5 123.602 190.3 138.602 214.7C154.502 203 168.402 196.7 180.602 193.2C169.802 180 162.602 158 162.602 133Z" fill="#DBC09E"/>
<path d="M149.401 111.3C149.401 101.8 151.601 93 155.301 85.5C150.301 91.5 146.101 98.2 143.601 103.5C138.401 114.8 125.401 181.5 136.301 209.8C136.101 207.7 136.001 205.6 136.001 203.4C136.001 179.6 147.501 159.1 163.801 150.2C163.801 149.9 163.701 149.5 163.701 149.2C154.901 140.2 149.401 126.5 149.401 111.3Z" fill="#CEB191"/>
<path d="M197.4 145C186.9 119.7 189.3 99.5999 189.3 99.5999L174 96.3999C178.7 116.6 185.2 134.4 197.4 145Z" fill="#DBC09E"/>
<path d="M182.002 106.8C186.702 123.4 193.402 138.5 196.702 139.8C199.202 140.8 235.502 135.9 235.502 135.9L241.302 159.7C241.302 159.7 198.302 179.5 182.402 174.8C166.502 170.1 154.802 148.3 150.602 137.4C135.402 97.4001 178.302 93.7001 182.002 106.8Z" fill="#EFDBC2"/>
<path d="M194.4 161.5C178.9 157.1 168.9 136.7 165.3 126.5C159.2 109.2 165 93.8002 172.9 84.5002C164.8 75.3002 136 103.2 149.8 137.7C154.1 148.5 166.6 170.2 182.4 174.9C198.3 179.6 241.3 159.8 241.3 159.8L239.6 152.9C225.2 158 204.1 164.2 194.4 161.5Z" fill="#DBC09E"/>
<path d="M313.899 174.6C311.799 165 308.899 159.8 307.399 159.6C305.899 159.4 293.199 160.2 293.199 160.2L303.199 174.6H313.899Z" fill="#E5DCC1"/>
<path d="M315.6 134.4C309.8 144.6 305.4 169.4 305.4 169.4L250 167.1C250 167.1 253.1 152.5 271.9 142.5C271.9 142.5 297.7 140 302.1 138.5C306.4 137.1 315.6 134.4 315.6 134.4Z" fill="#F9F2D7"/>
<path d="M278.8 153C271.7 148.7 265.7 143.2 264.4 142.1C263.1 141.1 257.9 145.1 259.1 147.8C260.3 150.5 273.5 154.5 276.7 155.7C279.9 157 281.8 154.7 278.8 153Z" fill="#FFA77B"/>
<path d="M235.501 136C245.701 134.3 255.401 134.3 259.901 138.4C264.401 142.5 266.701 143.5 267.301 146.8C267.901 150 258.801 161.6 254.701 161.4C250.601 161.2 245.501 158.8 241.201 159.9C237.001 160.9 229.101 137.1 235.501 136Z" fill="#FFA77B"/>
<path d="M224.699 171.9C229.499 161.9 235.299 156.9 236.599 156.3C237.899 155.7 271.399 159 277.499 158.2C283.499 157.4 294.799 157.4 296.499 157.6C298.199 157.8 305.699 170.5 305.699 170.5V174.7H226.299L224.699 171.9Z" fill="#EFE6C7"/>
<path d="M225.601 170.2C225.301 170.7 225.001 171.3 224.801 171.9L226.301 174.6H305.701V170.4C305.701 170.4 304.601 168.6 303.201 166.3L225.601 170.2Z" fill="#D8CCAF"/>
<path d="M280.602 174.6H305.602V170.4C305.602 170.4 298.102 157.7 296.402 157.5C296.002 157.5 295.102 157.4 293.802 157.4C286.802 158.6 281.302 165.7 280.602 174.6Z" fill="#E5DCC1"/>
<path d="M306.898 173.2C306.898 170.6 306.198 168.5 305.398 168.5C304.598 168.5 303.898 170.6 303.898 173.2C303.898 175.8 304.598 177.9 305.398 177.9C306.198 177.9 306.898 175.8 306.898 173.2Z" fill="#A58E7C"/>
<path d="M283.3 171.7H223.9C223.1 171.7 222.5 172.3 222.5 173.1C222.5 173.9 223.1 174.5 223.9 174.5H283.3C284.1 174.5 284.7 173.9 284.7 173.1C284.7 172.3 284.1 171.7 283.3 171.7Z" fill="#34D678"/>
<path d="M316.8 171.7H279.1C278.5 171.7 278 172.2 278 172.8V173.4C278 174 278.5 174.5 279.1 174.5H316.8C317.4 174.5 317.9 174 317.9 173.4V172.8C317.9 172.2 317.4 171.7 316.8 171.7Z" fill="#2B7789"/>
<path d="M395.501 194.3H254.801C256.101 199.7 262.201 208.3 261.001 213.7H389.201C388.101 208.3 394.201 199.7 395.501 194.3Z" fill="#683421"/>
<path d="M341.401 199.9H393.301C394.201 197.9 395.101 196 395.401 194.4H341.301V199.9H341.401Z" fill="#5E2E1D"/>
<path d="M359.503 194.3H202.703C204.203 199.7 211.003 208.3 209.603 213.7H352.503C351.303 208.3 358.103 199.7 359.503 194.3Z" fill="#7A3E26"/>
<path d="M205.303 200.3H356.903C358.003 198.1 359.003 196.1 359.503 194.3H202.703C203.203 196.1 204.203 198.1 205.303 200.3Z" fill="#5E2E1D"/>
<path d="M244.301 173.9V178L248.701 187.1C248.701 191.8 250.201 195.7 252.001 195.7H398.301C400.101 195.7 401.601 191.9 401.601 187.1L406.001 178V173.9H244.301Z" fill="#7A3E26"/>
<path d="M340.301 184V187.6H401.501C401.501 187.5 401.501 187.3 401.501 187.2L403.101 184H340.301Z" fill="#683421"/>
<path d="M406.001 173.9H344.601V177.8H406.001V173.9Z" fill="#9E5430"/>
<path d="M389.103 209.2H350.603C347.403 209.2 347.403 217.3 350.603 217.3H389.103C392.203 217.3 392.203 209.2 389.103 209.2Z" fill="#7A3E26"/>
<path d="M344.802 326.2C344.802 271.9 347.602 226.1 347.602 226.1C354.702 223.1 354.002 214.5 354.002 214.5H335.402L341.202 331.7H347.702C349.502 327.1 344.802 326.2 344.802 326.2Z" fill="#9E5430"/>
<path d="M352.401 209.2H209.801C206.301 209.2 206.301 217.3 209.801 217.3H352.401C355.901 217.3 355.901 209.2 352.401 209.2Z" fill="#9E5430"/>
<path d="M219.403 326.2C218.003 271.9 213.903 226.1 213.903 226.1C206.703 223.1 207.203 214.5 207.203 214.5H225.803L223.103 331.7H216.603C214.703 327.1 219.403 326.2 219.403 326.2Z" fill="#9E5430"/>
<path d="M207.402 77.1001C195.602 70.0001 183.402 70.7001 183.402 70.7001C183.402 70.7001 182.302 94.7001 207.202 106.3C210.202 97.3001 210.102 85.7001 207.402 77.1001Z" fill="#EA875C"/>
<path d="M184.703 70.4001C194.603 64.4001 206.103 43.6001 206.103 43.6001L225.603 63.5001L209.503 94.6001C195.603 92.4001 187.003 84.7001 184.703 70.4001Z" fill="#EA875C"/>
<path d="M251.001 62.2001C247.401 70.3001 237.901 94.5001 236.601 95.1001C235.301 95.7001 233.201 95.7001 233.201 95.7001C233.201 95.7001 231.301 100 229.601 100.4C227.901 100.8 224.701 100.4 224.701 100.4C224.701 100.4 222.301 101.9 220.001 101.7C217.601 101.5 214.001 98.9001 214.001 98.3001C214.001 97.7001 213.801 95.5001 213.801 95.5001C213.801 95.5001 210.401 94.4001 209.501 93.6001C208.601 92.7001 207.801 90.2001 207.801 90.2001C207.801 90.2001 203.701 89.6001 203.501 88.1001C203.301 86.6001 203.501 84.7001 203.501 84.7001C203.501 84.7001 200.101 83.2001 200.101 81.1001C200.101 79.0001 200.501 77.7001 200.501 77.7001C200.501 77.7001 197.301 76.0001 197.301 73.4001C197.301 70.8001 202.401 64.6001 202.401 64.6001C202.401 64.6001 200.601 61.0001 201.001 58.0001C201.401 55.0001 204.601 50.5001 204.601 50.5001L205.901 42.6001C205.901 42.6001 205.301 30.6001 207.001 28.2001C208.701 25.8001 212.601 26.3001 212.601 26.3001C212.601 26.3001 213.501 18.6001 215.401 17.3001C217.301 16.0001 221.801 18.6001 221.801 18.6001C221.801 18.6001 225.001 13.7001 226.901 13.7001C228.801 13.7001 232.301 14.6001 232.301 14.6001C232.301 14.6001 235.901 13.1001 237.401 13.1001C238.901 13.1001 243.601 17.0001 243.601 17.0001C243.601 17.0001 249.401 15.5001 250.701 16.1001C252.001 16.7001 252.201 20.0001 252.201 20.0001C252.201 20.0001 273.801 23.0001 275.601 35.4001C277.301 47.8001 272.801 57.0001 266.201 56.2001C259.601 55.3001 260.601 50.0001 260.601 50.0001C260.601 50.0001 256.501 49.8001 251.001 62.2001Z" fill="#8C4526"/>
<path d="M210.701 74.3002C210.701 66.1002 216.601 53.6002 218.501 45.8002C218.901 32.4002 225.901 20.6002 236.501 13.2002C234.801 13.6002 232.401 14.6002 232.401 14.6002C232.401 14.6002 229.001 13.7002 227.001 13.7002C225.101 13.7002 221.901 18.6002 221.901 18.6002C221.901 18.6002 217.401 16.0002 215.501 17.3002C213.601 18.6002 212.701 26.3002 212.701 26.3002C212.701 26.3002 208.801 25.9002 207.101 28.2002C205.401 30.6002 206.001 42.6002 206.001 42.6002L204.701 50.5002C204.701 50.5002 201.501 55.0002 201.101 58.0002C200.701 61.0002 202.401 64.4002 202.401 64.4002C202.401 64.4002 197.301 70.6002 197.301 73.2002C197.301 75.8002 200.501 77.5002 200.501 77.5002C200.501 77.5002 200.101 78.8002 200.101 80.9002C200.101 83.0002 203.501 84.5002 203.501 84.5002C203.501 84.5002 203.301 86.4002 203.501 87.9002C203.701 89.4002 207.801 90.0002 207.801 90.0002C207.801 90.0002 208.701 92.6002 209.501 93.4002C210.401 94.3002 213.801 95.3002 213.801 95.3002C213.801 95.3002 214.001 97.4002 214.001 98.1002C214.001 98.7002 217.601 101.3 220.001 101.5C220.901 101.6 221.801 101.4 222.501 101.2C216.601 100.5 210.701 86.2002 210.701 74.3002Z" fill="#75321A"/>
<path d="M221.103 67.1999C222.903 55.1999 228.903 45.9999 231.703 44.2999C234.503 42.5999 253.303 50.4999 254.203 53.0999C255.103 55.6999 246.503 73.7999 244.803 76.9999C243.103 80.1999 236.203 75.4999 234.503 74.9999C231.103 73.8999 220.603 69.9999 221.103 67.1999Z" fill="#FFA77B"/>
<path d="M351.201 69.4001C351.201 69.4001 325.701 53.5001 310.001 44.1001L307.101 46.1001L306.601 49.5001L351.201 69.4001Z" fill="#1EB15D"/>
<path d="M346.101 71.1C346.101 74.8 349.101 77.7 352.701 77.7C356.401 77.7 359.301 74.7 359.301 71.1C359.301 67.4 356.301 64.5 352.701 64.5C349.101 64.4 346.101 67.4 346.101 71.1Z" fill="#34D678"/>
<path d="M349 71.0999C349 73.1999 350.7 74.7999 352.7 74.7999C354.8 74.7999 356.4 73.0999 356.4 71.0999C356.4 68.9999 354.7 67.3999 352.7 67.3999C350.7 67.3999 349 68.9999 349 71.0999Z" fill="#139C4D"/>
<path d="M350.5 71.1003C350.5 72.4003 351.5 73.4003 352.8 73.4003C354.1 73.4003 355.1 72.4003 355.1 71.1003C355.1 69.8003 354.1 68.8003 352.8 68.8003C351.5 68.8003 350.5 69.8003 350.5 71.1003Z" fill="#1EB15D"/>
<path d="M191 173.9V178L195.9 187.1C195.9 191.8 197.5 195.7 199.6 195.7H362.7C364.7 195.7 366.4 191.9 366.4 187.1L371.3 178V173.9H191Z" fill="#9E5430"/>
<path d="M371.3 173.9H191V177.8H371.3V173.9Z" fill="#C66A46"/>
<path d="M222 217.7C222 215.2 220 213.2 217.5 213.2C215 213.2 213 215.2 213 217.7C213 220.2 215 222.2 217.5 222.2C220 222.2 222 220.2 222 217.7Z" fill="#7A3E26"/>
<path d="M348 217.7C348 215.2 346 213.2 343.5 213.2C341 213.2 339 215.2 339 217.7C339 220.2 341 222.2 343.5 222.2C346 222.2 348 220.2 348 217.7Z" fill="#7A3E26"/>
<path d="M194.203 184L195.903 187.2C195.903 187.3 195.903 187.5 195.903 187.6H366.303C366.303 187.5 366.303 187.3 366.303 187.2L368.003 184H194.203Z" fill="#7A3E26"/>
<path d="M263.602 47.3002C263.602 45.0002 264.302 42.8002 265.402 41.2002C262.502 43.1002 260.602 46.3002 260.402 49.9002C260.502 49.9002 260.602 49.9002 260.602 49.9002C260.602 49.9002 259.602 55.3002 266.202 56.1002C266.902 56.2002 267.502 56.2002 268.102 56.0002C265.402 54.6002 263.602 51.2002 263.602 47.3002Z" fill="#75321A"/>
<path d="M243.202 60.8999L239.402 70.1999L247.002 74.4999L254.702 67.0999L243.202 60.8999Z" fill="#EAD6B7"/>
<path d="M243.902 62.5L240.902 69.9L246.902 73.2L252.902 67.4L243.902 62.5Z" fill="#FFA77B"/>
<path d="M241.402 61.3002C241.902 68.4002 240.102 83.1002 239.302 83.6002C238.402 84.1002 233.902 78.9002 233.402 78.3002C231.502 76.2002 232.202 74.2002 233.202 73.7002C234.202 73.2002 236.202 73.6002 236.202 73.6002L240.602 61.2002L241.402 61.3002Z" fill="#EA875C"/>
<path d="M224 62.3003L234.6 67.0003L240.5 59.4003L228.6 52.8003L224 62.3003Z" fill="#EAD6B7"/>
<path d="M243.203 60.9001L236.203 57.1001L236.803 59.5001L243.103 63.0001L243.203 60.9001Z" fill="#EAD6B7"/>
<path d="M229.301 53.3L210.101 41.5L210.701 43.9L229.201 55.4L229.301 53.3Z" fill="#EAD6B7"/>
<path d="M225.801 62.1002L234.101 65.8002L238.701 59.9002L229.401 54.7002L225.801 62.1002Z" fill="#FFA77B"/>
<path d="M215.203 48.3002C215.203 44.1002 213.003 40.7002 210.203 40.7002C207.403 40.7002 205.203 44.1002 205.203 48.3002C205.203 52.5002 207.403 55.9002 210.203 55.9002C213.003 56.0002 215.203 52.6002 215.203 48.3002Z" fill="#EA875C"/>
<path d="M212.801 49.4001C212.801 46.7001 211.501 44.6001 209.801 44.6001C208.201 44.6001 206.801 46.8001 206.801 49.4001C206.801 52.1001 208.101 54.2001 209.801 54.2001C211.501 54.2001 212.801 52.0001 212.801 49.4001Z" fill="#CC4F46"/>
<path d="M209.602 54.6001C210.817 54.6001 211.802 53.4808 211.802 52.1001C211.802 50.7194 210.817 49.6001 209.602 49.6001C208.387 49.6001 207.402 50.7194 207.402 52.1001C207.402 53.4808 208.387 54.6001 209.602 54.6001Z" fill="#EA875C"/>
<path d="M238.302 55.9002C237.102 56.0002 229.702 52.2002 229.302 51.5002C229.002 50.8002 229.402 47.3002 231.102 47.0002C232.902 46.7002 239.702 50.0002 241.002 50.9002C242.402 51.8002 239.202 55.9002 238.302 55.9002Z" fill="#8C4526"/>
<path d="M245.502 58.0002C246.002 59.1002 252.702 63.9002 253.502 63.8002C254.302 63.7002 257.202 61.8002 256.602 60.1002C256.102 58.4002 250.002 53.9002 248.702 53.2002C247.302 52.5002 245.202 57.2002 245.502 58.0002Z" fill="#8C4526"/>
<path d="M226.001 76.2C222.201 74.9 219.401 73.5 218.201 70.8C216.501 67.3 217.201 63.7 217.201 63.5L218.901 64.2C218.901 64.2 217.801 67.2 219.301 70.3C220.401 72.7 222.801 74.5 226.201 75.7L226.001 76.2Z" fill="#75321A"/>
<path d="M233.401 61.7002C234.101 60.5002 234.101 59.2002 233.301 58.8002C232.501 58.4002 231.201 59.0002 230.501 60.2002C229.801 61.4002 229.801 62.7002 230.601 63.1002C231.401 63.5002 232.701 62.9002 233.401 61.7002Z" fill="#4C3731"/>
<path d="M248.001 69.4001C248.701 68.3001 248.701 67.1001 248.001 66.7001C247.301 66.3001 246.201 66.8001 245.501 67.8001C244.801 68.9001 244.801 70.1001 245.501 70.5001C246.301 71.0001 247.301 70.5001 248.001 69.4001Z" fill="#4C3731"/>
</g>
<defs>
<clipPath id="clip0_482_17268">
<rect width="320" height="318.7" fill="white" transform="translate(86 13)"/>
</clipPath>
</defs>
</svg>
