<svg width="483" height="304" viewBox="0 0 483 304" fill="none" xmlns="http://www.w3.org/2000/svg">
<circle cx="230" cy="152" r="137" stroke="#FCF7E7" stroke-width="30"/>
<g clip-path="url(#clip0_977_2)">
<mask id="mask0_977_2" style="mask-type:luminance" maskUnits="userSpaceOnUse" x="3" y="43" width="457" height="241">
<path d="M448.48 43.5221L459.46 261.357L14.6355 283.777L3.65625 65.9419" fill="white"/>
</mask>
<g mask="url(#mask0_977_2)">
<path d="M473.722 119.581L392.178 126.197C385.974 128.747 373.786 129.361 367.21 128.082L366.49 127.939C360.364 126.726 354.686 123.79 350.102 119.546L315.773 87.8916C311.376 83.8171 305.725 81.4168 299.724 80.9137L256.573 77.7184C249.589 77.1754 243.31 81.788 241.508 88.5021L236.581 107.546L230.43 187.246C230.43 187.246 232.04 201.485 245.38 207.794C248.214 209.173 250.311 211.842 250.824 214.949C252.551 224.438 261.868 242.944 308.965 239.496C308.965 239.496 339.373 237.605 351.589 230.456C356.614 227.517 362.124 225.36 367.764 224.002L395.055 216.898C396.376 216.563 397.79 216.313 399.209 216.152L478.6 209.286L473.722 119.581Z" fill="#E49371"/>
<path d="M243.65 102.714C242.493 102.772 241.545 101.657 241.842 100.478C242.291 98.755 242.828 97.0274 243.472 95.6523C245.418 91.7951 248.477 88.7768 252.604 87.4948C256.118 86.4226 259.882 86.77 263.552 87.0325C272.507 87.7447 281.706 87.9971 290.599 89.2494C296.614 90.0203 301.54 93.9787 299.657 99.0858C299.262 100.09 296.006 100.97 294.934 100.935C287.772 100.401 279.76 100.715 271.473 100.864C261.398 100.925 252.07 101.663 243.65 102.714Z" fill="#E49D80"/>
<path d="M257.464 206.916C257.001 206.582 256.538 206.247 255.991 206.006C253.063 204.543 250.544 202.342 249.319 199.272C247.884 195.585 248.834 191.42 251.826 188.852C254.649 186.472 257.242 184.82 255.696 180.691C254.047 176.299 247.886 176.162 244.304 174.105C241.919 172.793 239.854 170.75 238.834 168.205C237.609 165.134 238.229 161.523 240.15 158.92C243.399 154.371 248.978 155.343 252.543 151.762C254.922 149.404 254.808 145.382 253.143 142.423C249.821 136.683 242.178 135.457 238.941 129.624C237.275 126.665 229.665 111.922 261.082 101.746C261.082 101.746 250.455 101.476 237.885 103.363L236.922 107.26L230.766 186.871C230.766 186.871 232.371 201.021 245.533 207.339C248.457 208.713 250.553 211.382 251.16 214.573C255.243 237.191 284.836 240.354 303.167 239.519C305.658 239.394 308.056 239.183 310.449 238.884C299.266 239.984 287.962 238.675 277.257 235.097C273.449 233.857 269.618 232.17 266.716 229.452C261.477 224.615 263.049 218.628 261.221 212.455C260.486 210.255 259.226 208.26 257.464 206.916Z" fill="#C78063"/>
<path d="M285.189 102.232C278.606 102.564 270.403 102.619 261.484 102.621C255.421 102.658 250.158 102.655 248.206 102.843C247.761 102.865 247.48 102.611 247.369 102.169C247.346 101.723 247.6 101.441 248.04 101.33C250.077 101.048 255.073 101.065 261.496 101.099C268.809 101.088 277.906 101.078 285.379 100.701C296.767 100.127 298.755 98.8632 299.083 98.3096C299.332 97.939 299.773 97.8273 300.053 98.0817C300.422 98.3316 300.534 98.7735 300.28 99.0548C299.218 100.988 293.463 101.815 285.189 102.232Z" fill="#724948"/>
<path d="M314.286 238.959C353.28 230.46 349.544 200.575 395.647 191.538C400.944 190.466 471.134 188.629 477.98 188.194L478.592 209.197C469.928 210.708 398.618 215.107 391.747 216.796C353.167 226.438 340.998 238.06 314.286 238.959Z" fill="#C78063"/>
<path d="M272.653 233.986C272.564 233.991 272.386 234 272.292 233.915C272.11 233.835 271.928 233.754 271.563 233.594C268.831 232.478 260.453 229.052 261.139 216.129C261.121 215.772 261.548 215.392 261.908 215.464C262.264 215.446 262.643 215.874 262.572 216.236C261.92 228.083 269.297 231.112 272.029 232.228C272.394 232.388 272.576 232.469 272.848 232.545C273.213 232.705 273.324 233.147 273.164 233.513C273.093 233.875 272.831 233.977 272.653 233.986Z" fill="#724948"/>
<path d="M257.501 207.631C257.323 207.64 257.141 207.559 257.047 207.474C256.585 207.14 256.126 206.894 255.668 206.649C253.287 205.426 250.146 203.258 248.707 199.481C247.17 195.531 248.19 191.005 251.44 188.245C251.867 187.866 252.298 187.576 252.73 187.285C253.508 186.799 254.197 186.316 254.606 185.58C255.259 184.383 255.543 182.937 255.298 181.607C255.191 181.254 255.524 180.79 255.88 180.772C256.231 180.665 256.694 180.999 256.712 181.356C256.976 183.044 256.71 184.847 255.892 186.32C255.319 187.334 254.461 188.004 253.598 188.584C253.256 188.87 252.824 189.16 252.482 189.446C249.748 191.821 248.873 195.714 250.201 199.048C251.529 202.382 254.305 204.391 256.499 205.443C257.046 205.684 257.603 206.104 258.066 206.439C258.346 206.693 258.457 207.135 258.208 207.505C257.853 207.523 257.679 207.622 257.501 207.631Z" fill="#724948"/>
<path d="M246.796 175.77C246.707 175.774 246.618 175.779 246.525 175.694C245.435 175.301 244.612 174.895 243.882 174.574C241.951 173.418 239.356 171.491 238.127 168.33C236.893 165.081 237.415 161.296 239.584 158.322C241.5 155.63 244.133 154.781 246.588 153.941L247.202 153.731C247.553 153.624 247.816 153.522 248.167 153.414C249.483 152.99 250.537 152.668 251.56 151.722C252.752 150.588 253.569 149.114 253.844 147.489C253.915 147.128 254.257 146.842 254.707 146.909C255.067 146.98 255.352 147.324 255.285 147.775C254.94 149.761 254.047 151.507 252.597 152.833C251.406 153.967 250.089 154.391 248.684 154.82C248.421 154.923 248.07 155.03 247.808 155.133L247.194 155.343C244.739 156.183 242.457 156.924 240.879 159.241C239.044 161.75 238.592 165.174 239.621 167.897C240.65 170.62 242.969 172.383 244.713 173.369C245.354 173.694 246.084 174.016 247.085 174.413C247.45 174.573 247.645 174.921 247.49 175.377C247.321 175.564 247.063 175.756 246.796 175.77Z" fill="#724948"/>
<path d="M243.39 111.767C234.89 120.072 238.951 128.102 239.45 129.15C240.234 130.543 242.918 134.256 250.332 138C250.696 138.161 250.808 138.602 250.648 138.969C250.573 139.241 250.31 139.344 250.043 139.357C249.954 139.362 249.776 139.37 249.683 139.286C242.181 135.547 239.225 131.757 238.147 129.843C237.461 128.624 232.794 119.193 243.034 109.995" fill="#724948"/>
<path d="M305.174 240.403C286.402 241.349 272.091 238.758 262.505 232.618C253.934 227.143 250.99 220.042 250.111 214.984C249.611 212.145 247.612 209.65 244.867 208.267C231.433 201.874 229.721 187.371 229.712 187.192C229.708 187.103 229.708 187.103 229.703 187.014L235.859 107.403L235.854 107.314L240.781 88.2699C242.65 81.1049 249.279 76.3851 256.619 76.9102L299.77 80.1055C305.861 80.6041 311.694 83.0847 316.274 87.2396L350.602 118.894C355.093 123.054 360.677 125.905 366.625 127.126L367.346 127.269C373.833 128.553 380.491 127.949 386.606 125.403C386.606 125.403 475.32 117.71 475.334 117.978L479.742 210.75C479.76 211.107 399.657 216.218 392.518 217.921C389.08 218.72 385.642 219.52 382.115 220.324C373.562 222.277 365.254 225.56 357.204 228.651C355.105 229.473 352.917 230.299 350.818 231.121C337.6 236.083 324.279 238.992 308.906 240.125C307.754 240.273 306.419 240.34 305.174 240.403ZM231.229 187.205C231.372 188.272 233.364 201.239 245.609 207.066C248.719 208.61 251.003 211.449 251.619 214.819C252.48 219.519 255.228 226.272 263.336 231.413C273.287 237.714 288.666 240.25 309.012 238.688C324.207 237.564 337.355 234.753 350.483 229.795C352.583 228.973 354.771 228.147 356.87 227.325C364.915 224.145 373.316 220.947 381.954 218.901C385.392 218.101 388.919 217.296 392.357 216.497C399.411 214.888 406.084 214.552 414.593 213.496L477.734 208.076L473.804 119.487L387.212 126.805C380.835 129.453 373.82 130.075 367.062 128.715L366.342 128.573C360.122 127.275 354.266 124.348 349.588 120.019L315.26 88.3647C310.961 84.4642 305.488 82.055 299.669 81.6322L256.518 78.4369C249.894 77.9652 243.869 82.2965 242.231 88.7338L237.389 107.684L231.229 187.205Z" fill="#724948"/>
<path d="M366.176 128.85L372.888 221.326L384.381 217.525L376.945 128.396L366.176 128.85Z" fill="#C78063"/>
<path d="M394.785 234.633L388.487 235.308C384.23 235.791 380.416 232.672 380.022 228.396L368.139 116.489C367.647 112.038 370.473 107.958 374.788 106.845C375.579 106.626 376.465 106.492 377.35 106.358C378.858 106.193 380.192 106.125 381.531 106.147C385.913 106.374 389.473 109.775 389.965 114.225L401.76 226.137C402.149 230.324 399.042 234.15 394.785 234.633Z" fill="#37CBD5"/>
<path d="M377.966 175.245L373.719 168.835L380.021 228.396C380.504 232.668 384.313 235.698 388.486 235.308L394.784 234.633C399.041 234.15 402.059 230.328 401.67 226.141L395.515 167.737L393.739 173.197C391.323 180.121 382.018 181.306 377.966 175.245Z" fill="#73F2FF"/>
<path d="M388.079 236.045C386.033 236.148 383.951 235.537 382.367 234.185C380.6 232.753 379.518 230.748 379.316 228.521L367.428 116.525C366.918 111.717 369.91 107.36 374.571 106.051C375.451 105.827 376.332 105.604 377.222 105.559C378.641 105.398 380.064 105.326 381.492 105.344C386.234 105.642 390.075 109.297 390.58 114.015L402.375 225.927C402.876 230.556 399.52 234.753 394.818 235.258L388.52 235.933C388.346 236.032 388.257 236.036 388.079 236.045ZM379.246 106.8C378.624 106.831 378.001 106.862 377.383 106.983C376.586 107.113 375.701 107.247 374.91 107.466C370.951 108.56 368.373 112.27 368.847 116.364L380.642 228.275C380.825 230.146 381.711 231.801 383.198 232.98C384.684 234.158 386.495 234.693 388.359 234.51L394.657 233.834C398.474 233.463 401.328 229.918 400.867 226.092L389.073 114.181C388.599 110.087 385.412 107.026 381.386 106.781C380.674 106.817 379.958 106.764 379.246 106.8Z" fill="#724948"/>
<path d="M225.141 131.841C224.785 131.859 224.416 131.609 224.398 131.252C224.291 130.9 224.624 130.435 224.98 130.417L228.872 129.774C229.223 129.667 229.686 130.001 229.704 130.358C229.811 130.711 229.478 131.175 229.122 131.193L225.23 131.837C225.137 131.752 225.141 131.841 225.141 131.841Z" fill="#724948"/>
<path d="M5.71861 129.833L59.8442 126.031C74.5144 125.113 88.3853 118.954 98.8375 108.671L134.876 73.3803C140.229 68.0983 147.781 65.7486 155.246 66.9834L199.938 74.2182C206.411 75.2345 211.8 79.5276 214.424 85.5711L235.071 97.0609C237.639 98.4531 239.797 100.582 241.262 103.104C244.197 108.236 246.079 117.271 234.511 128.415C234.511 128.415 247.889 147.879 231.884 163.007C231.884 163.007 246.885 181.046 228.026 192.648C228.026 192.648 237.643 199.413 234.776 209.761C233.79 213.212 231.621 216.185 228.606 218.306L205.506 234.238C199.041 238.681 191.409 241.214 183.571 241.43C168.789 241.907 143.98 241.636 128.639 236.323C124.737 234.998 120.684 234.217 116.49 234.16L11.5686 238.822L5.71861 129.833Z" fill="#FAB983"/>
<path d="M184.451 242.997C184.184 243.01 183.917 243.024 183.561 243.042C169.669 243.473 144.064 243.332 128.358 237.858C124.456 236.533 120.492 235.749 116.475 235.683C116.475 235.683 9.25911 240.818 9.23661 240.371L4.11533 129.914C4.10633 129.735 34.9501 127.644 35.1236 127.545L59.7533 126.035C74.2456 125.126 87.9431 119.065 98.3108 108.876L134.443 73.6705C139.969 68.2903 147.783 65.8379 155.426 67.0637L200.119 74.2985C206.774 75.3951 212.341 79.6792 215.058 85.8075L235.434 97.2215C238.184 98.694 240.347 100.912 241.906 103.519C243.865 107 244.583 110.633 244.06 114.419C243.329 119.378 240.458 124.356 235.448 129.353C236.325 130.83 238.77 135.092 239.947 140.761C241.152 146.966 240.895 156.019 232.91 163.939C234.437 165.921 239.357 173.281 238.062 181.222C237.238 186.097 234.322 190.182 229.32 193.567C231.652 195.598 237.95 201.993 235.539 210.796C234.558 214.336 232.309 217.493 229.121 219.712L206.021 235.644C199.556 240.087 192.102 242.611 184.451 242.997ZM10.4991 238.876L116.492 234.25C120.687 234.307 124.829 235.082 128.824 236.492C144.348 241.885 169.775 242.036 183.489 241.613C191.238 241.402 198.607 238.972 204.984 234.533L228.084 218.601C231.014 216.574 233.099 213.694 233.92 210.52C236.641 200.806 227.572 194.282 227.478 194.197C227.291 194.027 227.193 193.853 227.18 193.585C227.166 193.318 227.335 193.13 227.504 192.943C232.694 189.727 235.703 185.727 236.448 181.035C237.799 172.464 231.238 164.382 231.149 164.386C230.868 164.132 230.935 163.681 231.188 163.4C237.657 157.256 240.046 149.796 238.271 141.114C236.959 134.557 233.687 129.799 233.682 129.71C233.491 129.451 233.557 129 233.815 128.808C244.788 118.231 243.466 109.705 240.429 104.309C239.062 101.961 236.997 99.9174 234.518 98.5207L213.871 87.0309C213.689 86.9506 213.595 86.8658 213.586 86.6872C211.065 80.9071 205.863 76.7836 199.657 75.7538L154.964 68.519C147.771 67.36 140.486 69.6963 135.302 74.7908L99.2635 110.081C88.7223 120.369 74.6779 126.626 59.8298 127.553L6.22901 131.15L10.4991 238.876Z" fill="#724948"/>
<path d="M217.023 110.68C213.376 110.864 208.532 112.092 206.839 115.668C204.982 119.521 207.746 123.051 210.035 125.979C212.229 128.822 214.873 131.732 217.913 133.637C219.292 134.463 220.743 134.927 222.344 134.846C224.924 134.716 226.573 132.037 226.002 129.56L221.811 113.661C221.258 111.54 219.158 110.572 217.023 110.68Z" fill="#FAD5B6"/>
<path d="M222.382 135.56C220.78 135.641 219.152 135.186 217.585 134.191C214.364 132.205 211.711 129.117 209.521 126.363C207.237 123.525 204.183 119.561 206.196 115.253C208.457 110.575 215.027 109.975 216.984 109.876C219.208 109.764 221.847 110.795 222.511 113.357L226.702 129.256C227.045 130.761 226.686 132.479 225.766 133.689C224.93 134.805 223.716 135.493 222.382 135.56ZM216.972 111.399C215.104 111.493 209.339 112.141 207.482 115.994C205.949 119.204 207.975 122.234 210.637 125.501C212.733 128.17 215.293 131.174 218.328 132.99C219.618 133.82 221.064 134.195 222.31 134.132C223.199 134.087 224.071 133.685 224.653 132.85C225.32 131.922 225.617 130.743 225.385 129.681L221.195 113.781C220.749 112.014 218.84 111.304 217.15 111.39C217.061 111.394 216.972 111.399 216.972 111.399Z" fill="#724948"/>
<path d="M181.058 205.755C181.74 208.675 184.01 211.245 186.831 212.356C193.02 214.819 220.226 214.88 222.891 214.656C227.237 214.168 231.643 211.351 232.486 206.833C233.249 202.498 230.671 199.138 226.844 197.54C224.113 196.425 220.981 196.225 218.031 196.105C211.781 195.973 193.108 197.093 190.008 197.518C188.059 197.795 185.377 197.661 183.736 198.729C181.486 200.095 180.482 203.189 181.058 205.755Z" fill="#FFD8A3"/>
<path d="M181.055 172.102L218.224 168.081C222.04 167.709 225.862 169.217 228.417 172.132C231.645 175.997 232.097 181.434 229.551 185.769L229.471 185.952C227.502 189.362 223.953 191.51 220.039 191.708L182.954 193.845C179.129 194.038 175.471 192.253 173.347 189.049L173.249 188.875C171.415 186.103 170.879 182.55 171.967 179.363C173.286 175.447 176.888 172.581 181.055 172.102Z" fill="#FFD8A3"/>
<path d="M223.615 137.02C221.099 140.19 211.111 145.526 200.885 139.061C199.199 139.235 197.135 138.981 195.805 139.138C188.879 139.755 178.745 138.655 176.22 148.717C174.809 154.337 178.567 161.666 185.231 161.151C193.495 160.556 216.866 158.841 220.331 158.577C224.775 158.263 228.947 157.874 231.961 153.963C234.219 150.985 235.062 146.467 233.458 142.968C231.743 139.027 227.787 136.631 223.615 137.02Z" fill="#FFD8A3"/>
<path d="M179.556 200.729C179.512 201.626 179.553 202.43 179.509 203.327C179.46 204.135 179.416 205.032 179.457 205.836C179.408 206.644 179.453 207.537 179.494 208.34C179.534 209.144 179.575 209.947 179.709 210.835C179.718 211.014 179.638 211.197 179.46 211.206C179.371 211.21 179.188 211.13 179.184 211.041C178.699 210.26 178.476 209.376 178.342 208.488C178.208 207.599 178.163 206.707 178.207 205.809C178.251 204.912 178.295 204.015 178.521 203.198C178.654 202.296 178.88 201.479 179.285 200.653C179.365 200.47 179.543 200.461 179.632 200.457C179.454 200.466 179.547 200.551 179.556 200.729Z" fill="#724948"/>
<path d="M170.58 176.568C170.545 177.644 170.506 178.63 170.382 179.711C170.343 180.697 170.308 181.773 170.268 182.76C170.295 183.295 170.229 183.746 170.256 184.282L170.296 185.085C170.31 185.353 170.323 185.621 170.332 185.8C170.382 186.782 170.436 187.853 170.663 188.826C170.672 189.005 170.592 189.188 170.414 189.197C170.236 189.206 170.143 189.121 170.049 189.036C169.555 188.076 169.234 187.018 169.091 185.952C168.948 184.885 168.894 183.813 168.929 182.738C168.964 181.662 169.088 180.582 169.305 179.586C169.518 178.501 169.736 177.506 170.131 176.501C170.211 176.318 170.389 176.309 170.478 176.305C170.567 176.3 170.571 176.39 170.58 176.568Z" fill="#724948"/>
<path d="M174.006 145.427C173.971 146.503 174.02 147.485 173.985 148.561C173.95 149.637 174 150.619 173.96 151.605C173.987 152.141 174.01 152.587 174.037 153.123L174.077 153.927C174.091 154.194 174.104 154.462 174.113 154.641C174.252 155.618 174.301 156.6 174.533 157.663C174.542 157.841 174.462 158.024 174.284 158.033C174.106 158.042 174.013 157.957 173.92 157.873C173.336 156.917 173.015 155.86 172.783 154.797C172.552 153.735 172.498 152.664 172.444 151.592C172.39 150.521 172.513 149.441 172.637 148.36C172.761 147.28 172.979 146.285 173.281 145.195C173.361 145.012 173.534 144.914 173.627 144.999C173.992 145.159 174.09 145.334 174.006 145.427Z" fill="#724948"/>
<path d="M177.592 117.501C177.557 118.576 177.606 119.558 177.571 120.634C177.536 121.71 177.586 122.692 177.546 123.679C177.573 124.214 177.596 124.661 177.623 125.196L177.663 126C177.677 126.268 177.69 126.535 177.699 126.714C177.838 127.692 177.887 128.674 178.119 129.736C178.128 129.914 178.048 130.098 177.87 130.106C177.692 130.115 177.599 130.031 177.505 129.946C176.922 128.991 176.601 127.933 176.369 126.871C176.137 125.808 176.083 124.737 176.029 123.666C175.975 122.594 176.099 121.514 176.223 120.434C176.347 119.353 176.565 118.358 176.867 117.269C176.946 117.086 177.12 116.987 177.213 117.072C177.489 117.237 177.583 117.322 177.592 117.501Z" fill="#724948"/>
<path d="M220.477 108.358L227.963 108.249C231.526 108.159 234.752 110.234 236.08 113.568C236.797 115.412 237.172 117.541 236.484 119.813C235.645 122.63 233.253 124.72 230.433 125.399L225.589 126.627L220.477 108.358Z" fill="#FFD8A3"/>
<g opacity="0.5">
<path d="M151.883 118.886C140.715 113.183 129.076 124.689 121.192 131.083C113.736 137.098 106.747 143.537 100.225 150.399C97.2641 153.591 94.2718 156.159 93.2378 160.418C92.1903 164.409 92.6822 168.859 95.6066 172.023C99.3721 175.95 105.409 177.168 110.672 177.171C121.824 177.235 133.04 173.269 141.697 166.299C150.35 159.24 156.354 149.181 158.394 138.338C159.724 131.111 158.473 122.223 151.883 118.886Z" fill="#FFD8A3"/>
</g>
<g opacity="0.5">
<path d="M101.803 202.948L130.13 195.165C139.893 192.435 150.459 195.035 157.856 202.002C161.417 205.403 165.272 209.326 168.526 213.726C175.119 222.434 167.999 233.354 157.314 233.714C123.654 234.784 110.548 226.046 99.657 215.228C95.5311 211.229 96.2612 204.48 101.803 202.948Z" fill="#FFD8A3"/>
</g>
<g opacity="0.5">
<path d="M157.149 72.884C155.272 72.7996 153.399 72.8045 151.647 73.4299C149.895 74.0552 148.365 75.5643 148.099 77.3678C147.833 79.1713 148.902 80.9075 150.384 81.9964C151.866 83.0852 153.588 83.6249 155.31 84.1647C167.255 87.5903 179.748 89.4667 192.159 89.7362C194.57 89.7937 197.243 89.7485 199.035 88.1366C202.196 85.3817 200.552 81.0789 197.175 79.5485C194.074 78.1833 190.048 77.9387 186.702 77.0332C177.039 74.6562 167.154 73.1853 157.149 72.884Z" fill="#FFD8A3"/>
</g>
<path d="M72.02 125.149L78.9853 123.545L87.4837 235.533L77.862 235.749L72.02 125.149Z" fill="#CF996C"/>
<path d="M74.7018 242.084L68.2963 242.407C64.026 242.622 60.3809 239.315 60.1649 235.03L54.4998 122.63C54.2748 118.167 57.2886 114.256 61.6119 113.322C62.408 113.192 63.2932 113.058 64.1783 112.924C65.6862 112.758 67.0297 112.869 68.3732 112.981C72.7685 113.475 76.0712 117.068 76.2917 121.443L81.9568 233.842C82.1773 238.217 78.9721 241.869 74.7018 242.084Z" fill="#23BD64"/>
<path d="M61.1389 181.816L57.2383 175.21L60.2531 235.025C60.4691 239.311 64.1142 242.618 68.3845 242.402L74.79 242.08C79.0603 241.864 82.3544 238.208 82.1384 233.922L79.1821 175.268L77.0411 180.567C74.2648 187.419 64.848 188.162 61.1389 181.816Z" fill="#34D678"/>
<path d="M74.736 242.798L68.3305 243.121C63.7044 243.354 59.6854 239.708 59.4514 235.066L53.7863 122.666C53.5433 117.845 56.8105 113.653 61.4851 112.612C62.3658 112.389 63.2554 112.344 64.1406 112.21C65.5595 112.049 66.9874 112.066 68.4244 112.262C73.18 112.828 76.7631 116.675 77.0061 121.496L82.6712 233.895C82.9942 238.533 79.3622 242.565 74.736 242.798ZM65.0177 113.687C64.7508 113.7 64.5729 113.709 64.306 113.723C63.5053 113.763 62.6202 113.897 61.8285 114.116C57.8566 114.943 55.0962 118.573 55.3032 122.679L60.9683 235.079C61.1618 238.918 64.4376 241.975 68.352 241.777L74.7575 241.455C78.583 241.262 81.6282 237.976 81.4302 234.048L75.7606 121.559C75.5536 117.452 72.4468 114.208 68.5009 113.78C67.2464 113.664 66.0853 113.633 65.0177 113.687Z" fill="#724948"/>
<path d="M160.242 183.802C160.242 183.802 157.648 176.593 147.19 176.136C147.19 176.136 161.144 168.093 163.927 156.049C163.927 156.049 165.718 161.508 169.541 164.806C170.382 165.569 160.494 165.799 160.242 183.802Z" fill="#CF996C"/>
<path d="M191.752 168.43C185.168 168.762 179.012 168.714 175.043 167.84C170.986 166.971 167.657 164.632 165.333 160.99C162.621 156.741 161.804 151.144 163.06 145.979C164.391 140.541 168.25 135.693 173.213 133.295C173.56 133.098 174.013 133.254 174.209 133.602C174.405 133.95 174.25 134.406 173.903 134.602C169.287 136.804 165.766 141.278 164.501 146.264C163.405 151.063 164.2 156.214 166.631 160.209C168.671 163.507 171.719 165.591 175.416 166.389C185.066 168.499 207.404 165.762 219.369 164.264C220.966 164.094 222.296 163.937 223.537 163.785C223.893 163.767 224.262 164.017 224.374 164.459C224.396 164.905 224.143 165.186 223.702 165.298C222.55 165.446 221.131 165.607 219.535 165.777C212.266 166.68 201.449 167.941 191.752 168.43Z" fill="#724948"/>
<path d="M116.959 186.879C103.97 187.533 93.9196 184.549 93.8306 184.554C93.4658 184.393 93.2698 184.045 93.3408 183.684C93.5007 183.317 93.8476 183.121 94.208 183.192C94.2969 183.188 106.065 186.622 120.352 185.186C133.576 183.893 151.74 177.965 163.65 157.674C163.81 157.308 164.339 157.192 164.62 157.447C164.985 157.607 165.101 158.138 164.847 158.42C159.425 167.643 152.383 174.8 143.792 179.53C136.939 183.366 129.031 185.733 120.424 186.615C119.361 186.758 118.116 186.82 116.959 186.879Z" fill="#724948"/>
<path d="M181.592 198.658C176.521 198.913 172.018 198.066 168.267 196.197C164.423 194.242 161.952 191.234 160.277 186.306C157.452 178.035 161.592 168.16 169.432 164.454C169.779 164.257 170.233 164.413 170.429 164.761C170.625 165.109 170.469 165.565 170.122 165.761C162.896 169.258 159.067 178.222 161.682 185.877C163.251 190.453 165.441 193.206 168.92 195C172.671 196.87 177.258 197.623 182.498 197.18C195.736 196.155 222.674 194.439 223.03 194.421C223.475 194.398 223.76 194.742 223.778 195.099C223.8 195.546 223.458 195.831 223.102 195.849C222.835 195.863 195.897 197.579 182.659 198.604C182.214 198.626 181.947 198.64 181.592 198.658Z" fill="#724948"/>
<path d="M160.1 182.735C159.833 182.749 159.557 182.584 159.459 182.41C156.72 177.625 148.811 176.413 148.722 176.417C148.361 176.346 148.076 176.002 148.143 175.551C148.214 175.19 148.556 174.904 149.005 174.971C149.366 175.042 157.636 176.326 160.762 181.717C160.958 182.066 160.891 182.516 160.456 182.717C160.367 182.722 160.189 182.731 160.1 182.735Z" fill="#724948"/>
<path d="M188.656 222.02C188.656 222.02 191.301 226.72 191.59 234.224C191.59 234.224 206.953 231.122 213.199 224.095L188.656 222.02Z" fill="#CF996C"/>
<path d="M214.039 224.858L213.95 224.862L192.464 223.26C189.87 223.122 187.624 222.788 185.373 222.365C180.239 221.37 173.009 219.497 169.616 214.119C166.508 209.084 166.553 201.116 172.142 196.986C172.484 196.7 172.938 196.856 173.129 197.115C173.414 197.459 173.259 197.914 173.001 198.106C168.101 201.754 168.101 208.825 170.826 213.342C173.15 216.984 178.004 219.514 185.656 220.918C187.819 221.346 190.061 221.591 192.565 221.734L214.052 223.336C214.412 223.407 214.786 223.746 214.715 224.108C214.649 224.559 214.395 224.84 214.039 224.858Z" fill="#724948"/>
<path d="M211.342 227.947C211.253 227.952 211.164 227.956 211.075 227.961C207.547 226.975 205.188 224.409 205.09 224.235C204.809 223.98 204.871 223.44 205.129 223.248C205.383 222.967 205.921 223.029 206.112 223.288C206.112 223.288 208.374 225.68 211.452 226.599C211.813 226.671 212.102 227.103 211.942 227.47C211.951 227.648 211.698 227.929 211.342 227.947Z" fill="#724948"/>
<path d="M191.224 235.764L191.135 235.768C190.775 235.697 190.49 235.353 190.472 234.996C191.016 229.867 188.623 223.096 188.53 223.011C188.423 222.658 188.578 222.203 188.93 222.096C189.281 221.989 189.735 222.145 189.842 222.497C189.944 222.761 192.43 229.617 191.82 235.197C191.922 235.46 191.58 235.746 191.224 235.764Z" fill="#724948"/>
<path d="M219.238 105.019C218.882 105.037 218.508 104.698 218.49 104.341C218.468 103.894 218.721 103.613 219.166 103.59L227.876 102.972C228.231 102.955 228.601 103.204 228.623 103.651C228.646 104.097 228.392 104.378 227.948 104.401L219.238 105.019Z" fill="#724948"/>
<path d="M177.362 102.297L150.832 103.276C150.832 103.276 164.164 118.267 166.556 125.038C166.556 125.038 164.436 113.062 175.836 110.966L177.958 110.591L177.362 102.297Z" fill="#CF996C"/>
<path d="M166.306 125.408C166.039 125.422 165.764 125.257 165.572 124.998C162.076 117.566 155.946 109.193 148.717 102.039C148.437 101.785 148.415 101.339 148.663 100.968C148.917 100.687 149.362 100.664 149.731 100.914C157.053 108.153 163.37 116.696 166.875 124.306C167.071 124.654 166.916 125.109 166.569 125.306C166.48 125.31 166.395 125.404 166.306 125.408Z" fill="#724948"/>
<path d="M214.284 142.95C214.017 142.964 213.661 142.981 213.394 142.995C208.132 142.992 202.695 141.297 198.165 138.124C193.822 135.121 190.225 131.006 186.811 126.971C183.107 122.504 179.581 118.027 177.71 112.751C175.616 106.591 176.457 100.284 179.907 96.1718C180.16 95.8905 180.605 95.8681 180.975 96.118C181.255 96.3724 181.277 96.8188 181.029 97.1893C177.326 101.583 177.645 107.921 179.116 112.322C180.889 117.424 184.317 121.727 187.927 126.109C191.341 130.144 194.746 134 198.912 137.012C203.166 140.02 208.242 141.644 213.234 141.571C213.5 141.558 213.767 141.544 214.034 141.531C220.885 141.185 225.304 136.845 225.457 132.81C225.748 127.962 215.654 95.8022 213.605 90.5352C213.498 90.1826 213.653 89.7273 214.004 89.62C214.356 89.5128 214.81 89.669 214.917 90.0216C216.658 94.4985 227.153 127.533 226.89 132.917C226.861 137.662 222.024 142.56 214.284 142.95Z" fill="#724948"/>
<path d="M190.543 137.344C187.785 137.483 185.632 137.234 183.198 136.73C183.198 136.73 175.355 135.067 175.266 135.071C170.488 134.059 166.722 130.132 165.852 125.253C165.477 123.124 165.181 119.021 167.586 115.409C169.581 112.534 172.787 110.672 177.298 109.908C177.649 109.801 178.112 110.135 178.13 110.492C178.237 110.845 177.903 111.309 177.548 111.327C173.482 112.069 170.534 113.739 168.787 116.244C166.627 119.396 166.901 123.052 167.266 125.002C168.021 129.35 171.408 132.849 175.554 133.714C175.554 133.714 175.643 133.71 183.487 135.373C186.552 136.024 189.239 136.246 193.224 135.688L196.231 135.178C196.587 135.16 197.045 135.405 197.063 135.763C197.081 136.12 196.837 136.58 196.481 136.597L193.474 137.107C192.318 137.165 191.433 137.299 190.543 137.344Z" fill="#724948"/>
</g>
</g>
<defs>
<clipPath id="clip0_977_2">
<rect width="471.667" height="218.112" fill="white" transform="translate(0.453125 66.1035) rotate(-2.88535)"/>
</clipPath>
</defs>
</svg>
