<svg width="53" height="53" viewBox="0 0 53 53" fill="none" xmlns="http://www.w3.org/2000/svg">
<g clip-path="url(#clip0_482_17779)">
<path d="M49.5485 11.6691V11.6039C48.8843 8.47478 46.427 5.93235 43.239 5.15006L26.1701 0.260763H26.1036C25.4395 0.0651906 24.7089 0 24.0448 0C22.3179 0 20.7239 0.521525 19.3292 1.43419C19.3292 1.43419 19.2628 1.43419 19.2628 1.49938L3.52219 12.7774C0.732721 14.6679 -0.5956 17.9926 0.201393 21.2522L4.85052 40.7442C5.51468 43.5474 7.7064 45.8942 10.5623 46.8069L26.5686 52.6089H26.635C27.4984 52.8696 28.3618 53 29.2916 53C31.0848 53 32.8781 52.4133 34.3392 51.3702L34.4057 51.305L49.8142 38.7884C52.2716 36.8979 53.4671 33.7688 52.8693 30.77L49.5485 11.6691ZM42.442 27.5105C42.3756 27.1193 42.1763 26.7282 41.9771 26.4674C41.8442 26.337 41.7114 26.2066 41.645 26.1414C41.5786 26.0763 41.5122 26.0763 41.3793 26.0111C41.3129 26.0111 41.2465 25.9459 41.1137 25.9459C40.4495 25.8155 39.8518 26.0763 39.4533 26.337C39.0548 26.5326 38.8555 26.7282 38.8555 26.7282C38.8555 26.7282 38.9219 26.663 38.9884 26.5978C39.0548 26.5326 39.1876 26.337 39.3204 26.2066C39.4533 26.0763 39.7189 25.8807 39.9846 25.6851C40.2503 25.5547 40.6488 25.3592 41.1137 25.4244C41.2465 25.4244 41.3129 25.4244 41.4458 25.4895C41.645 25.5547 41.645 25.5547 41.7778 25.6199C42.0435 25.7503 42.2427 25.8807 42.442 26.0763C42.8405 26.4674 43.1062 26.9237 43.239 27.4453C43.5711 28.4883 43.4382 29.5966 43.1726 30.6396C43.1062 30.9656 43.0397 31.0959 42.9069 31.4219C42.7741 31.6827 42.6412 31.9434 42.5084 32.139C42.2427 32.5953 41.8442 32.9865 41.5122 33.3776C41.1137 33.7036 40.6488 34.0295 40.1838 34.1599C39.7189 34.2903 39.1876 34.2903 38.7227 34.0947C38.3242 33.8991 37.9921 33.6384 37.8593 33.3124C37.66 33.0517 37.5936 32.7257 37.5272 32.5301C37.4608 32.3346 37.4608 32.139 37.4608 32.0086C37.4608 31.8782 37.4608 31.813 37.4608 31.813C37.4608 31.813 37.5272 32.0738 37.7265 32.4649C37.9257 32.8561 38.3242 33.3776 38.9884 33.508C39.254 33.5732 39.6525 33.508 39.9846 33.3776C40.3167 33.2472 40.6488 32.9865 40.9808 32.6605C41.3129 32.3346 41.5122 32.0086 41.7778 31.5523C41.9107 31.3567 41.9771 31.1611 42.1099 30.9656C42.1763 30.77 42.3092 30.5092 42.3756 30.3137C42.5084 29.3358 42.5748 28.3579 42.442 27.5105ZM27.2991 50.5879L11.2929 44.786C9.16756 44.1341 7.50716 42.3739 7.04224 40.2878L2.39312 20.7958C1.79538 18.3838 2.79162 15.9065 4.85052 14.5375L20.5247 3.19434C21.5209 2.47724 22.7828 2.15129 23.9783 2.15129C24.5097 2.15129 25.041 2.21648 25.5059 2.34686C25.5059 2.34686 28.229 2.86839 32.3468 3.84625C34.4057 4.30258 36.7302 4.95449 39.3204 5.6064C40.5823 5.93235 41.9107 6.2583 43.239 6.64945C44.7001 7.10578 46.0285 8.01845 46.9583 9.25707C47.4232 9.90898 47.7553 10.5609 47.9545 11.3432C48.0209 11.5387 48.0209 11.6039 48.0874 11.9299L48.1538 12.4514C48.2202 12.7774 48.2866 13.1033 48.353 13.4293C48.5523 14.7331 48.7515 16.1021 48.9508 17.3407C49.3493 19.8831 49.6813 22.2952 49.947 24.3161C50.4783 28.4231 50.6776 31.1611 50.6776 31.1611C50.6776 31.1611 49.947 28.4883 49.0836 24.4465C48.6187 22.4256 48.1538 20.0787 47.6889 17.5363C47.4232 16.2977 47.1575 14.9938 46.9583 13.6248C46.8919 13.2989 46.8255 12.9729 46.759 12.647L46.6926 12.1255C46.6926 12.0603 46.6262 11.7995 46.5598 11.6691C46.3605 11.1476 46.0949 10.5609 45.7628 10.0394C45.4307 9.58302 45.0322 9.19188 44.6337 8.86593L29.2916 19.818C25.9044 22.23 23.1813 22.0344 21.5874 21.7737L3.38936 18.3186L20.5911 24.3813C22.2515 24.968 25.1074 26.0763 25.838 29.3358C25.838 29.401 25.838 29.4662 25.9044 29.5314L30.4207 50.7835C30.0222 50.8487 29.6901 50.8487 29.2916 50.8487C28.6275 50.8487 27.9633 50.7835 27.2991 50.5879Z" fill="url(#paint0_linear_482_17779)"/>
<path d="M24.3077 15.9722C22.3152 16.3634 20.8541 17.5368 21.0533 18.5146C21.2526 19.4925 23.0458 20.014 25.0383 19.5577C27.0308 19.1666 28.4919 17.9931 28.2927 17.0153C28.0934 16.0374 26.3002 15.5811 24.3077 15.9722Z" fill="url(#paint1_linear_482_17779)"/>
<path d="M24.3781 13.755C26.3706 13.3638 27.8318 12.1904 27.6325 11.2125C27.4333 10.2347 25.64 9.71316 23.6476 10.1695C21.6551 10.5606 20.1939 11.7341 20.3932 12.7119C20.5924 13.6898 22.3857 14.1461 24.3781 13.755Z" fill="url(#paint2_linear_482_17779)"/>
<path d="M23.7102 7.88828C25.7027 7.49714 27.1638 6.3237 26.9646 5.34584C26.7653 4.36798 24.9721 3.84646 22.9796 4.30279C20.9871 4.69394 19.526 5.86737 19.7252 6.84523C19.9245 7.82309 21.7177 8.34461 23.7102 7.88828Z" fill="url(#paint3_linear_482_17779)"/>
<path d="M8.50689 24.2509C7.44423 22.6863 5.85024 21.904 5.05325 22.4256C4.25626 22.9471 4.52192 24.642 5.58458 26.2066C6.64724 27.7712 8.24122 28.5535 9.03821 28.0319C9.83521 27.5104 9.56954 25.8155 8.50689 24.2509Z" fill="url(#paint4_linear_482_17779)"/>
<path d="M21.0538 28.2275C19.9911 26.6629 18.3971 25.8806 17.6001 26.4021C16.8031 26.9236 17.0688 28.6186 18.1315 30.1832C19.1941 31.7477 20.7881 32.53 21.5851 32.0085C22.3821 31.487 22.1828 29.792 21.0538 28.2275Z" fill="url(#paint5_linear_482_17779)"/>
<path d="M13.2837 31.8781C12.4867 32.3996 12.7524 34.0946 13.815 35.6591C14.8777 37.2237 16.4717 38.006 17.2687 37.4845C18.0657 36.963 17.8 35.268 16.7374 33.7034C15.6083 32.1388 14.0807 31.2914 13.2837 31.8781Z" fill="url(#paint6_linear_482_17779)"/>
<path d="M8.83059 37.0933C8.0336 37.6149 8.29927 39.3098 9.36192 40.8744C10.4246 42.439 12.0186 43.2213 12.8156 42.6997C13.6125 42.1782 13.3469 40.4833 12.2842 38.9187C11.1552 37.4193 9.62759 36.5718 8.83059 37.0933Z" fill="url(#paint7_linear_482_17779)"/>
<path d="M21.7212 41.527C20.9242 42.0485 21.1899 43.7435 22.2525 45.3081C23.3152 46.8726 24.9092 47.6549 25.7062 47.1334C26.5032 46.6119 26.2375 44.9169 25.1749 43.3523C24.0458 41.7878 22.5182 40.9403 21.7212 41.527Z" fill="url(#paint8_linear_482_17779)"/>
</g>
<defs>
<linearGradient id="paint0_linear_482_17779" x1="26.497" y1="0" x2="26.497" y2="53" gradientUnits="userSpaceOnUse">
<stop stop-color="#25A375"/>
<stop offset="1" stop-color="#37CBD5"/>
</linearGradient>
<linearGradient id="paint1_linear_482_17779" x1="24.673" y1="15.8325" x2="24.673" y2="19.7248" gradientUnits="userSpaceOnUse">
<stop stop-color="#25A375"/>
<stop offset="1" stop-color="#37CBD5"/>
</linearGradient>
<linearGradient id="paint2_linear_482_17779" x1="24.0129" y1="10.0024" x2="24.0129" y2="13.8947" gradientUnits="userSpaceOnUse">
<stop stop-color="#25A375"/>
<stop offset="1" stop-color="#37CBD5"/>
</linearGradient>
<linearGradient id="paint3_linear_482_17779" x1="23.3449" y1="4.13574" x2="23.3449" y2="8.05533" gradientUnits="userSpaceOnUse">
<stop stop-color="#25A375"/>
<stop offset="1" stop-color="#37CBD5"/>
</linearGradient>
<linearGradient id="paint4_linear_482_17779" x1="7.04573" y1="22.2646" x2="7.04573" y2="28.1928" gradientUnits="userSpaceOnUse">
<stop stop-color="#25A375"/>
<stop offset="1" stop-color="#37CBD5"/>
</linearGradient>
<linearGradient id="paint5_linear_482_17779" x1="19.6022" y1="26.2412" x2="19.6022" y2="32.1694" gradientUnits="userSpaceOnUse">
<stop stop-color="#25A375"/>
<stop offset="1" stop-color="#37CBD5"/>
</linearGradient>
<linearGradient id="paint6_linear_482_17779" x1="15.2762" y1="31.6914" x2="15.2762" y2="37.6454" gradientUnits="userSpaceOnUse">
<stop stop-color="#25A375"/>
<stop offset="1" stop-color="#37CBD5"/>
</linearGradient>
<linearGradient id="paint7_linear_482_17779" x1="10.8231" y1="36.939" x2="10.8231" y2="42.8606" gradientUnits="userSpaceOnUse">
<stop stop-color="#25A375"/>
<stop offset="1" stop-color="#37CBD5"/>
</linearGradient>
<linearGradient id="paint8_linear_482_17779" x1="23.7137" y1="41.3403" x2="23.7137" y2="47.2943" gradientUnits="userSpaceOnUse">
<stop stop-color="#25A375"/>
<stop offset="1" stop-color="#37CBD5"/>
</linearGradient>
<clipPath id="clip0_482_17779">
<rect width="53" height="53" fill="white"/>
</clipPath>
</defs>
</svg>
