<svg width="491" height="345" viewBox="0 0 491 345" fill="none" xmlns="http://www.w3.org/2000/svg">
<circle cx="380.5" cy="110.5" r="95.5" stroke="#FCF7E7" stroke-width="30"/>
<circle cx="152.382" cy="191.647" r="127.382" stroke="#EFF9F3" stroke-width="50"/>
<g clip-path="url(#clip0_482_18375)">
<path d="M151.508 221.56C151.508 221.56 156.231 277.06 151.786 294.543C151.23 296.763 154.564 303.978 160.676 295.93C163.733 292.045 167.066 227.943 167.066 227.943L151.508 221.56Z" fill="#C7C7E2"/>
<path d="M285.418 144.137C285.418 144.137 290.141 199.637 285.696 217.12C285.141 219.34 288.474 226.555 294.587 218.507C297.643 214.622 300.977 150.52 300.977 150.52L285.418 144.137Z" fill="#C7C7E2"/>
<path d="M216.516 259.022C216.516 259.022 221.239 314.522 216.794 332.005C216.238 334.225 219.572 341.44 225.684 333.392C228.74 329.507 232.074 265.405 232.074 265.405L216.516 259.022Z" fill="#C7C7E2"/>
<path d="M350.43 181.6C350.43 181.6 355.153 239.32 358.209 253.195C360.154 261.797 373.212 259.855 368.767 250.975C363.766 240.43 365.988 188.26 365.988 188.26L350.43 181.6Z" fill="#C7C7E2"/>
<path d="M399.605 118.607C395.994 116.387 389.048 118.607 381.825 130.262C369.323 150.242 354.598 200.47 354.598 200.47L281.53 158.29C281.53 158.29 272.084 93.9099 284.587 73.9299C291.532 62.2749 298.478 60.3324 302.089 62.2749L399.605 118.607Z" fill="#DFDFEF"/>
<path d="M399.604 118.607C402.382 120.272 403.493 124.157 401.826 128.042C398.214 136.922 392.102 130.262 387.935 143.027C382.101 161.065 373.488 186.317 367.098 192.977C360.708 199.637 354.596 200.192 354.596 200.192C354.596 200.192 369.321 150.242 381.823 129.985C389.046 118.607 395.992 116.387 399.604 118.607Z" fill="#AAAACC"/>
<path d="M170.4 227.942L156.787 142.195C154.842 129.985 146.23 116.942 136.506 111.115L262.082 38.9648C272.084 44.7923 280.418 57.5573 282.363 70.0448L295.977 155.792L170.4 227.942Z" fill="#EDEDFC"/>
<path d="M170.401 227.943L156.787 142.195C154.843 129.985 146.23 116.943 136.506 111.115L245.969 48.1226C255.97 53.9501 264.305 66.7151 266.25 79.2026L279.863 164.95L170.401 227.943Z" fill="#EDEDFC"/>
<path d="M170.398 227.942L156.785 142.195C154.84 129.985 146.228 116.942 136.504 111.115L170.398 227.942Z" fill="#EDEDFC"/>
<path d="M170.398 227.942L136.504 208.24V111.115C146.506 116.942 154.84 129.707 156.785 142.195L170.398 227.942Z" fill="#D6D6EA"/>
<path d="M240.412 267.625C241.245 267.07 241.801 266.237 241.801 264.572V249.865C241.801 246.812 239.856 243.205 237.078 241.817L235.411 240.707C237.911 242.095 240.134 245.702 240.134 248.755V263.462C240.134 264.85 239.578 265.96 238.745 266.515L240.412 267.625Z" fill="#C7C7E2"/>
<path d="M171.789 205.742L288.197 138.587C289.031 138.032 290.142 138.31 291.531 138.865L289.864 137.755C288.475 136.922 287.364 136.922 286.53 137.477L170.122 204.632L171.789 205.742Z" fill="#C7C7E2"/>
<path d="M240.41 267.625L356.818 200.47C357.651 199.915 358.207 199.082 358.207 197.417V182.71C358.207 179.657 356.262 176.05 353.484 174.662L291.529 138.865C290.14 138.032 289.029 138.032 288.195 138.587L171.787 205.742C172.621 205.187 173.732 205.465 175.121 206.02L237.076 241.817C239.576 243.205 241.799 246.812 241.799 249.865V264.572C241.799 266.237 241.243 267.07 240.41 267.625Z" fill="#AAAACC"/>
<path d="M133.172 219.062C126.782 215.455 119.003 200.747 113.724 190.202C113.169 189.092 112.613 188.26 111.779 187.982L110.113 186.872C110.668 187.15 111.502 187.982 112.057 189.092C117.336 199.637 125.393 214.345 131.505 217.952L133.172 219.062Z" fill="#C7C7E2"/>
<path d="M133.172 219.062L228.188 274.007C221.798 270.4 214.018 255.692 208.74 245.147C208.184 244.037 207.629 243.205 206.795 242.927L111.779 188.26C112.335 188.537 113.169 189.37 113.724 190.48C119.003 201.025 126.782 215.455 133.172 219.062Z" fill="#C7C7E2"/>
<path d="M240.412 267.624C239.578 268.179 238.467 267.902 237.078 267.347L175.123 231.549C172.623 230.162 170.4 226.554 170.4 223.502V208.794C170.4 207.407 170.956 206.297 171.789 205.742C172.623 205.187 173.734 205.464 175.123 206.019L237.078 241.817C239.578 243.204 241.801 246.812 241.801 249.864V264.572C241.801 266.237 241.245 267.069 240.412 267.624Z" fill="#C7C7E2"/>
<path d="M358.207 175.495V190.202C358.207 191.59 357.651 192.7 356.818 193.255L240.41 260.41C241.243 259.855 241.799 259.022 241.799 257.357V242.65C241.799 239.597 239.854 235.99 237.076 234.602L175.121 198.805C173.732 197.972 172.621 197.972 171.787 198.527L288.195 131.372C289.029 130.817 290.14 131.095 291.529 131.65L353.762 167.447C355.984 168.557 357.651 171.332 358.207 173.83C358.207 174.662 358.207 174.94 358.207 175.495Z" fill="#C7C7E2"/>
<path d="M241.801 242.65V257.357C241.801 258.745 241.245 259.855 240.412 260.41C239.578 260.965 238.467 260.965 237.078 260.132L175.123 224.335C172.623 222.947 170.4 219.34 170.4 216.287V201.58C170.4 200.192 170.956 199.082 171.789 198.527C172.623 197.972 173.734 197.972 175.123 198.805L237.078 234.602C239.856 236.267 241.801 239.875 241.801 242.65Z" fill="#D6D6EA"/>
<path d="M358.207 175.495C358.207 175.217 358.207 174.662 357.929 174.107C358.207 174.662 358.207 174.94 358.207 175.495Z" fill="#0A8EC8"/>
<path d="M358.207 175.495V190.202C358.207 191.59 357.651 192.7 356.818 193.255L240.41 260.41C239.576 260.965 238.465 260.965 237.076 260.132L175.121 224.335C172.621 222.947 170.398 219.34 170.398 216.287V208.517C175.677 212.125 220.407 242.65 241.799 243.482C243.744 243.482 245.411 243.482 247.078 242.927C266.525 237.1 358.207 179.102 358.207 175.495Z" fill="#D6D6EA"/>
<path d="M215.406 225.445C215.128 225.445 214.851 225.167 214.851 225.167C202.349 219.617 190.958 240.985 194.847 246.257C195.125 246.535 195.403 246.812 195.681 247.09L100.665 192.422C100.387 192.145 100.109 191.867 99.8316 191.59C95.9421 186.317 107.333 164.95 119.835 170.5C120.113 170.5 120.391 170.777 120.391 170.777L215.406 225.445Z" fill="#DFDFEF"/>
<path d="M215.407 225.445C227.909 232.66 242.078 267.07 242.078 267.07C242.078 267.07 235.966 273.452 229.576 274.285C229.02 274.285 228.743 274.285 228.187 274.007C221.797 270.4 214.018 255.692 208.739 245.147C208.184 244.037 207.628 243.205 206.795 242.927C203.183 240.985 198.738 248.755 195.682 246.812C195.404 246.535 195.126 246.257 194.848 245.98C190.959 240.707 202.349 219.34 214.851 224.89C214.851 225.167 215.129 225.167 215.407 225.445Z" fill="#AAAACC"/>
<path d="M322.372 91.9672L324.039 93.9097C324.039 93.9097 304.591 104.455 284.588 96.1297C276.253 92.5222 254.028 57.2797 261.251 49.5097C268.752 41.7397 274.031 45.3472 275.976 49.5097C277.92 53.6722 288.478 75.8722 288.478 75.8722C288.478 75.8722 298.757 78.3697 304.591 81.1447C309.87 83.6422 320.427 84.1972 320.427 84.1972L322.372 91.9672Z" fill="#21B15E"/>
<path d="M320.148 91.4121C316.259 88.9146 317.926 85.8621 318.204 82.8096C318.204 79.7571 317.37 79.7571 318.204 76.7046C319.037 73.6521 317.648 71.4321 319.593 73.0971C321.538 74.7621 320.982 79.4796 321.538 80.8671L321.815 82.2546C321.815 82.2546 325.705 75.3171 326.816 74.2071C327.928 72.8196 329.872 72.8196 331.539 70.5996C333.206 68.6571 334.873 67.5471 334.595 69.4896C334.317 71.4321 332.373 73.3746 332.373 73.3746C332.373 73.3746 333.484 72.8196 334.595 72.8196C335.984 72.8196 335.707 74.2071 336.54 74.7621C337.374 75.3171 335.707 76.1496 335.707 76.1496C335.707 76.1496 336.818 77.8146 336.262 78.3696C335.707 78.9246 334.873 78.9246 334.873 78.9246C334.873 78.9246 335.984 80.5896 335.429 81.1446C334.873 81.6996 332.373 83.9196 332.373 84.4746C332.373 85.0296 330.428 92.5221 326.538 93.9096C322.649 94.4646 321.538 92.5221 320.148 91.4121Z" fill="#FEA593"/>
<path d="M285.419 126.1C285.419 126.1 306.533 135.535 324.314 146.635C342.095 157.458 364.321 171.61 364.321 182.988C364.321 194.365 374.045 255.693 390.158 264.018C406.272 272.343 411.551 272.343 413.773 273.175C415.996 274.008 415.718 281.5 401.827 280.945C388.214 280.113 391.547 278.17 382.657 278.448C373.489 278.725 371.544 277.615 371.544 272.343C371.544 267.348 371.822 257.913 370.989 255.693C370.155 253.473 353.763 229.608 350.152 215.733C346.54 201.858 346.818 189.093 346.818 189.093C346.818 189.093 312.368 174.94 295.421 168.835C278.473 162.73 272.361 156.348 271.805 148.578C271.25 141.085 285.419 126.1 285.419 126.1Z" fill="#2DCB70"/>
<path d="M271.805 148.855C272.361 156.625 278.473 163.285 295.42 169.112C312.367 175.217 341.261 197.972 341.261 197.972C341.261 197.972 339.594 202.967 343.206 216.565C346.817 230.44 354.041 257.912 356.263 258.745C358.486 259.577 360.709 260.132 362.653 260.41C375.989 262.907 381.545 255.97 382.379 254.86C372.933 233.492 364.598 191.035 364.598 182.71C364.598 171.332 342.372 157.18 324.592 146.357C306.811 135.535 285.696 125.822 285.696 125.822C285.696 125.822 279.306 132.482 275.417 139.142C273.194 143.027 271.805 146.357 271.805 148.855Z" fill="#EF7F4D"/>
<path d="M271.808 148.855C272.364 156.625 278.476 163.285 295.423 169.113C312.37 175.218 341.264 197.973 341.264 197.973C341.264 197.973 339.597 202.968 343.209 216.565C346.82 230.44 354.044 257.913 356.266 258.745C358.489 259.578 360.711 260.133 362.656 260.41C354.044 238.21 346.542 200.47 346.542 192.423C346.542 181.045 324.317 166.893 306.536 156.07C295.423 149.133 282.921 143.028 275.142 139.143C273.197 143.028 271.808 146.358 271.808 148.855Z" fill="#E26E40"/>
<path d="M273.751 46.7349C273.751 46.7349 279.029 35.3574 279.307 31.1949C279.585 25.6449 275.418 18.1524 267.916 12.3249C260.137 6.77493 249.302 -2.10507 237.078 9.54993C225.132 20.9274 233.189 28.4199 234.022 37.2999C234.578 46.1799 249.58 49.5099 250.414 51.7299C251.247 54.2274 252.358 65.3274 252.358 65.3274L273.751 46.7349Z" fill="#5B231D"/>
<path d="M286.811 151.907C286.811 151.907 347.932 186.04 354.322 197.972C360.712 209.905 402.108 245.98 409.887 248.755C417.666 251.53 432.113 254.305 433.224 255.137C434.335 255.97 433.78 262.075 425.167 265.405C416.555 268.735 410.442 265.127 405.719 265.405C400.996 265.682 400.163 260.965 397.94 257.635C395.718 254.305 390.161 249.31 390.161 249.31C390.161 249.31 362.101 239.042 350.71 231.55C339.32 224.057 337.097 213.512 336.819 213.512C336.541 213.512 320.15 201.302 295.146 196.307C270.141 191.59 265.141 189.37 255.972 177.715C247.082 166.06 245.971 132.76 245.971 132.76L282.366 135.812L286.811 151.907Z" fill="#2DCB70"/>
<path d="M245.97 133.315C245.97 133.315 246.248 143.582 248.193 154.682C249.582 163.562 252.082 172.997 255.972 178.27C264.862 189.925 270.141 192.145 295.145 196.862C320.149 201.58 331.817 216.842 334.318 222.115C343.208 240.985 383.215 260.41 385.16 262.352C385.715 261.797 386.549 260.687 387.66 259.577C391.55 255.137 397.939 247.367 398.495 245.147C398.773 244.037 399.051 242.927 399.051 241.817C383.77 230.162 358.766 207.407 354.043 198.25C347.653 186.04 286.532 152.185 286.532 152.185L282.365 136.645L245.97 133.315Z" fill="#EF7F4D"/>
<path d="M248.193 154.683C249.582 163.563 252.082 172.998 255.972 178.27C264.862 189.925 270.141 192.145 295.145 196.863C320.149 201.58 331.818 216.843 334.318 222.115C343.208 240.985 383.215 260.41 385.16 262.353C385.715 261.798 386.549 260.688 387.66 259.578C372.38 247.368 350.432 227.11 345.987 218.508C339.597 206.298 278.475 172.443 278.475 172.443L274.308 156.903L248.193 154.683Z" fill="#E26E40"/>
<path d="M265.139 50.8974C265.139 50.8974 267.361 51.1749 271.807 58.9449C276.252 66.9924 290.699 80.5899 290.699 88.9149C290.421 97.5174 287.365 100.015 287.365 103.345C287.365 106.675 290.699 120.55 292.365 123.047C294.032 125.545 300.145 137.477 300.145 137.477C300.145 137.477 297.366 151.907 279.03 156.07C260.694 159.955 248.192 153.295 248.192 153.295C248.192 153.295 242.913 135.257 243.191 126.1C243.469 116.942 230.689 106.397 229.855 87.2499C228.744 68.1024 248.469 53.6724 254.859 50.8974C261.527 48.1224 266.806 50.8974 266.806 50.8974H265.139Z" fill="white"/>
<path d="M251.525 49.5098C251.525 49.5098 260.138 48.3998 267.361 58.3898C274.307 68.1023 285.975 91.4123 285.975 91.4123C285.975 91.4123 287.92 122.77 294.31 132.205C300.978 141.64 303.478 143.582 303.478 143.582C303.478 143.582 305.978 130.817 299.866 122.77C293.754 114.722 294.31 87.2498 290.976 81.1448C287.642 75.0398 272.362 49.2323 265.694 45.3473C259.304 41.4623 251.525 49.5098 251.525 49.5098Z" fill="#2DCB70"/>
<path d="M250.416 48.955C250.416 48.955 250.416 43.96 259.862 45.625C269.585 47.5675 277.365 61.165 277.642 61.9974C277.92 63.1075 276.809 67.825 276.809 67.825C276.809 67.825 281.81 67.825 282.088 68.1025C282.365 68.6575 285.699 91.135 285.699 91.135C285.699 91.135 270.975 67.27 265.696 61.4425C260.695 55.8925 250.416 48.955 250.416 48.955Z" fill="#21B15E"/>
<path d="M264.861 45.625C264.861 45.625 263.472 57.0025 264.861 61.4425C266.25 65.8825 267.083 69.2125 261.805 69.2125C256.526 69.2125 244.858 66.16 244.024 61.72C242.913 57.28 246.247 46.4575 245.691 43.96C245.135 41.185 264.861 45.625 264.861 45.625Z" fill="#FEA593"/>
<path d="M271.252 24.2575C271.252 24.2575 272.919 27.5875 271.53 30.085C270.141 32.86 272.086 32.5825 272.086 37.0225C272.086 41.4625 271.252 45.3475 270.975 48.955C270.975 52.84 265.974 54.7825 264.863 55.3375C263.751 55.8925 252.083 52.84 249.86 52.0075C247.36 51.175 245.415 43.96 245.415 43.96C245.415 43.96 242.637 44.2375 240.414 40.63C237.914 37.0225 237.358 30.3625 240.136 31.195C242.914 32.0275 245.693 34.525 245.693 34.525C245.693 34.525 250.971 31.4725 252.36 26.755C253.75 22.315 254.305 19.54 254.305 19.54C254.305 19.54 261.251 23.425 263.473 23.98C265.418 24.535 271.252 24.2575 271.252 24.2575Z" fill="#FFBBB0"/>
<path d="M302.364 143.582L317.922 102.79L316.255 101.68L300.697 142.472L302.364 143.582Z" fill="#21B15E"/>
<path d="M317.924 102.79L348.484 85.0298L346.817 84.1973L316.257 101.68L317.924 102.79Z" fill="#34D678"/>
<path d="M302.366 143.582L332.926 125.822L348.484 85.0298L317.924 102.79L302.366 143.582Z" fill="#21AC5C"/>
<path d="M243.746 56.1699C243.746 56.1699 241.246 65.8824 251.247 71.4324C261.249 76.9824 280.419 95.8524 280.974 101.68C281.53 107.785 291.254 159.955 291.254 159.955C291.254 159.955 266.25 175.495 254.859 169.39C243.468 163.285 233.467 157.457 233.467 157.457L238.745 118.885C238.745 118.885 225.965 96.1299 229.577 81.1449C233.189 65.8824 243.746 56.1699 243.746 56.1699Z" fill="#2DCB70"/>
<path d="M326.539 128.598L326.261 128.875C326.261 128.598 326.261 128.598 326.539 128.598Z" fill="#5B231D"/>
<path d="M325.427 123.603C326.26 123.603 326.816 123.603 327.094 123.603C326.816 123.88 326.26 123.603 325.427 123.603Z" fill="#5B231D"/>
<path d="M231.799 94.1872C233.466 102.512 247.635 129.985 257.359 134.425C267.083 138.865 300.422 131.372 303.478 131.65C306.256 131.927 315.424 132.205 320.147 131.095C322.925 130.262 325.148 129.707 326.259 128.875C326.537 128.597 326.537 128.597 326.815 128.597C327.37 128.042 328.204 127.487 328.204 127.487C328.204 127.487 328.76 127.487 329.593 126.932C330.149 126.377 329.037 126.1 329.037 126.1C329.037 126.1 330.427 125.822 330.982 124.712C331.26 123.602 328.204 124.435 327.648 124.157C327.093 124.157 326.537 124.157 325.704 123.88L321.258 123.602C321.258 123.602 322.37 122.77 323.759 121.66C325.148 120.827 329.037 119.717 330.149 118.885C331.26 117.775 329.871 116.665 325.981 117.775C322.092 118.885 317.647 121.66 317.091 121.937C316.535 122.215 310.423 123.325 310.423 123.325C310.423 123.325 311.257 119.717 311.535 119.717C311.535 119.44 312.368 118.052 315.146 116.11C317.924 114.167 315.146 113.057 315.146 113.057C315.146 113.057 311.257 114.722 305.7 118.33C300.144 121.937 302.089 123.325 302.089 123.325L265.416 121.105C265.416 121.105 252.914 102.235 250.969 95.0197C249.024 87.8047 243.19 73.9297 236.8 74.2072C229.854 74.4847 230.132 85.5847 231.799 94.1872Z" fill="#FEA593"/>
<path d="M244.579 52.2852C244.579 52.2852 240.412 65.8827 251.525 71.7102C270.972 81.7002 280.141 99.4602 280.141 99.4602C280.141 99.4602 261.526 93.0777 262.082 92.8002C262.36 92.5227 261.526 87.5277 261.249 87.2502C260.971 87.2502 255.692 88.6377 255.692 88.6377C255.692 88.6377 240.134 77.5377 238.745 66.4377C237.078 55.6152 244.579 52.2852 244.579 52.2852Z" fill="#21B15E"/>
<path d="M234.578 74.2075C234.578 74.2075 239.857 69.2125 247.913 85.03C255.97 100.847 264.583 121.105 264.583 121.105L299.033 123.047C299.033 123.047 302.367 128.042 300.422 133.037C298.477 138.032 295.421 137.755 295.421 137.755C295.421 137.755 267.083 142.472 255.693 136.367C244.024 130.262 232.078 105.287 230.688 99.1825C229.577 93.355 226.799 78.37 234.578 74.2075Z" fill="#21B15E"/>
<path d="M407.94 247.922C407.94 247.922 409.607 248.477 408.496 250.975C407.662 252.362 405.162 254.582 405.995 255.692C406.829 256.525 411.552 257.357 409.607 257.635C407.662 258.19 402.106 259.577 399.883 258.467C397.938 257.357 397.383 256.802 397.383 256.802C397.383 256.802 399.605 262.907 400.995 264.572C402.384 266.515 404.606 267.347 404.884 267.625C405.44 267.902 404.051 268.18 407.384 267.902C410.718 267.902 410.441 267.07 410.441 267.07C410.441 267.07 425.443 267.902 429.333 265.405C432.944 262.907 437.667 257.08 435.723 255.137C433.778 253.195 423.776 252.64 418.497 251.252C412.941 249.587 407.94 247.922 407.94 247.922Z" fill="#21B15E"/>
<path d="M389.881 262.352C389.881 262.352 387.937 260.41 386.27 264.295C384.603 268.18 387.937 269.29 386.27 270.122C384.603 270.955 378.213 271.232 375.435 269.567C372.934 267.902 371.267 265.127 371.267 265.127C371.267 265.127 367.656 270.4 371.267 276.505C372.656 278.725 374.045 280.112 374.045 280.112L384.603 280.667L386.548 279.28C386.548 279.28 396.827 282.055 404.884 281.222C412.941 280.112 415.719 276.505 414.886 273.73C414.33 271.232 410.718 272.62 400.994 268.735C393.493 265.682 389.881 262.352 389.881 262.352Z" fill="#21B15E"/>
</g>
<defs>
<clipPath id="clip0_482_18375">
<rect width="337" height="333" fill="white" transform="matrix(-1 0 0 1 436 4)"/>
</clipPath>
</defs>
</svg>
