<svg width="12" height="10" viewBox="0 0 12 10" fill="none" xmlns="http://www.w3.org/2000/svg">
<path d="M3.9998 6.88789L9.8998 0.98789C10.0831 0.804557 10.3165 0.712891 10.5998 0.712891C10.8831 0.712891 11.1165 0.804557 11.2998 0.98789C11.4831 1.17122 11.5748 1.40456 11.5748 1.68789C11.5748 1.97122 11.4831 2.20456 11.2998 2.38789L4.6998 8.98789C4.4998 9.18789 4.26647 9.28789 3.9998 9.28789C3.73314 9.28789 3.4998 9.18789 3.2998 8.98789L0.699804 6.38789C0.516471 6.20456 0.424805 5.97122 0.424805 5.68789C0.424805 5.40456 0.516471 5.17122 0.699804 4.98789C0.883138 4.80456 1.11647 4.71289 1.3998 4.71289C1.68314 4.71289 1.91647 4.80456 2.0998 4.98789L3.9998 6.88789Z" fill="#34A5AC"/>
</svg>
