<svg width="305" height="456" viewBox="0 0 305 456" fill="none" xmlns="http://www.w3.org/2000/svg">
<circle cx="152.382" cy="209.647" r="127.382" stroke="#FFF2FA" stroke-width="50"/>
<g clip-path="url(#clip0_482_8704)">
<path d="M184.181 207.688L169.611 219.85L138.276 251.368C138.276 251.368 127.387 260.999 124.387 263.006C119.066 266.586 109.817 273.069 104.188 281.712C97.2894 292.27 90.2985 304 85.2254 318.972C75.5433 335.95 55.4985 326.38 46.3423 317.798C42.2282 313.94 38.6399 306.902 36.3818 299.339C33.6597 290.078 32.9482 280.107 35.8559 274.304C37.9903 270.044 39.97 266.494 41.9498 263.345C41.9498 263.345 41.9498 263.345 41.9498 263.314C44.6719 258.931 47.3322 255.381 50.3018 251.8C50.4564 251.615 50.5802 251.461 50.7039 251.306L82.8126 232.075L119.561 210.065L184.181 207.688Z" fill="#FFBD94"/>
<path d="M214.063 152.031C210.754 153.945 203.608 156.044 203.608 156.044C203.608 156.044 211.249 161.632 213.878 165.799C215.363 168.176 215.394 171.541 213.878 173.917C212.733 175.739 210.692 177.004 207.753 176.943C207.753 176.943 209.64 178.61 211.372 180.925C213.94 184.32 216.167 189.136 211.589 191.945C211.682 192.038 212.733 192.933 213.569 194.199C215.084 196.575 215.827 200.249 208.434 202.749C197.081 206.577 185.543 202.749 185.543 202.749L190.802 138.727C190.802 138.727 211.094 140.98 214.063 142.4C216.012 143.295 216.816 146.29 216.229 148.79C215.95 150.179 215.239 151.352 214.063 152.031Z" fill="#FFBD94"/>
<path d="M120.459 204.292C120.459 204.292 118.727 225.839 116.159 233.68C113.561 241.521 121.851 226.148 124.821 223.184C127.79 220.221 125.13 245.503 126.831 245.657C128.532 245.781 131.564 220.777 132.275 219.727C132.987 218.678 139.266 226.889 140.132 228.803C140.999 230.717 140.535 219.542 142.112 219.171C143.69 218.832 146.659 219.82 149.784 216.331C152.599 213.152 162.157 214.541 168.746 214.418C172.087 214.356 177.84 212.998 177.84 212.998L126.491 204.292H120.459Z" fill="#FFA080"/>
<path d="M216.259 148.851C215.95 150.178 215.238 151.382 214.094 152.031C210.784 153.944 203.638 156.044 203.638 156.044C203.638 156.044 198.875 155.334 198.689 154.809C198.503 154.284 197.111 147.308 197.111 147.308C201.256 149.746 210.567 152.617 216.259 148.851Z" fill="#FFA080"/>
<path d="M213.876 173.948C212.732 175.769 210.69 177.065 207.751 176.973L201.255 175.399L195.873 170.182C196.461 170.521 207.566 177.467 213.876 173.948Z" fill="#FFA080"/>
<path d="M211.402 180.955C208.742 178.856 200.607 177.93 199.4 177.93L201.287 175.399L207.783 176.973C207.783 176.973 209.67 178.64 211.402 180.955Z" fill="#FFA080"/>
<path d="M213.599 194.229C209.887 194.445 203.391 195.279 199.401 198.335C193.555 202.78 196.957 188.117 196.957 188.117C196.957 188.117 203.082 194.322 211.65 191.945C211.743 192.068 212.795 192.964 213.599 194.229Z" fill="#FFA080"/>
<path d="M192.07 212.998H126.151C121.263 212.998 117.613 209.571 117.613 204.694V52.6015C117.613 45.6559 123.243 40.0377 130.203 40.0377H188.667C191.482 40.0377 190.152 38.4634 192.688 39.1116C202.185 41.5812 201.257 48.465 201.257 52.6015L201.288 202.718C201.288 208.306 196.957 212.998 192.07 212.998Z" fill="#431D73"/>
<path d="M190.955 211.331H125.005C120.118 211.331 116.158 207.379 116.158 202.502V50.4095C116.158 43.4639 121.788 37.8457 128.748 37.8457H187.212C194.172 37.8457 199.802 43.4639 199.802 50.4095V202.502C199.802 207.379 195.842 211.331 190.955 211.331Z" fill="#190B2B"/>
<path d="M195.905 50.4092H120.459V204.292H195.905V50.4092Z" fill="white"/>
<path d="M167.445 88.1359C167.445 88.4428 167.38 88.7183 167.251 88.9624C167.122 89.2064 166.942 89.3969 166.713 89.5337C166.48 89.6705 166.217 89.7389 165.925 89.7389C165.633 89.7389 165.372 89.6705 165.143 89.5337C164.914 89.3969 164.735 89.2083 164.605 88.9679C164.476 88.7239 164.411 88.4465 164.411 88.1359C164.411 87.8438 164.47 87.5887 164.589 87.3705C164.707 87.1486 164.877 86.9822 165.099 86.8713L165.409 87.4038C165.273 87.4888 165.171 87.5961 165.104 87.7255C165.034 87.8512 164.999 87.9899 164.999 88.1415C164.999 88.4003 165.084 88.6148 165.254 88.7849C165.421 88.955 165.644 89.04 165.925 89.04C166.206 89.04 166.432 88.9568 166.602 88.7904C166.768 88.6203 166.852 88.404 166.852 88.1415C166.852 87.9899 166.818 87.8512 166.752 87.7255C166.681 87.5961 166.578 87.4888 166.441 87.4038L166.752 86.8713C166.974 86.9859 167.146 87.1542 167.268 87.376C167.386 87.5942 167.445 87.8475 167.445 88.1359ZM164.444 83.4199L167.406 83.4199L167.406 84.0799L167.024 84.0799C167.164 84.1946 167.269 84.3369 167.34 84.507C167.41 84.6734 167.445 84.8583 167.445 85.0617C167.445 85.3501 167.382 85.609 167.256 85.8382C167.131 86.0638 166.953 86.2413 166.724 86.3707C166.495 86.4965 166.228 86.5593 165.925 86.5593C165.622 86.5593 165.358 86.4965 165.132 86.3707C164.903 86.2413 164.725 86.0638 164.6 85.8382C164.474 85.609 164.411 85.3501 164.411 85.0617C164.411 84.8694 164.444 84.6938 164.511 84.5348C164.577 84.3721 164.675 84.2316 164.805 84.1132L164.444 84.1132L164.444 83.4199ZM166.852 84.9841C166.852 84.7289 166.767 84.5181 166.596 84.3517C166.426 84.1853 166.203 84.1021 165.925 84.1021C165.648 84.1021 165.424 84.1853 165.254 84.3517C165.084 84.5181 164.999 84.7289 164.999 84.9841C164.999 85.2392 165.084 85.45 165.254 85.6164C165.424 85.7791 165.648 85.8604 165.925 85.8604C166.203 85.8604 166.426 85.7791 166.596 85.6164C166.767 85.45 166.852 85.2392 166.852 84.9841ZM167.445 81.5975C167.445 81.8379 167.414 82.0727 167.351 82.302C167.288 82.5312 167.208 82.7143 167.112 82.8511L166.585 82.5848C166.674 82.4517 166.746 82.2927 166.802 82.1078C166.853 81.9192 166.879 81.7343 166.879 81.5532C166.879 81.139 166.77 80.9319 166.552 80.9319C166.449 80.9319 166.376 80.9855 166.336 81.0928C166.295 81.1963 166.256 81.3646 166.219 81.5975C166.182 81.8416 166.14 82.0413 166.092 82.1966C166.044 82.3482 165.96 82.4813 165.842 82.5959C165.72 82.7069 165.552 82.7623 165.337 82.7623C165.056 82.7623 164.833 82.6459 164.666 82.4129C164.496 82.1762 164.411 81.8582 164.411 81.4589C164.411 81.2555 164.435 81.0521 164.483 80.8487C164.528 80.6453 164.589 80.4789 164.666 80.3495L165.193 80.6158C165.045 80.8672 164.971 81.1501 164.971 81.4644C164.971 81.6678 165.003 81.8231 165.066 81.9303C165.125 82.0339 165.204 82.0856 165.304 82.0856C165.415 82.0856 165.494 82.0302 165.543 81.9192C165.587 81.8046 165.629 81.629 165.67 81.3923C165.707 81.1556 165.75 80.9615 165.798 80.8099C165.846 80.6583 165.927 80.5289 166.042 80.4216C166.156 80.3107 166.319 80.2552 166.53 80.2552C166.807 80.2552 167.029 80.3754 167.195 80.6158C167.362 80.8561 167.445 81.1834 167.445 81.5975ZM164.444 79.6581L164.444 78.9648L167.406 78.9648L167.406 79.6581L164.444 79.6581ZM163.956 79.3087C163.956 79.4344 163.917 79.5398 163.84 79.6248C163.758 79.7099 163.659 79.7524 163.54 79.7524C163.422 79.7524 163.324 79.7099 163.246 79.6248C163.165 79.5398 163.124 79.4344 163.124 79.3087C163.124 79.183 163.163 79.0776 163.241 78.9925C163.315 78.9075 163.409 78.8649 163.524 78.8649C163.646 78.8649 163.749 78.9075 163.834 78.9925C163.916 79.0739 163.956 79.1793 163.956 79.3087ZM164.411 76.3741C164.411 76.0007 164.52 75.7011 164.738 75.4756C164.956 75.25 165.28 75.1372 165.709 75.1372L167.406 75.1372L167.406 75.8306L165.798 75.8306C165.539 75.8306 165.345 75.8916 165.215 76.0136C165.082 76.1356 165.016 76.3094 165.016 76.535C165.016 76.7901 165.093 76.9917 165.249 77.1396C165.4 77.2875 165.62 77.3614 165.909 77.3614L167.406 77.3614L167.406 78.0548L164.444 78.0548L164.444 77.3947L164.827 77.3947C164.69 77.2801 164.587 77.1359 164.516 76.9621C164.446 76.7883 164.411 76.5923 164.411 76.3741ZM167.445 72.8994C167.445 73.1989 167.38 73.4688 167.251 73.7092C167.122 73.9496 166.942 74.1381 166.713 74.275C166.48 74.4081 166.217 74.4746 165.925 74.4746C165.633 74.4746 165.372 74.4081 165.143 74.275C164.914 74.1381 164.735 73.9496 164.605 73.7092C164.476 73.4688 164.411 73.1989 164.411 72.8994C164.411 72.5962 164.476 72.3244 164.605 72.084C164.735 71.8437 164.914 71.6569 165.143 71.5238C165.372 71.387 165.633 71.3186 165.925 71.3186C166.217 71.3186 166.48 71.387 166.713 71.5238C166.942 71.6569 167.122 71.8437 167.251 72.084C167.38 72.3244 167.445 72.5962 167.445 72.8994ZM166.852 72.8994C166.852 72.6442 166.767 72.4335 166.596 72.267C166.426 72.1006 166.203 72.0174 165.925 72.0174C165.648 72.0174 165.424 72.1006 165.254 72.267C165.084 72.4335 164.999 72.6442 164.999 72.8994C164.999 73.1545 165.084 73.3653 165.254 73.5317C165.424 73.6944 165.648 73.7758 165.925 73.7758C166.203 73.7758 166.426 73.6944 166.596 73.5317C166.767 73.3653 166.852 73.1545 166.852 72.8994Z" fill="#53B9B1"/>
<path d="M160.249 167.203C160.369 166.999 160.47 166.78 160.554 166.544C160.637 166.308 160.678 166.073 160.678 165.837C160.678 165.305 160.517 164.947 160.193 164.762C159.87 164.573 159.389 164.478 158.751 164.478L152.615 164.478C152.587 164.335 152.569 164.175 152.559 163.999C152.55 163.819 152.546 163.667 152.546 163.542C152.546 163.412 152.55 163.264 152.559 163.098C152.569 162.927 152.587 162.768 152.615 162.62L158.543 162.62C159.07 162.62 159.558 162.661 160.006 162.744C160.454 162.823 160.845 162.973 161.178 163.195C161.506 163.412 161.762 163.72 161.947 164.117C162.132 164.51 162.225 165.021 162.225 165.65C162.225 166.01 162.176 166.391 162.079 166.794C161.977 167.191 161.827 167.547 161.628 167.861C161.388 167.82 161.145 167.743 160.9 167.633C160.651 167.517 160.433 167.374 160.249 167.203ZM154.556 161.333L154.48 161.263L154.48 159.537L155.95 159.537C156.079 159.537 156.199 159.535 156.31 159.53C156.417 159.525 156.544 159.523 156.692 159.523L159.902 159.523C160.045 159.523 160.172 159.525 160.283 159.53C160.39 159.535 160.507 159.537 160.637 159.537L162.107 159.537L162.107 160.272C162.107 160.6 162.012 160.859 161.822 161.048C161.628 161.238 161.369 161.333 161.046 161.333L154.556 161.333ZM157.517 156.722C157.628 156.685 157.753 156.659 157.891 156.646C158.025 156.632 158.139 156.625 158.231 156.625C158.337 156.625 158.46 156.632 158.598 156.646C158.732 156.659 158.855 156.685 158.966 156.722L158.966 158.691C158.966 158.793 158.966 158.936 158.966 159.121C158.966 159.306 158.966 159.493 158.966 159.682C158.961 159.872 158.957 160.031 158.952 160.161L157.545 160.161C157.54 160.031 157.535 159.872 157.531 159.682C157.526 159.493 157.524 159.306 157.524 159.121C157.519 158.936 157.517 158.793 157.517 158.691L157.517 156.722ZM154.48 155.994C154.614 155.971 154.741 155.957 154.861 155.952C154.982 155.948 155.095 155.945 155.201 155.945C155.307 155.945 155.428 155.957 155.562 155.98C155.696 155.999 155.832 156.033 155.971 156.084L155.971 158.691C155.971 158.793 155.971 158.936 155.971 159.121C155.966 159.306 155.961 159.493 155.957 159.682C155.952 159.872 155.948 160.031 155.943 160.161L154.48 160.161L154.48 155.994ZM160.609 155.758C161.168 155.758 161.559 155.846 161.781 156.022C161.998 156.193 162.107 156.486 162.107 156.902L162.107 160.14L160.678 160.14C160.669 159.923 160.66 159.74 160.651 159.592C160.637 159.44 160.628 159.292 160.623 159.149C160.614 159.005 160.609 158.834 160.609 158.636L160.609 155.758ZM159.299 148.5C160.246 148.5 160.981 148.785 161.504 149.353C162.021 149.917 162.28 150.726 162.28 151.78C162.28 152.829 162.021 153.638 161.504 154.207C160.981 154.775 160.246 155.059 159.299 155.059L154.494 155.059L154.411 154.976L154.411 154.304C154.411 153.943 154.501 153.673 154.681 153.492C154.861 153.312 155.162 153.222 155.582 153.222L159.299 153.222C159.779 153.222 160.154 153.109 160.422 152.882C160.69 152.651 160.824 152.284 160.824 151.78C160.824 151.267 160.69 150.899 160.422 150.678C160.154 150.456 159.779 150.345 159.299 150.345L154.48 150.345C154.452 150.192 154.434 150.035 154.425 149.873C154.415 149.711 154.411 149.568 154.411 149.443C154.411 149.328 154.418 149.178 154.431 148.993C154.441 148.808 154.459 148.644 154.487 148.5L159.299 148.5ZM154.764 148.064C154.612 147.833 154.51 147.605 154.459 147.378C154.408 147.147 154.383 146.957 154.383 146.809C154.383 146.555 154.441 146.345 154.556 146.179C154.672 146.012 154.854 145.841 155.104 145.665L161.795 141.103C161.957 141.325 162.063 141.556 162.114 141.797C162.165 142.037 162.19 142.229 162.19 142.372C162.19 142.622 162.132 142.834 162.017 143.01C161.896 143.186 161.712 143.359 161.462 143.53L154.764 148.064ZM154.48 143.183C154.448 143.059 154.429 142.931 154.425 142.802C154.415 142.668 154.411 142.529 154.411 142.386C154.411 142.257 154.42 142.106 154.438 141.935C154.457 141.76 154.489 141.598 154.535 141.45L154.633 141.422L158.418 143.953L159.112 144.625L162.086 146.553C162.109 146.659 162.128 146.786 162.141 146.934C162.155 147.082 162.162 147.223 162.162 147.357C162.162 147.727 162.116 148.041 162.024 148.3L161.926 148.363L157.76 145.596L157.052 144.889L154.48 143.183Z" fill="black"/>
<path d="M153.349 112.468C153.622 112.496 153.885 112.6 154.139 112.78C154.389 112.956 154.576 113.136 154.701 113.321C154.465 113.659 154.274 114.035 154.126 114.451C153.978 114.867 153.904 115.281 153.904 115.693C153.904 116.173 154.019 116.598 154.25 116.968C154.482 117.338 154.851 117.627 155.36 117.835C155.864 118.043 156.529 118.147 157.357 118.147C158.508 118.147 159.356 117.934 159.901 117.509C160.442 117.079 160.712 116.453 160.712 115.63C160.712 115.159 160.664 114.729 160.567 114.34C160.47 113.952 160.382 113.643 160.303 113.411L161.621 112.448C161.718 112.72 161.812 113.042 161.905 113.411C161.993 113.781 162.064 114.183 162.12 114.618C162.175 115.048 162.203 115.491 162.203 115.949C162.203 116.679 162.083 117.306 161.842 117.828C161.602 118.346 161.262 118.769 160.823 119.097C160.384 119.425 159.869 119.668 159.277 119.825C158.685 119.982 158.038 120.061 157.336 120.061C156.476 120.061 155.732 119.943 155.103 119.707C154.475 119.467 153.957 119.143 153.55 118.736C153.143 118.325 152.841 117.865 152.642 117.357C152.443 116.843 152.344 116.317 152.344 115.776C152.344 115.166 152.436 114.574 152.621 114.001C152.806 113.423 153.049 112.912 153.349 112.468ZM159.312 114.202C158.988 114.202 158.665 114.193 158.341 114.174C158.018 114.156 157.724 114.109 157.461 114.035L157.994 112.448L161.621 112.448L161.648 114.202L159.312 114.202ZM156.823 113.71C156.823 113.238 156.929 112.91 157.142 112.725C157.354 112.54 157.639 112.448 157.994 112.448L158.39 112.448L158.39 115.103C158.39 115.283 158.367 115.443 158.32 115.582C158.274 115.716 158.196 115.82 158.085 115.894C157.969 115.968 157.807 116.005 157.599 116.005C157.474 116.005 157.343 115.991 157.204 115.963C157.061 115.935 156.934 115.903 156.823 115.866L156.823 113.71Z" fill="black"/>
<path d="M156.677 105.407C157.024 105.407 157.333 105.485 157.606 105.642C157.879 105.795 158.108 105.994 158.293 106.239C158.477 106.479 158.598 106.731 158.653 106.994C158.741 106.754 158.868 106.557 159.034 106.405C159.196 106.252 159.404 106.121 159.658 106.01L160.643 105.573C160.833 105.49 161.006 105.397 161.163 105.296C161.32 105.194 161.452 105.085 161.558 104.97C161.706 105.085 161.838 105.256 161.953 105.483C162.064 105.709 162.12 105.95 162.12 106.204C162.12 106.481 162.053 106.701 161.919 106.863C161.78 107.024 161.565 107.168 161.274 107.292L159.804 107.937C159.559 108.044 159.395 108.175 159.312 108.332C159.224 108.485 159.18 108.702 159.18 108.984L159.18 110.336L157.793 110.336C157.793 110.151 157.791 109.941 157.786 109.705C157.782 109.469 157.777 109.245 157.773 109.033C157.768 108.82 157.766 108.658 157.766 108.547C157.766 108.219 157.715 107.965 157.613 107.785C157.511 107.6 157.38 107.473 157.218 107.403C157.056 107.329 156.89 107.292 156.719 107.292C156.543 107.292 156.377 107.329 156.22 107.403C156.062 107.477 155.938 107.6 155.845 107.771C155.748 107.942 155.7 108.175 155.7 108.471C155.7 108.651 155.697 108.829 155.693 109.005C155.688 109.176 155.686 109.352 155.686 109.532L162.009 109.532C162.037 109.684 162.055 109.844 162.064 110.01C162.074 110.172 162.078 110.315 162.078 110.44C162.078 110.556 162.074 110.701 162.064 110.877C162.055 111.053 162.037 111.212 162.009 111.355L154.472 111.355L154.396 111.286C154.382 110.759 154.371 110.262 154.361 109.795C154.352 109.329 154.347 108.859 154.347 108.388C154.347 107.829 154.424 107.322 154.576 106.869C154.729 106.416 154.978 106.061 155.325 105.802C155.667 105.538 156.118 105.407 156.677 105.407Z" fill="black"/>
<path d="M154.403 102.634C154.375 102.449 154.357 102.259 154.347 102.065C154.338 101.867 154.334 101.691 154.334 101.538C154.334 101.395 154.338 101.236 154.347 101.06C154.357 100.884 154.375 100.702 154.403 100.512L161.919 97.836C161.988 97.97 162.039 98.141 162.071 98.349C162.104 98.5524 162.12 98.7257 162.12 98.869C162.12 99.0955 162.076 99.3035 161.988 99.493C161.9 99.6779 161.678 99.8258 161.322 99.9368L158.168 100.991C157.946 101.055 157.699 101.127 157.426 101.206C157.153 101.28 156.88 101.353 156.608 101.427C156.335 101.497 156.083 101.561 155.852 101.622L155.852 101.698C156.18 101.79 156.55 101.894 156.961 102.01C157.373 102.121 157.731 102.225 158.036 102.322L162.016 103.66C162.039 103.776 162.057 103.9 162.071 104.034C162.085 104.168 162.092 104.305 162.092 104.443C162.092 104.601 162.081 104.758 162.057 104.915C162.034 105.072 162.002 105.199 161.96 105.296L161.863 105.366L154.403 102.634ZM160.504 102.578C160.504 102.634 160.504 102.706 160.504 102.793C160.5 102.877 160.497 102.962 160.497 103.05C160.493 103.138 160.49 103.209 160.49 103.265L160.49 104.069L159.048 103.494L159.048 102.793C159.048 102.742 159.048 102.678 159.048 102.599C159.044 102.516 159.041 102.435 159.041 102.357C159.037 102.273 159.034 102.206 159.034 102.155L159.034 101.143C159.034 101.088 159.037 101.025 159.041 100.956C159.041 100.882 159.044 100.81 159.048 100.741C159.048 100.667 159.048 100.602 159.048 100.547L159.048 99.805L160.49 99.285L160.49 100.117C160.49 100.173 160.493 100.242 160.497 100.325C160.497 100.408 160.5 100.491 160.504 100.575C160.504 100.658 160.504 100.725 160.504 100.776L160.504 102.578Z" fill="black"/>
<path d="M155.901 99.0347C155.762 99.0624 155.632 99.0809 155.512 99.0902C155.388 99.0994 155.272 99.104 155.166 99.104C155.064 99.104 154.946 99.0994 154.812 99.0902C154.673 99.0809 154.537 99.0624 154.403 99.0347L154.403 89.0407C154.509 89.013 154.629 88.9922 154.764 88.9783C154.893 88.9598 155.002 88.9506 155.089 88.9506C155.353 88.9506 155.554 89.0222 155.693 89.1655C155.831 89.3042 155.901 89.5445 155.901 89.8866L155.901 90.3858C155.901 90.4782 155.898 90.603 155.894 90.7602C155.889 90.9174 155.887 94.9995 155.887 95.0827L155.887 96.8992C155.887 96.9917 155.889 97.1211 155.894 97.2875C155.898 97.4493 155.901 97.5764 155.901 97.6688L155.901 99.0347ZM156.726 96.9131C156.578 96.9131 156.441 96.9108 156.317 96.9061C156.187 96.9015 156.044 96.8992 155.887 96.8992L155.166 96.8992L155.166 95.0827L155.887 95.0827C156.044 95.0827 156.187 95.0804 156.317 95.0757C156.441 95.0711 156.578 95.0688 156.726 95.0688L162.009 95.0688C162.032 95.1844 162.048 95.3346 162.057 95.5195C162.071 95.7044 162.078 95.8615 162.078 95.9909C162.078 96.1157 162.071 96.2683 162.057 96.4485C162.048 96.6288 162.032 96.7837 162.009 96.9131L156.726 96.9131Z" fill="black"/>
<path d="M159.222 82.2522C160.169 82.2522 160.904 82.5365 161.426 83.105C161.944 83.6689 162.203 84.4778 162.203 85.5317C162.203 86.5809 161.944 87.3898 161.426 87.9584C160.904 88.5269 160.169 88.8112 159.222 88.8112L154.417 88.8112L154.334 88.728L154.334 88.0554C154.334 87.6949 154.424 87.4245 154.604 87.2442C154.784 87.064 155.085 86.9738 155.505 86.9738L159.222 86.9738C159.702 86.9738 160.077 86.8606 160.345 86.6341C160.613 86.403 160.747 86.0355 160.747 85.5317C160.747 85.0186 160.613 84.6512 160.345 84.4293C160.077 84.2074 159.702 84.0965 159.222 84.0965L154.403 84.0965C154.375 83.9439 154.357 83.7868 154.347 83.625C154.338 83.4632 154.334 83.3199 154.334 83.1951C154.334 83.0796 154.341 82.9294 154.354 82.7445C154.364 82.5596 154.382 82.3955 154.41 82.2522L159.222 82.2522Z" fill="black"/>
<path d="M154.403 80.9802C154.375 80.8369 154.357 80.6751 154.347 80.4948C154.338 80.3099 154.334 80.1597 154.334 80.0442C154.334 79.9194 154.338 79.7761 154.347 79.6143C154.357 79.4479 154.375 79.2884 154.403 79.1359L162.009 79.1359C162.037 79.2884 162.055 79.4479 162.064 79.6143C162.074 79.7761 162.078 79.9194 162.078 80.0442C162.078 80.1597 162.074 80.3099 162.064 80.4948C162.055 80.6751 162.037 80.8369 162.009 80.9802L154.403 80.9802Z" fill="black"/>
<path d="M155.901 78.681C155.762 78.7088 155.632 78.7272 155.512 78.7365C155.388 78.7457 155.272 78.7504 155.166 78.7504C155.064 78.7504 154.946 78.7457 154.812 78.7365C154.673 78.7272 154.537 78.7088 154.403 78.681L154.403 72.649C154.509 72.6212 154.629 72.6004 154.764 72.5866C154.893 72.5681 155.002 72.5588 155.089 72.5588C155.353 72.5588 155.554 72.6305 155.693 72.7738C155.831 72.9124 155.901 73.1528 155.901 73.4949L155.901 73.9941C155.901 74.0865 155.898 74.2113 155.894 74.3685C155.889 74.5256 155.887 74.6458 155.887 74.729L155.887 76.5455C155.887 76.638 155.889 76.7674 155.894 76.9338C155.898 77.0956 155.901 77.2227 155.901 77.3151L155.901 78.681ZM156.726 76.5594C156.578 76.5594 156.441 76.5571 156.317 76.5525C156.187 76.5479 156.044 76.5455 155.887 76.5455L155.166 76.5455L155.166 74.729L155.887 74.729C156.044 74.729 156.187 74.7267 156.317 74.7221C156.441 74.7174 156.578 74.7151 156.726 74.7151L162.009 74.7151C162.032 74.8307 162.048 74.9809 162.057 75.1658C162.071 75.3507 162.078 75.5078 162.078 75.6373C162.078 75.7621 162.071 75.9146 162.057 76.0949C162.048 76.2751 162.032 76.43 162.009 76.5594L156.726 76.5594Z" fill="black"/>
<path d="M161.413 73.0365C161.26 73.0365 161.094 73.0065 160.913 72.9464C160.733 72.8863 160.564 72.8054 160.407 72.7037C160.25 72.5974 160.132 72.4818 160.054 72.357C160.239 72.0289 160.403 71.6591 160.546 71.2477C160.689 70.8317 160.759 70.4041 160.754 69.965C160.754 69.7524 160.722 69.5606 160.657 69.3896C160.592 69.2185 160.502 69.0822 160.386 68.9805C160.266 68.8788 160.123 68.828 159.957 68.828C159.781 68.828 159.624 68.895 159.485 69.029C159.346 69.1631 159.226 69.3734 159.125 69.66L158.653 70.8872C158.528 71.2477 158.373 71.5759 158.189 71.8717C157.999 72.1629 157.77 72.394 157.502 72.565C157.234 72.7361 156.917 72.8216 156.552 72.8216C156.104 72.8216 155.704 72.7037 155.353 72.468C154.997 72.2322 154.72 71.8971 154.521 71.4626C154.317 71.0235 154.213 70.5012 154.209 69.8957C154.209 69.3872 154.269 68.8834 154.389 68.3842C154.509 67.8804 154.646 67.4575 154.798 67.1154C155.062 67.1154 155.323 67.1709 155.582 67.2818C155.836 67.3927 156.039 67.5453 156.192 67.7394C156.039 68.0768 155.914 68.4443 155.817 68.8418C155.716 69.2347 155.665 69.5952 155.665 69.9234C155.669 70.2285 155.739 70.4665 155.873 70.6376C156.007 70.8086 156.176 70.8941 156.379 70.8941C156.555 70.8941 156.689 70.8225 156.781 70.6792C156.874 70.5313 156.964 70.3348 157.052 70.0898L157.509 68.8834C157.726 68.2825 158.027 67.7949 158.41 67.4205C158.794 67.0461 159.27 66.8589 159.839 66.8589C160.329 66.8589 160.752 66.9906 161.108 67.2541C161.459 67.5175 161.729 67.8804 161.919 68.3426C162.104 68.8048 162.198 69.3387 162.203 69.9442C162.208 70.6376 162.124 71.2523 161.953 71.7885C161.782 72.3247 161.602 72.7407 161.413 73.0365Z" fill="black"/>
<g clip-path="url(#clip1_482_8704)">
<path d="M152.244 122.066L152.221 122.066C151.122 122.3 150.229 123.163 149.954 124.283L148.236 130.28L148.236 130.303C148.167 130.537 148.145 130.793 148.145 131.027C148.145 131.634 148.328 132.194 148.648 132.684C148.648 132.684 148.648 132.707 148.671 132.707L152.634 138.237C153.298 139.217 154.466 139.684 155.611 139.404L162.46 137.771C163.445 137.537 164.269 136.767 164.59 135.764L166.628 130.14L166.628 130.117C166.72 129.813 166.766 129.51 166.766 129.183C166.766 128.553 166.559 127.923 166.193 127.41L166.17 127.387L161.773 121.973C161.108 121.11 160.009 120.69 158.955 120.9L152.244 122.066ZM157.81 124.563C157.673 124.586 157.535 124.656 157.444 124.726C157.398 124.773 157.352 124.82 157.329 124.843C157.306 124.866 157.306 124.89 157.283 124.936C157.283 124.96 157.26 124.983 157.26 125.03C157.215 125.263 157.306 125.473 157.398 125.613C157.467 125.753 157.535 125.823 157.535 125.823C157.535 125.823 157.512 125.8 157.489 125.777C157.467 125.753 157.398 125.707 157.352 125.66C157.306 125.613 157.237 125.52 157.169 125.427C157.123 125.333 157.054 125.193 157.077 125.03C157.077 124.983 157.077 124.96 157.1 124.913C157.123 124.843 157.123 124.843 157.146 124.796C157.192 124.703 157.237 124.633 157.306 124.563C157.444 124.423 157.604 124.33 157.787 124.283C158.154 124.166 158.543 124.213 158.909 124.306C159.024 124.33 159.07 124.353 159.184 124.4C159.276 124.446 159.368 124.493 159.436 124.54C159.597 124.633 159.734 124.773 159.871 124.89C159.986 125.03 160.101 125.193 160.146 125.357C160.192 125.52 160.192 125.707 160.123 125.87C160.055 126.01 159.963 126.127 159.849 126.173C159.757 126.243 159.642 126.267 159.574 126.29C159.505 126.313 159.436 126.313 159.39 126.313C159.345 126.313 159.322 126.313 159.322 126.313C159.322 126.313 159.413 126.29 159.551 126.22C159.688 126.15 159.871 126.01 159.917 125.777C159.94 125.683 159.917 125.543 159.871 125.427C159.826 125.31 159.734 125.193 159.62 125.076C159.505 124.96 159.39 124.89 159.23 124.796C159.161 124.75 159.093 124.726 159.024 124.68C158.955 124.656 158.864 124.61 158.795 124.586C158.451 124.54 158.108 124.516 157.81 124.563ZM165.918 129.883L163.88 135.507C163.651 136.254 163.032 136.837 162.299 137.001L155.451 138.634C154.604 138.844 153.733 138.494 153.252 137.771L149.267 132.264C149.015 131.914 148.9 131.47 148.9 131.05C148.9 130.864 148.923 130.677 148.969 130.513C148.969 130.513 149.152 129.557 149.496 128.11C149.656 127.387 149.885 126.57 150.114 125.66C150.229 125.217 150.343 124.75 150.481 124.283C150.641 123.77 150.962 123.303 151.397 122.976C151.626 122.813 151.855 122.696 152.13 122.626C152.199 122.603 152.221 122.603 152.336 122.58L152.519 122.556C152.634 122.533 152.748 122.51 152.863 122.486C153.321 122.416 153.802 122.346 154.237 122.276C155.13 122.136 155.978 122.02 156.688 121.926C158.131 121.74 159.093 121.67 159.093 121.67C159.093 121.67 158.154 121.926 156.734 122.23C156.024 122.393 155.199 122.556 154.306 122.72C153.871 122.813 153.412 122.906 152.932 122.976C152.817 123 152.702 123.023 152.588 123.046L152.405 123.07C152.382 123.07 152.29 123.093 152.244 123.116C152.061 123.186 151.855 123.28 151.672 123.396C151.511 123.513 151.374 123.653 151.26 123.793L155.107 129.183C155.955 130.373 155.886 131.33 155.795 131.89L154.581 138.284L156.711 132.24C156.917 131.657 157.306 130.653 158.451 130.397C158.474 130.397 158.497 130.397 158.52 130.373L165.987 128.787C166.01 128.927 166.01 129.043 166.01 129.183C166.01 129.417 165.987 129.65 165.918 129.883Z" fill="url(#paint0_linear_482_8704)"/>
<path d="M153.756 130.934C153.894 131.634 154.306 132.147 154.649 132.077C154.993 132.007 155.176 131.377 155.016 130.677C154.878 129.977 154.466 129.464 154.123 129.534C153.779 129.604 153.619 130.234 153.756 130.934Z" fill="url(#paint1_linear_482_8704)"/>
<path d="M152.979 130.91C152.841 130.21 152.429 129.697 152.085 129.767C151.742 129.837 151.559 130.467 151.719 131.167C151.856 131.867 152.269 132.38 152.612 132.31C152.956 132.24 153.116 131.61 152.979 130.91Z" fill="url(#paint2_linear_482_8704)"/>
<path d="M150.916 131.143C150.779 130.443 150.366 129.93 150.023 130C149.679 130.07 149.496 130.7 149.656 131.4C149.794 132.1 150.206 132.613 150.55 132.543C150.893 132.473 151.076 131.843 150.916 131.143Z" fill="url(#paint3_linear_482_8704)"/>
<path d="M156.665 136.487C156.115 136.86 155.84 137.42 156.023 137.7C156.207 137.98 156.802 137.887 157.352 137.514C157.901 137.14 158.176 136.58 157.993 136.3C157.81 136.02 157.214 136.114 156.665 136.487Z" fill="url(#paint4_linear_482_8704)"/>
<path d="M158.061 132.077C157.511 132.451 157.237 133.011 157.42 133.291C157.603 133.571 158.199 133.477 158.748 133.104C159.298 132.731 159.573 132.171 159.39 131.891C159.206 131.611 158.611 131.681 158.061 132.077Z" fill="url(#paint5_linear_482_8704)"/>
<path d="M159.345 134.807C159.528 135.087 160.124 134.994 160.673 134.62C161.223 134.247 161.498 133.687 161.315 133.407C161.131 133.127 160.536 133.22 159.986 133.594C159.437 133.99 159.139 134.527 159.345 134.807Z" fill="url(#paint6_linear_482_8704)"/>
<path d="M161.177 136.37C161.361 136.65 161.956 136.557 162.506 136.184C163.055 135.81 163.33 135.25 163.147 134.97C162.964 134.69 162.368 134.784 161.819 135.157C161.292 135.554 160.994 136.09 161.177 136.37Z" fill="url(#paint7_linear_482_8704)"/>
<path d="M162.736 131.843C162.919 132.123 163.514 132.03 164.064 131.656C164.614 131.283 164.889 130.723 164.705 130.443C164.522 130.163 163.927 130.256 163.377 130.63C162.827 131.026 162.529 131.563 162.736 131.843Z" fill="url(#paint8_linear_482_8704)"/>
</g>
<path d="M50.7031 251.368C55.9618 245.101 71.6759 230.346 76.1303 212.997C80.5847 195.649 85.3174 183.61 89.7718 174.442C94.2262 165.274 94.1334 155.673 96.2369 149.222C98.3404 142.77 100.97 137.399 102.176 125.946C102.918 119.093 105.888 117.087 108.734 117.642C110.652 118.013 112.477 119.525 113.529 121.501C116.127 126.378 119.777 134.003 115.446 149.191C115.446 149.191 118.076 159.779 115.044 170.768C112.044 181.758 119.22 187.16 119.561 195.001C119.901 202.749 119.499 210.157 119.499 210.157L50.7031 251.368Z" fill="#FFBD94"/>
<path d="M109.013 241.86C109.013 241.86 95.8977 246.83 84.3596 241.86C72.8215 236.89 73.7804 242.725 66.1708 245.626C58.5612 248.497 54.8802 256.245 50.7042 264.086C48.1986 268.778 41.3005 285.88 36.413 299.37C33.6909 290.109 32.9794 280.138 35.8872 274.335C38.0216 270.075 40.0013 266.525 41.981 263.376C41.981 263.376 41.981 263.376 41.981 263.345C45.5074 258.314 48.6007 253.992 50.333 251.831C50.4877 251.646 50.6114 251.491 50.7351 251.337C55.9629 245.102 71.6769 230.346 76.1313 212.998C80.5857 195.649 85.3185 183.61 89.7729 174.442C94.2273 165.274 94.1345 155.704 96.238 149.222C98.3414 142.77 100.971 137.399 102.177 125.946C102.92 119.093 105.889 117.118 108.735 117.643C106.57 123.539 102.889 135.392 102.889 139.899C102.889 145.919 97.3825 154.284 96.8566 159.532C96.3308 164.749 91.8764 188.055 90.2988 191.976C88.7212 195.896 80.8641 221.024 81.39 224.944C81.6684 227.012 81.7921 229.667 82.8129 232.167C83.71 234.39 85.3185 236.458 88.3809 237.878C95.2481 240.996 109.013 241.86 109.013 241.86Z" fill="#FFA080"/>
<path d="M102.888 132.182C101.342 129.157 100.97 124.928 103.414 118.383C105.796 111.963 107.559 112.24 108.735 117.642C109.91 122.952 106.26 138.788 102.888 132.182Z" fill="#FF578C"/>
<path d="M107.497 277.36C106.971 277.977 105.858 279.428 105.858 279.428C103.476 279.49 100.29 275.446 99.5165 272.853C98.2174 268.408 85.1635 255.412 82.4723 251.399C76.7187 242.755 93.1752 258.036 94.4126 260.042C97.5678 265.136 105.301 270.538 106.6 274.211C106.693 274.489 107.559 277.267 107.497 277.36Z" fill="#FFA080"/>
<path d="M245.768 415.716C247.655 422.723 250.037 426.643 250.996 432.292C252.728 442.634 245.738 452.913 231.756 455.352C214.557 458.346 190.398 450.413 186.624 440.998C183.005 431.984 178.953 411.795 178.953 411.795C178.953 411.795 175.272 397.132 171.096 392.687C166.889 388.242 161.661 381.173 157.732 371.48C153.804 361.787 147.246 348.452 144.091 340.333C140.936 332.214 141.987 327.244 139.636 319.404C137.286 311.563 131.779 294.801 131.254 290.356C130.728 285.911 127.572 275.168 128.903 268.902C129.583 265.691 132.676 264.673 136.296 265.506C139.76 266.309 143.627 268.84 146.194 272.822C151.453 280.941 155.103 286.96 155.381 295.326C155.505 298.876 156.773 304 158.413 308.692C160.671 315.082 163.548 320.638 165.064 320.175C167.693 319.404 167.167 296.375 164.538 286.405C161.908 276.465 155.567 253.621 153.804 245.595C152.041 237.569 152.752 234.328 152.226 227.722C151.7 221.085 151.298 207.071 153.773 204.478C154.763 203.428 156.804 202.44 159.032 202.286C162.372 202.039 166.053 203.706 167.167 210.003C168.992 220.468 169.363 233.124 171.436 238.712C173.539 244.299 175.797 253.189 177.901 259.641C180.004 266.093 182.108 268.531 182.108 268.531C182.108 268.531 182.108 268.531 182.139 268.531C182.51 268.408 186.438 266.988 190.707 268.13C192.842 268.686 195.069 269.889 196.987 272.205C202.926 279.366 203.792 280.416 203.792 280.416C203.792 280.416 204.813 280.015 206.607 280.416C208.71 280.91 211.897 282.515 215.67 287.238C222.661 295.974 222.847 296.314 225.631 298.567C228.415 300.82 238.406 305.729 241.376 311.131C244.346 316.533 246.109 321.256 245.738 327.368C245.397 333.48 240.324 383.797 241.376 388.767C242.397 393.737 243.974 409.079 245.768 415.716Z" fill="#FFBD94"/>
<path d="M186.593 440.998C188.542 445.875 195.966 450.351 205.03 453.099C201.843 443.714 195.688 427.384 193.461 419.266C187.398 397.071 178.582 373.549 174.406 370.369C169.147 366.387 158.846 343.791 153.588 339.098C148.329 334.376 146.504 314.557 145.236 310.915C143.627 306.254 140.255 300.358 138.214 298.413C136.172 296.437 136.048 287.115 136.698 286.065C137.348 285.016 142.266 284.954 142.018 279.397C141.833 274.983 139.358 270.075 135.492 266.803C135.492 266.803 129.491 265.722 128.841 268.933C127.542 275.199 130.666 285.942 131.192 290.387C131.718 294.832 137.224 311.594 139.575 319.435C141.926 327.276 140.874 332.246 144.029 340.364C147.184 348.483 153.742 361.818 157.671 371.511C161.599 381.204 166.858 388.273 171.034 392.718C175.241 397.163 178.891 411.826 178.891 411.826C178.891 411.826 182.974 431.984 186.593 440.998Z" fill="#FFA080"/>
<path d="M177.221 300.11C176.355 308.661 174.406 317.984 172.457 320.546C170.601 322.984 167.539 321.472 166.24 323.756C164.941 326.04 165.126 332.986 165.466 334.313C165.807 335.61 164.538 336.968 162.621 326.473C161.012 317.644 159.806 317.891 158.723 312.952C158.383 311.408 158.29 309.988 158.352 308.692C160.61 315.082 163.487 320.638 165.002 320.175C167.632 319.404 167.106 296.375 164.477 286.404C161.847 276.464 155.506 253.621 153.743 245.595C151.979 237.569 152.691 234.328 152.165 227.722C151.639 221.085 151.237 207.07 153.712 204.477C154.702 203.428 155.042 206.268 155.939 208.954C156.836 211.608 156.31 213.553 156.279 220.066C156.248 225.036 156.96 229.636 158.166 233.309C160.331 239.792 163.982 241.644 166.642 243.218C169.704 245.009 162.435 246.49 161.847 248.744C160.795 252.788 167.632 275.538 170.756 280.231C173.911 284.953 178.118 291.56 177.221 300.11Z" fill="#FFA080"/>
<path d="M190.492 283.596C187.151 280.54 182.078 268.562 182.078 268.562C182.078 268.562 182.078 268.562 182.109 268.562C182.418 268.439 185.295 267.42 188.791 267.822C188.327 268.624 188.914 274.922 190.245 277.021C191.606 279.12 202.742 290.14 205.371 293.968C206.887 296.129 210.196 310.39 207.722 309.217C206.948 308.847 200.978 296.499 198.504 292.671C196.06 288.813 193.864 286.652 190.492 283.596Z" fill="#FFA080"/>
<path d="M221.672 301.006C220.713 298.752 216.599 296.221 213.104 293.504C209.608 290.788 203.762 280.416 203.762 280.416C203.762 280.416 204.473 280.138 205.711 280.262C205.927 280.786 206.762 282.145 207.505 283.102C209.701 286.065 214.465 290.325 218.269 294.184C223.342 299.37 222.631 303.29 221.672 301.006Z" fill="#FFA080"/>
<path d="M184.181 312.088C180.995 310.483 188.728 327.121 192.688 340.148C196.616 353.175 204.133 385.618 205.711 397.133C207.288 408.647 213.32 406.548 210.969 397.133C208.618 387.717 199.462 358.669 197.451 352.125C195.379 345.581 189.44 314.712 184.181 312.088Z" fill="#FFA080"/>
<path d="M127.542 267.698C126.769 272.112 129.12 285.478 132.43 284.954C135.74 284.429 141.339 283.904 142.05 279.366C142.762 274.829 137.379 267.05 136.235 265.506C134.1 262.635 128.13 264.426 127.542 267.698Z" fill="#FF578C"/>
<path d="M156.248 200.557C154.949 201.638 153.34 203.922 153.773 208.861C154.423 216.084 159.001 216.455 161.506 216.331C164.012 216.208 166.858 215.158 165.497 206.638C164.754 202.07 163.239 200.804 161.63 200.094C160.269 199.477 157.361 199.631 156.248 200.557Z" fill="#FF578C"/>
<path d="M112.045 272.637C111.148 273.409 111.148 273.439 110.282 274.304C110.436 271.556 105.332 265.969 103.414 264.086C99.0529 259.857 108.24 265.167 110.034 267.636C111.148 269.149 111.705 271.093 112.045 272.637Z" fill="#FFA080"/>
<path d="M186.47 194.044H131.965C130.078 194.044 128.562 192.531 128.562 190.648V188.58C128.562 186.697 130.078 185.185 131.965 185.185H186.5C188.387 185.185 189.903 186.697 189.903 188.58V190.648C189.903 192.531 188.356 194.044 186.47 194.044Z" fill="#2ECC71"/>
</g>
<path d="M79.0742 112.9C78.933 111.489 78.3682 110.783 77.6622 110.36L76.815 109.936C75.6853 109.372 74.1321 109.936 73.1436 110.077C73.1436 109.795 73.426 109.372 73.8497 109.089C75.2617 108.101 76.5326 108.525 76.5326 108.525L77.9446 103.725C76.815 103.161 75.6853 102.455 73.2848 103.584L73.1436 102.737L72.4376 102.314L70.0371 104.149L70.3195 106.125C70.3195 106.125 66.7894 110.077 67.213 113.889C67.3542 115.3 67.919 116.006 68.6251 116.429L69.4723 116.853C70.6019 117.417 72.1552 116.853 73.1436 116.712C73.1436 116.994 72.8612 117.417 72.4376 117.7C70.6019 119.111 69.0487 118.547 69.0487 118.547L67.6366 123.346C69.1899 124.475 70.7431 124.334 72.4376 123.628L72.5788 124.616L73.426 125.04C73.426 125.04 73.426 125.04 75.9677 123.205L75.1205 121.228C75.1205 121.228 79.4979 117.276 79.0742 112.9Z" fill="#EA9600"/>
<path d="M72.719 123.063C69.6125 124.757 68.0592 123.628 68.0592 123.628L69.4713 118.829C69.4713 118.829 71.0245 119.393 72.8602 117.982C73.2838 117.7 73.5662 117.135 73.5662 116.711C73.425 115.582 68.3416 119.252 67.6356 114.171C67.212 110.36 70.8833 106.548 70.8833 106.548L70.6009 104.572L73.0014 102.737L73.1426 104.431C75.9667 102.737 77.8024 103.725 77.8024 103.725L76.5315 108.525C76.5315 108.525 75.2607 108.101 73.9898 109.089C73.5662 109.371 73.2838 109.936 73.2838 110.36C73.425 111.489 78.5084 107.678 79.0732 112.759C79.4968 117.276 75.1195 121.228 75.1195 121.228L75.4019 123.063L73.0014 124.898L72.719 123.063Z" fill="#FFB92C"/>
<path d="M169.445 18.6103C169.303 17.4811 168.88 16.9165 168.315 16.6342L167.75 16.2107C166.762 15.7873 165.491 16.2107 164.785 16.3519C164.785 16.0696 165.067 15.7873 165.35 15.505C166.479 14.658 167.468 15.0815 167.468 15.0815L168.597 11.1292C167.75 10.5646 166.762 10 164.785 10.9881L164.644 10.2823L164.079 10L162.102 11.5527L162.243 13.1054C162.243 13.1054 159.419 16.2107 159.701 19.3161C159.843 20.4453 160.266 21.0099 160.831 21.2922L161.396 21.7157C162.384 22.1391 163.655 21.7157 164.361 21.5745C164.361 21.8568 164.079 22.1391 163.796 22.4215C162.243 23.5507 160.972 23.1272 160.972 23.1272L159.843 27.0795C161.114 28.0676 162.384 27.9264 163.655 27.2207L163.796 28.0676L164.361 28.491C164.361 28.491 164.361 28.491 166.338 27.0795L166.197 25.5268C166.338 25.3857 169.868 22.1391 169.445 18.6103Z" fill="#EA9600"/>
<path d="M164.359 26.9387C161.817 28.3502 160.546 27.3622 160.546 27.3622L161.676 23.4099C161.676 23.4099 162.947 23.8334 164.5 22.7041C164.924 22.4218 165.065 21.9984 165.065 21.7161C164.924 20.728 160.829 23.8334 160.264 19.7399C159.84 16.6346 162.806 13.5292 162.806 13.5292L162.665 11.9765L164.641 10.4238L164.783 11.8354C167.183 10.4238 168.595 11.2707 168.595 11.2707L167.466 15.223C167.466 15.223 166.477 14.9407 165.347 15.6465C164.924 15.9288 164.783 16.3522 164.783 16.6346C164.924 17.6226 169.019 14.5173 169.584 18.6107C170.007 22.1395 166.477 25.386 166.477 25.386L166.618 26.9387L164.641 28.4914L164.359 26.9387Z" fill="#FFB92C"/>
<path d="M79.6391 39.2188C79.6391 39.2188 86.6993 54.4633 82.1807 63.6382C76.1089 76.2008 61 80.8589 61 80.8589C61 80.8589 71.1668 89.7515 85.9933 90.0338C85.9933 90.0338 115.364 79.4473 106.327 47.2645L79.6391 39.2188Z" fill="#9BF3C1"/>
<path d="M106.327 47.1233L79.6391 39.2188C79.6391 39.2188 86.6993 54.4633 82.1807 63.6382C76.1089 76.2008 61 80.8589 61 80.8589C61 80.8589 71.1668 89.7515 85.9933 90.0338C85.9933 89.8926 115.364 79.4473 106.327 47.1233ZM86.2757 87.493C72.8612 87.3519 65.9422 80.4354 65.9422 80.4354C65.9422 80.4354 78.3682 75.3539 83.8752 63.9205C87.9702 55.5925 82.0395 42.0418 82.0395 42.0418L104.632 48.676C112.963 77.8946 86.2757 87.493 86.2757 87.493Z" fill="#34D678"/>
<path d="M70.8844 81.4235C70.8844 79.8708 70.0371 78.4593 68.6251 77.3301C64.3889 79.7297 61 80.8589 61 80.8589C61 80.8589 63.6829 83.2585 68.4839 85.6581C70.0371 84.5289 70.8844 83.1173 70.8844 81.4235Z" fill="#34D678"/>
<path d="M88.3934 41.9007L79.6387 39.2188C79.6387 39.2188 81.1919 42.6064 82.3216 47.1233C85.7105 46.6999 88.3934 44.5826 88.3934 41.9007Z" fill="#34D678"/>
<path d="M106.326 53.6166C106.75 53.6166 107.174 53.6166 107.597 53.4754C107.315 51.4993 106.891 49.2408 106.185 47.1235L100.255 45.4297C99.5486 46.2766 99.125 47.2647 99.125 48.3939C99.2662 51.217 102.514 53.6166 106.326 53.6166Z" fill="#34D678"/>
<path d="M86.4177 83.541C82.6051 83.541 79.3574 85.9406 79.3574 89.046C79.3574 89.1871 79.3574 89.3283 79.3574 89.4694C81.3343 89.8929 83.5936 90.034 85.8529 90.1752C85.8529 90.1752 88.8182 89.046 92.4895 86.6464C91.5011 84.6702 89.1006 83.541 86.4177 83.541Z" fill="#34D678"/>
<path opacity="0.4" d="M106.326 47.1233L79.6387 39.2188C79.6387 39.2188 82.7452 45.8529 83.4512 53.0517C85.7105 50.7933 89.8054 47.4056 93.7592 48.8171C99.6898 50.7933 106.75 59.4036 106.891 67.5905C108.444 61.9444 108.586 55.3102 106.326 47.1233Z" fill="#34D678"/>
<path d="M100.537 72.6722C99.5486 75.6364 95.0301 76.7656 90.2291 75.2129C85.4281 73.6602 82.4628 70.1314 83.3101 67.1672C84.2985 64.203 88.8171 63.0738 93.618 64.6265C98.419 66.1791 101.384 69.708 100.537 72.6722Z" fill="#34D678"/>
<path d="M86.2758 79.7296C85.8521 81 84.0165 81.5646 82.322 81C80.4864 80.4353 79.3567 78.8827 79.7803 77.6123C80.2039 76.3419 82.0396 75.7773 83.7341 76.3419C85.5697 76.9065 86.6994 78.4592 86.2758 79.7296Z" fill="#34D678"/>
<path d="M99.8322 58.839C99.5498 60.1094 97.8553 60.9563 96.0196 60.5328C94.184 60.1094 92.9131 58.839 93.1955 57.5686C93.4779 56.2983 95.1724 55.4513 97.0081 55.8748C98.7025 56.1571 99.9734 57.5686 99.8322 58.839Z" fill="#34D678"/>
<path d="M95.8783 72.9542C94.1838 74.5069 92.3482 74.648 92.3482 74.648L91.2185 72.8131C91.2185 72.8131 92.6306 72.5308 93.619 71.4015C93.9014 71.1192 93.7602 70.8369 93.619 70.8369C92.913 70.5546 90.5125 73.3777 87.6884 71.9661C85.5703 70.9781 86.7 68.7196 86.7 68.7196L85.5703 68.155L86.7 66.8846L87.6884 67.3081C89.2416 65.8966 91.2185 65.6143 91.2185 65.6143L92.3482 67.4492C92.3482 67.4492 91.0773 67.7316 90.5125 68.4373C90.2301 68.7196 90.3713 69.0019 90.5125 69.0019C91.2185 69.2842 93.619 66.4612 96.4431 67.8727C98.8436 69.0019 97.1491 71.6838 97.1491 71.6838L98.1376 72.1073L97.0079 73.3777L95.8783 72.9542Z" fill="#9BF3C1"/>
<g opacity="0.4">
<path d="M106.327 47.1231L106.044 46.9819C114.799 78.8825 85.5697 89.3278 85.5697 89.3278C72.72 89.1866 63.8241 82.2702 61.706 80.4352C61.2824 80.7175 61 80.8586 61 80.8586C61 80.8586 71.1668 89.7513 85.9933 90.0336C85.9933 89.8924 115.364 79.4471 106.327 47.1231Z" fill="#34D678"/>
</g>
<path d="M175.236 157.222C175.236 157.222 172.694 130.827 206.16 123.628C206.16 123.628 211.808 133.65 225.646 137.037C225.646 137.037 190.909 141.554 195.146 167.95C195.146 168.091 179.895 162.586 175.236 157.222Z" fill="#9BF3C1"/>
<path d="M199.241 144.377C198.111 146.777 194.157 147.342 190.345 145.507C186.391 143.813 184.132 140.425 185.261 138.026C186.391 135.626 190.345 135.061 194.157 136.896C197.97 138.731 200.229 141.978 199.241 144.377Z" fill="#34D678"/>
<path d="M188.79 152.564C188.366 153.552 186.813 153.976 185.26 153.27C183.847 152.564 183 151.294 183.424 150.165C183.847 149.177 185.401 148.753 186.954 149.459C188.366 150.165 189.213 151.435 188.79 152.564Z" fill="#34D678"/>
<path d="M203.616 136.05C202.91 137.038 201.356 137.038 200.086 136.05C198.815 135.062 198.25 133.65 198.956 132.662C199.662 131.674 201.215 131.674 202.486 132.662C203.757 133.65 204.322 135.062 203.616 136.05Z" fill="#34D678"/>
<path d="M195.286 144.236C193.732 145.366 192.179 145.366 192.179 145.366L191.473 143.672C191.473 143.672 192.744 143.531 193.591 142.684C193.874 142.542 193.732 142.26 193.591 142.119C193.026 141.837 190.767 143.954 188.508 142.542C186.813 141.554 187.943 139.578 187.943 139.578L187.096 139.014L188.225 138.026L189.073 138.449C190.485 137.32 192.179 137.32 192.179 137.32L192.885 139.014C192.885 139.014 191.755 139.155 191.191 139.719C190.908 139.861 191.049 140.143 191.191 140.284C191.755 140.566 194.015 138.449 196.274 139.861C198.251 141.131 196.556 143.107 196.556 143.107L197.404 143.672L196.274 144.66L195.286 144.236Z" fill="#9BF3C1"/>
<path d="M175.657 150.871C174.951 154.682 175.234 157.223 175.234 157.223C176.081 158.211 177.352 159.199 178.764 160.046C179.47 159.058 179.893 157.788 179.893 156.517C179.752 153.694 178.058 151.436 175.657 150.871Z" fill="#34D678"/>
<path d="M187.941 164.986V165.127C191.895 166.962 195.143 168.091 195.143 168.091C194.578 164.986 194.719 162.163 195.143 159.622C194.578 159.34 193.872 159.199 193.166 159.199C190.201 159.058 187.941 161.739 187.941 164.986Z" fill="#34D678"/>
<path d="M205.593 129.133C207.005 129.133 208.275 128.569 209.123 127.581C207.146 125.322 206.157 123.77 206.157 123.77C204.181 124.193 202.345 124.616 200.65 125.181C201.356 127.44 203.333 129.133 205.593 129.133Z" fill="#34D678"/>
<path d="M217.312 139.155C222.113 137.603 225.644 137.179 225.644 137.179C221.972 136.191 218.724 134.78 216.183 133.227C216.042 133.792 215.9 134.497 215.9 135.203C215.9 136.756 216.465 138.026 217.312 139.155Z" fill="#34D678"/>
<path d="M225.645 137.179C211.948 133.791 206.158 123.769 206.158 123.769C172.552 130.968 175.234 157.363 175.234 157.363C180.035 162.727 195.144 168.232 195.144 168.232C190.767 141.554 225.645 137.179 225.645 137.179ZM192.744 165.409C192.744 165.409 180.741 161.175 176.364 156.234C176.364 156.234 173.964 131.815 205.029 125.181C205.029 125.181 209.971 132.944 221.55 137.037C221.691 136.896 192.744 140.849 192.744 165.409Z" fill="#34D678"/>
<path opacity="0.4" d="M183.707 157.223C178.906 155.529 177.918 148.33 177.918 143.531C174.529 150.871 175.235 157.223 175.235 157.223C180.036 162.586 195.145 168.091 195.145 168.091C193.592 158.916 196.839 152.423 201.64 147.765C201.64 147.907 191.05 159.763 183.707 157.223Z" fill="#34D678"/>
<path opacity="0.2" d="M225.644 137.179C211.947 133.791 206.158 123.769 206.158 123.769C201.498 124.757 197.545 126.169 194.297 127.721C197.545 127.862 204.746 128.568 207.994 132.662C210.253 135.344 210.535 139.014 210.394 141.978C218.019 138.167 225.644 137.179 225.644 137.179Z" fill="#34D678"/>
<g opacity="0.4">
<path d="M225.647 137.179C224.799 137.038 224.517 136.896 224.517 136.896C217.88 138.167 192.322 144.236 194.44 167.244C194.44 167.244 180.743 162.163 175.236 157.223V157.364C180.037 162.727 195.146 168.232 195.146 168.232C190.769 141.555 225.647 137.179 225.647 137.179Z" fill="#34D678"/>
</g>
<path d="M133.297 34.1369C132.026 36.5365 127.649 36.8188 122.848 34.8427C118.188 32.8665 115.082 29.1966 116.211 26.797C117.764 21.5743 121.859 24.1151 126.66 26.0912C131.32 28.2085 135.839 29.4789 133.297 34.1369Z" fill="#EA9600"/>
<path d="M122.143 24.2564C119.46 23.2683 117.342 23.4095 116.212 26.7971C115.365 28.6321 116.918 31.1729 119.884 33.149L124.261 25.5268L122.143 24.2564Z" fill="#F7A30D"/>
<path d="M133.297 34.1375C134.567 31.879 134.144 30.4675 132.873 29.3383L129.625 27.9268L126.236 35.9725C129.484 36.6782 132.308 35.9725 133.297 34.1375Z" fill="#E88400"/>
<path d="M133.862 32.8668C132.873 35.2664 128.213 35.5487 123.412 33.5726C118.753 31.5965 115.646 27.9265 116.776 25.5269C117.764 23.1273 122.424 22.845 127.225 24.8211C131.885 26.7973 134.85 30.4672 133.862 32.8668Z" fill="#FFB92C"/>
<path d="M128.495 31.5962C127.224 32.302 125.812 32.1608 125.812 32.1608L124.823 30.8905L124.964 30.467C124.964 30.467 126.094 30.6082 126.659 30.3259C126.8 30.1847 126.8 30.0435 126.659 29.9024C126.094 29.6201 124.4 31.0316 122.14 29.9024C120.446 29.0555 121.152 27.644 121.152 27.644L120.305 27.2205L120.446 26.797L121.152 26.5147L121.999 26.9382C123.129 26.2324 124.541 26.2324 124.541 26.2324L125.67 27.2205L125.529 27.644C125.529 27.644 124.541 27.6439 124.117 28.0674C123.976 28.2086 123.976 28.3497 124.117 28.4909C124.682 28.7732 126.518 27.0793 128.918 28.2086C130.895 29.1966 129.483 30.8905 129.483 30.8905H130.471L130.33 31.3139L129.483 32.0197L128.495 31.5962Z" fill="#EA9600"/>
<path d="M128.636 31.1729C127.365 31.8787 125.953 31.7375 125.953 31.7375L124.964 30.4671C124.964 30.4671 126.094 30.4671 126.659 29.9025C126.8 29.7614 126.8 29.6202 126.659 29.4791C126.094 29.1968 124.4 30.6083 122.14 29.4791C120.446 28.6321 121.152 27.2206 121.152 27.2206L120.305 26.7972L121.152 26.0914L121.999 26.5148C123.129 25.8091 124.541 25.8091 124.541 25.8091L125.529 27.0795C125.529 27.0795 124.541 27.0795 124.117 27.5029C123.976 27.6441 123.976 27.7852 124.117 27.9264C124.682 28.2087 126.377 26.7972 128.636 27.9264C130.613 28.9144 129.483 30.326 129.483 30.326L130.189 30.8906L129.342 31.5964L128.636 31.1729Z" fill="#FFD348"/>
<path d="M126.943 25.2444C123.131 23.5506 119.318 23.6917 117.906 25.2444C119.46 23.8329 122.99 23.8329 126.661 25.3855C130.897 27.2205 133.58 30.467 132.733 32.5843C132.592 32.8666 132.45 33.0078 132.309 33.1489C132.592 32.8666 132.733 32.5843 132.874 32.302C134.004 30.3259 131.321 27.0794 126.943 25.2444Z" fill="#EA9600"/>
<path d="M123.554 33.1491C119.035 31.173 116.07 27.7853 116.776 25.3857C115.788 27.7853 118.753 31.3142 123.413 33.4315C128.072 35.4076 132.732 35.1253 133.862 32.7257C133.862 32.5845 133.862 32.5845 134.003 32.4434C132.873 34.843 128.214 35.1253 123.554 33.1491Z" fill="#FFD348"/>
<path d="M124.117 27.6442C124.541 27.2207 125.529 27.2207 125.529 27.2207L125.388 27.0796C125.106 27.0796 124.4 27.2207 124.117 27.6442C124.117 27.5031 124.117 27.5031 124.117 27.6442Z" fill="#FFE164"/>
<path d="M128.636 31.0319C127.365 31.7377 125.953 31.5965 125.953 31.5965L125.106 30.3262C124.965 30.3262 124.965 30.3262 124.965 30.3262L125.953 31.5965C125.953 31.5965 127.365 31.7377 128.636 31.0319Z" fill="#FFE164"/>
<path d="M126.659 29.4793C126.8 29.4793 126.8 29.6205 126.8 29.7616C126.941 29.6205 126.941 29.4793 126.659 29.4793C126.235 29.0558 124.541 30.6085 122.282 29.3382C120.587 28.4912 121.293 27.0797 121.293 27.0797L120.305 26.6562V26.7974L121.152 27.2209C121.152 27.2209 120.446 28.4912 122.14 29.4793C124.4 30.7497 126.094 29.197 126.659 29.4793Z" fill="#FFE164"/>
<path d="M245.979 86.646C247.25 88.3399 246.12 91.7275 243.014 94.5506C239.907 97.3736 236.377 98.3617 234.824 96.809C231.435 93.986 234.683 91.7275 237.789 88.9045C240.896 86.0814 243.438 83.1172 245.979 86.646Z" fill="#EA9600"/>
<path d="M234.965 91.5863C233.412 93.2801 232.706 94.9739 234.965 96.8089C236.095 97.9381 238.495 97.6558 240.896 96.2443L236.66 90.457L234.965 91.5863Z" fill="#F7A30D"/>
<path d="M245.979 86.646C244.709 84.9522 243.438 84.811 242.167 85.3756L240.049 87.3518L244.85 92.5744C246.544 90.1748 246.968 87.9164 245.979 86.646Z" fill="#E88400"/>
<path d="M245.131 85.7991C246.543 87.3518 245.273 90.8806 242.166 93.7037C239.06 96.5267 235.529 97.5148 233.976 95.9621C232.564 94.4094 233.835 90.8806 236.942 88.0575C240.048 85.2345 243.719 84.2464 245.131 85.7991Z" fill="#FFB92C"/>
<path d="M242.449 89.328C242.591 90.4572 242.026 91.4452 242.026 91.4452L240.755 91.7275L240.472 91.4452C240.472 91.4452 241.037 90.5983 240.896 90.1749C240.896 90.0337 240.755 90.0337 240.614 90.0337C240.19 90.316 240.755 92.151 239.06 93.4214C237.79 94.4095 237.084 93.4214 237.084 93.4214L236.519 93.986L236.236 93.7037V93.1391L236.801 92.7156C236.66 91.5864 237.225 90.5983 237.225 90.5983L238.213 90.0337L238.496 90.316C238.496 90.316 238.213 91.0218 238.354 91.4452C238.354 91.5864 238.496 91.5864 238.637 91.5864C239.06 91.3041 238.354 89.328 240.049 87.9164C241.461 86.7872 242.308 88.3399 242.308 88.3399L242.591 87.6341L242.873 87.9164L243.155 88.7633L242.449 89.328Z" fill="#EA9600"/>
<path d="M242.166 89.0456C242.307 90.1748 241.743 91.1629 241.743 91.1629L240.472 91.4452C240.472 91.4452 240.754 90.5983 240.613 89.8925C240.613 89.7514 240.472 89.7514 240.33 89.7514C239.907 90.0337 240.472 91.8687 238.777 93.139C237.506 94.1271 236.8 93.139 236.8 93.139L236.236 93.7036L235.953 92.8567L236.518 92.4333C236.377 91.304 236.942 90.316 236.942 90.316L238.212 90.0337C238.212 90.0337 237.93 90.7394 238.071 91.1629C238.071 91.304 238.212 91.3041 238.354 91.3041C238.777 91.0217 238.212 89.1868 239.907 87.9164C241.319 86.7872 242.025 88.1987 242.025 88.1987L242.59 87.7752L242.872 88.6221L242.166 89.0456Z" fill="#FFD348"/>
<path d="M237.225 88.34C234.683 90.5985 233.553 93.4215 234.26 94.9742C233.695 93.4215 234.966 90.7396 237.366 88.4812C240.19 85.9404 243.438 84.9524 244.709 86.3639C244.85 86.5051 244.991 86.6462 244.991 86.7874C244.85 86.505 244.709 86.2227 244.567 86.0816C243.297 84.8112 240.049 85.7993 237.225 88.34Z" fill="#EA9600"/>
<path d="M242.025 93.5622C239.059 96.2441 235.529 97.3734 234.117 96.103C235.529 97.6557 239.201 96.6676 242.307 93.8445C245.414 91.0215 246.684 87.4927 245.272 85.94L245.131 85.7988C246.402 87.2104 245.131 90.7392 242.025 93.5622Z" fill="#FFD348"/>
<path d="M238.073 91.3045C237.931 90.8811 238.214 90.1753 238.214 90.1753H238.073C238.073 90.4576 237.931 90.8811 238.073 91.3045Z" fill="#FFE164"/>
<path d="M242.732 88.4814L242.167 88.9049C242.308 90.0341 241.744 91.0222 241.744 91.0222L240.473 91.3045C240.473 91.4457 240.473 91.4457 240.473 91.4457L241.744 91.1633C241.744 91.1633 242.308 90.1753 242.167 89.046L242.732 88.4814Z" fill="#FFE164"/>
<path d="M240.331 90.034C240.472 90.034 240.472 89.8928 240.614 90.034C240.472 89.7517 240.331 89.7517 240.331 90.034C239.908 90.1751 240.472 92.0101 238.778 93.2805C237.507 94.2686 236.801 93.2805 236.801 93.2805L236.236 93.704V93.8451L236.801 93.2805C236.801 93.2805 237.507 94.2686 238.778 93.2805C240.472 92.0101 239.908 90.3163 240.331 90.034Z" fill="#FFE164"/>
<path d="M86.6991 166.68C86.4167 169.785 83.169 171.903 78.7916 171.338C74.5555 170.915 71.0254 168.092 71.0254 164.986C70.6017 158.634 74.5555 159.764 78.9328 160.328C83.3102 160.893 87.2639 160.61 86.6991 166.68Z" fill="#EA9600"/>
<path d="M74.978 160.046C72.5776 160.046 70.8831 160.893 71.1655 165.127C71.1655 167.527 73.1424 169.644 75.9665 170.774L76.9549 160.611L74.978 160.046Z" fill="#F7A30D"/>
<path d="M86.698 166.68C86.9804 163.716 86.1332 162.304 84.8624 161.457L81.8971 161.175L81.7559 171.338C84.58 170.773 86.5568 169.079 86.698 166.68Z" fill="#E88400"/>
<path d="M86.6991 164.986C86.6991 168.091 83.169 170.209 78.7917 169.644C74.5555 169.221 71.0254 166.398 71.0254 163.292C71.0254 160.187 74.5555 158.07 78.9329 158.634C83.3102 159.058 86.6991 161.881 86.6991 164.986Z" fill="#FFB92C"/>
<path d="M82.1817 165.692C81.4757 166.962 80.346 167.385 80.346 167.385L79.2164 166.256V165.833C79.2164 165.833 80.2048 165.55 80.4873 164.986C80.6285 164.845 80.4872 164.562 80.346 164.562C79.9224 164.421 78.934 166.68 76.8159 166.256C75.2627 165.974 75.4039 164.139 75.4039 164.139L74.5566 163.998V163.574L74.9803 163.01L75.6863 163.151C76.2511 161.88 77.5219 161.457 77.5219 161.457L78.6516 162.022V162.445C78.6516 162.445 77.9456 162.869 77.6632 163.433C77.5219 163.574 77.6631 163.857 77.8044 163.857C78.228 163.998 79.2164 161.316 81.4757 161.739C83.3113 162.163 82.7465 164.562 82.7465 164.562L83.4526 164.28V164.704L83.0289 165.833L82.1817 165.692Z" fill="#EA9600"/>
<path d="M82.0397 165.127C81.3337 166.398 80.204 166.821 80.204 166.821L79.0744 165.692C79.0744 165.692 79.9216 165.268 80.204 164.421C80.3453 164.28 80.204 163.998 80.0628 163.998C79.6392 163.857 78.6508 166.115 76.5327 165.692C74.9795 165.409 75.1207 163.574 75.1207 163.574H74.2734L74.6971 162.445L75.4031 162.586C75.9679 161.316 77.2387 160.893 77.2387 160.893L78.3684 162.022C78.3684 162.022 77.6624 162.445 77.3799 163.01C77.2387 163.151 77.3799 163.433 77.5212 163.433C77.9448 163.574 78.9332 161.316 81.0513 161.739C82.8869 162.163 82.4633 164.139 82.4633 164.139L83.3106 164.28L82.8869 165.409L82.0397 165.127Z" fill="#FFD348"/>
<path d="M78.9333 159.199C75.4032 158.775 72.5791 160.328 71.873 162.728C72.7203 160.61 75.4032 159.34 78.7921 159.622C82.7458 160.046 85.8523 162.587 85.7111 165.41C85.7111 165.692 85.7111 165.974 85.5699 166.257C85.7111 165.833 85.8523 165.551 85.8523 165.127C85.9935 162.163 82.887 159.622 78.9333 159.199Z" fill="#EA9600"/>
<path d="M78.7911 169.362C74.6961 168.939 71.3072 166.257 71.166 163.434C71.166 163.434 71.166 163.434 71.166 163.575C71.166 166.68 74.5549 169.503 78.9323 169.927C83.1684 170.35 86.6986 168.233 86.8398 165.269C86.8398 165.127 86.8398 164.986 86.8398 164.986C86.5574 167.668 83.1684 169.785 78.7911 169.362Z" fill="#FFD348"/>
<path d="M77.5215 162.868C77.8039 162.304 78.5099 161.88 78.5099 161.88L78.3687 161.739C78.0863 162.022 77.6627 162.304 77.5215 162.868Z" fill="#FFE164"/>
<path d="M82.8868 165.127L82.1807 164.986C81.4747 166.256 80.3451 166.68 80.3451 166.68L79.2154 165.692C79.0742 165.692 79.0742 165.833 79.0742 165.833L80.2039 166.962C80.2039 166.962 81.3335 166.539 82.0395 165.268L82.8868 165.409V165.127Z" fill="#FFE164"/>
<path d="M80.0628 163.998C80.204 163.998 80.204 164.139 80.204 164.28C80.3453 164.139 80.204 163.857 80.0628 163.857C79.6392 163.715 78.6508 165.974 76.5327 165.55C74.9795 165.268 75.1207 163.433 75.1207 163.433L74.2734 163.292V163.433L75.1207 163.574C75.1207 163.574 74.9795 165.268 76.5327 165.692C78.792 166.256 79.6392 163.998 80.0628 163.998Z" fill="#FFE164"/>
<path d="M131.178 158.211L138.238 154.4L138.803 149.883L132.872 152.141L131.178 158.211Z" fill="#53D8E2"/>
<path d="M131.178 158.211L138.238 154.399L141.627 156.376L139.368 163.998L131.178 158.211Z" fill="#46CBD5"/>
<path d="M149.251 163.574L145.58 156.517L148.122 152.706L151.087 157.505L149.251 163.574Z" fill="#2CB1BB"/>
<path d="M149.252 163.575L145.58 156.517L141.626 156.376L139.367 163.998L149.252 163.575Z" fill="#39BEC8"/>
<path d="M131.178 158.21L139.368 163.998L138.097 168.232L131.178 158.21Z" fill="#2CB1BB"/>
<path d="M149.251 163.574L138.096 168.232L139.367 163.998L149.251 163.574Z" fill="#1FA4AE"/>
<path d="M137.673 153.835C137.673 153.835 137.108 154.964 134.566 156.235C131.883 157.646 131.46 157.646 131.46 157.646L131.318 158.352L138.237 154.4L137.673 153.835Z" fill="#73F2FF"/>
<path d="M131.178 158.211L131.884 158.634C131.884 158.634 132.872 157.364 134.99 156.093C137.108 154.964 138.662 154.682 138.662 154.682L138.238 154.258L131.178 158.211Z" fill="#73F2FF"/>
<path d="M141.627 156.376L139.368 163.857L138.662 163.433C138.662 163.433 139.509 162.727 140.357 160.187C141.204 157.646 141.063 156.234 141.063 156.234L141.627 156.376Z" fill="#73F2FF"/>
<path d="M141.626 156.376L139.367 163.857H140.214C140.214 163.857 139.932 162.728 140.638 160.187C141.344 157.646 142.191 156.376 142.191 156.376H141.626Z" fill="#73F2FF"/>
<path d="M146.286 156.234C146.286 156.234 146.144 157.505 147.698 160.045C149.11 162.586 149.533 162.869 149.533 162.869L149.392 163.574L145.721 156.517L146.286 156.234Z" fill="#73F2FF"/>
<path d="M149.252 163.574H148.405C148.405 163.574 148.264 161.88 147.134 159.763C146.005 157.646 144.875 156.658 144.875 156.658L145.581 156.517L149.252 163.574Z" fill="#73F2FF"/>
<path d="M138.802 163.434C138.802 163.434 139.367 164.563 138.661 166.398C138.661 166.398 138.379 167.104 137.955 167.668L138.379 168.233L139.65 163.998L138.802 163.434Z" fill="#46CBD5"/>
<path d="M140.214 163.857H139.367L138.096 168.092L138.802 167.809C138.802 167.809 138.519 167.103 138.802 165.974C139.225 164.563 140.214 163.857 140.214 163.857Z" fill="#46CBD5"/>
<path d="M131.884 158.775L132.025 159.34L137.391 167.103L138.238 167.809L138.097 168.232L131.178 158.21L131.884 158.775Z" fill="#46CBD5"/>
<path d="M148.404 163.574L147.98 164.139L139.367 167.668L138.237 167.809L138.096 168.232L149.251 163.574H148.404Z" fill="#46CBD5"/>
<path d="M146.286 156.799C143.744 157.364 140.073 156.376 138.237 154.4C136.401 152.423 136.966 150.306 139.649 149.742C142.191 149.177 145.862 150.165 147.698 152.141C149.392 153.976 148.827 156.093 146.286 156.799Z" fill="#60E5EF"/>
<path d="M138.096 154.4C136.261 152.423 136.826 150.306 139.509 149.742C142.05 149.177 145.722 150.165 147.557 152.141L138.096 154.4Z" fill="#73F2FF"/>
<path d="M138.662 154.117C136.967 152.282 137.391 150.448 139.509 149.601C136.967 150.165 136.261 152.282 138.097 154.259C139.932 156.235 143.604 157.223 146.145 156.658C146.287 156.658 146.569 156.517 146.71 156.517C144.169 157.223 140.497 156.094 138.662 154.117Z" fill="#97FAFF"/>
<path d="M214.207 112.477L217.031 109.654L216.608 107.396L214.207 109.372V112.477Z" fill="#53D8E2"/>
<path d="M214.207 112.477L217.031 109.654L218.867 110.078V114.03L214.207 112.477Z" fill="#46CBD5"/>
<path d="M223.525 112.477L220.701 109.654L221.407 107.396L223.525 109.372V112.477Z" fill="#2CB1BB"/>
<path d="M223.527 112.477L220.703 109.654L218.867 110.078V114.03L223.527 112.477Z" fill="#39BEC8"/>
<path d="M214.207 112.477L218.867 114.03V116.288L214.207 112.477Z" fill="#2CB1BB"/>
<path d="M223.527 112.477L218.867 116.288V114.03L223.527 112.477Z" fill="#1FA4AE"/>
<path d="M216.608 109.372C216.608 109.372 216.466 109.936 215.478 110.924C214.348 111.912 214.207 112.053 214.207 112.053V112.477L217.031 109.654L216.608 109.372Z" fill="#73F2FF"/>
<path d="M214.207 112.477L214.631 112.619C214.631 112.619 214.913 111.913 215.76 110.925C216.608 110.078 217.314 109.795 217.314 109.795L217.031 109.654L214.207 112.477Z" fill="#73F2FF"/>
<path d="M218.867 110.078V114.03L218.443 113.889C218.443 113.889 218.726 113.465 218.726 112.054C218.726 110.642 218.443 110.078 218.443 110.078H218.867Z" fill="#73F2FF"/>
<path d="M218.867 110.078V114.03L219.291 113.889C219.291 113.889 219.008 113.465 219.008 112.054C219.008 110.642 219.291 110.078 219.291 110.078H218.867Z" fill="#73F2FF"/>
<path d="M221.125 109.372C221.125 109.372 221.266 109.937 222.254 110.925C223.384 111.913 223.525 112.054 223.525 112.054V112.477L220.701 109.654L221.125 109.372Z" fill="#73F2FF"/>
<path d="M223.526 112.477L223.103 112.619C223.103 112.619 222.82 111.913 221.973 110.925C221.126 110.078 220.42 109.795 220.42 109.795L220.702 109.654L223.526 112.477Z" fill="#73F2FF"/>
<path d="M218.443 113.889C218.443 113.889 218.867 114.312 218.726 115.3C218.726 115.3 218.726 115.724 218.585 116.006L218.867 116.147V113.889H218.443Z" fill="#46CBD5"/>
<path d="M219.291 113.889L218.867 114.03V116.288L219.15 116.006C219.15 116.006 218.867 115.724 218.867 115.159C218.867 114.312 219.291 113.889 219.291 113.889Z" fill="#46CBD5"/>
<path d="M214.489 112.618L214.631 112.901L218.302 115.865L218.867 116.006V116.288L214.207 112.477L214.489 112.618Z" fill="#46CBD5"/>
<path d="M223.103 112.618L222.962 112.901L219.432 115.865L218.867 116.006V116.288L223.527 112.477L223.103 112.618Z" fill="#46CBD5"/>
<path d="M221.126 109.654C219.997 110.36 218.02 110.36 216.89 109.654C215.761 108.948 215.761 107.96 216.89 107.254C218.02 106.549 219.997 106.549 221.126 107.254C222.256 107.96 222.256 108.948 221.126 109.654Z" fill="#60E5EF"/>
<path d="M216.89 109.654C215.761 108.948 215.761 107.96 216.89 107.254C218.02 106.549 219.997 106.549 221.126 107.254L216.89 109.654Z" fill="#73F2FF"/>
<path d="M217.173 109.513C216.043 108.948 216.043 107.96 216.89 107.254C215.761 107.96 215.761 108.948 216.89 109.654C218.02 110.36 219.997 110.36 221.126 109.654C221.268 109.654 221.268 109.513 221.409 109.513C220.138 110.219 218.302 110.077 217.173 109.513Z" fill="#97FAFF"/>
<path d="M139.933 54.3218L142.333 49.8049L140.921 47.2642L138.662 50.5107L139.933 54.3218Z" fill="#53D8E2"/>
<path d="M139.934 54.3221L142.334 49.8052L144.735 49.6641L146.288 54.4633L139.934 54.3221Z" fill="#46CBD5"/>
<path d="M151.37 50.6519L146.852 48.3934V45.4292L150.099 46.8407L151.37 50.6519Z" fill="#2CB1BB"/>
<path d="M151.371 50.652L146.852 48.3936L144.734 49.6639L146.288 54.4631L151.371 50.652Z" fill="#39BEC8"/>
<path d="M139.934 54.3223L146.288 54.4634L147.135 57.1453L139.934 54.3223Z" fill="#2CB1BB"/>
<path d="M151.37 50.6523L147.134 57.1454L146.287 54.4635L151.37 50.6523Z" fill="#1FA4AE"/>
<path d="M141.768 49.6641C141.768 49.6641 141.909 50.3698 140.921 52.0637C140.073 53.7575 139.791 53.8986 139.791 53.8986L139.932 54.3221L142.192 49.8052L141.768 49.6641Z" fill="#73F2FF"/>
<path d="M139.934 54.322H140.498C140.498 54.322 140.64 53.1928 141.346 51.9224C142.052 50.5109 142.758 49.9463 142.758 49.9463H142.334L139.934 54.322Z" fill="#73F2FF"/>
<path d="M144.734 49.6641L146.287 54.4633H145.722C145.722 54.4633 145.863 53.7575 145.44 52.0637C144.875 50.3698 144.451 49.6641 144.451 49.6641H144.734Z" fill="#73F2FF"/>
<path d="M144.734 49.6636L146.288 54.4628L146.711 54.1805C146.711 54.1805 146.146 53.757 145.582 52.0632C145.017 50.3694 145.017 49.5225 145.017 49.5225L144.734 49.6636Z" fill="#73F2FF"/>
<path d="M147.134 47.9697C147.134 47.9697 147.558 48.6755 149.111 49.5224C150.805 50.3693 151.088 50.3693 151.088 50.3693L151.37 50.6516L146.852 48.252L147.134 47.9697Z" fill="#73F2FF"/>
<path d="M151.371 50.652L150.947 50.9343C150.947 50.9343 150.241 50.0874 148.97 49.3817C147.558 48.6759 146.711 48.5347 146.711 48.5347L146.993 48.2524L151.371 50.652Z" fill="#73F2FF"/>
<path d="M145.723 54.3223C145.723 54.3223 146.429 54.7457 146.711 56.0161C146.711 56.0161 146.852 56.5807 146.711 57.0042L147.135 57.1453L146.287 54.4634L145.723 54.3223Z" fill="#46CBD5"/>
<path d="M146.711 54.0396L146.287 54.3219L147.134 57.0038L147.417 56.5803C147.417 56.5803 146.993 56.298 146.711 55.5922C146.428 54.7453 146.711 54.0396 146.711 54.0396Z" fill="#46CBD5"/>
<path d="M140.498 54.3223L140.781 54.6046L146.288 56.863H146.994L147.135 57.1453L139.934 54.3223H140.498Z" fill="#46CBD5"/>
<path d="M150.946 51.0758L150.805 51.4993L147.557 56.4396L146.992 56.8631L147.133 57.1454L151.37 50.6523L150.946 51.0758Z" fill="#46CBD5"/>
<path d="M147.277 48.2524C146.147 49.5227 143.888 50.2285 142.193 49.805C140.499 49.3816 140.075 48.1112 141.205 46.8408C142.334 45.5705 144.594 44.8647 146.288 45.2881C148.124 45.5705 148.547 46.982 147.277 48.2524Z" fill="#60E5EF"/>
<path d="M142.193 49.805C140.499 49.3816 140.075 48.1112 141.205 46.8408C142.334 45.5705 144.594 44.8647 146.288 45.2881L142.193 49.805Z" fill="#73F2FF"/>
<path d="M142.475 49.5227C140.922 49.2404 140.498 47.97 141.345 46.8408C140.216 48.1112 140.639 49.3816 142.334 49.805C144.028 50.2285 146.287 49.5227 147.417 48.2523C147.558 48.1112 147.558 48.1112 147.7 47.97C146.429 49.0993 144.169 49.805 142.475 49.5227Z" fill="#97FAFF"/>
<defs>
<linearGradient id="paint0_linear_482_8704" x1="148.145" y1="130.165" x2="166.766" y2="130.165" gradientUnits="userSpaceOnUse">
<stop stop-color="#25A375"/>
<stop offset="1" stop-color="#37CBD5"/>
</linearGradient>
<linearGradient id="paint1_linear_482_8704" x1="153.707" y1="130.805" x2="155.075" y2="130.805" gradientUnits="userSpaceOnUse">
<stop stop-color="#25A375"/>
<stop offset="1" stop-color="#37CBD5"/>
</linearGradient>
<linearGradient id="paint2_linear_482_8704" x1="151.66" y1="131.038" x2="153.028" y2="131.038" gradientUnits="userSpaceOnUse">
<stop stop-color="#25A375"/>
<stop offset="1" stop-color="#37CBD5"/>
</linearGradient>
<linearGradient id="paint3_linear_482_8704" x1="149.598" y1="131.272" x2="150.975" y2="131.272" gradientUnits="userSpaceOnUse">
<stop stop-color="#25A375"/>
<stop offset="1" stop-color="#37CBD5"/>
</linearGradient>
<linearGradient id="paint4_linear_482_8704" x1="155.967" y1="137" x2="158.05" y2="137" gradientUnits="userSpaceOnUse">
<stop stop-color="#25A375"/>
<stop offset="1" stop-color="#37CBD5"/>
</linearGradient>
<linearGradient id="paint5_linear_482_8704" x1="157.363" y1="132.587" x2="159.446" y2="132.587" gradientUnits="userSpaceOnUse">
<stop stop-color="#25A375"/>
<stop offset="1" stop-color="#37CBD5"/>
</linearGradient>
<linearGradient id="paint6_linear_482_8704" x1="159.279" y1="134.107" x2="161.371" y2="134.107" gradientUnits="userSpaceOnUse">
<stop stop-color="#25A375"/>
<stop offset="1" stop-color="#37CBD5"/>
</linearGradient>
<linearGradient id="paint7_linear_482_8704" x1="161.123" y1="135.67" x2="163.204" y2="135.67" gradientUnits="userSpaceOnUse">
<stop stop-color="#25A375"/>
<stop offset="1" stop-color="#37CBD5"/>
</linearGradient>
<linearGradient id="paint8_linear_482_8704" x1="162.67" y1="131.143" x2="164.762" y2="131.143" gradientUnits="userSpaceOnUse">
<stop stop-color="#25A375"/>
<stop offset="1" stop-color="#37CBD5"/>
</linearGradient>
<clipPath id="clip0_482_8704">
<rect width="235" height="456" fill="white" transform="translate(34)"/>
</clipPath>
<clipPath id="clip1_482_8704">
<rect width="18.6211" height="18.6211" fill="white" transform="translate(148.143 139.474) rotate(-90)"/>
</clipPath>
</defs>
</svg>
