<svg width="62" height="69" viewBox="0 0 62 69" fill="none" xmlns="http://www.w3.org/2000/svg">
<path d="M26.4648 63.1699V63.9119C26.4648 66.1611 28.3051 68.0013 30.5541 68.0013C32.8032 68.0013 34.6434 66.1611 34.6434 63.9119V63.1699H26.4648Z" fill="#8479C2"/>
<path d="M30.1256 63.9109V63.1689H26.4648V63.9109C26.4648 66.1601 28.3051 68.0003 30.5541 68.0003C31.2112 68.0003 31.8328 67.8424 32.3845 67.5639C31.0482 66.8892 30.1256 65.503 30.1256 63.9109Z" fill="#6E60B8"/>
<path d="M37.4976 58.1934H23.6127C22.6437 58.1934 21.8555 58.9816 21.8555 59.9505V61.4463C21.8555 62.4153 22.6437 63.2035 23.6127 63.2035H37.4975C38.4664 63.2035 39.2547 62.4153 39.2547 61.4463V59.9505C39.2548 58.9816 38.4665 58.1934 37.4976 58.1934Z" fill="#EFECEF"/>
<path d="M37.4976 60.6978H23.6127C22.8191 60.6978 22.1475 60.1689 21.9301 59.4453C21.8807 59.609 21.8556 59.779 21.8555 59.9499V61.4457C21.8555 62.4146 22.6437 63.2029 23.6127 63.2029H37.4975C38.4664 63.2029 39.2547 62.4146 39.2547 61.4457V59.9499C39.2547 59.7745 39.2281 59.6053 39.18 59.4453C38.9626 60.1688 38.291 60.6978 37.4976 60.6978Z" fill="#E2DFE2"/>
<path d="M38.8468 53.25H22.263C21.2941 53.25 20.5059 54.0383 20.5059 55.0072V56.503C20.5059 57.4719 21.2941 58.2602 22.263 58.2602H38.8468C39.8158 58.2602 40.604 57.4719 40.604 56.503V55.0072C40.604 54.0383 39.8158 53.25 38.8468 53.25Z" fill="#EFECEF"/>
<path d="M38.8468 55.7555H22.263C21.4697 55.7555 20.7981 55.2267 20.5805 54.5029C20.5311 54.6666 20.506 54.8366 20.5059 55.0075V56.5033C20.5059 57.4722 21.2941 58.2605 22.263 58.2605H38.8468C39.8158 58.2605 40.604 57.4722 40.604 56.5033V55.0075C40.604 54.8321 40.5774 54.6629 40.5293 54.5029C40.312 55.2267 39.6404 55.7555 38.8468 55.7555Z" fill="#E2DFE2"/>
<path d="M30.5838 0.893573C18.9329 0.878315 9.43932 10.3591 9.43945 22.0099C9.43959 29.7551 13.6102 36.5253 19.8276 40.1998C20.9317 40.8524 21.5999 42.0481 21.5999 43.3306V48.4739C21.8102 48.386 22.0359 48.3408 22.2638 48.341H38.8476C39.0829 48.341 39.3071 48.3886 39.5115 48.4739V43.3303C39.5115 42.0328 40.2047 40.8405 41.3205 40.1779C47.5177 36.4984 51.6719 29.7397 51.6719 22.0095C51.6719 10.3569 42.233 0.908831 30.5838 0.893573Z" fill="#FFE07D"/>
<path d="M45.286 17.8761C44.1901 13.7924 41.3748 10.3779 37.5617 8.50823C37.4422 8.44975 37.3354 8.36829 37.2474 8.2685C37.1594 8.16872 37.0919 8.05257 37.0488 7.92669C37.0056 7.8008 36.9878 7.66766 36.9961 7.53487C37.0045 7.40207 37.039 7.27223 37.0976 7.15276C37.1561 7.0333 37.2377 6.92654 37.3376 6.83861C37.4374 6.75067 37.5536 6.68328 37.6795 6.64028C37.8055 6.59728 37.9386 6.57951 38.0714 6.588C38.2042 6.59649 38.334 6.63106 38.4534 6.68974C42.7914 8.81676 45.9949 12.7029 47.2422 17.3511C47.3118 17.6106 47.2755 17.887 47.1413 18.1197C47.0071 18.3523 46.786 18.5221 46.5266 18.5917C46.2672 18.6614 45.9907 18.6251 45.7581 18.4909C45.5254 18.3567 45.3556 18.1355 45.286 17.8761Z" fill="#FFEAC8"/>
<path d="M27.1808 43.3307C27.1808 42.0483 26.5126 40.8524 25.4086 40.2C19.1912 36.5254 15.0205 29.7553 15.0205 22.0101C15.0204 11.3128 23.0237 2.4462 33.3515 1.07788C32.4339 0.956414 31.5094 0.894849 30.5838 0.893573C18.9329 0.878315 9.43932 10.3591 9.43945 22.0099C9.43959 29.7551 13.6102 36.5253 19.8276 40.1998C20.9317 40.8524 21.5999 42.0481 21.5999 43.3306V48.4739C21.8102 48.386 22.0359 48.3408 22.2638 48.341H27.1808V43.3307Z" fill="#FFC250"/>
<path d="M38.8468 48.3076H22.263C21.2941 48.3076 20.5059 49.0959 20.5059 50.0648V51.5606C20.5059 52.5295 21.2941 53.3178 22.263 53.3178H38.8468C39.8158 53.3178 40.604 52.5295 40.604 51.5606V50.0648C40.604 49.0959 39.8158 48.3076 38.8468 48.3076Z" fill="#EFECEF"/>
<path d="M38.8468 50.813H22.263C21.4697 50.813 20.7981 50.2841 20.5805 49.5605C20.5311 49.7242 20.506 49.8942 20.5059 50.0651V51.5609C20.5059 52.5298 21.2941 53.3181 22.263 53.3181H38.8468C39.8158 53.3181 40.604 52.5298 40.604 51.5609V50.0651C40.604 49.8897 40.5774 49.7205 40.5293 49.5605C40.312 50.2841 39.6404 50.813 38.8468 50.813Z" fill="#E2DFE2"/>
<path d="M4.52751 22.4827H1.04392C0.775344 22.4827 0.517768 22.376 0.327855 22.1861C0.137942 21.9962 0.03125 21.7386 0.03125 21.47C0.03125 21.2015 0.137942 20.9439 0.327855 20.754C0.517768 20.5641 0.775344 20.4574 1.04392 20.4574H4.52751C4.79609 20.4574 5.05367 20.5641 5.24358 20.754C5.43349 20.9439 5.54018 21.2015 5.54018 21.47C5.54018 21.7386 5.43349 21.9962 5.24358 22.1861C5.05367 22.376 4.79609 22.4827 4.52751 22.4827ZM5.52182 16.0564L2.2648 14.8203C2.13995 14.7735 2.02557 14.7025 1.92822 14.6114C1.83088 14.5203 1.75248 14.4108 1.69754 14.2893C1.6426 14.1679 1.61218 14.0367 1.60805 13.9035C1.60392 13.7702 1.62614 13.6374 1.67345 13.5127C1.72075 13.3881 1.79221 13.274 1.88372 13.177C1.97523 13.0801 2.08499 13.0021 2.2067 12.9477C2.32841 12.8932 2.45967 12.8633 2.59296 12.8597C2.72624 12.8562 2.85893 12.8789 2.98339 12.9267L6.24041 14.1629C6.36526 14.2097 6.47964 14.2807 6.57699 14.3718C6.67434 14.4629 6.75273 14.5723 6.80767 14.6938C6.86262 14.8153 6.89303 14.9464 6.89716 15.0797C6.9013 15.213 6.87907 15.3458 6.83177 15.4704C6.78446 15.5951 6.713 15.7092 6.62149 15.8061C6.52998 15.9031 6.42022 15.9811 6.29851 16.0355C6.1768 16.0899 6.04554 16.1198 5.91225 16.1234C5.77897 16.127 5.64629 16.1042 5.52182 16.0564ZM1.67731 29.4259C1.58203 29.1748 1.59039 28.8961 1.70056 28.6511C1.81074 28.4062 2.0137 28.2151 2.2648 28.1198L5.52182 26.8836C5.77264 26.7896 6.0505 26.7988 6.29456 26.9092C6.53862 27.0196 6.72901 27.2222 6.82405 27.4726C6.91908 27.723 6.91103 28.0009 6.80165 28.2454C6.69226 28.4899 6.49046 28.6811 6.24041 28.7772L2.98339 30.0133C2.73229 30.1086 2.45362 30.1003 2.20868 29.9901C1.96375 29.8799 1.77261 29.677 1.67731 29.4259ZM60.0673 22.4827H56.5836C56.315 22.4827 56.0574 22.376 55.8675 22.1861C55.6776 21.9962 55.5709 21.7386 55.5709 21.47C55.5709 21.2015 55.6776 20.9439 55.8675 20.754C56.0574 20.5641 56.315 20.4574 56.5836 20.4574H60.0673C60.3359 20.4574 60.5934 20.5641 60.7834 20.754C60.9733 20.9439 61.08 21.2015 61.08 21.47C61.08 21.7386 60.9733 21.9962 60.7834 22.1861C60.5934 22.376 60.3359 22.4827 60.0673 22.4827ZM54.2833 15.4689C54.188 15.2178 54.1964 14.9392 54.3066 14.6942C54.4167 14.4493 54.6197 14.2582 54.8708 14.1629L58.1278 12.9267C58.2523 12.8789 58.385 12.8562 58.5183 12.8597C58.6515 12.8633 58.7828 12.8932 58.9045 12.9477C59.0262 13.0021 59.136 13.0801 59.2275 13.177C59.319 13.274 59.3905 13.3881 59.4378 13.5127C59.4851 13.6374 59.5073 13.7702 59.5032 13.9035C59.499 14.0367 59.4686 14.1679 59.4137 14.2893C59.3587 14.4108 59.2803 14.5203 59.183 14.6114C59.0856 14.7025 58.9713 14.7735 58.8464 14.8203L55.5894 16.0564C55.3383 16.1517 55.0596 16.1433 54.8147 16.0331C54.5698 15.923 54.3786 15.72 54.2833 15.4689ZM58.128 30.0133L54.8709 28.7772C54.7461 28.7304 54.6317 28.6594 54.5344 28.5683C54.437 28.4772 54.3586 28.3677 54.3037 28.2463C54.2487 28.1248 54.2183 27.9936 54.2142 27.8604C54.2101 27.7271 54.2323 27.5943 54.2796 27.4697C54.3269 27.345 54.3984 27.2309 54.4899 27.1339C54.5814 27.037 54.6911 26.959 54.8128 26.9046C54.9346 26.8501 55.0658 26.8202 55.1991 26.8167C55.3324 26.8131 55.4651 26.8358 55.5895 26.8836L58.8466 28.1198C58.9714 28.1666 59.0858 28.2376 59.1831 28.3287C59.2805 28.4198 59.3589 28.5292 59.4138 28.6507C59.4688 28.7722 59.4992 28.9034 59.5033 29.0366C59.5074 29.1699 59.4852 29.3027 59.4379 29.4273C59.3906 29.552 59.3191 29.6661 59.2276 29.763C59.1361 29.86 59.0264 29.938 58.9047 29.9924C58.7829 30.0469 58.6517 30.0767 58.5184 30.0803C58.3851 30.0839 58.2524 30.0612 58.128 30.0133Z" fill="#FFC250"/>
<path d="M38.4223 6.6762C38.3027 6.61645 38.1725 6.58094 38.0392 6.57174C37.9059 6.56254 37.7721 6.57982 37.6454 6.62258C37.5188 6.66534 37.4019 6.73274 37.3015 6.8209C37.201 6.90905 37.119 7.01622 37.0602 7.13622C37.0014 7.25621 36.9669 7.38667 36.9587 7.52006C36.9505 7.65345 36.9688 7.78714 37.0126 7.91343C37.0563 8.03971 37.1246 8.15609 37.2135 8.25585C37.3025 8.35561 37.4103 8.43678 37.5307 8.49469C41.3437 10.3645 44.1592 13.7789 45.255 17.8626C45.2894 17.991 45.3489 18.1114 45.4299 18.2169C45.5109 18.3224 45.6119 18.4109 45.7271 18.4774C45.8423 18.5438 45.9694 18.5869 46.1013 18.6043C46.2332 18.6216 46.3672 18.6127 46.4956 18.5783C46.6241 18.5438 46.7445 18.4844 46.85 18.4034C46.9554 18.3224 47.0439 18.2214 47.1104 18.1062C47.1769 17.991 47.22 17.8638 47.2373 17.7319C47.2546 17.6001 47.2458 17.4661 47.2113 17.3376C45.9638 12.6892 42.7603 8.80322 38.4223 6.6762ZM5.50893 21.4565C5.50893 21.1879 5.40224 20.9303 5.21233 20.7404C5.02242 20.5505 4.76484 20.4438 4.49626 20.4438H1.01267C0.453272 20.4438 0 20.8972 0 21.4565C0 22.0157 0.453272 22.4692 1.01267 22.4692H4.49626C4.76484 22.4692 5.02242 22.3625 5.21233 22.1726C5.40224 21.9826 5.50893 21.7251 5.50893 21.4565ZM6.20916 14.1492L2.95214 12.913C2.4296 12.7148 1.84455 12.9776 1.64606 13.5005C1.44758 14.0235 1.71061 14.6083 2.23355 14.8066L5.49057 16.0427C5.74139 16.1368 6.01924 16.1276 6.26331 16.0172C6.50737 15.9068 6.69776 15.7042 6.7928 15.4538C6.88783 15.2034 6.87978 14.9255 6.7704 14.681C6.66101 14.4364 6.45921 14.2452 6.20916 14.1492ZM5.49057 26.87L2.23355 28.1061C1.9835 28.2022 1.7817 28.3934 1.67232 28.6379C1.56293 28.8824 1.55488 29.1603 1.64992 29.4107C1.74495 29.6611 1.93534 29.8637 2.17941 29.9741C2.42347 30.0845 2.70132 30.0937 2.95214 29.9997L6.20916 28.7635C6.45921 28.6675 6.66101 28.4762 6.7704 28.2317C6.87978 27.9872 6.88783 27.7093 6.7928 27.4589C6.69776 27.2085 6.50737 27.0059 6.26331 26.8955C6.01924 26.7851 5.74139 26.7759 5.49057 26.87ZM60.036 20.4438H56.5523C55.9929 20.4438 55.5396 20.8972 55.5396 21.4565C55.5396 22.0157 55.9929 22.4692 56.5523 22.4692H60.036C60.5954 22.4692 61.0487 22.0157 61.0487 21.4565C61.0487 20.8972 60.5954 20.4438 60.036 20.4438ZM55.5583 16.0429L58.8153 14.8067C59.0653 14.7107 59.2672 14.5195 59.3765 14.275C59.4859 14.0304 59.494 13.7526 59.3989 13.5021C59.3039 13.2517 59.1135 13.0491 58.8694 12.9387C58.6254 12.8283 58.3475 12.8192 58.0967 12.9132L54.8397 14.1493C54.5896 14.2454 54.3878 14.4366 54.2785 14.6811C54.1691 14.9256 54.161 15.2035 54.2561 15.4539C54.3511 15.7044 54.5415 15.9069 54.7855 16.0173C55.0296 16.1277 55.3075 16.1369 55.5583 16.0429ZM58.8153 28.1061L55.5583 26.87C55.3072 26.7747 55.0285 26.7831 54.7836 26.8933C54.5387 27.0034 54.3475 27.2064 54.2522 27.4574C54.205 27.5818 54.1828 27.7142 54.1867 27.8471C54.1907 27.98 54.2208 28.1109 54.2754 28.2322C54.33 28.3535 54.4079 28.4628 54.5047 28.554C54.6015 28.6451 54.7153 28.7163 54.8397 28.7635L58.0967 29.9997C58.3475 30.0937 58.6254 30.0845 58.8694 29.9741C59.1135 29.8637 59.3039 29.6611 59.3989 29.4107C59.494 29.1603 59.4859 28.8824 59.3765 28.6379C59.2672 28.3934 59.0653 28.2022 58.8153 28.1061Z" fill="black"/>
<path d="M32.7761 2.01915C41.9216 3.03762 49.1846 10.1157 50.4387 19.2315C50.4568 19.3632 50.5007 19.4901 50.5678 19.6049C50.635 19.7197 50.7241 19.8201 50.8301 19.9005C50.9361 19.9808 51.0568 20.0395 51.1855 20.0732C51.3141 20.1068 51.4482 20.1148 51.5799 20.0967C51.7117 20.0786 51.8386 20.0347 51.9533 19.9675C52.0681 19.9004 52.1685 19.8113 52.2489 19.7053C52.3292 19.5993 52.3879 19.4786 52.4215 19.3499C52.4552 19.2212 52.4632 19.0872 52.445 18.9555C51.7807 14.1252 49.4841 9.58083 45.9785 6.15962C42.4669 2.73247 37.8578 0.54726 33.0002 0.00622369C32.7333 -0.0234989 32.4655 0.0540335 32.2557 0.221764C32.046 0.389495 31.9114 0.633685 31.8817 0.900615C31.852 1.16755 31.9295 1.43535 32.0972 1.64511C32.265 1.85488 32.5092 1.98942 32.7761 2.01915ZM51.6472 22.8102C51.0925 22.7634 50.5996 23.1756 50.552 23.7329C50.0016 30.1682 46.346 35.9856 40.7731 39.2944C39.3516 40.1384 38.4684 41.68 38.4684 43.3175V47.3154H34.1828V39.2652C34.1836 38.7978 34.3386 38.3437 34.6237 37.9733L36.0729 36.097C36.6312 35.3716 36.9347 34.4823 36.9363 33.567V26.2448C37.2048 26.2447 37.4622 26.1379 37.652 25.948C37.8418 25.7581 37.9484 25.5006 37.9484 25.2321C37.9484 24.9637 37.8418 24.7062 37.652 24.5163C37.4622 24.3264 37.2048 24.2196 36.9363 24.2195V24.109C36.9363 23.5498 36.483 23.0964 35.9236 23.0964C35.3642 23.0964 34.9109 23.5498 34.9109 24.109V24.2193H26.1398V24.109C26.1398 23.5498 25.6866 23.0964 25.1272 23.0964C24.5678 23.0964 24.1145 23.5498 24.1145 24.109V24.2193C23.8459 24.2193 23.5883 24.326 23.3984 24.5159C23.2085 24.7059 23.1018 24.9634 23.1018 25.232C23.1018 25.5006 23.2085 25.7582 23.3984 25.9481C23.5883 26.138 23.8459 26.2447 24.1145 26.2447V33.5668C24.1161 34.4822 24.4195 35.3715 24.9778 36.0969L26.427 37.973C26.7121 38.3435 26.8671 38.7976 26.868 39.2651V47.3153H22.5824V43.3175C22.5824 41.676 21.7127 40.1423 20.3127 39.3149C14.2118 35.7094 10.422 29.0734 10.4218 21.9967C10.4217 11.7478 18.0971 3.15968 28.2754 2.01996C28.8311 1.95771 29.2312 1.45664 29.1689 0.900885C29.1067 0.345131 28.6074 -0.0552117 28.0499 0.00716885C22.6833 0.608156 17.7235 3.16387 14.0842 7.20362C10.4164 11.2751 8.39635 16.5287 8.39648 21.9967C8.39675 30.0673 12.7323 37.1875 19.282 41.0584C20.0684 41.5232 20.5569 42.3888 20.5569 43.3174V47.8937C19.9135 48.3948 19.4973 49.1745 19.4973 50.0512V51.547C19.4973 52.1999 19.7279 52.7995 20.1109 53.2705C19.7137 53.7569 19.4969 54.3658 19.4973 54.9939V56.4897C19.4973 57.5684 20.1262 58.5004 21.0353 58.9457C20.9112 59.2614 20.8473 59.5974 20.8468 59.9365V61.4323C20.8468 62.9409 22.0742 64.1684 23.5829 64.1684H25.4306C25.5718 66.8563 27.8029 68.9997 30.5254 68.9997C33.2477 68.9997 35.4788 66.8562 35.6201 64.1684H37.4677C38.9765 64.1684 40.2038 62.9411 40.2038 61.4323V59.9365C40.2038 59.5868 40.1354 59.2535 40.0153 58.9457C40.9243 58.5004 41.5534 57.5684 41.5534 56.4897V54.9939C41.5534 54.3411 41.3228 53.7414 40.9397 53.2705C41.337 52.784 41.5538 52.1751 41.5534 51.547V50.0512C41.5534 49.1744 41.1371 48.3946 40.4937 47.8937V43.3172C40.4937 42.391 40.9971 41.5167 41.8072 41.0356C47.9406 37.3939 51.9642 30.9901 52.57 23.9051C52.5927 23.6376 52.5083 23.372 52.3352 23.1667C52.1622 22.9613 51.9147 22.8332 51.6472 22.8102ZM26.5804 34.8593C26.2953 34.4888 26.1404 34.0347 26.1396 33.5672V26.2451H34.9107V33.5672C34.9107 34.0324 34.7542 34.4912 34.4698 34.8591L33.0206 36.7354C32.4623 37.4608 32.1588 38.3501 32.1571 39.2655V47.3157H28.893V39.2655C28.8913 38.3501 28.5878 37.4608 28.0295 36.7354L26.5804 34.8593ZM30.5251 66.9747C28.9198 66.9747 27.5978 65.739 27.4604 64.1688H33.59C33.4525 65.7389 32.1305 66.9747 30.5251 66.9747ZM38.1784 61.4327C38.1781 61.6212 38.1032 61.8018 37.9699 61.9351C37.8367 62.0683 37.656 62.1433 37.4676 62.1435H23.5828C23.3943 62.1433 23.2137 62.0683 23.0804 61.9351C22.9472 61.8018 22.8722 61.6212 22.872 61.4327V59.9369C22.8722 59.7485 22.9472 59.5678 23.0804 59.4346C23.2137 59.3014 23.3943 59.2264 23.5828 59.2262H37.4676C37.656 59.2264 37.8367 59.3014 37.9699 59.4346C38.1032 59.5678 38.1781 59.7485 38.1784 59.9369V61.4327ZM39.5279 56.4901C39.5277 56.6785 39.4527 56.8592 39.3194 56.9925C39.1862 57.1257 39.0055 57.2007 38.817 57.2008H22.2334C22.0449 57.2007 21.8642 57.1257 21.7309 56.9925C21.5977 56.8592 21.5227 56.6785 21.5225 56.4901V54.9943C21.5227 54.8058 21.5977 54.6252 21.7309 54.4919C21.8642 54.3587 22.0449 54.2837 22.2334 54.2835H38.817C39.0055 54.2837 39.1862 54.3587 39.3194 54.4919C39.4527 54.6252 39.5277 54.8058 39.5279 54.9943V56.4901ZM39.5279 51.5474C39.5277 51.7359 39.4527 51.9166 39.3194 52.0498C39.1862 52.1831 39.0055 52.258 38.817 52.2582H22.2334C22.0449 52.258 21.8642 52.1831 21.7309 52.0498C21.5977 51.9166 21.5227 51.7359 21.5225 51.5474V50.0517C21.5225 49.6483 21.8608 49.3409 22.2334 49.3409H38.817C39.2059 49.3409 39.5279 49.6625 39.5279 50.0517V51.5474Z" fill="black"/>
</svg>
