<svg width="42" height="54" viewBox="0 0 42 54" fill="none" xmlns="http://www.w3.org/2000/svg">
<path d="M33.6234 17.6872C38.1237 21.3544 40.9991 26.9425 40.9991 33.2017C40.9991 44.2509 32.0419 53.2061 20.9927 53.2061C9.94347 53.2061 0.986328 44.2509 0.986328 33.2017C0.986328 29.4013 2.04555 25.8482 3.88714 22.8228C3.88714 22.8228 6.63386 26.5073 9.77188 26.6692C9.77188 26.6692 7.00859 7.39964 26.3883 0.792969C26.3883 0.792969 21.9622 6.88548 23.9616 12.3385C25.5766 16.743 30.4624 16.3188 30.5725 25.091C30.5724 25.0909 33.0041 22.3956 33.6234 17.6872Z" fill="#FF64C1"/>
<path d="M23.6294 53.0339C22.7552 53.1483 21.8744 53.2057 20.9927 53.2058C9.94379 53.2058 0.986328 44.2515 0.986328 33.2015C0.986328 29.4015 2.04523 25.8482 3.88672 22.8234C3.88672 22.8234 5.45926 24.9328 7.58445 26.0286C6.72805 28.255 6.25977 30.6734 6.25977 33.2015C6.25987 43.3571 13.8273 51.7429 23.6294 53.0339ZM26.3885 0.792969C26.3885 0.792969 25.3106 2.27691 24.4584 4.43586C13.0361 12.6593 15.0453 26.6697 15.0453 26.6697C12.6997 26.5484 10.5724 24.4591 9.64742 23.4118C9.80984 17.6268 11.973 5.70676 26.3885 0.792969Z" fill="#FF14A1"/>
<path d="M30.8623 43.342C30.8623 46.0671 29.7571 48.5329 27.9716 50.3184C26.1861 52.1039 23.7182 53.2068 20.9933 53.2068C15.5451 53.2068 11.128 48.7921 11.126 43.3439V43.34C11.1007 41.2855 11.5451 38.8567 12.781 36.0381L16.8161 37.2174C16.9642 29.4164 24.2174 26.6699 24.2174 26.6699C24.4786 29.2371 25.1413 31.7205 26.5156 33.966C27.5155 35.5976 28.461 36.9952 29.5545 38.5605C30.5017 39.919 30.8701 41.7124 30.8623 43.342Z" fill="#FEF48B"/>
<path d="M22.5757 53.0792C22.061 53.1625 21.5326 53.2058 20.9937 53.2058C15.5452 53.2058 11.1281 48.7919 11.126 43.3434V43.3392C11.1007 41.2846 11.5447 38.8557 12.7808 36.0375L15.6021 36.8623C14.6255 39.3324 14.2669 41.4882 14.2901 43.3392V43.3434C14.2923 48.2529 17.8792 52.3231 22.5757 53.0792ZM24.4616 28.407C22.4282 30.0006 20.0635 32.7977 19.9802 37.2168L16.8668 36.3066C17.5312 29.2012 24.2169 26.6699 24.2169 26.6699C24.2753 27.252 24.357 27.8314 24.4616 28.407Z" fill="#FFD32A"/>
<path d="M41.7901 33.202C41.7901 26.923 38.9957 21.0446 34.1233 17.0742C33.4956 16.7417 33.0676 16.9118 32.8394 17.5844C32.5508 19.7795 31.8408 21.5198 31.2013 22.7133C30.7094 19.0097 29.1848 17.2404 27.6338 15.7587C26.2083 14.3951 24.8333 13.0483 24.4098 11.0381C24.3666 10.8328 24.2435 10.6531 24.0678 10.5386C23.8921 10.424 23.678 10.3839 23.4727 10.4271C23.2674 10.4704 23.0877 10.5934 22.9732 10.7692C22.8586 10.9449 22.8185 11.1589 22.8617 11.3642C23.3541 13.7005 24.8858 15.3186 26.5404 16.9021C28.2143 18.5012 29.7218 20.3316 29.7816 25.1013C30.0044 25.9014 30.4637 26.0748 31.1596 25.6215C31.2549 25.5158 33.2844 23.2282 34.1608 19.2083C38.0204 22.8352 40.2081 27.8617 40.2081 33.2021C40.2081 41.1206 35.3921 47.9348 28.5354 50.8722C30.6376 48.7669 31.7687 45.7643 31.6422 42.7996C31.6235 42.363 31.2501 42.0214 30.8182 42.0431C30.6086 42.052 30.4112 42.1439 30.2693 42.2984C30.1274 42.453 30.0527 42.6575 30.0617 42.8671C30.1705 45.3965 29.2072 47.9632 27.4111 49.7592C25.6984 51.472 23.4189 52.4153 20.9927 52.4153C12.4667 52.4153 10.6429 43.4198 13.235 36.9951L16.5932 37.9765C17.176 38.0621 17.5136 37.8139 17.6059 37.2321C17.6626 34.2433 18.8248 31.6898 21.0604 29.6425C21.9821 28.7985 22.909 28.2155 23.5672 27.8574C23.9402 30.3546 24.6875 32.4967 25.8397 34.3792C26.9341 36.1633 28.4085 37.8524 29.3244 39.7321C29.3699 39.8255 29.4333 39.909 29.5111 39.9779C29.5888 40.0468 29.6794 40.0997 29.7776 40.1336C29.8758 40.1674 29.9797 40.1816 30.0834 40.1753C30.1871 40.169 30.2885 40.1423 30.3819 40.0968C30.4753 40.0513 30.5588 39.9879 30.6277 39.9101C30.6965 39.8324 30.7494 39.7418 30.7833 39.6436C30.8172 39.5454 30.8313 39.4415 30.8251 39.3378C30.8188 39.2341 30.7921 39.1327 30.7466 39.0393C29.8062 37.108 28.3121 35.3841 27.1886 33.5528C25.9966 31.6052 25.2816 29.3277 25.0025 26.5901C24.8635 26.0198 24.5079 25.8 23.9355 25.9306C23.8558 25.9608 21.96 26.6903 20.0392 28.4328C17.7361 30.5222 16.3813 33.1839 16.0841 36.1796L13.0016 35.2789C12.8171 35.225 12.6194 35.2402 12.4453 35.3214C12.2711 35.4027 12.1325 35.5445 12.0553 35.7205C9.88244 40.6744 9.32799 46.7263 13.4462 50.8586C7.42365 48.2663 2.90632 42.6723 1.96174 35.8721C1.9479 35.7688 1.91378 35.6693 1.86136 35.5793C1.80894 35.4892 1.73924 35.4104 1.65627 35.3474C1.5733 35.2843 1.47869 35.2383 1.37788 35.2119C1.27707 35.1856 1.17205 35.1794 1.06884 35.1937C0.965627 35.2081 0.86627 35.2427 0.776471 35.2955C0.686671 35.3484 0.608201 35.4185 0.545567 35.5017C0.482933 35.585 0.437369 35.6798 0.411494 35.7808C0.385619 35.8817 0.379942 35.9868 0.39479 36.0899C1.80607 46.2495 10.94 54.2488 21.2654 53.9938C32.6078 53.847 41.7901 44.5773 41.7901 33.202Z" fill="black"/>
<path d="M0.972205 33.3234C1.07604 33.3268 1.17952 33.3098 1.27675 33.2732C1.37398 33.2366 1.46305 33.1812 1.53888 33.1102C1.6147 33.0392 1.67579 32.9539 1.71866 32.8593C1.76154 32.7647 1.78535 32.6625 1.78874 32.5587C1.8844 29.6334 2.65074 26.7645 4.01529 24.196C5.11407 25.3834 7.27723 27.3326 9.73117 27.4597C10.2898 27.4184 10.5645 27.1176 10.5551 26.5574C9.08201 16.2573 15.1666 6.32597 24.5407 2.344C23.8512 3.67744 23.0678 5.55868 22.7726 7.6418C22.758 7.74465 22.7638 7.84937 22.7897 7.94998C22.8156 8.05058 22.861 8.14511 22.9235 8.22815C22.9859 8.31119 23.064 8.38112 23.1535 8.43396C23.2429 8.48679 23.3419 8.52149 23.4447 8.53607C23.8777 8.59798 24.2776 8.29655 24.339 7.86392C24.8425 4.31088 27.005 1.28572 27.0287 1.25799C27.7429 0.423833 26.7586 -0.173858 26.1336 0.0442511C15.0699 3.90504 8.1444 13.9472 8.8889 25.715C6.54022 25.0147 4.54295 22.3798 4.52091 22.3505C4.06254 21.9069 3.6259 21.9273 3.2112 22.4121C1.36286 25.4484 0.324099 28.9392 0.207451 32.507C0.200626 32.7167 0.277357 32.9205 0.42077 33.0736C0.564184 33.2267 0.762536 33.3166 0.972205 33.3234Z" fill="black"/>
</svg>
