<svg width="149" height="140" viewBox="0 0 149 140" fill="none" xmlns="http://www.w3.org/2000/svg">
<path d="M3.06268 86.0682L8.84773 75.1827L5.44475 69.0596L0 76.8835L3.06268 86.0682Z" fill="#53D8E2"/>
<path d="M3.0625 86.0675L8.84755 75.182L14.6326 74.8418L18.3759 86.4076L3.0625 86.0675Z" fill="#46CBD5"/>
<path d="M30.6258 77.2231L19.7363 71.7803V64.6367L27.5632 68.0384L30.6258 77.2231Z" fill="#2CB1BB"/>
<path d="M30.6268 77.223L19.7373 71.7803L14.6328 74.8418L18.3761 86.4077L30.6268 77.223Z" fill="#39BEC8"/>
<path d="M3.0625 86.0674L18.3759 86.4076L20.4177 92.8708L3.0625 86.0674Z" fill="#2CB1BB"/>
<path d="M30.6277 77.2236L20.4187 92.8715L18.377 86.4083L30.6277 77.2236Z" fill="#1FA4AE"/>
<path d="M7.48682 74.8418C7.48682 74.8418 7.82711 76.5427 5.44503 80.6247C3.40325 84.7068 2.72266 85.047 2.72266 85.047L3.06296 86.0675L8.50771 75.182L7.48682 74.8418Z" fill="#73F2FF"/>
<path d="M3.0625 86.0678H4.42368C4.42368 86.0678 4.76399 83.3464 6.46547 80.2849C8.16696 76.8832 9.86845 75.5225 9.86845 75.5225H8.84755L3.0625 86.0678Z" fill="#73F2FF"/>
<path d="M14.6337 74.8418L18.377 86.4076H17.0158C17.0158 86.4076 17.3561 84.7068 16.3352 80.6247C14.974 76.5427 13.9531 74.8418 13.9531 74.8418H14.6337Z" fill="#73F2FF"/>
<path d="M14.6328 74.8421L18.3761 86.408L19.397 85.7276C19.397 85.7276 18.0358 84.7071 16.6746 80.625C15.3134 76.543 15.3134 74.502 15.3134 74.502L14.6328 74.8421Z" fill="#73F2FF"/>
<path d="M20.4169 70.7598C20.4169 70.7598 21.4378 72.4606 25.1811 74.5017C29.2647 76.5427 29.9453 76.5427 29.9453 76.5427L30.6258 77.223L19.7363 71.4401L20.4169 70.7598Z" fill="#73F2FF"/>
<path d="M30.6263 77.2234L29.6054 77.9037C29.6054 77.9037 27.9039 75.8627 24.8412 74.1618C21.4383 72.4609 19.3965 72.1208 19.3965 72.1208L20.0771 71.4404L30.6263 77.2234Z" fill="#73F2FF"/>
<path d="M17.0156 86.0674C17.0156 86.0674 18.7171 87.0879 19.3977 90.1494C19.3977 90.1494 19.738 91.5101 19.3977 92.5307L20.4186 92.8708L18.3768 86.4076L17.0156 86.0674Z" fill="#46CBD5"/>
<path d="M19.3978 85.3877L18.377 86.068L20.4187 92.5313L21.0993 91.5108C21.0993 91.5108 20.0784 90.8304 19.3978 89.1296C18.7172 87.0885 19.3978 85.3877 19.3978 85.3877Z" fill="#46CBD5"/>
<path d="M4.42368 86.0674L5.10428 86.7477L18.3759 92.1905H20.0774L20.4177 92.8708L3.0625 86.0674H4.42368Z" fill="#46CBD5"/>
<path d="M29.6045 78.2441L29.2642 79.2647L21.4374 91.1707L20.0762 92.1912L20.4165 92.8715L30.6254 77.2236L29.6045 78.2441Z" fill="#46CBD5"/>
<path d="M20.7577 71.4403C18.0353 74.5018 12.5905 76.2027 8.50695 75.1822C4.42338 74.1617 3.40249 71.1001 6.12487 68.0386C8.84725 64.977 14.292 63.2762 18.3756 64.2967C22.7994 64.977 23.8203 68.3787 20.7577 71.4403Z" fill="#60E5EF"/>
<path d="M8.50695 75.1822C4.42338 74.1617 3.40249 71.1001 6.12487 68.0386C8.84725 64.977 14.292 63.2762 18.3756 64.2967L8.50695 75.1822Z" fill="#73F2FF"/>
<path d="M9.18709 74.5023C5.44382 73.822 4.42293 70.7604 6.46472 68.0391C3.74234 71.1006 4.76322 74.1622 8.84679 75.1827C12.9304 76.2032 18.3751 74.5023 21.0975 71.4408C21.4378 71.1006 21.4378 71.1006 21.7781 70.7604C18.7154 73.4818 13.2707 75.1827 9.18709 74.5023Z" fill="#97FAFF"/>
<path d="M52.5284 20.7505C52.1881 18.0291 51.1672 16.6684 49.806 15.9881L48.4448 14.9676C46.0627 13.947 43 14.9676 41.2985 15.3077C41.2985 14.6274 41.9791 13.947 42.6597 13.2667C45.3821 11.2257 47.7642 12.2462 47.7642 12.2462L50.4866 2.72137C48.4448 1.36068 46.0627 -3.85241e-06 41.2985 2.3812L40.9583 0.68034L39.5971 0L34.8329 3.74189L35.1732 7.48378C35.1732 7.48378 28.3672 14.9676 29.0478 22.4513C29.3881 25.1727 30.409 26.5334 31.7702 27.2137L33.1314 28.2343C35.5135 29.2548 38.5762 28.2343 40.2776 27.8941C40.2776 28.5744 39.5971 29.2548 38.9165 29.9351C35.1732 32.6565 32.1105 31.636 32.1105 31.636L29.3881 41.1608C32.4508 43.542 35.5135 43.2018 38.5762 41.501L38.9165 43.542L40.2776 44.5625C40.2776 44.5625 40.2776 44.5625 45.0418 41.1608L44.7015 37.4189C45.0418 37.0787 53.5493 29.2548 52.5284 20.7505Z" fill="#EA9600"/>
<path d="M40.277 40.8206C34.1517 44.2223 31.089 41.8411 31.089 41.8411L33.8114 32.3163C33.8114 32.3163 36.8741 33.3368 40.6173 30.6155C41.6382 29.9351 41.9785 28.9146 41.9785 28.2343C41.6382 25.8531 31.7696 33.3368 30.4084 23.4719C29.3875 15.9881 36.5338 8.50429 36.5338 8.50429L36.1935 4.7624L40.9576 1.02051L41.2979 4.42223C47.083 1.02051 50.4859 3.06154 50.4859 3.06154L47.7636 12.5863C47.7636 12.5863 45.3815 11.906 42.6591 13.6069C41.6382 14.2872 41.2979 15.3077 41.2979 15.9881C41.6382 18.3693 51.5068 10.8855 52.868 20.7505C53.8889 29.2548 45.3815 37.0787 45.3815 37.0787L45.7218 40.8206L40.9576 44.5625L40.277 40.8206Z" fill="#FFB92C"/>
<path d="M79.9193 17C79.9193 17 96.9341 53.7386 86.0446 75.8497C71.4118 106.125 35 117.351 35 117.351C35 117.351 59.5014 138.782 95.2326 139.462C95.2326 139.462 166.014 113.949 144.235 36.3898L79.9193 17Z" fill="#9BF3C1"/>
<path d="M144.235 36.0496L79.9193 17C79.9193 17 96.9341 53.7386 86.0446 75.8497C71.4118 106.125 35 117.351 35 117.351C35 117.351 59.5014 138.782 95.2326 139.462C95.2326 139.122 166.014 113.949 144.235 36.0496ZM95.9132 133.339C63.585 132.999 46.9104 116.33 46.9104 116.33C46.9104 116.33 76.8566 104.084 90.1282 76.5301C99.9968 56.4599 85.7043 23.8034 85.7043 23.8034L140.152 39.7915C160.229 110.207 95.9132 133.339 95.9132 133.339Z" fill="#34D678"/>
<path d="M58.8208 118.712C58.8208 114.97 56.779 111.568 53.3761 108.847C43.1671 114.63 35 117.351 35 117.351C35 117.351 41.4657 123.134 53.0358 128.917C56.779 126.195 58.8208 122.794 58.8208 118.712Z" fill="#34D678"/>
<path d="M101.018 23.4633L79.9199 17C79.9199 17 83.6632 25.1641 86.3856 36.0496C94.5527 35.0291 101.018 29.9265 101.018 23.4633Z" fill="#34D678"/>
<path d="M144.236 51.6977C145.257 51.6977 146.278 51.6977 147.299 51.3576C146.618 46.5952 145.597 41.1524 143.896 36.0498L129.603 31.9678C127.902 34.0088 126.881 36.39 126.881 39.1114C127.221 45.9148 135.048 51.6977 144.236 51.6977Z" fill="#34D678"/>
<path d="M96.2532 123.813C87.0651 123.813 79.2383 129.596 79.2383 137.08C79.2383 137.42 79.2383 137.761 79.2383 138.101C84.0024 139.121 89.4472 139.461 94.892 139.802C94.892 139.802 102.038 137.08 110.886 131.297C108.504 126.535 102.719 123.813 96.2532 123.813Z" fill="#34D678"/>
<path opacity="0.4" d="M144.236 36.0496L79.9199 17C79.9199 17 87.4065 32.9881 89.108 50.3368C94.5527 44.8941 104.421 36.73 113.95 40.1317C128.242 44.8941 145.257 65.6446 145.597 85.3745C149.341 71.7677 149.681 55.7796 144.236 36.0496Z" fill="#34D678"/>
<path d="M130.283 97.6205C127.901 104.764 117.012 107.486 105.442 103.744C93.8715 100.002 86.7253 91.4975 88.7671 84.3538C91.1491 77.2102 102.039 74.4889 113.609 78.2308C125.179 81.9726 132.325 90.4769 130.283 97.6205Z" fill="#34D678"/>
<path d="M95.9129 114.629C94.892 117.691 90.4682 119.051 86.3846 117.691C81.9607 116.33 79.2383 112.588 80.2592 109.526C81.2801 106.465 85.704 105.104 89.7876 106.465C94.2114 107.826 96.9338 111.568 95.9129 114.629Z" fill="#34D678"/>
<path d="M128.581 64.2841C127.9 67.3456 123.817 69.3867 119.393 68.3661C114.969 67.3456 111.906 64.2841 112.587 61.2225C113.267 58.161 117.351 56.12 121.775 57.1405C125.858 57.8208 128.921 61.2225 128.581 64.2841Z" fill="#34D678"/>
<path d="M119.053 98.3012C114.969 102.043 110.545 102.383 110.545 102.383L107.823 97.9611C107.823 97.9611 111.226 97.2807 113.608 94.5594C114.288 93.879 113.948 93.1987 113.608 93.1987C111.906 92.5183 106.121 99.3218 99.3154 95.92C94.2109 93.5388 96.9333 88.0961 96.9333 88.0961L94.2109 86.7354L96.9333 83.6739L99.3154 84.6944C103.059 81.2927 107.823 80.6123 107.823 80.6123L110.545 85.0345C110.545 85.0345 107.483 85.7149 106.121 87.4157C105.441 88.0961 105.781 88.7764 106.121 88.7764C107.823 89.4568 113.608 82.6533 120.414 86.0551C126.199 88.7764 122.115 95.2397 122.115 95.2397L124.497 96.2602L121.775 99.3218L119.053 98.3012Z" fill="#9BF3C1"/>
<g opacity="0.4">
<path d="M144.235 36.0492L143.555 35.709C164.653 112.588 94.2118 137.761 94.2118 137.761C63.2447 137.42 41.8059 120.752 36.7015 116.33C35.6806 117.01 35 117.35 35 117.35C35 117.35 59.5014 138.781 95.2326 139.461C95.2326 139.121 166.014 113.949 144.235 36.0492Z" fill="#34D678"/>
</g>
</svg>
