<svg width="12" height="10" viewBox="0 0 12 10" fill="none" xmlns="http://www.w3.org/2000/svg">
<path d="M3.9998 6.8874L9.8998 0.987402C10.0831 0.804069 10.3165 0.712402 10.5998 0.712402C10.8831 0.712402 11.1165 0.804069 11.2998 0.987402C11.4831 1.17074 11.5748 1.40407 11.5748 1.6874C11.5748 1.97074 11.4831 2.20407 11.2998 2.3874L4.6998 8.9874C4.4998 9.1874 4.26647 9.2874 3.9998 9.2874C3.73314 9.2874 3.4998 9.1874 3.2998 8.9874L0.699804 6.3874C0.516471 6.20407 0.424805 5.97074 0.424805 5.6874C0.424805 5.40407 0.516471 5.17074 0.699804 4.9874C0.883138 4.80407 1.11647 4.7124 1.3998 4.7124C1.68314 4.7124 1.91647 4.80407 2.0998 4.9874L3.9998 6.8874Z" fill="white"/>
</svg>
