<svg width="405" height="303" viewBox="0 0 405 303" fill="none" xmlns="http://www.w3.org/2000/svg">
<path d="M372.422 57.9287H383.486V169.315H372.422V57.9287Z" fill="#1D2943"/>
<path d="M381.399 150.932L346.293 146.512V214.778L381.405 210.358C384.623 209.952 387.582 208.386 389.727 205.953C391.872 203.521 393.056 200.39 393.057 197.146V164.144C393.057 157.431 388.061 151.766 381.399 150.932Z" fill="#1D2943"/>
<path d="M349.293 136.887L337.168 131.229V230.06L349.293 224.402C353.038 222.653 355.431 218.895 355.431 214.759V146.53C355.431 142.394 353.038 138.636 349.293 136.887Z" fill="#4C5C75"/>
<path d="M300.126 62.4121H37.9533C27.904 62.4121 18.2664 66.4042 11.1605 73.5101C4.05456 80.616 0.0625 90.2537 0.0625 100.303V265.109C0.0625 275.158 4.05456 284.796 11.1605 291.902C18.2664 299.008 27.904 303 37.9533 303H300.126C310.175 303 319.813 299.008 326.919 291.902C334.025 284.796 338.017 275.158 338.017 265.109V100.303C338.017 90.2537 334.025 80.616 326.919 73.5101C319.813 66.4042 310.175 62.4121 300.126 62.4121Z" fill="#FFD06C"/>
<path d="M226.332 80.3977C244.583 76.3876 277.2 76.2929 295.735 80.3977C275.969 84.7804 243.383 84.1489 226.332 80.3977Z" fill="white"/>
<path d="M37.9526 303H300.125C310.175 303 319.812 299.008 326.918 291.902C334.024 284.796 338.016 275.159 338.016 265.109V100.303C338.016 88.9991 333.046 78.8949 325.203 71.9482C294.233 123.271 205.525 235.769 4.67188 283.234C7.92918 289.217 12.7397 294.21 18.5967 297.689C24.4537 301.168 31.1405 303.003 37.9526 303Z" fill="#FEBC1F"/>
<path d="M35.5352 291.81C52.3966 288.103 85.1721 287.433 104.938 291.81C85.0269 296.224 52.2955 295.498 35.5352 291.81Z" fill="white"/>
<path d="M305.075 113.811C302.717 108.693 298.941 104.358 294.196 101.318C289.451 98.2786 283.934 96.6618 278.299 96.6592H59.7953C54.1637 96.6639 48.6511 98.2803 43.9086 101.317C39.1661 104.354 35.3919 108.685 33.0318 113.798C26.7798 127.313 20.332 150.18 20.332 187.022C20.332 223.852 26.7735 246.719 33.0255 260.234C35.3836 265.351 39.1579 269.685 43.9018 272.725C48.6458 275.765 54.1611 277.382 59.7953 277.386H278.299C283.934 277.384 289.45 275.768 294.195 272.729C298.94 269.691 302.716 265.357 305.075 260.24C311.327 246.726 317.769 223.859 317.769 187.022C317.769 150.186 311.327 127.325 305.081 113.805L305.075 113.811Z" fill="#F3A250"/>
<path d="M278.293 277.393C283.927 277.391 289.443 275.775 294.188 272.736C298.934 269.698 302.709 265.364 305.069 260.247C311.321 246.733 317.762 223.866 317.762 187.029C317.762 150.193 311.321 127.332 305.075 113.812C303.576 110.564 301.5 107.616 298.949 105.109C260.654 155.934 183.256 230.68 41.5508 271.046C46.7425 275.154 53.1685 277.39 59.7889 277.393H278.293Z" fill="#EF7B56"/>
<path d="M304.023 187.028C304.023 222.342 297.797 243.201 292.593 254.473C291.328 257.205 289.311 259.519 286.777 261.144C284.244 262.769 281.299 263.638 278.289 263.649H59.7855C53.6725 263.649 48.0583 260.05 45.4818 254.473C40.2781 243.201 34.0703 222.361 34.0703 187.028C34.0703 151.695 40.2781 130.855 45.5007 119.582C46.7636 116.849 48.7806 114.534 51.3146 112.908C53.8485 111.283 56.794 110.415 59.8045 110.406H278.289C284.396 110.406 290.016 114.006 292.587 119.582C297.816 130.855 304.023 151.714 304.023 187.028Z" fill="#E3E7F0"/>
<path d="M292.581 254.474C297.791 243.202 304.011 222.343 304.011 187.029C304.011 151.715 297.81 130.856 292.581 119.583C291.984 118.323 291.221 117.149 290.314 116.091C252.063 163.075 182.729 225.134 65.6211 263.65H278.283C284.39 263.65 289.992 260.051 292.581 254.474Z" fill="#C9CEE2"/>
<path d="M112.646 124.156H59.7884C59.4037 124.164 59.0292 124.281 58.7084 124.494C58.3876 124.706 58.1336 125.005 57.976 125.356C53.3406 135.372 47.8086 154.204 47.8086 187.023C47.8086 219.85 53.3343 238.681 57.9696 248.703C58.126 249.055 58.3797 249.355 58.7008 249.568C59.0219 249.78 59.3971 249.897 59.7821 249.903H112.64C113.202 249.905 113.758 249.786 114.271 249.554C114.783 249.322 115.239 248.982 115.608 248.558C115.977 248.134 116.251 247.635 116.41 247.096C116.569 246.556 116.61 245.989 116.53 245.432C114.825 233.547 113.183 214.898 113.183 187.023C113.183 159.167 114.825 140.512 116.53 128.621C116.609 128.065 116.567 127.499 116.408 126.961C116.249 126.423 115.976 125.925 115.607 125.502C115.239 125.079 114.784 124.739 114.273 124.507C113.762 124.275 113.207 124.155 112.646 124.156ZM280.111 125.356C279.953 125.004 279.699 124.704 279.376 124.491C279.054 124.279 278.678 124.162 278.292 124.156H225.434C224.873 124.154 224.317 124.273 223.805 124.505C223.294 124.737 222.838 125.076 222.469 125.5C222.1 125.923 221.826 126.421 221.667 126.96C221.507 127.498 221.465 128.065 221.544 128.621C223.249 140.506 224.891 159.167 224.891 187.023C224.891 214.873 223.249 233.541 221.544 245.432C221.466 245.988 221.507 246.554 221.666 247.092C221.825 247.63 222.098 248.128 222.467 248.551C222.835 248.975 223.29 249.314 223.801 249.546C224.312 249.778 224.867 249.898 225.428 249.897H278.286C278.672 249.89 279.047 249.774 279.369 249.561C279.691 249.349 279.946 249.049 280.105 248.697C284.74 238.681 290.266 219.85 290.266 187.023C290.266 154.204 284.74 135.372 280.111 125.356ZM201.595 124.156H136.486C135.557 124.152 134.658 124.479 133.947 125.077C133.237 125.675 132.762 126.506 132.608 127.421C130.783 138.517 128.901 157.191 128.901 187.023C128.901 216.875 130.783 235.543 132.608 246.638C132.924 248.52 134.566 249.897 136.479 249.897H201.588C202.517 249.901 203.417 249.575 204.127 248.977C204.837 248.379 205.312 247.548 205.466 246.632C207.297 235.53 209.179 216.856 209.179 187.023C209.179 157.191 207.291 138.511 205.472 127.421C205.318 126.506 204.843 125.675 204.133 125.077C203.423 124.479 202.523 124.152 201.595 124.156Z" fill="white"/>
<path d="M116.531 245.432L116.373 244.219C111.965 246.139 107.519 248.046 102.953 249.903H112.647C113.209 249.904 113.764 249.784 114.276 249.552C114.787 249.319 115.242 248.979 115.611 248.555C115.979 248.131 116.252 247.632 116.411 247.093C116.57 246.554 116.61 245.988 116.531 245.432ZM221.545 245.432C221.466 245.987 221.508 246.553 221.667 247.091C221.826 247.63 222.099 248.127 222.468 248.551C222.836 248.974 223.291 249.313 223.802 249.546C224.313 249.778 224.868 249.897 225.429 249.896H278.287C278.672 249.89 279.048 249.773 279.37 249.561C279.692 249.348 279.947 249.048 280.105 248.696C284.741 238.681 290.266 219.849 290.266 187.023C290.266 156.003 285.341 137.575 280.888 127.181C266.193 143.903 247.709 162.002 224.842 180.013C224.861 182.312 224.892 184.585 224.892 187.023C224.892 214.873 223.25 233.54 221.545 245.432ZM136.48 249.896H201.589C202.518 249.9 203.417 249.574 204.128 248.976C204.838 248.378 205.312 247.547 205.467 246.631C207.191 236.161 208.94 218.82 209.142 191.86C187.001 207.787 161.185 223.322 131.34 237.449C131.744 240.948 132.18 244.017 132.603 246.631C132.918 248.526 134.56 249.896 136.48 249.896Z" fill="#F8F9FE"/>
<path d="M164.95 175.459C165.297 171.632 166.061 165.747 166.693 162.646C173.703 162.545 179.563 163.265 185.057 162.437C187.703 162.027 189.08 151.803 182.897 152.005C176.829 152.213 171.442 152.112 163.182 152.112C156.772 152.112 154.189 154.177 153.684 158.516C152.705 166.473 151.587 177.209 151.082 181.553C150.4 187.237 158.66 187.237 161.167 186.403C174.366 181.964 176.279 191.986 175.464 200.562C174.865 207.067 172.351 212.024 166.661 211.929C161.584 211.822 158.628 207.995 158.995 202.217C159.266 197.562 147.229 196.015 146.636 200.455C145.215 211.304 152.269 222.153 167.552 222.052C180.978 222.052 190.147 212.34 191.404 200.871C193.058 186.094 185.127 170.496 164.943 175.459H164.95ZM254.183 175.459C254.536 171.639 255.3 165.747 255.926 162.646C262.942 162.545 268.802 163.271 274.303 162.437C276.942 162.027 278.313 151.803 272.137 152.005C266.061 152.213 260.681 152.112 252.421 152.112C246.011 152.112 243.422 154.177 242.923 158.516C241.944 166.473 240.826 177.209 240.321 181.553C239.639 187.237 247.899 187.237 250.4 186.41C263.598 181.964 265.512 191.986 264.704 200.556C264.097 207.073 261.59 212.03 255.9 211.923C250.823 211.822 247.867 207.995 248.234 202.217C248.499 197.562 236.469 196.015 235.869 200.461C234.448 211.304 241.508 222.153 256.784 222.046C270.217 222.046 279.386 212.34 280.643 200.871C282.291 186.094 274.366 170.496 254.183 175.459Z" fill="#5094FF"/>
<path d="M269.131 176.009C272.996 181.111 274.423 188.323 273.634 195.377C272.377 206.839 263.208 216.552 249.775 216.552C246.253 216.629 242.756 215.949 239.52 214.556C242.955 219.034 248.676 222.103 256.785 222.046C270.217 222.046 279.387 212.34 280.644 200.871C281.799 190.546 278.25 179.842 269.131 176.009ZM179.905 176.009C183.77 181.111 185.197 188.323 184.407 195.377C183.151 206.839 173.981 216.552 160.549 216.552C157.027 216.629 153.529 215.949 150.293 214.556C153.728 219.034 159.45 222.103 167.559 222.046C180.985 222.046 190.16 212.34 191.411 200.871C192.566 190.546 189.024 179.842 179.905 176.009Z" fill="#497BFE"/>
<path d="M75.7178 175.459C76.0588 171.639 76.8292 165.747 77.4544 162.646C84.4642 162.545 90.3247 163.271 95.8252 162.437C98.4649 162.027 99.8416 151.803 93.6654 152.005C87.5902 152.213 82.2097 152.112 73.9432 152.112C67.5397 152.112 64.9505 154.177 64.4453 158.516C63.4727 166.473 62.3486 177.209 61.8497 181.553C61.1614 187.237 69.4279 187.237 71.9287 186.41C85.1273 181.964 87.0408 191.986 86.2261 200.556C85.6262 207.073 83.1128 212.03 77.4229 211.923C72.3518 211.822 69.3963 207.995 69.7626 202.217C70.0278 197.562 57.9975 196.015 57.3976 200.461C55.9767 211.304 63.0307 222.153 78.3133 222.046C91.7393 222.046 100.915 212.34 102.166 200.871C103.82 186.094 95.8946 170.496 75.7178 175.459Z" fill="#5094FF"/>
<path d="M90.6844 176.009C94.5429 181.111 95.9702 188.323 95.1808 195.377C93.9241 206.839 84.7545 216.552 71.3222 216.552C67.8001 216.629 64.3025 215.949 61.0664 214.556C64.5018 219.034 70.2234 222.103 78.332 222.046C91.758 222.046 100.934 212.34 102.184 200.871C103.34 190.546 99.8035 179.842 90.6844 176.009Z" fill="#497BFE"/>
<path d="M52.5885 188.039L19.1183 173.041C18.7374 172.863 18.3188 172.783 17.8994 172.807C17.4801 172.83 17.073 172.957 16.7144 173.176C16.3558 173.394 16.0567 173.698 15.8437 174.06C15.6307 174.422 15.5104 174.831 15.4934 175.251C15.3797 178.844 15.3166 182.564 15.3166 186.429C15.3093 193.341 15.5262 200.251 15.967 207.149C15.9956 207.561 16.1238 207.96 16.3406 208.311C16.5573 208.663 16.8562 208.956 17.2115 209.167C17.5667 209.377 17.9678 209.499 18.3803 209.52C18.7927 209.541 19.2042 209.462 19.5793 209.289L52.5885 194.499C53.2128 194.221 53.7431 193.768 54.1152 193.195C54.4873 192.621 54.6854 191.953 54.6854 191.269C54.6854 190.586 54.4873 189.917 54.1152 189.344C53.7431 188.77 53.2128 188.317 52.5885 188.039Z" fill="#F34B58"/>
<path d="M19.5793 209.283L52.5885 194.499C53.2127 194.221 53.743 193.768 54.1151 193.195C54.4873 192.621 54.6853 191.953 54.6853 191.269C54.6853 190.586 54.4873 189.917 54.1151 189.344C53.743 188.77 53.2127 188.317 52.5885 188.039L49.1467 186.498C44.5556 189.864 26.8543 202.008 15.5312 198.143C15.6449 201.231 15.7839 204.25 15.9733 207.149C16.0023 207.56 16.1305 207.958 16.3469 208.309C16.5633 208.659 16.8614 208.953 17.2159 209.163C17.5703 209.373 17.9704 209.495 18.382 209.517C18.7936 209.539 19.2044 209.454 19.5793 209.283Z" fill="#E11226"/>
<path d="M377.949 77.2401C392.462 77.2401 404.226 65.4754 404.226 50.9628C404.226 36.4503 392.462 24.6855 377.949 24.6855C363.437 24.6855 351.672 36.4503 351.672 50.9628C351.672 65.4754 363.437 77.2401 377.949 77.2401Z" fill="#F34B58"/>
<path d="M404.229 50.9701C404.257 57.7896 401.632 64.3528 396.91 69.2723C392.187 74.1919 385.737 77.0822 378.922 77.3323C372.107 77.5825 365.462 75.1728 360.391 70.6127C355.32 66.0526 352.222 59.6994 351.75 52.8963C353.487 57.5856 356.618 61.631 360.721 64.4893C364.825 67.3476 369.705 68.8819 374.706 68.8862C379.096 68.8909 383.407 67.7127 387.185 65.4753C390.963 63.238 394.069 60.0242 396.175 56.1717C398.282 52.3193 399.311 47.9705 399.156 43.5825C399.001 39.1944 397.666 34.9293 395.293 31.2354C398.103 33.696 400.355 36.7296 401.896 40.1323C403.438 43.5351 404.233 47.2346 404.229 50.9701Z" fill="#E11226"/>
<path d="M377.944 48.3986C385.899 48.3986 392.349 44.0331 392.349 38.648C392.349 33.2629 385.899 28.8975 377.944 28.8975C369.988 28.8975 363.539 33.2629 363.539 38.648C363.539 44.0331 369.988 48.3986 377.944 48.3986Z" fill="#FA5F7F"/>
<path d="M169.045 0C134.577 0 106.633 27.9445 106.633 62.4125C146.816 75.7942 188.376 76.2679 231.451 62.4125C231.451 27.9445 203.513 0 169.045 0Z" fill="#FFD06C"/>
<path d="M200.022 43.89C200.429 43.4976 200.718 42.9993 200.856 42.4513C200.995 41.9033 200.977 41.3275 200.806 40.7889C200.635 40.2504 200.316 39.7704 199.886 39.4033C199.456 39.0363 198.933 38.7967 198.374 38.7116L181.588 36.1666C181.103 36.0936 180.642 35.9038 180.246 35.6134C179.85 35.323 179.53 34.9407 179.315 34.4994L171.888 19.2294C171.64 18.7222 171.256 18.2943 170.777 17.9939C170.299 17.6935 169.747 17.5326 169.182 17.5293C168.618 17.5261 168.064 17.6805 167.582 17.9753C167.101 18.2701 166.711 18.6935 166.457 19.1978L158.854 34.3794C158.634 34.8176 158.311 35.1958 157.913 35.4818C157.515 35.7678 157.053 35.9529 156.568 36.0214L139.75 38.3643C139.192 38.4441 138.667 38.6782 138.235 39.0401C137.802 39.402 137.479 39.8773 137.302 40.4128C137.125 40.9482 137.1 41.5224 137.232 42.0709C137.363 42.6193 137.645 43.1203 138.045 43.5174L150.132 55.4404C150.481 55.7854 150.741 56.2099 150.889 56.6773C151.038 57.1448 151.071 57.6414 150.985 58.1243L148.017 74.8468C147.919 75.4033 147.978 75.9762 148.188 76.5008C148.398 77.0254 148.75 77.4809 149.205 77.8159C149.66 78.1508 150.2 78.3519 150.763 78.3963C151.327 78.4408 151.891 78.3269 152.393 78.0675L167.468 70.2494C167.903 70.0244 168.388 69.9086 168.878 69.9119C169.369 69.9152 169.851 70.0375 170.284 70.2683L185.264 78.257C185.763 78.5224 186.326 78.6431 186.89 78.6052C187.454 78.5674 187.996 78.3726 188.455 78.0429C188.914 77.7131 189.272 77.2616 189.488 76.7392C189.704 76.2169 189.77 75.6445 189.678 75.0868L186.906 58.339C186.825 57.8545 186.863 57.3576 187.017 56.8912C187.171 56.4247 187.436 56.0027 187.79 55.6614L200.022 43.89Z" fill="#F34B58"/>
<path d="M166.435 35.8696C167.35 35.6801 167.091 43.0373 160.625 45.3486C154.171 47.6726 149.321 42.1468 150.142 41.7048C150.584 41.1996 154.714 43.0183 159.355 41.168C164.117 39.6523 165.765 35.7622 166.428 35.8633L166.435 35.8696Z" fill="#FE90A9"/>
</svg>
