<svg width="12" height="13" viewBox="0 0 12 13" fill="none" xmlns="http://www.w3.org/2000/svg">
<path d="M6 12.5C4.325 12.5 2.90625 11.9187 1.74375 10.7562C0.58125 9.59375 0 8.175 0 6.5C0 4.825 0.58125 3.40625 1.74375 2.24375C2.90625 1.08125 4.325 0.500003 6 0.500003C6.8625 0.500003 7.6875 0.678002 8.475 1.034C9.2625 1.39 9.9375 1.8995 10.5 2.5625V1.25C10.5 1.0375 10.572 0.859253 10.716 0.715253C10.86 0.571253 11.038 0.499503 11.25 0.500003C11.4625 0.500003 11.6407 0.572003 11.7847 0.716003C11.9287 0.860003 12.0005 1.038 12 1.25V5C12 5.2125 11.928 5.39075 11.784 5.53475C11.64 5.67875 11.462 5.7505 11.25 5.75H7.5C7.2875 5.75 7.10925 5.678 6.96525 5.534C6.82125 5.39 6.7495 5.212 6.75 5C6.75 4.7875 6.822 4.60925 6.966 4.46525C7.11 4.32125 7.288 4.2495 7.5 4.25H9.9C9.5 3.55 8.953 3 8.259 2.6C7.565 2.2 6.812 2 6 2C4.75 2 3.6875 2.4375 2.8125 3.3125C1.9375 4.1875 1.5 5.25 1.5 6.5C1.5 7.75 1.9375 8.8125 2.8125 9.6875C3.6875 10.5625 4.75 11 6 11C6.85 11 7.62825 10.7842 8.33475 10.3527C9.04125 9.92125 9.588 9.34325 9.975 8.61875C10.075 8.44375 10.2157 8.322 10.3972 8.2535C10.5787 8.185 10.763 8.18175 10.95 8.24375C11.15 8.30625 11.2937 8.4375 11.3812 8.6375C11.4687 8.8375 11.4625 9.025 11.3625 9.2C10.85 10.2 10.1187 11 9.16875 11.6C8.21875 12.2 7.1625 12.5 6 12.5Z" fill="#2E3066"/>
</svg>
