<svg width="164" height="164" viewBox="0 0 164 164" fill="none" xmlns="http://www.w3.org/2000/svg">
<path d="M105.027 161.776L94.3444 138.424C93.7008 137.017 91.9158 136.574 90.6894 137.518L71.1088 152.582C68.1688 154.843 63.9008 152.851 63.7466 149.145L59.4417 45.7098C59.2773 41.7572 63.9938 39.5993 66.8768 42.3085L142.32 113.2C145.023 115.74 143.74 120.272 140.107 121.018L115.905 125.982C114.39 126.293 113.557 127.933 114.201 129.34L124.884 152.692C125.758 154.604 124.918 156.863 123.006 157.737L110.073 163.654C108.161 164.529 105.902 163.688 105.027 161.776Z" fill="#F8F7F8"/>
<path d="M124.885 152.692L123.427 149.507L114.551 153.683C112.648 154.578 110.324 153.64 109.358 151.589L97.5699 126.532C96.8598 125.022 95.0316 124.518 93.8271 125.498L83.9663 133.53C81.9247 135.193 78.8609 133.815 78.7512 131.184L75.3849 50.3027L66.8769 42.308C63.9938 39.5988 59.277 41.7567 59.4417 45.7094L63.7466 149.145C63.9008 152.851 68.1691 154.843 71.1088 152.581L90.6894 137.517C91.9158 136.574 93.7008 137.017 94.3444 138.423L105.027 161.776C105.902 163.688 108.161 164.528 110.073 163.654L123.006 157.737C124.918 156.863 125.759 154.604 124.885 152.692Z" fill="#EFEDEE"/>
<path d="M49.6724 59.5227C49.0413 59.5234 48.4343 59.2804 47.9781 58.8444C45.9556 56.9182 44.3204 54.6226 43.1608 52.0817C38.115 41.0514 42.9834 27.9725 54.0137 22.9264C59.3571 20.482 65.3321 20.265 70.8389 22.3145C76.3457 24.3643 80.7246 28.4361 83.169 33.7792C84.5293 36.7533 85.2001 39.913 85.1628 43.1706C85.1471 44.5267 84.0303 45.6189 82.6792 45.5976C82.028 45.5901 81.4065 45.3242 80.9513 44.8584C80.4962 44.3926 80.2447 43.7651 80.2522 43.114C80.2813 40.5861 79.7601 38.1326 78.7033 35.8222C76.8047 31.6718 73.4034 28.5091 69.126 26.9167C64.8488 25.3246 60.207 25.4932 56.0569 27.3921C47.4893 31.3116 43.7076 41.4704 47.6268 50.0384C48.5271 52.0117 49.7969 53.7944 51.3677 55.2902C51.7228 55.6288 51.9683 56.066 52.0726 56.5455C52.1768 57.025 52.1351 57.5247 51.9526 57.9802C51.7702 58.4357 51.4554 58.8261 51.049 59.1011C50.6426 59.376 50.1631 59.5229 49.6724 59.5227Z" fill="#37CBD5"/>
<path d="M50.6865 83.8637C50.4289 83.8635 50.173 83.8228 49.928 83.7432C38.5264 80.042 29.1295 71.6725 24.1462 60.78C19.3786 50.3576 18.9546 38.7027 22.9528 27.9618C26.951 17.2206 34.8929 8.67977 45.315 3.9119C55.737 -0.855973 67.3926 -1.27962 78.1332 2.71854C88.8744 6.7167 97.4152 14.6587 102.183 25.0807C107.315 36.2992 107.365 49.198 102.321 60.4699C102.19 60.7643 102.001 61.0299 101.767 61.2515C101.533 61.473 101.257 61.6463 100.956 61.7613C100.654 61.8763 100.333 61.9308 100.011 61.9216C99.6887 61.9125 99.3713 61.84 99.077 61.7081C98.4826 61.4421 98.0183 60.9509 97.7861 60.3425C97.5539 59.7341 97.5728 59.0584 97.8388 58.464C102.306 48.481 102.262 37.0578 97.7174 27.1236C93.4953 17.8943 85.9317 10.8615 76.4202 7.32075C66.9087 3.78029 56.5875 4.15515 47.3582 8.37758C28.3057 17.0935 19.8962 39.6845 28.6122 58.7367C33.0248 68.3821 41.3466 75.794 51.4441 79.0716C51.9998 79.2526 52.4728 79.6259 52.778 80.1243C53.0833 80.6227 53.2009 81.2136 53.1096 81.7908C53.0183 82.3681 52.7242 82.8939 52.2801 83.2739C51.836 83.6538 51.271 83.8629 50.6865 83.8637Z" fill="#37CBD5"/>
</svg>
