<svg width="135" height="135" viewBox="0 0 135 135" fill="none" xmlns="http://www.w3.org/2000/svg">
<g clip-path="url(#clip0_482_19790)">
<path d="M67.5559 3.67355e-05C44.1175 -0.0305492 25.0193 19.0422 25.0195 42.4805C25.0198 58.0616 33.4098 71.6814 45.9176 79.0734C48.1385 80.3859 49.483 82.7917 49.483 85.3717V95.7187C49.906 95.5418 50.36 95.451 50.8185 95.4514H84.1804C84.6539 95.4514 85.1048 95.5468 85.5159 95.7187V85.3715C85.5159 82.7611 86.9104 80.3625 89.1551 79.0299C101.622 71.6276 109.979 58.0311 109.979 42.4802C109.979 19.0377 90.991 0.0306227 67.5559 3.67355e-05Z" fill="#FFE181"/>
<path d="M60.7102 85.3717C60.7102 82.792 59.366 80.3859 57.1448 79.0734C44.637 71.6811 36.2469 58.0616 36.2467 42.4805C36.2464 20.9606 52.347 3.12349 73.1238 0.370759C71.2779 0.126499 69.4181 0.00266284 67.5561 3.6736e-05C44.1178 -0.0305492 25.0193 19.0419 25.0195 42.4805C25.0198 58.0616 33.4098 71.6814 45.9176 79.0734C48.1388 80.3859 49.483 82.792 49.483 85.3717V95.7187C49.906 95.5418 50.36 95.451 50.8185 95.4514H60.7102V85.3717Z" fill="#FEC458"/>
<path d="M72.8192 97.4885C72.2789 97.4885 71.7607 97.2738 71.3787 96.8918C70.9967 96.5098 70.782 95.9916 70.782 95.4513V77.2195C70.782 75.3872 71.399 73.5798 72.5189 72.1296L75.434 68.3553C76.0076 67.6101 76.3193 66.6965 76.321 65.7561V46.7295C76.321 46.1892 76.5356 45.6711 76.9177 45.289C77.2997 44.907 77.8179 44.6924 78.3581 44.6924C78.8984 44.6924 79.4166 44.907 79.7986 45.289C80.1806 45.6711 80.3953 46.1892 80.3953 46.7295V65.7561C80.3953 67.5883 79.7783 69.3958 78.6585 70.846L75.7433 74.6202C75.1696 75.3654 74.8578 76.279 74.8563 77.2195V95.4513C74.8563 95.9916 74.6417 96.5098 74.2596 96.8918C73.8776 97.2738 73.3595 97.4885 72.8192 97.4885ZM62.1779 97.4885C61.6376 97.4885 61.1195 97.2738 60.7374 96.8918C60.3554 96.5098 60.1408 95.9916 60.1408 95.4513V77.2195C60.1408 76.284 59.8257 75.3608 59.2538 74.6202L56.3384 70.846C55.2153 69.3866 54.6048 67.5976 54.6016 65.7561V46.7295C54.6016 46.1892 54.8162 45.6711 55.1982 45.289C55.5803 44.907 56.0984 44.6924 56.6387 44.6924C57.179 44.6924 57.6971 44.907 58.0792 45.289C58.4612 45.6711 58.6758 46.1892 58.6758 46.7295V65.7561C58.6758 66.6918 58.9909 67.6147 59.5628 68.3551L62.4782 72.1293C63.6014 73.5886 64.2118 75.3777 64.215 77.2192V95.4511C64.2151 95.7186 64.1624 95.9835 64.06 96.2307C63.9577 96.4779 63.8076 96.7025 63.6185 96.8917C63.4293 97.0809 63.2047 97.231 62.9575 97.3334C62.7104 97.4358 62.4455 97.4885 62.1779 97.4885Z" fill="#FFB640"/>
<path d="M97.1324 34.1625C94.9279 25.9473 89.2642 19.0781 81.5935 15.3168C81.1179 15.0734 80.7569 14.6529 80.5884 14.1459C80.4199 13.6389 80.4572 13.086 80.6924 12.6063C80.9276 12.1266 81.3418 11.7585 81.8458 11.5812C82.3498 11.404 82.9033 11.4318 83.387 11.6587C92.1137 15.9378 98.5581 23.7554 101.067 33.1065C101.198 33.6251 101.119 34.1742 100.848 34.6353C100.577 35.0963 100.136 35.4324 99.6196 35.571C99.1032 35.7096 98.5529 35.6396 98.0876 35.3761C97.6223 35.1126 97.2792 34.6767 97.1324 34.1625Z" fill="#FFEAC8"/>
<path d="M59.2734 125.281V126.774C59.2734 131.298 62.9754 135 67.5 135C72.0246 135 75.7266 131.299 75.7266 126.774V125.281H59.2734Z" fill="#8479C2"/>
<path d="M66.6378 126.774V125.281H59.2734V126.774C59.2734 131.298 62.9754 135 67.5 135C68.8218 135 70.0724 134.683 71.1822 134.122C68.4938 132.765 66.6378 129.976 66.6378 126.774Z" fill="#6E60B8"/>
<path d="M80.3962 51.0261H54.6041C54.0638 51.0261 53.5457 50.8114 53.1636 50.4294C52.7816 50.0474 52.567 49.5292 52.567 48.9889C52.567 48.4487 52.7816 47.9305 53.1636 47.5485C53.5457 47.1664 54.0638 46.9518 54.6041 46.9518H80.3962C80.9365 46.9518 81.4546 47.1664 81.8367 47.5485C82.2187 47.9305 82.4334 48.4487 82.4334 48.9889C82.4334 49.5292 82.2187 50.0474 81.8367 50.4294C81.4546 50.8114 80.9365 51.0261 80.3962 51.0261ZM15.139 43.4297H8.13088C7.5906 43.4297 7.07245 43.215 6.69041 42.833C6.30838 42.451 6.09375 41.9328 6.09375 41.3925C6.09375 40.8523 6.30838 40.3341 6.69041 39.9521C7.07245 39.57 7.5906 39.3554 8.13088 39.3554H15.139C15.6793 39.3554 16.1974 39.57 16.5795 39.9521C16.9615 40.3341 17.1761 40.8523 17.1761 41.3925C17.1761 41.9328 16.9615 42.451 16.5795 42.833C16.1974 43.215 15.6793 43.4297 15.139 43.4297ZM17.139 30.5018L10.5867 28.0152C10.0889 27.8182 9.68857 27.4331 9.47238 26.9433C9.2562 26.4535 9.24151 25.8983 9.43148 25.3977C9.62146 24.8972 10.0008 24.4915 10.4876 24.2685C10.9743 24.0454 11.5293 24.023 12.0324 24.2059L18.5847 26.6926C19.0825 26.8896 19.4828 27.2746 19.699 27.7644C19.9152 28.2542 19.9299 28.8094 19.7399 29.31C19.5499 29.8106 19.1706 30.2162 18.6838 30.4393C18.1971 30.6623 17.6421 30.6848 17.139 30.5018ZM9.40494 57.3972C9.21328 56.892 9.23011 56.3314 9.45173 55.8387C9.67335 55.346 10.0816 54.9614 10.5867 54.7697L17.139 52.283C17.6421 52.1001 18.1971 52.1225 18.6838 52.3456C19.1706 52.5686 19.5499 52.9743 19.7399 53.4748C19.9299 53.9754 19.9152 54.5306 19.699 55.0204C19.4828 55.5102 19.0825 55.8953 18.5847 56.0923L12.0324 58.5789C11.7823 58.6739 11.5159 58.7186 11.2485 58.7106C10.9811 58.7026 10.7179 58.642 10.4739 58.5322C10.2299 58.4225 10.01 58.2658 9.82654 58.071C9.64312 57.8763 9.49986 57.6473 9.40494 57.3972ZM126.87 43.4297H119.862C119.321 43.4297 118.803 43.215 118.421 42.833C118.039 42.451 117.824 41.9328 117.824 41.3925C117.824 40.8523 118.039 40.3341 118.421 39.9521C118.803 39.57 119.321 39.3554 119.862 39.3554H126.87C127.41 39.3554 127.928 39.57 128.31 39.9521C128.692 40.3341 128.907 40.8523 128.907 41.3925C128.907 41.9328 128.692 42.451 128.31 42.833C127.928 43.215 127.41 43.4297 126.87 43.4297ZM115.234 29.3198C115.042 28.8147 115.059 28.2541 115.281 27.7613C115.502 27.2686 115.911 26.8841 116.416 26.6923L122.968 24.2056C123.471 24.0227 124.026 24.0452 124.513 24.2682C124.999 24.4912 125.379 24.8969 125.569 25.3975C125.759 25.898 125.744 26.4533 125.528 26.9431C125.312 27.4329 124.911 27.8179 124.414 28.0149L117.862 30.5018C117.356 30.6935 116.796 30.6766 116.303 30.455C115.81 30.2333 115.426 29.825 115.234 29.3198ZM122.968 58.5792L116.416 56.0925C115.918 55.8955 115.518 55.5105 115.302 55.0207C115.085 54.5309 115.071 53.9757 115.261 53.4751C115.451 52.9745 115.83 52.5689 116.317 52.3458C116.803 52.1228 117.358 52.1003 117.862 52.2833L124.414 54.7699C124.912 54.9669 125.312 55.352 125.528 55.8418C125.744 56.3316 125.759 56.8868 125.569 57.3874C125.379 57.8879 125 58.2936 124.513 58.5166C124.026 58.7397 123.471 58.7621 122.968 58.5792Z" fill="#FEC458"/>
<path d="M81.4674 115.27H53.535C51.5857 115.27 50 116.855 50 118.804V121.813C50 123.762 51.5857 125.348 53.535 125.348H81.4677C83.4167 125.348 85.0024 123.762 85.0024 121.813V118.804C85.0024 116.855 83.4167 115.27 81.4674 115.27Z" fill="#EFECEF"/>
<path d="M81.4674 120.309H53.535C51.9388 120.309 50.5877 119.245 50.1503 117.789C50.0509 118.118 50.0002 118.46 50 118.804V121.813C50 123.762 51.5857 125.348 53.535 125.348H81.4677C83.4167 125.348 85.0024 123.762 85.0024 121.813V118.804C85.0024 118.451 84.9489 118.111 84.8521 117.789C84.4147 119.245 83.0637 120.309 81.4674 120.309Z" fill="#E2DFE2"/>
<path d="M84.1821 105.326H50.8199C48.8709 105.326 47.2852 106.912 47.2852 108.861V111.87C47.2852 113.819 48.8709 115.405 50.8199 115.405H84.1821C86.1314 115.405 87.7171 113.819 87.7171 111.87V108.861C87.7171 106.912 86.1314 105.326 84.1821 105.326Z" fill="#EFECEF"/>
<path d="M84.1823 110.367H50.8202C49.2239 110.367 47.8729 109.302 47.4354 107.847C47.336 108.176 47.2854 108.518 47.2852 108.862V111.871C47.2852 113.82 48.8709 115.406 50.8199 115.406H84.1821C86.1314 115.406 87.7171 113.82 87.7171 111.871V108.862C87.7171 108.509 87.6636 108.169 87.5668 107.847C87.1297 109.302 85.7786 110.367 84.1823 110.367Z" fill="#E2DFE2"/>
<path d="M84.1821 95.3828H50.8199C48.8709 95.3828 47.2852 96.9685 47.2852 98.9179V101.927C47.2852 103.876 48.8709 105.462 50.8199 105.462H84.1821C86.1314 105.462 87.7171 103.876 87.7171 101.927V98.9179C87.7171 96.9685 86.1314 95.3828 84.1821 95.3828Z" fill="#EFECEF"/>
<path d="M84.1823 100.423H50.8202C49.2239 100.423 47.8729 99.3588 47.4354 97.9033C47.336 98.2325 47.2854 98.5746 47.2852 98.9185V101.927C47.2852 103.877 48.8709 105.462 50.8199 105.462H84.1821C86.1314 105.462 87.7171 103.877 87.7171 101.927V98.9185C87.7171 98.5654 87.6636 98.225 87.5668 97.9033C87.1297 99.3588 85.7786 100.423 84.1823 100.423Z" fill="#E2DFE2"/>
</g>
<defs>
<clipPath id="clip0_482_19790">
<rect width="135" height="135" fill="white"/>
</clipPath>
</defs>
</svg>
