<svg width="134" height="134" viewBox="0 0 134 134" fill="none" xmlns="http://www.w3.org/2000/svg">
<g clip-path="url(#clip0_482_19774)">
<path d="M94.6517 31.0327L88.9829 36.5591C88.123 37.3968 87.4798 38.431 87.1087 39.5727C86.7376 40.7144 86.6499 41.9292 86.8531 43.1123L88.191 50.9144C89.2281 56.9622 82.8817 61.574 77.4495 58.7183L70.4428 55.0352C69.3807 54.4761 68.1984 54.1839 66.9981 54.1839C65.7979 54.1839 64.6156 54.4761 63.5535 55.0352L56.5468 58.7183C51.1146 61.574 44.7682 56.9622 45.8053 50.9144L47.1433 43.1123C47.3464 41.9292 47.2587 40.7144 46.8877 39.5727C46.5166 38.431 45.8733 37.3968 45.0134 36.5591L39.3446 31.0327C34.9516 26.7499 37.3767 19.2896 43.4475 18.4071L51.2815 17.2684C52.4694 17.0958 53.5974 16.637 54.5685 15.9315C55.5396 15.2261 56.3246 14.2951 56.8559 13.2188L60.3593 6.11942C61.7173 3.3685 64.3578 1.99316 66.9983 1.99316C69.6388 1.99316 72.2792 3.3685 73.6368 6.11916L77.1401 13.2185C77.6715 14.2948 78.4565 15.2257 79.4276 15.9312C80.3987 16.6367 81.5267 17.0955 82.7145 17.2681L90.5485 18.4069C96.6196 19.2894 99.0447 26.7499 94.6517 31.0327Z" fill="#F9DA41"/>
<path d="M49.0365 31.9935C51.3548 37.8863 54.7925 41.8275 52.3779 47.3912C49.9635 52.9566 51.1839 60.2659 63.5535 55.0349L56.5468 58.7181C51.1146 61.5737 44.7682 56.962 45.8053 50.9142L47.1433 43.1121C47.3464 41.9289 47.2587 40.7141 46.8877 39.5724C46.5166 38.4307 45.8733 37.3965 45.0134 36.5589L39.3446 31.0324C34.9516 26.7497 37.3767 19.2894 43.4475 18.4069L51.2815 17.2681C52.4694 17.0955 53.5974 16.6367 54.5685 15.9313C55.5396 15.2258 56.3246 14.2948 56.8559 13.2185L60.3593 6.11916C61.7173 3.3685 64.3578 1.99316 66.9983 1.99316C61.7885 1.99316 63.954 17.0174 56.4952 20.9584C49.0365 24.9014 46.7182 26.1006 49.0365 31.9935Z" fill="#EDC932"/>
<path d="M38.3553 53.125L34.8054 56.5857C34.2669 57.1102 33.8641 57.7579 33.6317 58.4728C33.3993 59.1878 33.3444 59.9485 33.4716 60.6894L34.3094 65.5752C34.959 69.3625 30.9845 72.2506 27.583 70.4623L23.1953 68.1557C22.5302 67.8056 21.7898 67.6226 21.0382 67.6226C20.2865 67.6226 19.5462 67.8056 18.8811 68.1557L14.4934 70.4623C11.0916 72.2506 7.11736 69.3625 7.76694 65.5752L8.6047 60.6894C8.73191 59.9485 8.67697 59.1878 8.44461 58.4729C8.21226 57.7579 7.80947 57.1102 7.27098 56.5857L3.72103 53.125C0.970106 50.4431 2.4886 45.7712 6.29032 45.2185L11.1962 44.5053C11.9401 44.3971 12.6465 44.1098 13.2546 43.668C13.8627 43.2262 14.3543 42.6432 14.687 41.9692L16.881 37.5234C17.7311 35.8008 19.3846 34.9395 21.0382 34.9395C22.6917 34.9395 24.3453 35.8008 25.1953 37.5234L27.3893 41.9692C27.7221 42.6432 28.2137 43.2262 28.8218 43.668C29.4299 44.1098 30.1363 44.3971 30.8801 44.5053L35.786 45.2185C39.5878 45.7712 41.1062 50.4431 38.3553 53.125Z" fill="#F9DA41"/>
<path d="M9.79029 53.7267C11.242 57.4169 13.3947 59.8849 11.8827 63.3692C10.3708 66.8545 11.135 71.4317 18.8811 68.1557L14.4934 70.4623C11.0916 72.2506 7.11736 69.3625 7.76694 65.5752L8.6047 60.6894C8.73191 59.9485 8.67697 59.1878 8.44461 58.4729C8.21226 57.7579 7.80947 57.1102 7.27098 56.5857L3.72103 53.125C0.970106 50.4431 2.4886 45.7712 6.29032 45.2185L11.1962 44.5053C11.9401 44.3971 12.6465 44.1098 13.2546 43.668C13.8627 43.2262 14.3543 42.6432 14.687 41.9692L16.881 37.5234C17.7311 35.8008 19.3846 34.9395 21.0382 34.9395C17.7759 34.9395 19.1318 44.348 14.4609 46.816C9.79029 49.2856 8.33827 50.0364 9.79029 53.7267Z" fill="#EDC932"/>
<path d="M130.479 15.6181L127.43 18.5901C126.968 19.0406 126.622 19.5968 126.422 20.2108C126.222 20.8248 126.175 21.4781 126.284 22.1145L127.004 26.3106C127.562 29.5632 124.149 32.0435 121.227 30.5078L117.459 28.5268C116.888 28.2261 116.252 28.0689 115.606 28.0689C114.961 28.0689 114.325 28.2261 113.754 28.5268L109.985 30.5078C107.064 32.0435 103.65 29.5632 104.208 26.3106L104.928 22.1145C105.037 21.4781 104.99 20.8248 104.79 20.2108C104.591 19.5968 104.245 19.0406 103.782 18.5901L100.734 15.6178C98.3711 13.3144 99.6753 9.30201 102.94 8.82751L107.154 8.21509C107.792 8.12227 108.399 7.87551 108.921 7.49609C109.444 7.11666 109.866 6.61594 110.152 6.03707L112.036 2.21885C112.766 0.739617 114.186 0 115.606 0C117.026 0 118.447 0.739617 119.177 2.21911L121.061 6.03733C121.347 6.61615 121.769 7.11682 122.291 7.49624C122.813 7.87565 123.42 8.12244 124.059 8.21535L128.272 8.82777C131.537 9.30227 132.842 13.3147 130.479 15.6181Z" fill="#F9DA41"/>
<path d="M105.946 16.1347C107.193 19.3041 109.042 21.4238 107.743 24.416C106.445 27.4093 107.101 31.3403 113.754 28.5271L109.985 30.508C107.064 32.0438 103.65 29.5635 104.208 26.3108L104.928 22.1147C105.037 21.4784 104.99 20.8251 104.79 20.2111C104.591 19.5971 104.245 19.0409 103.782 18.5904L100.734 15.6181C98.3711 13.3147 99.6753 9.30227 102.94 8.82777L107.154 8.21535C107.792 8.12253 108.399 7.87577 108.921 7.49635C109.444 7.11692 109.866 6.6162 110.152 6.03733L112.036 2.21911C112.766 0.739617 114.186 0 115.606 0C112.804 0 113.969 8.0803 109.958 10.2C105.946 12.3204 104.699 12.9655 105.946 16.1347Z" fill="#EDC932"/>
<path d="M93.1848 134C112.883 134 124.011 113.84 124.011 96.4931V82.1726C124.011 79.9444 123.105 77.9286 121.649 76.4682C120.9 75.7183 120.011 75.1236 119.032 74.7182C118.053 74.3129 117.004 74.1049 115.944 74.1062C111.488 74.1062 107.878 77.7161 107.878 82.1726V73.5736C107.878 71.3453 106.973 69.3296 105.516 67.8692C104.767 67.1193 103.878 66.5245 102.899 66.1192C101.92 65.7139 100.871 65.5059 99.8112 65.5072C97.5829 65.5072 95.5672 66.4088 94.1068 67.8692C92.6464 69.3296 91.7448 71.3453 91.7448 73.5736V72.756C91.7448 70.5277 90.8398 68.512 89.3828 67.0516C88.6343 66.3016 87.7451 65.7069 86.7662 65.3016C85.7872 64.8962 84.7379 64.6883 83.6783 64.6896C79.2218 64.6896 75.6119 68.3029 75.6119 72.756V44.5147C75.6085 40.065 71.9986 36.4551 67.5455 36.4551C66.4856 36.4536 65.4359 36.6618 64.4569 37.0678C63.4779 37.4738 62.5889 38.0694 61.8411 38.8205C60.3807 40.2809 59.479 42.2966 59.479 44.5215V82.4825C59.479 82.4825 59.1019 79.7366 56.027 74.1934C53.5587 69.7436 47.9537 68.1393 43.504 70.6076C39.0577 73.0758 37.4533 78.6808 39.9182 83.1271C42.2836 87.3918 42.2904 96.9323 42.2904 97.0419V106.882C42.2904 121.859 54.4315 134.001 69.4087 134.001L93.1848 134Z" fill="#FFDDCE"/>
<path d="M98.842 131.349C101.849 131.349 104.654 130.879 107.251 130.022C103.225 132.521 98.5207 134 93.1871 134H69.4126C54.4349 134 42.294 121.859 42.294 106.882V97.0408C42.294 96.9319 42.2862 87.3912 39.9221 83.1257C37.4572 78.6794 39.0616 73.0752 43.5079 70.6077C44.6216 69.9866 45.8529 69.6057 47.1228 69.4894C44.2808 72.3235 43.5343 76.7963 45.5742 80.4776C47.9409 84.7405 47.9461 94.2812 47.9461 94.3927V104.231C47.9461 119.208 60.087 131.349 75.0646 131.349H98.842V131.349ZM78.2961 86.299C79.7764 86.299 80.9766 85.0991 80.9766 83.6185V72.7556C80.9766 70.5302 81.8785 68.5139 83.3397 67.0528C84.1923 66.1999 85.2252 65.549 86.3625 65.1477C85.5014 64.844 84.5948 64.689 83.6817 64.6895C81.4566 64.6895 79.44 65.5913 77.9789 67.0525C76.5177 68.5137 75.6158 70.5302 75.6158 72.7554V83.6183C75.6158 85.0991 76.8158 86.299 78.2961 86.299ZM110.562 84.853C112.042 84.853 113.243 83.6531 113.243 82.1725C113.243 79.9471 114.144 77.9306 115.606 76.4694C116.458 75.6166 117.491 74.9656 118.629 74.5644C117.767 74.2606 116.861 74.1057 115.948 74.1061C113.723 74.1061 111.706 75.008 110.245 76.4691C108.784 77.9303 107.882 79.9469 107.882 82.172V82.1723C107.882 83.6528 109.082 84.853 110.562 84.853ZM94.4292 87.1164C95.9095 87.1164 97.1097 85.9164 97.1097 84.4359V73.573C97.1097 71.3476 98.0116 69.3313 99.4728 67.8701C100.325 67.0173 101.358 66.3663 102.496 65.9651C101.635 65.6613 100.728 65.5064 99.8149 65.5068C97.5897 65.5068 95.5732 66.4087 94.112 67.8699C92.6508 69.331 91.7489 71.3476 91.7489 73.5727V84.4356C91.7487 85.9164 92.9489 87.1164 94.4292 87.1164Z" fill="#FFCBBE"/>
<path d="M62.1646 102.317C63.6449 102.317 64.8452 101.117 64.8452 99.6361V44.5212C64.8452 42.2959 65.747 40.2796 67.2082 38.8184C68.0609 37.9656 69.0938 37.3146 70.2311 36.9134C69.3699 36.6096 68.4634 36.4546 67.5503 36.4551C65.3252 36.4551 63.3086 37.357 61.8474 38.8181C60.3863 40.2793 59.4844 42.2959 59.4844 44.521V99.6361C59.4841 101.117 60.6844 102.317 62.1646 102.317Z" fill="#FFCBBE"/>
</g>
<defs>
<clipPath id="clip0_482_19774">
<rect width="134" height="134" fill="white"/>
</clipPath>
</defs>
</svg>
