<svg width="491" height="345" viewBox="0 0 491 345" fill="none" xmlns="http://www.w3.org/2000/svg">
<circle cx="380.5" cy="110.5" r="95.5" stroke="#FCF7E7" stroke-width="30"/>
<circle cx="152.382" cy="191.647" r="127.382" stroke="#EFF9F3" stroke-width="50"/>
<g clip-path="url(#clip0_482_19832)">
<path d="M447.845 191.898L252.888 277.805L81.9448 152.634L276.901 66.7274L447.845 191.898Z" fill="#39BEC8"/>
<path d="M256.58 166.072C232.424 176.669 197.527 174.196 178.917 160.535C160.308 146.875 164.587 126.977 188.743 116.38C212.899 105.784 247.796 108.257 266.405 121.917C284.986 135.839 280.735 155.476 256.58 166.072ZM189.47 116.988C165.865 127.38 161.382 146.727 179.758 160.098C197.873 173.44 231.987 175.828 255.591 165.436C279.196 155.044 283.68 135.697 265.303 122.326C247.188 108.984 213.075 106.596 189.47 116.988Z" fill="#FFE164"/>
<path d="M252.653 163.265C231.281 172.577 200.565 170.559 183.904 158.433C167.504 146.335 171.266 128.761 192.638 119.449C214.01 110.136 244.727 112.155 261.387 124.281C277.787 136.378 274.025 153.953 252.653 163.265ZM194.354 120.693C174.084 129.596 170.435 146.125 186.108 157.615C201.78 169.105 230.9 171.214 251.17 162.31C271.44 153.407 275.089 136.878 259.416 125.389C243.772 113.638 214.362 111.761 194.354 120.693Z" fill="#FFE164"/>
<path d="M426.065 187.943L251.379 264.946L188.428 218.959L363.375 141.984L426.065 187.943Z" fill="#8DE8DE"/>
<path d="M352.617 133.937L177.931 210.941L136.525 180.784L311.212 103.781L352.617 133.937Z" fill="#219DAA"/>
<g opacity="0.8">
<path d="M256.46 189.068L231.783 250.65L202.648 229.233L234.827 198.352L256.46 189.068Z" fill="#D9E8DE"/>
<path d="M269.507 183.347L300.241 243.55L264.138 259.458L263.417 185.858L269.507 183.347Z" fill="#D9E8DE"/>
<path d="M277.568 179.727L347.74 222.533L322.192 233.771L273.131 181.625L277.568 179.727Z" fill="#D9E8DE"/>
<path d="M286.472 175.671L400.78 199.21L368.302 213.397L280.905 178.239L286.472 175.671Z" fill="#D9E8DE"/>
<path d="M307.843 166.358L385.416 158.133L417.749 181.748L292.561 173.159L307.843 166.358Z" fill="#D9E8DE"/>
<path d="M363.375 141.984L366.079 143.865L347.281 148.961L363.375 141.984Z" fill="#D9E8DE"/>
</g>
<path d="M181.003 185.093C178.566 185.622 176.447 185.656 174.356 185.428C172.266 185.201 170.493 184.479 169.011 183.525C167.528 182.57 166.886 181.178 167 180.132C167.142 178.826 168.04 177.865 169.721 176.99C171.375 176.377 173.261 176.053 175.613 176.309C176.919 176.451 178.197 176.854 179.97 177.576L177.885 179.729C176.606 179.326 175.851 178.979 175.328 178.922C174.283 178.809 173.471 178.985 172.658 179.161C171.817 179.599 171.528 179.831 171.442 180.616C171.386 181.138 171.59 181.69 172.317 182.298C173.044 182.906 173.828 182.991 174.873 183.104C175.919 183.218 177.254 183.099 178.589 182.98C181.287 182.48 183.667 182.474 186.281 182.758C189.155 183.071 191.711 183.878 193.66 185.412C195.608 186.946 196.511 188.367 196.312 190.196C196.142 191.765 194.926 193.219 192.693 194.299C190.461 195.378 187.791 195.617 184.916 195.304C182.564 195.048 180.269 194.27 178.031 192.969L180.116 190.815C182.122 191.827 183.633 192.52 185.2 192.69C187.03 192.889 188.365 192.77 189.757 192.128C191.148 191.486 191.756 190.759 191.87 189.713C191.984 188.668 191.546 187.827 190.325 186.901C189.104 185.974 187.826 185.571 185.996 185.372C184.457 184.94 182.599 185.003 181.003 185.093Z" fill="white"/>
<path d="M218.198 176.179L222.669 176.401C222.067 179.509 219.953 181.924 216.619 183.413C212.994 185.134 208.728 185.464 204.024 184.952C199.32 184.441 195.253 182.94 192.055 180.741C188.857 178.542 187.573 175.758 187.857 173.144C188.17 170.269 190.255 168.116 193.851 166.655C197.186 165.167 201.742 164.604 207.23 165.201L206.684 167.787C202.475 167.593 199.282 167.775 196.76 169.087C193.976 170.372 192.499 171.798 192.271 173.889C192.044 175.98 193.151 177.951 195.361 179.514C197.804 181.366 200.621 182.202 204.28 182.6C207.938 182.998 210.898 182.526 213.653 181.503C216.176 180.191 217.681 178.503 218.198 176.179Z" fill="white"/>
<path d="M229.269 169.186L226.224 170.441L233.319 175.709L229.985 177.198L207.45 160.73L214.671 157.548C216.875 156.73 219.545 156.492 222.158 156.776C225.294 157.117 228.111 157.952 230.06 159.486C232.27 161.049 233.144 162.731 232.945 164.561C232.803 165.868 232.457 166.623 231.877 167.089L245.295 170.135L241.148 171.8L229.269 169.186ZM213.722 161.412L223.288 168.271L226.333 167.015C227.724 166.373 228.622 165.413 228.736 164.367C228.849 163.322 228.179 162.191 226.958 161.265C225.737 160.339 223.964 159.617 222.135 159.418C220.044 159.191 218.42 159.543 217.028 160.185L213.722 161.412Z" fill="white"/>
<path d="M235.783 148.208L267.742 160.675L264.146 162.135L252.989 157.748L246.058 160.697L250.807 168.09L247.211 169.55L234.13 148.821L235.783 148.208ZM248.95 155.987L241.6 153.072L244.775 157.913L248.95 155.987Z" fill="white"/>
<path d="M257.886 141.883L277.483 156.18L274.149 157.669L254.551 143.372L248.461 145.883L245.524 143.713L260.806 136.912L263.743 139.082L257.886 141.883Z" fill="white"/>
<path d="M300.148 139.868L304.618 140.09C304.016 143.198 301.903 145.613 298.568 147.101C294.943 148.823 290.677 149.152 285.973 148.641C281.27 148.129 277.202 146.629 274.004 144.43C270.806 142.231 269.522 139.446 269.807 136.833C270.119 133.958 272.204 131.804 275.8 130.344C279.135 128.855 283.691 128.293 289.179 128.89L288.633 131.475C284.424 131.282 281.231 131.463 278.709 132.776C275.925 134.06 274.448 135.486 274.221 137.577C273.993 139.668 275.101 141.64 277.31 143.203C279.753 145.055 282.571 145.89 286.229 146.288C289.888 146.686 292.847 146.215 295.603 145.192C298.125 143.879 299.631 142.192 300.148 139.868Z" fill="white"/>
<path d="M305.937 132.828L315.242 139.659L311.907 141.147L289.373 124.68L292.707 123.191L303.001 130.658L311.034 127.3L300.769 119.572L304.104 118.083L326.638 134.551L323.303 136.039L313.999 129.209L305.937 132.828Z" fill="white"/>
<path d="M292.929 232.969L247.662 252.906L207.973 223.994L253.239 204.057L292.929 232.969Z" fill="white"/>
<path d="M349.855 207.952L304.588 227.889L264.898 198.977L310.165 179.04L349.855 207.952Z" fill="white"/>
<path d="M406.779 182.936L361.513 202.873L321.851 173.7L367.118 153.763L406.779 182.936Z" fill="#219DAA"/>
<path d="M232.156 225.301L249.643 217.682L253.307 220.461C253.92 222.114 254.272 223.739 254.942 224.87C255.351 225.972 256.021 227.103 256.459 227.944C256.896 228.785 257.334 229.626 258.032 230.495C258.731 231.365 259.197 231.944 259.895 232.814C260.622 233.422 261.321 234.291 262.31 234.928L254.538 238.314C253.317 237.388 252.095 236.461 251.425 235.331C250.493 234.171 249.823 233.041 249.414 231.938C248.744 230.808 248.363 229.444 247.955 228.342C247.546 227.239 247.426 225.904 247.25 225.091L243.075 227.017L245.285 228.58L239.456 231.12L232.156 225.301Z" fill="#3B4459"/>
<path d="M289.082 200.285L306.568 192.666L310.232 195.445C310.846 197.099 311.198 198.724 311.868 199.854C312.277 200.957 312.947 202.087 313.385 202.928C313.822 203.769 314.259 204.61 314.958 205.48C315.395 206.321 316.122 206.929 316.821 207.798C317.548 208.406 318.247 209.275 319.235 209.912L311.464 213.298C310.242 212.372 309.021 211.446 308.351 210.315C307.419 209.156 306.749 208.025 306.34 206.923C305.67 205.792 305.289 204.428 304.88 203.326C304.471 202.224 304.352 200.888 304.176 200.076L300.001 202.002L302.21 203.564L296.382 206.104L289.082 200.285Z" fill="#3B4459"/>
<path d="M207.973 223.994L247.662 252.906L292.929 232.969L253.239 204.057L207.973 223.994ZM262.157 219.308L262.326 229.905L264.678 230.161C264.678 230.161 263.003 221.251 268.201 222.081C273.399 222.911 271.444 231.161 271.444 231.161L273.506 231.65C273.506 231.65 276.107 239.338 271.318 239.61C266.762 240.173 266.024 234.803 266.024 234.803C266.024 234.803 265.904 245.633 262.189 245.758C258.473 245.883 258.718 238.769 258.718 238.769L253.782 237.968C253.782 237.968 253.463 250.627 249.049 249.883C244.635 249.138 247.419 235.689 247.419 235.689C247.419 235.689 245.232 243.65 243.402 243.451C241.312 243.223 241.29 233.7 241.29 233.7L233.797 232.092L232.36 225.853C232.36 225.853 228.281 231.756 226.247 231.006C224.185 230.518 224.447 218.381 229.384 219.182C234.321 219.983 231.133 222.546 231.133 222.546L234.587 222.393C234.587 222.393 233.872 214.381 237.44 213.182C241.008 211.983 241.081 218.603 241.081 218.603L246.54 219.461C246.54 219.461 245.263 206.892 250.461 207.722C255.659 208.552 257.277 217.984 257.277 217.984L262.157 219.308Z" fill="#219DAA"/>
<path d="M264.898 198.977L304.588 227.889L349.855 207.952L310.165 179.04L264.898 198.977ZM323.32 194.223C324.888 194.394 322.649 205.258 322.649 205.258C322.649 205.258 328.682 203.269 330.773 203.497C333.125 203.753 328.653 215.696 327.028 216.048C325.142 216.372 320.053 212.116 320.053 212.116C320.053 212.116 320.825 219.605 319.2 219.957C317.603 220.048 315.354 213.985 315.354 213.985L312.219 213.644C312.219 213.644 311.156 218.554 309.56 218.645C307.992 218.474 307.168 213.889 307.168 213.889C307.168 213.889 304.662 222.343 302.862 221.883C301.061 221.423 303.97 211.69 303.97 211.69C303.97 211.69 300.26 214.195 297.357 214.144C294.716 214.121 298.04 207.871 298.04 207.871C298.04 207.871 289.166 211.666 286.087 210.803C283.008 209.939 287.985 203.075 287.985 203.075C287.985 203.075 285.349 205.433 283.463 205.757C281.344 205.791 286.043 191.756 288.134 191.984C290.224 192.211 289.042 195.785 289.042 195.785L293.513 196.007L294.842 193.507L297.285 195.359C297.285 195.359 297.882 189.87 299.768 189.546C301.654 189.223 302.886 194.91 302.886 194.91L305.5 195.195C305.5 195.195 304.569 181.87 306.892 182.387C309.244 182.643 308.943 190.28 308.943 190.28L312.629 190.416C312.629 190.416 313.317 186.524 315.146 186.723C317.237 186.95 320.076 197.309 320.076 197.309C320.076 197.309 321.753 194.053 323.32 194.223Z" fill="#219DAA"/>
<path opacity="0.1" d="M406.779 182.936L361.513 202.873L321.851 173.7L367.118 153.763L406.779 182.936Z" fill="url(#paint0_linear_482_19832)"/>
<path opacity="0.1" d="M207.973 223.994L247.662 252.906L292.929 232.969L253.239 204.057L207.973 223.994ZM262.157 219.308L262.326 229.905L264.678 230.161C264.678 230.161 263.003 221.251 268.201 222.081C273.399 222.911 271.444 231.161 271.444 231.161L273.506 231.65C273.506 231.65 276.107 239.338 271.318 239.61C266.762 240.173 266.024 234.803 266.024 234.803C266.024 234.803 265.904 245.633 262.189 245.758C258.473 245.883 258.718 238.769 258.718 238.769L253.782 237.968C253.782 237.968 253.463 250.627 249.049 249.883C244.635 249.138 247.419 235.689 247.419 235.689C247.419 235.689 245.232 243.65 243.402 243.451C241.312 243.223 241.29 233.7 241.29 233.7L233.797 232.092L232.36 225.853C232.36 225.853 228.281 231.756 226.247 231.006C224.185 230.518 224.447 218.381 229.384 219.182C234.321 219.983 231.133 222.546 231.133 222.546L234.587 222.393C234.587 222.393 233.872 214.381 237.44 213.182C241.008 211.983 241.081 218.603 241.081 218.603L246.54 219.461C246.54 219.461 245.263 206.892 250.461 207.722C255.659 208.552 257.277 217.984 257.277 217.984L262.157 219.308Z" fill="url(#paint1_linear_482_19832)"/>
<path opacity="0.1" d="M264.898 198.977L304.588 227.889L349.855 207.952L310.165 179.04L264.898 198.977ZM323.32 194.223C324.888 194.394 322.649 205.258 322.649 205.258C322.649 205.258 328.682 203.269 330.773 203.497C333.125 203.753 328.653 215.696 327.028 216.048C325.142 216.372 320.053 212.116 320.053 212.116C320.053 212.116 320.825 219.605 319.2 219.957C317.603 220.048 315.354 213.985 315.354 213.985L312.219 213.644C312.219 213.644 311.156 218.554 309.56 218.645C307.992 218.474 307.168 213.889 307.168 213.889C307.168 213.889 304.662 222.343 302.862 221.883C301.061 221.423 303.97 211.69 303.97 211.69C303.97 211.69 300.26 214.195 297.357 214.144C294.716 214.121 298.04 207.871 298.04 207.871C298.04 207.871 289.166 211.666 286.087 210.803C283.008 209.939 287.985 203.075 287.985 203.075C287.985 203.075 285.349 205.433 283.463 205.757C281.344 205.791 286.043 191.756 288.134 191.984C290.224 192.211 289.042 195.785 289.042 195.785L293.513 196.007L294.842 193.507L297.285 195.359C297.285 195.359 297.882 189.87 299.768 189.546C301.654 189.223 302.886 194.91 302.886 194.91L305.5 195.195C305.5 195.195 304.569 181.87 306.892 182.387C309.244 182.643 308.943 190.28 308.943 190.28L312.629 190.416C312.629 190.416 313.317 186.524 315.146 186.723C317.237 186.95 320.076 197.309 320.076 197.309C320.076 197.309 321.753 194.053 323.32 194.223Z" fill="url(#paint2_linear_482_19832)"/>
<path d="M116.926 154.322C116.926 154.322 123.857 151.374 115.773 145.47C115.773 145.47 123.595 151.345 131.077 148.192C131.077 148.192 123.595 151.345 131.912 157.539C131.94 157.278 123.857 151.374 116.926 154.322Z" fill="#FFE164"/>
<path d="M252.356 110.074C252.356 110.074 259.286 107.126 251.203 101.222C251.203 101.222 259.025 107.097 266.507 103.944C266.507 103.944 259.025 107.097 267.341 113.291C267.37 113.03 259.025 107.097 252.356 110.074Z" fill="#FFE164"/>
<path d="M202.465 201.708C202.465 201.708 209.396 198.759 201.312 192.855C201.312 192.855 209.135 198.731 216.616 195.578C216.616 195.578 209.135 198.731 217.451 204.925C217.479 204.663 209.135 198.731 202.465 201.708Z" fill="#FFE164"/>
<path d="M290.442 161.028C290.442 161.028 297.372 158.079 289.289 152.175C289.289 152.175 297.111 158.05 304.593 154.897C304.593 154.897 297.111 158.05 305.427 164.244C305.427 164.244 297.111 158.05 290.442 161.028Z" fill="#FFE164"/>
<path d="M116.959 168.608C116.959 168.608 120.845 166.914 116.164 163.761C116.164 163.761 120.555 167.147 124.731 165.221C124.731 165.221 120.555 167.147 125.236 170.301C125.236 170.301 120.555 167.147 116.959 168.608Z" fill="#FFE164"/>
<path d="M337.139 144.948C337.139 144.948 341.025 143.255 336.344 140.102C336.344 140.102 340.735 143.488 344.91 141.562C344.91 141.562 340.735 143.488 345.416 146.642C345.677 146.67 340.996 143.517 337.139 144.948Z" fill="#FFE164"/>
<path d="M278.92 87.0461C278.92 87.0461 282.806 85.3529 278.125 82.1992C278.125 82.1992 282.516 85.5859 286.692 83.6598C286.692 83.6598 282.516 85.5859 287.197 88.7396C287.197 88.7396 282.806 85.3529 278.92 87.0461Z" fill="#FFE164"/>
<path d="M252.311 91.0285C252.311 91.0285 256.196 89.3353 251.516 86.1816C251.516 86.1816 255.907 89.5683 260.082 87.6422C260.082 87.6422 255.907 89.5683 260.587 92.722C260.849 92.7504 256.168 89.5967 252.311 91.0285Z" fill="#FFE164"/>
<path d="M173.748 210.486C173.748 210.486 177.634 208.793 172.953 205.64C172.953 205.64 177.344 209.026 181.52 207.1C181.52 207.1 177.344 209.026 182.025 212.18C182.286 212.208 177.634 208.793 173.748 210.486Z" fill="#FFE164"/>
<path d="M152.381 146.806C152.381 146.806 156.267 145.113 151.586 141.959C151.586 141.959 155.977 145.346 160.153 143.42C160.153 143.42 155.977 145.346 160.658 148.499C160.919 148.528 156.267 145.113 152.381 146.806Z" fill="#FFE164"/>
<path d="M442.88 191.358L253.201 274.929L87.1715 153.202L276.589 69.6024L442.88 191.358ZM253.486 272.316L438.438 190.875L276.305 72.2161L91.3526 153.657L253.486 272.316Z" fill="#219DAA"/>
<path d="M208.759 148.706L237.903 136.008L220.475 118.773L223.996 135.024L198.337 122.977L212.021 140.598L184.634 134.711L208.759 148.706Z" fill="#FFD961"/>
<path d="M186.083 133.545C187.072 134.182 186.958 135.227 185.856 135.636C184.754 136.045 183.186 135.875 182.198 135.238C181.209 134.602 181.323 133.556 182.425 133.147C183.527 132.738 185.095 132.909 186.083 133.545Z" fill="#FFD961"/>
<path d="M200.048 121.841C201.037 122.477 200.923 123.523 199.821 123.932C198.719 124.341 197.151 124.171 196.162 123.534C195.174 122.898 195.288 121.852 196.39 121.443C197.492 121.034 199.06 121.205 200.048 121.841Z" fill="#FFD961"/>
<path d="M222.185 117.637C223.173 118.273 223.06 119.319 221.957 119.728C220.855 120.137 219.287 119.966 218.299 119.33C217.311 118.694 217.424 117.648 218.526 117.239C219.89 116.858 221.458 117.029 222.185 117.637Z" fill="#FFD961"/>
<path d="M219.154 135.82C221.363 137.382 221.977 139.036 220.585 139.678C219.193 140.32 216.637 139.513 214.427 137.95C212.217 136.388 211.604 134.734 212.996 134.092C214.126 133.422 216.944 134.257 219.154 135.82Z" fill="#FCBB47"/>
<path d="M205.029 141.689C207.528 143.019 208.954 144.496 208.113 144.934C207.272 145.371 204.688 144.825 202.188 143.496C199.689 142.166 198.263 140.689 199.104 140.251C199.945 139.814 202.529 140.359 205.029 141.689Z" fill="#FCBB47"/>
<path d="M227.241 131.939C228.9 133.706 231.166 134.746 232.24 134.599C233.342 134.19 232.99 132.564 231.303 131.059C229.644 129.291 227.378 128.252 226.304 128.399C225.492 128.575 225.844 130.2 227.241 131.939Z" fill="#FCBB47"/>
<path d="M237.493 134.905L207.219 148.274L206.725 147.956L236.999 134.587L237.493 134.905Z" fill="#FCBB47"/>
<path d="M182.426 133.148C183.238 132.972 184.545 133.114 185.3 133.461C186.027 134.069 185.942 134.853 185.101 135.29C184.55 135.495 183.476 135.642 182.721 135.296C183.738 135.671 184.783 135.784 185.624 135.347C186.726 134.938 186.84 133.892 185.851 133.256C185.096 132.909 183.528 132.739 182.426 133.148Z" fill="#FCBB47"/>
<path d="M196.39 121.443C197.203 121.267 198.509 121.409 199.265 121.755C199.992 122.363 199.907 123.148 199.066 123.585C198.515 123.79 197.441 123.937 196.686 123.591C197.702 123.966 198.748 124.079 199.589 123.642C200.691 123.233 200.804 122.187 199.816 121.551C199.06 121.204 197.493 121.034 196.39 121.443Z" fill="#FCBB47"/>
<path d="M218.789 117.267C219.601 117.091 220.908 117.233 221.663 117.58C222.39 118.188 222.305 118.972 221.464 119.409C220.913 119.614 219.84 119.762 219.084 119.415C220.101 119.79 221.146 119.904 221.987 119.466C223.089 119.057 223.203 118.012 222.214 117.375C221.198 117 219.63 116.83 218.789 117.267Z" fill="#FCBB47"/>
<path opacity="0.6" d="M393.06 187.526C389.958 189.305 379.062 184.946 369.031 177.508C358.999 170.07 353.466 162.592 356.568 160.814C359.67 159.035 370.566 163.394 380.597 170.832C390.919 178.037 396.423 185.776 393.06 187.526Z" fill="#219DAA"/>
<path d="M400.148 163.702C398.414 179.645 383.046 187.231 370.049 177.883C357.081 168.274 347.596 146.085 349.33 130.141C351.064 114.198 367.044 108.266 380.013 117.875C392.749 127.194 401.882 147.758 400.148 163.702Z" fill="#EA9600"/>
<path d="M379.779 117.585C366.811 107.976 350.801 114.169 349.096 129.852C348.755 132.988 348.936 136.181 349.379 139.403L386.033 123.29C384.142 121.233 381.96 119.409 379.779 117.585Z" fill="#F7A30D"/>
<path d="M368.128 176.088C368.855 176.696 369.349 177.014 370.076 177.622C383.045 187.231 398.441 179.384 400.175 163.44C400.715 158.474 400.238 153.133 398.977 147.707L369.834 160.405L368.128 176.088Z" fill="#E88400"/>
<path d="M395.68 165.861C393.946 181.805 382.027 186.856 369.03 177.508C356.061 167.9 346.928 147.336 348.634 131.653C350.339 115.971 362.287 110.658 375.284 120.006C388.281 129.353 397.414 149.917 395.68 165.861Z" fill="#FFB92C"/>
<path d="M367.662 163.343C361.641 157.928 359.421 151.604 359.421 151.604L361.5 147.069L363.852 147.325C363.852 147.325 366.215 152.343 369.879 155.121C370.867 155.758 371.418 155.553 371.503 154.769C371.759 152.417 359.984 143.995 361.121 133.54C361.945 125.961 371.301 129.887 371.301 129.887L369.375 125.711L371.727 125.967L376.613 129.671L376.243 133.069C381.798 137.905 384.513 144.547 384.513 144.547L380.082 148.826L377.73 148.57C377.73 148.57 377.168 144.013 375.481 142.507C374.493 141.871 373.942 142.075 373.856 142.859C373.6 145.212 383.893 152.678 382.756 163.133C381.79 172.02 372.576 166.787 372.576 166.787L372.178 170.446L369.826 170.19L367.293 166.741L367.662 163.343Z" fill="#EA9600"/>
<path d="M365.311 163.087C359.29 157.672 357.069 151.348 357.069 151.348L361.501 147.069C361.501 147.069 363.864 152.087 367.528 154.865C368.516 155.502 369.067 155.297 369.152 154.513C369.408 152.161 359.115 144.694 360.252 134.239C361.076 126.659 368.688 129.603 368.688 129.603L369.115 125.682L374 129.387L373.631 132.785C379.186 137.621 381.901 144.263 381.901 144.263L377.469 148.541C377.469 148.541 375.544 144.365 372.869 142.223C371.88 141.586 371.329 141.791 371.244 142.575C370.988 144.927 381.281 152.394 380.144 162.849C379.178 171.736 369.964 166.502 369.964 166.502L369.566 170.162L364.68 166.457L365.05 163.059L365.311 163.087Z" fill="#FFD348"/>
<path d="M370.792 173.468C359.277 165.075 351.456 147.034 352.963 133.181C353.73 126.124 356.594 121.675 360.769 119.749C355.867 121.067 352.162 125.954 351.338 133.533C349.831 147.386 357.914 165.456 369.167 173.82C374.808 177.872 380.238 178.991 384.675 177.093C380.846 178.264 375.938 177.201 370.792 173.468Z" fill="#EA9600"/>
<path d="M375.315 119.745C367.959 114.449 361.165 113.71 356.063 116.858C360.818 114.466 367.323 115.437 374.185 120.415C387.153 130.024 396.286 150.588 394.581 166.27C393.813 173.327 391.183 178.066 387.212 180.543C391.677 178.384 394.887 173.18 395.711 165.6C397.417 149.917 388.284 129.354 375.315 119.745Z" fill="#FFD348"/>
<path d="M373.77 129.097L373.372 132.756C378.927 137.592 381.642 144.234 381.642 144.234L377.501 148.279C377.472 148.541 377.734 148.569 377.734 148.569L382.165 144.291C382.165 144.291 379.711 137.677 373.895 132.813L374.264 129.415L369.379 125.71L369.35 125.971L373.77 129.097Z" fill="#FFE164"/>
<path d="M368.314 154.95C368.052 154.922 367.791 154.893 367.819 154.632C363.894 151.825 361.793 146.836 361.793 146.836L361.503 147.069C362.173 148.2 364.388 152.143 367.558 154.604C367.53 154.865 368.052 154.922 368.314 154.95Z" fill="#FFE164"/>
<path d="M371.481 142.865C371.509 142.603 371.799 142.37 372.088 142.137C371.594 141.819 371.015 142.285 370.958 142.808C370.702 145.16 380.995 152.627 379.858 163.082C379.375 167.525 376.909 168.315 374.529 168.32C377.142 168.605 379.869 167.843 380.381 163.139C381.518 152.684 371.225 145.217 371.481 142.865Z" fill="#FFE164"/>
<path d="M369.703 166.473L369.305 170.132L369.799 170.45L370.197 166.791C369.964 166.501 369.703 166.473 369.703 166.473Z" fill="#FFE164"/>
<path d="M221.587 261.706C221.587 261.706 214.788 258.587 211.606 263.53C211.606 263.53 210.277 266.03 212.225 267.564C212.952 268.172 215.622 267.934 216.838 266.479C216.838 266.479 218.423 261.627 221.587 261.706Z" fill="#219DAA"/>
<path d="M229.53 268.917C229.53 268.917 232.904 271.929 231.779 274.98C230.654 278.031 227.593 272.144 227.593 272.144C227.593 272.144 223.746 278.338 229.177 279.457C234.085 280.52 238.858 273.105 229.53 268.917Z" fill="#219DAA"/>
<path d="M216.008 283.844C216.008 283.844 211.18 279.616 207.499 281.861C203.817 284.105 204.146 288.372 207.719 289.554C207.719 289.554 208.231 284.849 210.697 284.06C213.48 282.776 216.008 283.844 216.008 283.844Z" fill="#219DAA"/>
<path d="M307.504 259.413C307.504 259.413 312.702 260.243 312.508 264.453C312.343 268.402 305.844 269.811 304.152 265.925L306.413 264.584C306.441 264.322 311.906 267.561 307.504 259.413Z" fill="#219DAA"/>
<path d="M327.099 259.164C327.099 259.164 322.61 263.965 325.286 266.107C327.961 268.249 329.581 265.516 329.581 265.516C329.581 265.516 324.644 264.715 327.099 259.164Z" fill="#219DAA"/>
<path d="M316.138 277.278C316.138 277.278 317.956 272.716 321.268 273.869C324.58 275.023 323.279 277.261 323.279 277.261C323.279 277.261 323.012 274.852 320.547 275.642C318.081 276.432 318.376 278.58 318.376 278.58L316.138 277.278Z" fill="#219DAA"/>
<path d="M320.994 242.367C320.994 242.367 325.379 243.373 325.328 246.277C325.481 249.732 320.896 250.555 319.647 249.89C319.771 253.607 328.537 253.237 328.117 247.374C327.958 241.538 320.994 242.367 320.994 242.367Z" fill="#219DAA"/>
</g>
<defs>
<linearGradient id="paint0_linear_482_19832" x1="322.085" y1="169.193" x2="405.153" y2="183.89" gradientUnits="userSpaceOnUse">
<stop stop-color="white"/>
<stop offset="1"/>
</linearGradient>
<linearGradient id="paint1_linear_482_19832" x1="213.123" y1="220.351" x2="288.398" y2="234.533" gradientUnits="userSpaceOnUse">
<stop stop-color="white"/>
<stop offset="1"/>
</linearGradient>
<linearGradient id="paint2_linear_482_19832" x1="264.752" y1="195.269" x2="350.821" y2="204.109" gradientUnits="userSpaceOnUse">
<stop stop-color="white"/>
<stop offset="1"/>
</linearGradient>
<clipPath id="clip0_482_19832">
<rect width="368" height="229" fill="white" transform="translate(93.457 46.7773) rotate(6.20668)"/>
</clipPath>
</defs>
</svg>
