<svg width="139" height="111" viewBox="0 0 139 111" fill="none" xmlns="http://www.w3.org/2000/svg">
<path fill-rule="evenodd" clip-rule="evenodd" d="M70.3829 38.5471C66.9006 32.5145 77.7896 19.7148 94.703 9.94734C111.609 0.187748 128.143 -2.84446 131.625 3.18819C133.552 6.52827 135.479 9.86834 137.413 13.2163C140.896 19.2411 130.007 32.0407 113.093 41.8082C96.1796 51.5678 79.6528 54.6 76.1707 48.5752C74.2442 45.2273 72.3096 41.8872 70.3829 38.5471Z" fill="#FE9923"/>
<path fill-rule="evenodd" clip-rule="evenodd" d="M94.703 9.94734C111.609 0.187748 128.143 -2.84446 131.625 3.18819C135.108 9.21297 124.219 22.0126 107.305 31.7801C90.3919 41.5476 73.8652 44.5719 70.3829 38.5471C66.9006 32.5145 77.7896 19.7148 94.703 9.94734Z" fill="#FECD3D"/>
<path fill-rule="evenodd" clip-rule="evenodd" d="M97.6515 15.0483C111.107 7.28628 123.511 3.5911 125.367 6.79679C127.223 10.0106 117.818 18.9096 104.363 26.6792C90.9081 34.4491 78.4953 38.1446 76.6476 34.9307C74.7922 31.7172 84.1964 22.8182 97.6515 15.0483Z" fill="#FEA832"/>
<path d="M130.369 20.1178L133.448 25.4555C134.182 24.5552 134.846 23.671 135.414 22.8022L132.982 18.6016L130.369 20.1178ZM127.731 31.3619C126.968 32.0432 126.192 32.7093 125.402 33.3597L122.464 28.2667L125.078 26.7665L127.731 31.3619ZM119.014 38.1053C118.181 38.6725 117.339 39.2253 116.487 39.7635L113.684 34.9075L116.298 33.4072L119.014 38.1053ZM109.641 43.7114C108.733 44.193 107.833 44.6432 106.941 45.0854L104.216 40.3792L106.838 38.8633L109.641 43.7114ZM99.6366 48.236C98.6785 48.5975 97.7123 48.9371 96.7388 49.2546L94.0777 44.6592L96.6992 43.1511L99.6366 48.236ZM88.7637 51.2522C87.6188 51.4417 86.5209 51.5682 85.4866 51.6312L83.0625 47.4305L85.684 45.9145L88.7637 51.2522Z" fill="#C85929"/>
<path fill-rule="evenodd" clip-rule="evenodd" d="M67.8117 64.723C71.2937 58.6982 60.405 45.8907 43.4916 36.1311C26.5859 26.3636 10.0512 23.3393 6.56913 29.3641C4.64241 32.7041 2.71595 36.0521 0.781356 39.3921C-2.70097 45.4169 8.18799 58.2245 25.1015 67.9841C42.0149 77.7515 58.5418 80.7759 62.0239 74.7511C63.9582 71.4113 65.8847 68.0631 67.8117 64.723Z" fill="#FE9923"/>
<path fill-rule="evenodd" clip-rule="evenodd" d="M43.4902 36.1311C26.5846 26.3636 10.0498 23.3393 6.56775 29.3641C3.09356 35.3967 13.9823 48.1964 30.8879 57.956C47.8013 67.7234 64.3361 70.7478 67.8103 64.723C71.2926 58.6982 60.4036 45.8907 43.4902 36.1311Z" fill="#FECD3D"/>
<path fill-rule="evenodd" clip-rule="evenodd" d="M40.5429 41.2319C27.0957 33.462 14.6829 29.7668 12.8273 32.9804C10.9717 36.1863 20.3759 45.0932 33.831 52.8549C47.286 60.6248 59.6988 64.32 61.5544 61.1064C63.4021 57.9007 53.9979 49.0017 40.5429 41.2319Z" fill="#FEA832"/>
<path d="M7.83454 46.2936L4.75509 51.6312C4.02073 50.731 3.36536 49.8468 2.79688 48.9859L5.22096 44.7773L7.83454 46.2936ZM10.4717 57.5377C11.2347 58.2192 12.0113 58.8853 12.8011 59.5355L15.7383 54.4503L13.1247 52.9422L10.4717 57.5377ZM19.1891 64.2889C20.0251 64.8526 20.87 65.4028 21.7237 65.9393L24.5268 61.0832L21.9053 59.583L19.1891 64.2889ZM28.5618 69.8951C29.4575 70.3645 30.3605 70.82 31.2704 71.2612L33.9866 66.555L31.3652 65.039L28.5618 69.8951ZM38.5742 74.4118C39.5314 74.7757 40.4976 75.1153 41.472 75.4304L44.1252 70.835L41.5038 69.3347L38.5742 74.4118ZM49.4392 77.4358C50.5922 77.6175 51.6817 77.7437 52.7161 77.8069L55.1401 73.6063L52.5266 72.0903L49.4392 77.4358Z" fill="#C85929"/>
<path fill-rule="evenodd" clip-rule="evenodd" d="M65.3728 97.7841C61.8984 91.7593 72.7795 78.9597 89.693 69.1922C106.606 59.4326 123.133 56.4004 126.615 62.4252C128.546 65.7671 130.475 69.1098 132.403 72.4533C135.885 78.4859 124.997 91.2856 108.091 101.053C91.1774 110.813 74.6427 113.845 71.1606 107.812C69.2327 104.469 67.3034 101.126 65.3728 97.7841Z" fill="#FE9923"/>
<path fill-rule="evenodd" clip-rule="evenodd" d="M89.693 69.1917C106.606 59.4321 123.133 56.3999 126.615 62.4247C130.098 68.4573 119.209 81.257 102.295 91.0245C85.3897 100.784 68.8552 103.816 65.3728 97.7836C61.8984 91.7591 72.7795 78.9594 89.693 69.1917Z" fill="#FECD3D"/>
<path fill-rule="evenodd" clip-rule="evenodd" d="M92.6359 74.2931C106.091 66.5232 118.504 62.8357 120.351 66.0416C122.207 69.2552 112.803 78.1542 99.3475 85.924C85.8925 93.6861 73.4875 97.3812 71.6319 94.1755C69.7766 90.9617 79.1808 82.0627 92.6359 74.2931Z" fill="#FEA832"/>
<path d="M125.353 79.3626L128.44 84.7006C129.137 83.8494 129.791 82.9639 130.399 82.0474L127.974 77.8467L125.353 79.3626ZM122.723 90.5988C121.96 91.2825 121.18 91.9487 120.386 92.5967L117.449 87.5115L120.07 86.0113L122.723 90.5988ZM114.006 97.3501C113.17 97.9156 112.325 98.4684 111.471 99.0083L108.668 94.1523L111.29 92.6442L114.006 97.3501ZM104.625 102.956C103.732 103.426 102.832 103.881 101.925 104.322L99.2085 99.6162L101.822 98.1002L104.625 102.956ZM94.6209 107.481C93.6607 107.836 92.6946 108.176 91.7231 108.499L89.0699 103.896L91.6835 102.396L94.6209 107.481ZM83.7559 110.497C82.6029 110.687 81.5052 110.805 80.4788 110.868L78.0547 106.668L80.6683 105.152L83.7559 110.497Z" fill="#C85929"/>
<path d="M58.5876 14.2349V18.7279H63.0804V22.6286H58.5876V27.1293H54.687V22.6286H50.186V18.7279H54.687V14.2349H58.5876ZM44.6904 86.3031V90.7962H49.191V94.6966H44.6904V99.1975H40.7897V94.6966H36.2969V90.7962H40.7897V86.3031H44.6904ZM134.359 42.2347V46.7275H138.86V50.6284H134.359V55.1291H130.458V50.6284H125.965V46.7275H130.458V42.2347H134.359Z" fill="#FEA832"/>
</svg>
