<svg width="131" height="128" viewBox="0 0 131 128" fill="none" xmlns="http://www.w3.org/2000/svg">
<path d="M37.7286 90.8139L40.2598 93.3451L27.6762 105.929V118.585H24.0934V105.189C24.0934 104.732 24.2674 104.275 24.6228 103.927L36.4592 92.0832L37.7286 90.8139ZM93.2706 90.8139L90.7394 93.3451L92.0087 94.6142L103.961 106.574V118.766H107.544V105.827C107.545 105.592 107.499 105.36 107.409 105.144C107.319 104.927 107.188 104.73 107.022 104.565L93.2706 90.8139ZM63.708 104.725V118.788H67.2909V102.933H63.708V104.725ZM63.708 8.64702V27.3158H67.2909V6.85547H63.708V8.64702ZM108.291 25.3211L105.753 22.7898L104.491 24.0589L91.1892 37.3532L93.7276 39.8845L108.291 25.3211ZM122.427 63.7828H103.308V67.3656H124.218V63.7828H122.427ZM27.698 63.7828H7.6875V67.3656H27.698V63.7828ZM37.279 39.8847L39.8102 37.3535L25.8849 23.4282L23.3537 25.9594L24.623 27.2288L37.279 39.8847Z" fill="#8DA6E3"/>
<path fill-rule="evenodd" clip-rule="evenodd" d="M9.47721 65.5741C9.47721 67.6992 7.75833 69.4181 5.63314 69.4181C3.50795 69.4181 1.78906 67.6992 1.78906 65.5741C1.78906 63.4563 3.50795 61.73 5.63314 61.73C7.75833 61.73 9.47721 63.4563 9.47721 65.5741Z" fill="#FAFCFF"/>
<path fill-rule="evenodd" clip-rule="evenodd" d="M72.5777 34.0247C76.146 34.8296 79.4824 36.2369 82.485 38.1297L88.0479 32.5668C91.9524 35.2819 95.3417 38.6711 98.0567 42.5756L92.4938 48.1386C94.3867 51.1411 95.7939 54.4775 96.5988 58.0458H104.468C104.882 60.345 105.099 62.7094 105.099 65.1245C105.099 67.5396 104.882 69.904 104.468 72.196H96.606C95.8062 75.7098 94.4157 79.0623 92.4938 82.1107L98.0567 87.6736C95.3434 91.5776 91.9538 94.9648 88.0479 97.6753L82.485 92.1198C79.4824 94.0126 76.146 95.4199 72.5777 96.2248V104.094C70.2785 104.508 67.9141 104.725 65.499 104.725C63.0839 104.725 60.7195 104.508 58.4275 104.094V96.2248C54.913 95.4308 51.56 94.0424 48.5128 92.1198L42.9499 97.6753C39.0444 94.9667 35.6569 91.5791 32.9482 87.6736L38.5038 82.1107C36.581 79.0636 35.1927 75.7105 34.3987 72.196H26.5294C26.1089 69.8623 25.8977 67.4957 25.8984 65.1245C25.8984 62.7094 26.1159 60.345 26.5294 58.0458H34.3987C35.1921 54.5323 36.583 51.1812 38.5109 48.1386L32.948 42.5756C35.6584 38.6696 39.0456 35.28 42.9496 32.5668L48.5126 38.1297C51.5597 36.2069 54.9128 34.8186 58.4272 34.0247V26.1554C60.719 25.7419 63.0834 25.5244 65.4988 25.5244C67.9141 25.5244 70.2783 25.7419 72.5775 26.1554L72.5777 34.0247Z" fill="#33CD96"/>
<path fill-rule="evenodd" clip-rule="evenodd" d="M65.4981 44.3452C76.972 44.3452 86.2775 53.6504 86.2775 65.1246C86.2775 76.5987 76.972 85.9037 65.4981 85.9037C54.0242 85.9037 44.7188 76.5982 44.7188 65.1243C44.7188 53.6504 54.0242 44.3452 65.4981 44.3452Z" fill="#E9E9FF"/>
<path d="M60.8499 72.298L58.3215 74.8264L49.8988 66.4034C49.7327 66.2374 49.6009 66.0403 49.511 65.8233C49.4211 65.6063 49.3749 65.3738 49.375 65.1389C49.3751 64.9041 49.4214 64.6715 49.5114 64.4546C49.6014 64.2377 49.7333 64.0406 49.8995 63.8747L58.3228 55.4599L60.8499 57.9896L53.6919 65.1402L60.8499 72.298ZM81.1053 63.8466L72.6905 55.4233L70.1608 57.9505L77.3126 65.1095L70.1608 72.2614L72.6892 74.7898L81.1048 66.374C81.4399 66.0389 81.6283 65.5843 81.6283 65.1104C81.6284 64.6364 81.4403 64.1818 81.1053 63.8466ZM67.2332 51.7729L60.3239 77.5508L63.7775 78.4765L70.6868 52.6987L67.2332 51.7729Z" fill="#8DA6E3"/>
<path d="M63.5297 96.7325H67.4679V100.315H63.5294L63.5297 96.7325ZM63.5297 33.6839H67.4682V30.1011H63.5299V33.6839H63.5297ZM43.0116 87.3472L41.7422 86.0925L39.2256 88.6237L40.4949 89.8856L40.7416 90.1323L42.0109 91.3942L44.5276 88.8629L43.2657 87.601L43.0116 87.3472ZM86.4557 41.379L87.7251 42.6483L89.2408 44.164L91.772 41.6328L88.987 38.8477L86.4557 41.379ZM30.3047 65.0304V67.1771H33.8875V63.2388H30.3047V65.0304ZM97.1101 63.2391V67.1773H100.693V63.2391H97.1101ZM40.7416 40.255L39.2258 41.7707L41.7425 44.3019L44.5276 41.5315L42.0109 39.0002L40.7416 40.255ZM87.986 87.3764L86.4629 88.8849L88.9796 91.4162L91.7646 88.6457L89.248 86.1145L87.986 87.3764Z" fill="#ACD1FC"/>
<path fill-rule="evenodd" clip-rule="evenodd" d="M65.4932 9.55362C67.611 9.55362 69.3373 7.82757 69.3373 5.70954C69.3373 3.59151 67.611 1.86572 65.4932 1.86572C63.3755 1.86572 61.6492 3.59177 61.6492 5.7098C61.6492 7.82783 63.3755 9.55362 65.4932 9.55362ZM110.548 20.527C112.042 22.0284 112.042 24.4581 110.548 25.9595C109.046 27.4609 106.609 27.4609 105.108 25.9595C103.606 24.4581 103.606 22.0284 105.108 20.527C106.609 19.0259 109.046 19.0259 110.548 20.527ZM25.8786 25.9595C24.3772 27.4609 21.9475 27.4609 20.4464 25.9595C18.945 24.4581 18.945 22.0284 20.4464 20.527C21.9478 19.0256 24.3774 19.0256 25.8786 20.527C27.3797 22.0284 27.3797 24.4581 25.8786 25.9595Z" fill="#FAFCFF"/>
<path fill-rule="evenodd" clip-rule="evenodd" d="M60.2084 117.345H70.7904V127.926H60.2084V117.345ZM100.461 117.345V127.926H111.043V117.345H100.461ZM20.5938 127.927H31.1754V117.345H20.5938V127.927Z" fill="#D52B83"/>
<path fill-rule="evenodd" clip-rule="evenodd" d="M65.4981 44.3452C66.0784 44.3452 66.6584 44.3741 67.2241 44.4176C56.5626 45.2952 48.1783 54.2307 48.1783 65.1243C48.1783 76.0179 56.5626 84.9534 67.2241 85.831C66.6584 85.8745 66.0781 85.9034 65.4981 85.9034C54.0242 85.9034 44.7188 76.5979 44.7188 65.1241C44.7188 53.6502 54.0242 44.3452 65.4981 44.3452Z" fill="#CFCFFF"/>
<path d="M131 65.5742C131 67.1334 130.369 68.5407 129.354 69.5631C128.331 70.5786 126.924 71.2096 125.364 71.2096C123.812 71.2096 122.405 70.5786 121.383 69.5631C120.367 68.5404 119.736 67.1334 119.736 65.5742C119.736 64.0222 120.367 62.6152 121.383 61.5925C122.405 60.5698 123.812 59.9388 125.364 59.9388C126.924 59.9388 128.331 60.5698 129.354 61.5925C130.369 62.6152 131 64.0222 131 65.5742ZM107.834 17.6115C107.095 17.6101 106.363 17.7548 105.679 18.0374C104.996 18.3199 104.375 18.7348 103.853 19.258C102.83 20.2807 102.199 21.6877 102.199 23.2469C102.199 24.799 102.83 26.206 103.853 27.2286C104.375 27.7519 104.996 28.1667 105.679 28.4492C106.363 28.7318 107.095 28.8765 107.834 28.8751C108.574 28.8759 109.306 28.7308 109.989 28.4483C110.672 28.1658 111.293 27.7513 111.816 27.2286C112.839 26.206 113.47 24.799 113.47 23.2469C113.47 21.6877 112.839 20.2804 111.816 19.258C111.293 18.7353 110.672 18.3208 109.989 18.0383C109.306 17.7558 108.574 17.6108 107.834 17.6115ZM65.5 0.0742188C63.9479 0.0742188 62.5409 0.705175 61.5183 1.72786C60.9927 2.24897 60.5759 2.8693 60.292 3.55283C60.0081 4.23635 59.8629 4.96946 59.8646 5.70959C59.8635 6.44962 60.0091 7.18253 60.2929 7.86596C60.5768 8.5494 60.9932 9.1698 61.5183 9.69132C62.5409 10.714 63.9479 11.345 65.5 11.345C67.0592 11.345 68.4665 10.714 69.4889 9.69132C70.0116 9.16843 70.4261 8.54762 70.7086 7.86439C70.9911 7.18116 71.1361 6.44893 71.1354 5.70959C71.1368 4.97015 70.9921 4.23771 70.7096 3.55438C70.427 2.87106 70.0122 2.25032 69.4889 1.72786C68.4665 0.705431 67.0595 0.0742188 65.5 0.0742188ZM23.1727 17.6115C20.0611 17.6115 17.5373 20.1356 17.5373 23.2469C17.5373 26.3582 20.0614 28.8751 23.1727 28.8751C26.284 28.8751 28.8009 26.3584 28.8009 23.2469C28.8009 20.1354 26.2842 17.6115 23.1727 17.6115ZM5.63537 59.9388C2.52383 59.9388 0 62.4629 0 65.5742C0 68.6855 2.52408 71.2096 5.63537 71.2096C8.74665 71.2096 11.2707 68.6855 11.2707 65.5742C11.2707 62.4629 8.74691 59.9388 5.63537 59.9388Z" fill="#D52B83"/>
</svg>
