<svg width="142" height="142" viewBox="0 0 142 142" fill="none" xmlns="http://www.w3.org/2000/svg">
<path d="M81.8145 12.4529C80.7605 12.2587 80.0672 11.2603 80.2613 10.2064C80.4555 9.15249 81.4539 8.45913 82.5078 8.65327C97.3734 11.3712 110.436 19.3033 119.727 30.4802C128.88 41.463 134.371 55.5798 134.371 70.9724C134.371 86.365 128.88 100.482 119.727 111.492C111.102 121.837 99.2316 129.409 85.6973 132.654L95.3766 138.228C96.2918 138.755 96.6246 139.948 96.0699 140.863C95.543 141.778 94.3504 142.111 93.4352 141.556L79.457 133.486C78.5418 132.931 78.209 131.766 78.7637 130.851C78.7914 130.823 78.7914 130.795 78.8191 130.74L86.8344 116.845C87.3613 115.93 88.5539 115.597 89.4691 116.152C90.3844 116.679 90.7172 117.871 90.1902 118.786L84.2828 129.02C97.2348 126.081 108.578 118.897 116.787 109.024C125.357 98.7068 130.516 85.4498 130.516 70.9724C130.516 56.4951 125.357 43.238 116.787 32.9208C108.051 22.465 95.7926 15.0322 81.8145 12.4529ZM60.1816 129.52C61.2355 129.714 61.9289 130.712 61.7348 131.766C61.5406 132.82 60.5422 133.513 59.4883 133.319C44.6227 130.574 31.5598 122.669 22.2688 111.492C13.1164 100.51 7.625 86.365 7.625 70.9724C7.625 55.5798 13.1164 41.463 22.2688 30.4802C31.5598 19.3033 44.6227 11.3712 59.4883 8.65327C60.5422 8.45913 61.5406 9.15249 61.7348 10.2064C61.9289 11.2603 61.2355 12.2587 60.1816 12.4529C46.2035 15.0322 33.9449 22.465 25.2363 32.9486C16.6387 43.2658 11.4801 56.5228 11.4801 71.0001C11.4801 85.4775 16.6387 98.7345 25.2086 109.052C33.9449 119.535 46.2035 126.968 60.1816 129.52ZM46.6195 3.74428C45.7043 3.21733 45.3715 2.02475 45.9262 1.10952C46.4809 0.194284 47.6457 -0.138529 48.5609 0.416158L62.5668 8.48686C63.482 9.01381 63.8148 10.2064 63.2602 11.1216C63.2324 11.1494 63.2324 11.2048 63.2047 11.2326L55.1895 25.1275C54.6625 26.0427 53.4699 26.3755 52.5547 25.8486C51.6395 25.3216 51.3066 24.129 51.8336 23.2138L58.9613 10.8998L46.6195 3.74428Z" fill="#25A375"/>
<path fill-rule="evenodd" clip-rule="evenodd" d="M79.2316 34.7236C83.3918 35.6666 87.3023 37.3029 90.7969 39.5216L97.2867 33.0318C101.835 36.1935 105.801 40.1595 108.963 44.708L102.473 51.1978C104.692 54.6923 106.328 58.6029 107.271 62.763H116.451C116.95 65.4533 117.2 68.199 117.2 71.0279C117.2 73.8568 116.95 76.6025 116.451 79.2927H107.271C106.328 83.4529 104.692 87.3634 102.473 90.858L108.963 97.3478C105.795 101.902 101.841 105.856 97.2867 109.024L90.7969 102.534C87.3023 104.753 83.3918 106.389 79.2316 107.332V116.512C76.5691 116.984 73.7957 117.261 70.9945 117.261C68.1934 117.261 65.4199 117.011 62.7297 116.512V107.332C58.5695 106.389 54.659 104.753 51.1645 102.534L44.6746 109.024C40.1201 105.856 36.1663 101.902 32.9984 97.3478L39.4883 90.858C37.2695 87.3634 35.6332 83.4529 34.6902 79.2927H25.5379C25.0387 76.6302 24.7891 73.8568 24.7891 71.0279C24.7891 68.199 25.0387 65.4533 25.5379 62.763H34.718C35.6609 58.6029 37.2973 54.6923 39.516 51.1978L33.0262 44.708C36.1879 40.1595 40.1539 36.1935 44.7023 33.0318L51.1922 39.5216C54.6867 37.3029 58.5973 35.6666 62.7574 34.7236V25.5435C65.4199 25.0443 68.1934 24.7947 71.0223 24.7947C73.8512 24.7947 76.5969 25.0443 79.2594 25.5435V34.7236H79.2316ZM70.9945 46.8435C84.3348 46.8435 95.1234 57.6599 95.1234 71.0001C95.1234 84.3404 84.307 95.1568 70.9945 95.1568C57.6543 95.1568 46.8379 84.3404 46.8379 71.0001C46.8379 57.6599 57.6543 46.8435 70.9945 46.8435Z" fill="#FEDB41"/>
<path fill-rule="evenodd" clip-rule="evenodd" d="M107.269 79.2373H102.36C101.417 83.3974 99.7809 87.308 97.5621 90.8025L104.052 97.2923C101.556 100.898 98.5606 104.115 95.177 106.861L97.2848 108.969C101.833 105.807 105.799 101.841 108.961 97.2923L102.471 90.8025C104.69 87.308 106.326 83.3974 107.269 79.2373ZM74.3207 34.7236C78.4809 35.6666 82.3914 37.3029 85.8859 39.5216L87.6609 37.7466C85.0262 36.4154 82.1973 35.3892 79.2297 34.7236V25.5435C77.6211 25.2384 75.9848 25.0443 74.3207 24.9333V34.7236ZM95.177 35.1396C98.5606 37.8853 101.556 41.1025 104.052 44.708L97.5621 51.1978C99.7809 54.6923 101.417 58.6029 102.36 62.763H107.269C106.326 58.6029 104.69 54.6923 102.471 51.1978L108.961 44.708C105.793 40.1534 101.839 36.1996 97.2848 33.0318L95.177 35.1396ZM111.54 62.7353C112.039 65.4255 112.289 68.1712 112.289 71.0001C112.289 73.8291 112.039 76.5748 111.54 79.265H116.449C116.948 76.6025 117.198 73.8291 117.198 71.0001C117.198 68.1712 116.948 65.4255 116.449 62.7353H111.54ZM70.9926 46.8712C84.3328 46.8712 95.1215 57.6876 95.1215 71.0001C95.1215 84.3126 84.3051 95.1568 70.9926 95.1568C57.6523 95.1568 46.8359 84.3404 46.8359 71.0001C46.8359 57.6599 57.6523 46.8712 70.9926 46.8712Z" fill="#FEA832"/>
<path d="M63.6211 83.647C62.5395 83.647 61.6797 82.7873 61.6797 81.7056C61.6797 80.6517 62.5395 79.7642 63.6211 79.7642H71.8582C73.0508 79.7642 74.1047 79.3482 74.8813 78.6826C75.5746 78.0724 76.0184 77.2404 76.0184 76.3529C76.0184 75.4654 75.5746 74.6334 74.8813 74.0232C74.1047 73.3576 73.0508 72.9416 71.8582 72.9416H69.8891C67.7258 72.9416 65.8121 72.165 64.4254 70.8892C62.9832 69.558 62.0957 67.6998 62.0957 65.6474C62.0957 63.5951 63.0387 61.7369 64.5363 60.4056C65.7289 59.3517 67.3098 58.6306 69.0293 58.4087V55.5798C69.0293 54.4982 69.8891 53.6384 70.9707 53.6384C72.0246 53.6384 72.9121 54.4982 72.9121 55.5798V58.3533H78.348C79.402 58.3533 80.2895 59.213 80.2895 60.2947C80.2895 61.3486 79.4297 62.2361 78.348 62.2361H70.1109C68.9184 62.2361 67.8645 62.6521 67.0879 63.3177C66.3945 63.9279 65.9508 64.7599 65.9508 65.6474C65.9508 66.5904 66.3391 67.4224 67.0047 68.0326C67.6981 68.6705 68.6965 69.0587 69.8336 69.0587H71.8027C73.966 69.0587 75.9352 69.863 77.3773 71.1111C78.875 72.4423 79.818 74.3005 79.818 76.3529C79.818 78.4052 78.875 80.2634 77.3773 81.5947C76.1848 82.6486 74.6039 83.3697 72.8844 83.5916V86.4205C72.8844 87.4744 72.0246 88.3619 70.943 88.3619C69.8613 88.3619 69.0016 87.5021 69.0016 86.4205V83.647H63.6211Z" fill="#FEDB41"/>
<path fill-rule="evenodd" clip-rule="evenodd" d="M68.3906 46.9823C80.5105 48.2858 89.9402 58.5198 89.9402 70.9726C89.9402 83.4253 80.5105 93.687 68.3906 94.9628C69.2504 95.046 70.1102 95.1015 70.9977 95.1015C84.3379 95.1015 95.1266 84.2851 95.1266 70.9448C95.1266 57.6046 84.3102 46.8159 70.9977 46.8159C70.1102 46.8714 69.2504 46.8991 68.3906 46.9823Z" fill="#FE9923"/>
</svg>
