<svg width="24" height="23" viewBox="0 0 24 23" fill="none" xmlns="http://www.w3.org/2000/svg">
<path d="M12.25 0C5.89342 0 0.75 5.14387 0.75 11.5C0.75 17.8566 5.89387 23 12.25 23C18.6066 23 23.75 17.8561 23.75 11.5C23.75 5.14342 18.6061 0 12.25 0ZM12.25 21.2031C6.88664 21.2031 2.54688 16.863 2.54688 11.5C2.54688 6.13664 6.887 1.79688 12.25 1.79688C17.6134 1.79688 21.9531 6.137 21.9531 11.5C21.9531 16.8634 17.613 21.2031 12.25 21.2031Z" fill="#DEE3EB"/>
<path d="M12.25 5.78906C11.7538 5.78906 11.3516 6.19129 11.3516 6.6875V12.4731C11.3516 12.9693 11.7538 13.3716 12.25 13.3716C12.7462 13.3716 13.1484 12.9693 13.1484 12.4731V6.6875C13.1484 6.19129 12.7462 5.78906 12.25 5.78906Z" fill="#DEE3EB"/>
<path d="M12.25 16.8975C12.9199 16.8975 13.4629 16.3544 13.4629 15.6846C13.4629 15.0147 12.9199 14.4717 12.25 14.4717C11.5801 14.4717 11.0371 15.0147 11.0371 15.6846C11.0371 16.3544 11.5801 16.8975 12.25 16.8975Z" fill="#DEE3EB"/>
</svg>
