<svg width="665" height="699" viewBox="0 0 665 699" fill="none" xmlns="http://www.w3.org/2000/svg">
<g filter="url(#filter0_f_482_904)">
<path d="M329.073 327.488C474.883 158.514 451.894 399.067 445.538 425.94C439.182 452.813 264.244 504.314 237.371 497.958C210.498 491.602 262.55 391.509 268.906 364.636C275.262 337.764 302.2 321.132 329.073 327.488Z" fill="#CBEC4A"/>
</g>
<g filter="url(#filter1_f_482_904)">
<path d="M387 262.273C585 365.273 345.614 398.273 318 398.273C290.386 398.273 200 239.887 200 212.273C200 184.659 309.386 212.273 337 212.273C364.614 212.273 387 234.659 387 262.273Z" fill="#259E97"/>
</g>
<defs>
<filter id="filter0_f_482_904" x="29.7207" y="67.7764" width="621.025" height="630.72" filterUnits="userSpaceOnUse" color-interpolation-filters="sRGB">
<feFlood flood-opacity="0" result="BackgroundImageFix"/>
<feBlend mode="normal" in="SourceGraphic" in2="BackgroundImageFix" result="shape"/>
<feGaussianBlur stdDeviation="100" result="effect1_foregroundBlur_482_904"/>
</filter>
<filter id="filter1_f_482_904" x="0" y="0" width="664.744" height="598.273" filterUnits="userSpaceOnUse" color-interpolation-filters="sRGB">
<feFlood flood-opacity="0" result="BackgroundImageFix"/>
<feBlend mode="normal" in="SourceGraphic" in2="BackgroundImageFix" result="shape"/>
<feGaussianBlur stdDeviation="100" result="effect1_foregroundBlur_482_904"/>
</filter>
</defs>
</svg>
