<svg width="22" height="22" viewBox="0 0 22 22" fill="none" xmlns="http://www.w3.org/2000/svg">
<path d="M10.943 0.25H11.057C13.366 0.25 15.175 0.25 16.587 0.44C18.031 0.634 19.171 1.04 20.066 1.934C20.961 2.828 21.366 3.969 21.56 5.414C21.75 6.825 21.75 8.634 21.75 10.943V11.057C21.75 13.366 21.75 15.175 21.56 16.587C21.366 18.031 20.96 19.171 20.066 20.066C19.237 20.894 18.198 21.304 16.899 21.514C15.623 21.721 14.016 21.746 12.001 21.749C11.8021 21.7493 11.6112 21.6705 11.4704 21.53C11.3295 21.3896 11.2503 21.1989 11.25 21C11.2497 20.8011 11.3285 20.6102 11.469 20.4694C11.6094 20.3285 11.8001 20.2493 11.999 20.249C14.039 20.246 15.522 20.218 16.659 20.033C17.776 19.853 18.477 19.533 19.005 19.005C19.575 18.435 19.902 17.665 20.074 16.386C20.248 15.086 20.25 13.378 20.25 11C20.25 8.622 20.248 6.914 20.074 5.614C19.902 4.335 19.574 3.564 19.005 2.994C18.435 2.425 17.665 2.098 16.386 1.926C15.086 1.752 13.378 1.75 11 1.75C8.622 1.75 6.913 1.752 5.613 1.926C4.335 2.098 3.564 2.426 2.995 2.995C2.466 3.523 2.147 4.225 1.967 5.34C1.782 6.478 1.754 7.961 1.75 10.001C1.74993 10.0995 1.73047 10.197 1.69272 10.288C1.65497 10.3789 1.59967 10.4616 1.52998 10.5312C1.46029 10.6008 1.37757 10.656 1.28655 10.6936C1.19553 10.7312 1.09799 10.7506 0.9995 10.7505C0.901009 10.7504 0.803495 10.731 0.712526 10.6932C0.621557 10.6555 0.538914 10.6002 0.469317 10.5305C0.399719 10.4608 0.344529 10.3781 0.306899 10.2871C0.269269 10.196 0.249935 10.0985 0.25 10C0.254 7.984 0.28 6.378 0.486 5.102C0.696 3.802 1.106 2.764 1.934 1.935C2.829 1.04 3.969 0.635 5.414 0.441C6.825 0.251 8.634 0.251 10.943 0.251V0.25Z" fill="#DEE3EB"/>
<path d="M11.4992 6C11.4992 5.80109 11.5782 5.61032 11.7188 5.46967C11.8595 5.32902 12.0503 5.25 12.2492 5.25H15.9992C16.1981 5.25 16.3889 5.32902 16.5295 5.46967C16.6702 5.61032 16.7492 5.80109 16.7492 6V9.75C16.7492 9.94891 16.6702 10.1397 16.5295 10.2803C16.3889 10.421 16.1981 10.5 15.9992 10.5C15.8003 10.5 15.6095 10.421 15.4688 10.2803C15.3282 10.1397 15.2492 9.94891 15.2492 9.75V7.81L11.5292 11.53C11.4605 11.6037 11.3777 11.6628 11.2857 11.7038C11.1937 11.7448 11.0944 11.7668 10.9937 11.7686C10.893 11.7704 10.793 11.7518 10.6996 11.7141C10.6062 11.6764 10.5214 11.6203 10.4501 11.549C10.3789 11.4778 10.3228 11.393 10.2851 11.2996C10.2473 11.2062 10.2288 11.1062 10.2306 11.0055C10.2324 10.9048 10.2544 10.8055 10.2954 10.7135C10.3364 10.6215 10.3955 10.5387 10.4692 10.47L14.1892 6.75H12.2492C12.0503 6.75 11.8595 6.67098 11.7188 6.53033C11.5782 6.38968 11.4992 6.19891 11.4992 6Z" fill="#DEE3EB"/>
<path fill-rule="evenodd" clip-rule="evenodd" d="M4.948 12.25C4.05 12.25 3.3 12.25 2.706 12.33C2.078 12.414 1.511 12.6 1.056 13.056C0.6 13.511 0.414 14.078 0.33 14.706C0.25 15.3 0.25 16.05 0.25 16.948V17.052C0.25 17.95 0.25 18.7 0.33 19.295C0.414 19.922 0.6 20.489 1.055 20.945C1.511 21.4 2.078 21.585 2.705 21.67C3.3 21.75 4.05 21.75 4.948 21.75H5.052C5.95 21.75 6.7 21.75 7.294 21.67C7.922 21.586 8.489 21.4 8.944 20.944C9.4 20.489 9.586 19.922 9.67 19.294C9.75 18.7 9.75 17.95 9.75 17.052V16.948C9.75 16.05 9.75 15.3 9.67 14.705C9.586 14.078 9.4 13.511 8.945 13.055C8.489 12.6 7.922 12.415 7.295 12.33C6.7 12.25 5.95 12.25 5.052 12.25H4.948ZM2.116 14.116C2.246 13.986 2.444 13.879 2.906 13.816C3.388 13.752 4.036 13.75 5 13.75C5.964 13.75 6.612 13.752 7.095 13.817C7.556 13.879 7.754 13.986 7.884 14.117C8.014 14.247 8.121 14.444 8.184 14.905C8.248 15.388 8.25 16.036 8.25 17C8.25 17.964 8.248 18.612 8.183 19.095C8.121 19.556 8.014 19.754 7.883 19.884C7.753 20.014 7.556 20.121 7.095 20.184C6.612 20.248 5.964 20.25 5 20.25C4.036 20.25 3.388 20.248 2.905 20.184C2.444 20.121 2.246 20.014 2.116 19.884C1.986 19.754 1.879 19.556 1.816 19.094C1.752 18.612 1.75 17.964 1.75 17C1.75 16.036 1.752 15.388 1.817 14.905C1.879 14.444 1.986 14.246 2.117 14.116H2.116Z" fill="#DEE3EB"/>
</svg>
