<svg width="131" height="24" viewBox="0 0 131 24" fill="none" xmlns="http://www.w3.org/2000/svg">
<path d="M1.02766 15.2911C1.28979 15.446 1.57277 15.5771 1.8766 15.6843C2.18043 15.7915 2.48426 15.8451 2.78809 15.8451C3.47319 15.8451 3.93489 15.6366 4.17319 15.2196C4.41745 14.8026 4.53957 14.183 4.53957 13.3609V5.45237C4.72426 5.41663 4.92979 5.3928 5.15617 5.38088C5.38851 5.36897 5.58511 5.36301 5.74596 5.36301C5.91277 5.36301 6.1034 5.36897 6.31787 5.38088C6.5383 5.3928 6.74383 5.41663 6.93447 5.45237V13.0928C6.93447 13.7719 6.88085 14.4005 6.77362 14.9783C6.67234 15.5562 6.47872 16.0596 6.19277 16.4885C5.91277 16.9115 5.5166 17.2422 5.00426 17.4805C4.49787 17.7188 3.83957 17.8379 3.02936 17.8379C2.56468 17.8379 2.07319 17.7753 1.55489 17.6502C1.04255 17.5192 0.58383 17.3256 0.178723 17.0694C0.23234 16.7596 0.330638 16.4468 0.473617 16.1311C0.622553 15.8094 0.807234 15.5294 1.02766 15.2911ZM8.59335 7.9545L8.68271 7.8562H10.9078V9.75067C10.9078 9.91748 10.9108 10.0724 10.9167 10.2153C10.9227 10.3524 10.9257 10.5162 10.9257 10.7068V14.8443C10.9257 15.029 10.9227 15.1928 10.9167 15.3358C10.9108 15.4728 10.9078 15.6247 10.9078 15.7915V17.686H9.96058C9.5376 17.686 9.20398 17.5639 8.95973 17.3196C8.71547 17.0694 8.59335 16.7358 8.59335 16.3188V7.9545ZM14.5359 11.7702C14.5836 11.9132 14.6163 12.0741 14.6342 12.2528C14.6521 12.4256 14.661 12.5715 14.661 12.6907C14.661 12.8277 14.6521 12.9856 14.6342 13.1643C14.6163 13.3371 14.5836 13.4949 14.5359 13.6379H11.998C11.867 13.6379 11.6823 13.6379 11.444 13.6379C11.2057 13.6379 10.9644 13.6379 10.7202 13.6379C10.4759 13.6319 10.2704 13.626 10.1036 13.62V11.806C10.2704 11.8 10.4759 11.7941 10.7202 11.7881C10.9644 11.7822 11.2057 11.7792 11.444 11.7792C11.6823 11.7732 11.867 11.7702 11.998 11.7702H14.5359ZM15.4742 7.8562C15.504 8.02897 15.5219 8.1928 15.5278 8.34769C15.5338 8.50258 15.5368 8.64854 15.5368 8.78556C15.5368 8.92258 15.5219 9.07748 15.4921 9.25024C15.4682 9.42301 15.4236 9.59875 15.358 9.77748H11.998C11.867 9.77748 11.6823 9.77748 11.444 9.77748C11.2057 9.77152 10.9644 9.76556 10.7202 9.7596C10.4759 9.75365 10.2704 9.74769 10.1036 9.74173V7.8562H15.4742ZM15.778 15.7558C15.778 16.4766 15.6648 16.98 15.4385 17.266C15.218 17.546 14.8397 17.686 14.3036 17.686H10.1304V15.8451C10.4104 15.8332 10.6457 15.8213 10.8363 15.8094C11.0329 15.7915 11.2236 15.7796 11.4082 15.7736C11.5929 15.7617 11.8133 15.7558 12.0695 15.7558H15.778ZM25.1322 14.0668C25.1322 15.2881 24.7658 16.2353 24.0331 16.9085C23.3062 17.5758 22.2637 17.9094 20.9054 17.9094C19.5531 17.9094 18.5105 17.5758 17.7777 16.9085C17.045 16.2353 16.6786 15.2881 16.6786 14.0668V7.87407L16.7858 7.76684H17.6526C18.1173 7.76684 18.4658 7.88301 18.6982 8.11535C18.9305 8.34769 19.0467 8.73492 19.0467 9.27705V14.0668C19.0467 14.6864 19.1926 15.169 19.4845 15.5145C19.7824 15.86 20.256 16.0328 20.9054 16.0328C21.5667 16.0328 22.0403 15.86 22.3262 15.5145C22.6122 15.169 22.7552 14.6864 22.7552 14.0668V7.8562C22.9518 7.82046 23.1543 7.79663 23.3628 7.78471C23.5714 7.7728 23.756 7.76684 23.9169 7.76684C24.0658 7.76684 24.2594 7.77577 24.4977 7.79365C24.736 7.80556 24.9475 7.82939 25.1322 7.86514V14.0668ZM25.6942 8.22258C25.992 8.02599 26.2869 7.89492 26.5788 7.82939C26.8767 7.76386 27.121 7.73109 27.3116 7.73109C27.6393 7.73109 27.9103 7.80556 28.1248 7.9545C28.3393 8.10343 28.5597 8.33875 28.7861 8.66046L34.6661 17.2839C34.3801 17.4924 34.0823 17.6294 33.7725 17.6949C33.4627 17.7605 33.2154 17.7932 33.0308 17.7932C32.7091 17.7932 32.435 17.7188 32.2086 17.5698C31.9823 17.4149 31.7588 17.1766 31.5384 16.8549L25.6942 8.22258ZM31.9852 7.8562C32.1461 7.8145 32.3099 7.79067 32.4767 7.78471C32.6495 7.7728 32.8282 7.76684 33.0129 7.76684C33.1797 7.76684 33.3733 7.77875 33.5937 7.80258C33.8201 7.82641 34.0286 7.86811 34.2193 7.92769L34.255 8.0528L30.9933 12.9319L30.1265 13.8256L27.6423 17.6592C27.5052 17.689 27.3414 17.7128 27.1508 17.7307C26.9601 17.7485 26.7784 17.7575 26.6057 17.7575C26.1291 17.7575 25.724 17.6979 25.3903 17.5788L25.3099 17.4536L28.8754 12.083L29.7869 11.1715L31.9852 7.8562Z" fill="#4A7075"/>
<path d="M71.5722 6.71078C71.5365 7.06227 71.4024 7.40185 71.1701 7.72951C70.9437 8.05121 70.7114 8.29249 70.4731 8.45334C70.0382 8.14951 69.5526 7.90227 69.0165 7.71163C68.4803 7.521 67.9471 7.42568 67.4169 7.42568C66.7973 7.42568 66.2492 7.57461 65.7726 7.87249C65.296 8.17036 64.9237 8.64695 64.6556 9.30227C64.3875 9.95164 64.2535 10.8095 64.2535 11.8759C64.2535 13.3593 64.5275 14.4525 65.0756 15.1555C65.6297 15.8525 66.4369 16.201 67.4973 16.201C68.105 16.201 68.659 16.1384 69.1595 16.0133C69.6599 15.8882 70.059 15.775 70.3569 15.6738L71.599 17.3716C71.2475 17.4967 70.8335 17.6189 70.3569 17.738C69.8803 17.8512 69.362 17.9436 68.802 18.015C68.248 18.0865 67.676 18.1223 67.0863 18.1223C66.145 18.1223 65.3377 17.9674 64.6646 17.6576C63.9973 17.3478 63.4522 16.9099 63.0292 16.344C62.6063 15.778 62.2935 15.1138 62.0909 14.3512C61.8884 13.5887 61.7871 12.7546 61.7871 11.8491C61.7871 10.741 61.939 9.78185 62.2429 8.97163C62.5526 8.16142 62.9697 7.49419 63.4939 6.96993C64.0241 6.44568 64.6169 6.05546 65.2722 5.79929C65.9335 5.54312 66.6126 5.41504 67.3097 5.41504C68.096 5.41504 68.8586 5.53419 69.5973 5.77249C70.342 6.01078 71.0003 6.32355 71.5722 6.71078ZM69.3382 14.3959C69.3382 13.9789 69.3501 13.5618 69.3739 13.1448C69.3977 12.7278 69.4573 12.3495 69.5526 12.0099L71.599 12.698V17.3716L69.3382 17.4074V14.3959ZM69.9726 11.1878C70.5803 11.1878 71.0033 11.3248 71.2416 11.5989C71.4799 11.8729 71.599 12.2393 71.599 12.698V13.2074H68.1765C67.9441 13.2074 67.7386 13.1776 67.5599 13.118C67.3871 13.0584 67.2531 12.9572 67.1577 12.8142C67.0624 12.6653 67.0148 12.4567 67.0148 12.1887C67.0148 12.0278 67.0326 11.858 67.0684 11.6793C67.1041 11.4946 67.1458 11.3308 67.1935 11.1878H69.9726Z" fill="#4A7075"/>
<path d="M80.6741 11.0001C80.6741 11.447 80.5728 11.8461 80.3703 12.1976C80.1737 12.5491 79.9175 12.844 79.6017 13.0823C79.292 13.3206 78.9673 13.4755 78.6277 13.547C78.9375 13.6601 79.1907 13.824 79.3873 14.0384C79.5839 14.247 79.7537 14.515 79.8966 14.8427L80.4596 16.1116C80.5669 16.3559 80.686 16.5793 80.8171 16.7818C80.9481 16.9844 81.0881 17.1542 81.2371 17.2912C81.0881 17.4818 80.8677 17.6516 80.5758 17.8006C80.2839 17.9436 79.9741 18.015 79.6464 18.015C79.289 18.015 79.006 17.9287 78.7975 17.7559C78.589 17.5772 78.4043 17.3001 78.2434 16.9248L77.4124 15.0304C77.2754 14.7146 77.1056 14.5031 76.903 14.3959C76.7064 14.2827 76.4264 14.2261 76.063 14.2261H74.3205V12.4389C74.5588 12.4389 74.8298 12.4359 75.1337 12.4299C75.4375 12.424 75.7264 12.418 76.0005 12.4121C76.2745 12.4061 76.483 12.4031 76.626 12.4031C77.049 12.4031 77.3766 12.3376 77.609 12.2065C77.8473 12.0755 78.0111 11.9057 78.1005 11.6972C78.1958 11.4887 78.2434 11.2742 78.2434 11.0538C78.2434 10.8274 78.1958 10.6129 78.1005 10.4104C78.0052 10.2078 77.8473 10.047 77.6269 9.9278C77.4064 9.8027 77.1056 9.74015 76.7243 9.74015C76.492 9.74015 76.2626 9.73717 76.0362 9.73121C75.8158 9.72525 75.5894 9.72227 75.3571 9.72227V17.8721C75.1605 17.9078 74.9549 17.9316 74.7405 17.9435C74.532 17.9555 74.3473 17.9614 74.1864 17.9614C74.0375 17.9614 73.8498 17.9555 73.6234 17.9435C73.3971 17.9316 73.1915 17.9078 73.0069 17.8721V8.15844L73.0962 8.06015C73.7754 8.04227 74.4158 8.02738 75.0175 8.01546C75.6192 8.00355 76.2239 7.99759 76.8315 7.99759C77.5524 7.99759 78.2047 8.09589 78.7886 8.29249C79.3724 8.48908 79.8311 8.81078 80.1647 9.25759C80.5043 9.69844 80.6741 10.2793 80.6741 11.0001Z" fill="#4A7075"/>
<path d="M84.2477 8.06908C84.486 8.03334 84.7302 8.00951 84.9804 7.99759C85.2366 7.98568 85.463 7.97972 85.6596 7.97972C85.8443 7.97972 86.0498 7.98568 86.2762 7.99759C86.5026 8.00951 86.7379 8.03334 86.9821 8.06908L90.4315 17.7559C90.2587 17.8453 90.0383 17.9108 89.7702 17.9525C89.5081 17.9942 89.2847 18.015 89.1 18.015C88.8081 18.015 88.54 17.9584 88.2958 17.8453C88.0575 17.7321 87.8668 17.4461 87.7238 16.9874L86.3656 12.9214C86.2821 12.6355 86.1898 12.3167 86.0885 11.9653C85.9932 11.6138 85.8979 11.2623 85.8026 10.9108C85.7132 10.5593 85.6298 10.2346 85.5524 9.93674H85.4541C85.3349 10.3597 85.2009 10.8363 85.0519 11.3665C84.909 11.8967 84.7749 12.3584 84.6498 12.7516L82.9251 17.881C82.7762 17.9108 82.6153 17.9346 82.4426 17.9525C82.2698 17.9704 82.0941 17.9793 81.9153 17.9793C81.7128 17.9793 81.5102 17.9644 81.3077 17.9346C81.1051 17.9048 80.9413 17.8631 80.8162 17.8095L80.7268 17.6844L84.2477 8.06908ZM84.3192 15.9329C84.2477 15.9329 84.1553 15.9329 84.0421 15.9329C83.9349 15.927 83.8247 15.924 83.7115 15.924C83.5983 15.918 83.506 15.915 83.4345 15.915H82.3979L83.1396 14.0563H84.0421C84.1077 14.0563 84.1911 14.0563 84.2924 14.0563C84.3996 14.0504 84.5038 14.0474 84.6051 14.0474C84.7124 14.0414 84.7987 14.0384 84.8643 14.0384H86.169C86.2404 14.0384 86.3209 14.0414 86.4102 14.0474C86.5056 14.0474 86.5979 14.0504 86.6873 14.0563C86.7826 14.0563 86.866 14.0563 86.9375 14.0563H87.8936L88.5638 15.915H87.4915C87.42 15.915 87.3307 15.918 87.2234 15.924C87.1162 15.924 87.009 15.927 86.9017 15.9329C86.7945 15.9329 86.7081 15.9329 86.6426 15.9329H84.3192Z" fill="#4A7075"/>
<path d="M88.8865 9.99929C88.8507 9.82057 88.8269 9.65376 88.815 9.49887C88.8031 9.33802 88.7971 9.18908 88.7971 9.05206C88.7971 8.921 88.8031 8.76908 88.815 8.59632C88.8269 8.41759 88.8507 8.24185 88.8865 8.06908H101.767C101.803 8.2061 101.83 8.361 101.848 8.53376C101.872 8.70057 101.884 8.84057 101.884 8.95376C101.884 9.29334 101.791 9.55249 101.606 9.73121C101.428 9.90993 101.118 9.99929 100.677 9.99929H100.034C99.9146 9.99929 99.7537 9.99632 99.5512 9.99036C99.3486 9.9844 94.0873 9.98142 93.9801 9.98142H91.6388C91.5197 9.98142 91.3529 9.9844 91.1384 9.99036C90.9299 9.99632 90.7661 9.99929 90.6469 9.99929H88.8865ZM91.621 11.0627C91.621 10.8721 91.6239 10.6963 91.6299 10.5355C91.6359 10.3687 91.6388 10.184 91.6388 9.98142V9.05206H93.9801V9.98142C93.9801 10.184 93.9831 10.3687 93.989 10.5355C93.995 10.6963 93.998 10.8721 93.998 11.0627V17.8721C93.849 17.9018 93.6554 17.9227 93.4171 17.9346C93.1788 17.9525 92.9763 17.9614 92.8095 17.9614C92.6486 17.9614 92.452 17.9525 92.2197 17.9346C91.9873 17.9227 91.7878 17.9018 91.621 17.8721V11.0627Z" fill="#4A7075"/>
<path d="M110.517 14.2797C110.517 15.501 110.15 16.4482 109.418 17.1214C108.691 17.7887 107.648 18.1223 106.29 18.1223C104.938 18.1223 103.895 17.7887 103.162 17.1214C102.43 16.4482 102.063 15.501 102.063 14.2797V8.08695L102.17 7.97972H103.037C103.502 7.97972 103.85 8.09589 104.083 8.32823C104.315 8.56057 104.431 8.94781 104.431 9.48993V14.2797C104.431 14.8993 104.577 15.3818 104.869 15.7274C105.167 16.0729 105.641 16.2457 106.29 16.2457C106.951 16.2457 107.425 16.0729 107.711 15.7274C107.997 15.3818 108.14 14.8993 108.14 14.2797V8.06908C108.336 8.03334 108.539 8.00951 108.747 7.99759C108.956 7.98568 109.141 7.97972 109.301 7.97972C109.45 7.97972 109.644 7.98866 109.882 8.00653C110.121 8.01844 110.332 8.04227 110.517 8.07802V14.2797Z" fill="#4A7075"/>
<path d="M112.156 8.06908C112.341 8.03334 112.549 8.00951 112.782 7.99759C113.02 7.98568 113.214 7.97972 113.363 7.97972C113.523 7.97972 113.708 7.98568 113.917 7.99759C114.131 8.00951 114.337 8.03334 114.533 8.06908V17.8721C114.337 17.9078 114.131 17.9316 113.917 17.9435C113.708 17.9555 113.523 17.9614 113.363 17.9614C113.214 17.9614 113.02 17.9555 112.782 17.9435C112.549 17.9316 112.341 17.9078 112.156 17.8721V8.06908Z" fill="#4A7075"/>
<path d="M115.12 9.99929C115.084 9.82057 115.06 9.65376 115.048 9.49887C115.036 9.33802 115.03 9.18908 115.03 9.05206C115.03 8.921 115.036 8.76908 115.048 8.59632C115.06 8.41759 115.084 8.24185 115.12 8.06908H122.894C122.93 8.2061 122.957 8.361 122.974 8.53376C122.998 8.70057 123.01 8.84057 123.01 8.95376C123.01 9.29334 122.918 9.55249 122.733 9.73121C122.554 9.90993 122.245 9.99929 121.804 9.99929H121.16C121.041 9.99929 120.88 9.99632 120.678 9.99036C120.475 9.9844 120.32 9.98142 120.213 9.98142H117.872C117.753 9.98142 117.586 9.9844 117.371 9.99036C117.163 9.99632 116.999 9.99929 116.88 9.99929H115.12ZM117.854 11.0627C117.854 10.8721 117.857 10.6963 117.863 10.5355C117.869 10.3687 117.872 10.184 117.872 9.98142V9.05206H120.213V9.98142C120.213 10.184 120.216 10.3687 120.222 10.5355C120.228 10.6963 120.231 10.8721 120.231 11.0627V17.8721C120.082 17.9018 119.888 17.9227 119.65 17.9346C119.412 17.9525 119.209 17.9614 119.043 17.9614C118.882 17.9614 118.685 17.9525 118.453 17.9346C118.22 17.9227 118.021 17.9018 117.854 17.8721V11.0627Z" fill="#4A7075"/>
<path d="M122.395 17.1035C122.395 16.907 122.433 16.6925 122.511 16.4601C122.588 16.2278 122.692 16.0104 122.823 15.8078C122.96 15.6053 123.109 15.4533 123.27 15.3521C123.693 15.5904 124.17 15.8018 124.7 15.9865C125.236 16.1712 125.787 16.2606 126.353 16.2546C126.627 16.2546 126.875 16.2129 127.095 16.1295C127.315 16.0461 127.491 15.9299 127.622 15.781C127.753 15.6261 127.819 15.4414 127.819 15.227C127.819 15.0006 127.732 14.798 127.56 14.6193C127.387 14.4406 127.116 14.2857 126.746 14.1546L125.165 13.547C124.7 13.3861 124.277 13.1865 123.896 12.9482C123.52 12.704 123.223 12.4091 123.002 12.0635C122.782 11.718 122.672 11.3099 122.672 10.8393C122.672 10.2614 122.823 9.7461 123.127 9.29334C123.431 8.83461 123.863 8.47717 124.423 8.221C124.989 7.95887 125.662 7.82483 126.443 7.81887C127.098 7.81887 127.747 7.89632 128.391 8.05121C129.04 8.2061 129.585 8.38185 130.026 8.57844C130.026 8.91802 129.955 9.25461 129.812 9.58823C129.669 9.91589 129.472 10.178 129.222 10.3746C128.787 10.178 128.313 10.0172 127.801 9.89206C127.295 9.761 126.83 9.69547 126.407 9.69547C126.014 9.70142 125.707 9.79078 125.486 9.96355C125.266 10.1363 125.156 10.3538 125.156 10.6159C125.156 10.8423 125.248 11.015 125.433 11.1342C125.623 11.2533 125.877 11.3695 126.192 11.4827L127.747 12.0725C128.522 12.3525 129.15 12.7397 129.633 13.2342C130.115 13.7287 130.357 14.3423 130.357 15.075C130.357 15.7065 130.187 16.2516 129.847 16.7104C129.508 17.1631 129.04 17.5116 128.444 17.7559C127.849 17.9942 127.16 18.1163 126.38 18.1223C125.486 18.1282 124.694 18.021 124.003 17.8006C123.312 17.5801 122.776 17.3478 122.395 17.1035Z" fill="#4A7075"/>
<g clip-path="url(#clip0_1144_4)">
<path d="M59.2014 5.28413V5.25461C58.9006 3.83764 57.7879 2.68635 56.3443 2.3321L48.6149 0.118081H48.5849C48.2841 0.0295203 47.9533 0 47.6525 0C46.8706 0 46.1488 0.236162 45.5172 0.649446C45.5172 0.649446 45.4871 0.649446 45.4871 0.678967L38.3593 5.78598C37.0961 6.64207 36.4946 8.1476 36.8555 9.62362L38.9608 18.4502C39.2615 19.7196 40.254 20.7823 41.5473 21.1956L48.7954 23.8229H48.8255C49.2164 23.941 49.6074 24 50.0285 24C50.8405 24 51.6525 23.7343 52.3142 23.262L52.3443 23.2325L59.3217 17.5646C60.4345 16.7085 60.9758 15.2915 60.7052 13.9336L59.2014 5.28413ZM55.9834 12.4576C55.9533 12.2804 55.8631 12.1033 55.7728 11.9852C55.7127 11.9262 55.6525 11.8672 55.6224 11.8376C55.5924 11.8081 55.5623 11.8081 55.5021 11.7786C55.4721 11.7786 55.442 11.7491 55.3818 11.7491C55.0811 11.69 54.8104 11.8081 54.63 11.9262C54.4495 12.0148 54.3593 12.1033 54.3593 12.1033C54.3593 12.1033 54.3894 12.0738 54.4194 12.0443C54.4495 12.0148 54.5097 11.9262 54.5698 11.8672C54.63 11.8081 54.7503 11.7196 54.8706 11.631C54.9909 11.572 55.1713 11.4834 55.3818 11.5129C55.442 11.5129 55.4721 11.5129 55.5322 11.5424C55.6224 11.572 55.6224 11.572 55.6826 11.6015C55.8029 11.6605 55.8931 11.7196 55.9834 11.8081C56.1638 11.9852 56.2841 12.1919 56.3443 12.428C56.4946 12.9004 56.4345 13.4022 56.3142 13.8745C56.2841 14.0221 56.254 14.0812 56.1939 14.2288C56.1337 14.3469 56.0736 14.4649 56.0134 14.5535C55.8931 14.7601 55.7127 14.9373 55.5623 15.1144C55.3818 15.262 55.1713 15.4096 54.9608 15.4686C54.7503 15.5277 54.5097 15.5277 54.2991 15.4391C54.1187 15.3506 53.9683 15.2325 53.9082 15.0849C53.8179 14.9668 53.7879 14.8192 53.7578 14.7306C53.7277 14.6421 53.7277 14.5535 53.7277 14.4945C53.7277 14.4354 53.7277 14.4059 53.7277 14.4059C53.7277 14.4059 53.7578 14.524 53.848 14.7011C53.9382 14.8782 54.1187 15.1144 54.4194 15.1734C54.5397 15.203 54.7202 15.1734 54.8706 15.1144C55.0209 15.0554 55.1713 14.9373 55.3217 14.7897C55.4721 14.6421 55.5623 14.4945 55.6826 14.2878C55.7428 14.1993 55.7728 14.1107 55.833 14.0221C55.8631 13.9336 55.9232 13.8155 55.9533 13.7269C56.0134 13.2841 56.0435 12.8413 55.9834 12.4576ZM49.1262 22.9077L41.8781 20.2804C40.9157 19.9852 40.1638 19.1882 39.9533 18.2435L37.848 9.41697C37.5773 8.32472 38.0285 7.20295 38.9608 6.58303L46.0585 1.44649C46.5097 1.12177 47.0811 0.97417 47.6224 0.97417C47.863 0.97417 48.1037 1.00369 48.3142 1.06273C48.3142 1.06273 49.5473 1.29889 51.4119 1.7417C52.3443 1.94834 53.3969 2.24354 54.5698 2.53875C55.1412 2.68635 55.7428 2.83395 56.3443 3.01107C57.0059 3.21771 57.6074 3.631 58.0285 4.19188C58.239 4.48708 58.3894 4.78229 58.4796 5.13653C58.5097 5.22509 58.5097 5.25461 58.5397 5.40221L58.5698 5.63838C58.5999 5.78598 58.63 5.93358 58.66 6.08118C58.7503 6.67159 58.8405 7.29151 58.9307 7.8524C59.1112 9.00369 59.2615 10.0959 59.3818 11.0111C59.6224 12.8708 59.7127 14.1107 59.7127 14.1107C59.7127 14.1107 59.3818 12.9004 58.9909 11.0701C58.7803 10.155 58.5698 9.09225 58.3593 7.94096C58.239 7.38007 58.1187 6.78967 58.0285 6.16974C57.9984 6.02214 57.9683 5.87454 57.9382 5.72694L57.9082 5.49077C57.9082 5.46125 57.8781 5.34317 57.848 5.28413C57.7578 5.04797 57.6375 4.78229 57.4871 4.54613C57.3367 4.33948 57.1563 4.16236 56.9758 4.01476L50.0285 8.97417C48.4946 10.0664 47.2615 9.97786 46.5397 9.85978L38.2991 8.2952L46.0886 11.0406C46.8405 11.3063 48.1337 11.8081 48.4646 13.2841C48.4646 13.3137 48.4646 13.3432 48.4946 13.3727L50.5397 22.9963C50.3593 23.0258 50.2089 23.0258 50.0285 23.0258C49.7277 23.0258 49.427 22.9963 49.1262 22.9077Z" fill="url(#paint0_linear_1144_4)"/>
<path d="M47.7729 7.2322C46.8707 7.40933 46.209 7.94069 46.2992 8.38349C46.3895 8.8263 47.2015 9.06246 48.1038 8.85582C49.006 8.6787 49.6677 8.14733 49.5774 7.70453C49.4872 7.26172 48.6752 7.05508 47.7729 7.2322Z" fill="url(#paint1_linear_1144_4)"/>
<path d="M47.803 6.22856C48.7052 6.05144 49.3669 5.52007 49.2767 5.07727C49.1864 4.63446 48.3744 4.3983 47.4722 4.60494C46.5699 4.78206 45.9082 5.31343 45.9985 5.75623C46.0887 6.19904 46.9007 6.40568 47.803 6.22856Z" fill="url(#paint2_linear_1144_4)"/>
<path d="M47.5022 3.57231C48.4045 3.39519 49.0661 2.86382 48.9759 2.42102C48.8857 1.97821 48.0736 1.74205 47.1714 1.94869C46.2691 2.12581 45.6075 2.65718 45.6977 3.09998C45.7879 3.54279 46.5999 3.77895 47.5022 3.57231Z" fill="url(#paint3_linear_1144_4)"/>
<path d="M40.6156 10.9815C40.1343 10.273 39.4125 9.91873 39.0516 10.1549C38.6907 10.3911 38.811 11.1586 39.2922 11.8671C39.7734 12.5756 40.4953 12.9298 40.8562 12.6936C41.2171 12.4575 41.0968 11.6899 40.6156 10.9815Z" fill="url(#paint4_linear_1144_4)"/>
<path d="M46.2991 12.7822C45.8179 12.0738 45.0961 11.7195 44.7352 11.9557C44.3743 12.1918 44.4946 12.9594 44.9758 13.6679C45.457 14.3763 46.1788 14.7306 46.5397 14.4944C46.9006 14.2583 46.8104 13.4907 46.2991 12.7822Z" fill="url(#paint5_linear_1144_4)"/>
<path d="M42.7802 14.4351C42.4193 14.6713 42.5396 15.4388 43.0208 16.1473C43.502 16.8558 44.2238 17.21 44.5847 16.9739C44.9456 16.7377 44.8253 15.9702 44.3441 15.2617C43.8328 14.5532 43.1411 14.1694 42.7802 14.4351Z" fill="url(#paint6_linear_1144_4)"/>
<path d="M40.7645 16.797C40.4036 17.0331 40.5239 17.8006 41.0051 18.5091C41.4863 19.2176 42.2081 19.5719 42.569 19.3357C42.9299 19.0995 42.8096 18.332 42.3284 17.6235C41.8172 16.9446 41.1254 16.5608 40.7645 16.797Z" fill="url(#paint7_linear_1144_4)"/>
<path d="M46.6005 18.8043C46.2396 19.0404 46.3599 19.8079 46.8411 20.5164C47.3223 21.2249 48.0441 21.5792 48.405 21.343C48.7659 21.1068 48.6456 20.3393 48.1644 19.6308C47.6531 18.9223 46.9614 18.5386 46.6005 18.8043Z" fill="url(#paint8_linear_1144_4)"/>
</g>
<defs>
<linearGradient id="paint0_linear_1144_4" x1="48.763" y1="0" x2="48.763" y2="24" gradientUnits="userSpaceOnUse">
<stop stop-color="#25A375"/>
<stop offset="1" stop-color="#37CBD5"/>
</linearGradient>
<linearGradient id="paint1_linear_1144_4" x1="47.9383" y1="7.16895" x2="47.9383" y2="8.93147" gradientUnits="userSpaceOnUse">
<stop stop-color="#25A375"/>
<stop offset="1" stop-color="#37CBD5"/>
</linearGradient>
<linearGradient id="paint2_linear_1144_4" x1="47.6376" y1="4.5293" x2="47.6376" y2="6.29182" gradientUnits="userSpaceOnUse">
<stop stop-color="#25A375"/>
<stop offset="1" stop-color="#37CBD5"/>
</linearGradient>
<linearGradient id="paint3_linear_1144_4" x1="47.3368" y1="1.87305" x2="47.3368" y2="3.64795" gradientUnits="userSpaceOnUse">
<stop stop-color="#25A375"/>
<stop offset="1" stop-color="#37CBD5"/>
</linearGradient>
<linearGradient id="paint4_linear_1144_4" x1="39.9539" y1="10.082" x2="39.9539" y2="12.7665" gradientUnits="userSpaceOnUse">
<stop stop-color="#25A375"/>
<stop offset="1" stop-color="#37CBD5"/>
</linearGradient>
<linearGradient id="paint5_linear_1144_4" x1="45.6418" y1="11.8828" x2="45.6418" y2="14.5673" gradientUnits="userSpaceOnUse">
<stop stop-color="#25A375"/>
<stop offset="1" stop-color="#37CBD5"/>
</linearGradient>
<linearGradient id="paint6_linear_1144_4" x1="43.6824" y1="14.3506" x2="43.6824" y2="17.0467" gradientUnits="userSpaceOnUse">
<stop stop-color="#25A375"/>
<stop offset="1" stop-color="#37CBD5"/>
</linearGradient>
<linearGradient id="paint7_linear_1144_4" x1="41.6668" y1="16.7271" x2="41.6668" y2="19.4086" gradientUnits="userSpaceOnUse">
<stop stop-color="#25A375"/>
<stop offset="1" stop-color="#37CBD5"/>
</linearGradient>
<linearGradient id="paint8_linear_1144_4" x1="47.5027" y1="18.7197" x2="47.5027" y2="21.4159" gradientUnits="userSpaceOnUse">
<stop stop-color="#25A375"/>
<stop offset="1" stop-color="#37CBD5"/>
</linearGradient>
<clipPath id="clip0_1144_4">
<rect width="24" height="24" fill="white" transform="translate(36.7656)"/>
</clipPath>
</defs>
</svg>
