<svg width="428" height="350" viewBox="0 0 428 350" fill="none" xmlns="http://www.w3.org/2000/svg">
<circle cx="169.687" cy="179.323" r="144.687" stroke="#FBEAEC" stroke-width="50"/>
<g clip-path="url(#clip0_482_8523)">
<path d="M256.066 21.5357C224.359 36.2382 191.519 48.3018 157.925 57.5381C148.489 60.177 138.863 62.6274 129.238 64.8893C127.917 65.0778 127.728 66.9628 128.672 67.5283C132.069 87.3201 135.466 106.924 138.297 126.904C141.128 146.507 143.393 166.299 144.525 186.091C145.091 196.081 145.28 205.883 145.28 215.873C145.28 218.324 145.28 220.774 145.091 223.224C145.091 225.298 145.091 227.371 146.601 229.068C149.055 232.084 154.339 232.272 157.925 232.272C162.266 232.084 166.418 231.141 170.382 230.01C175.1 228.691 179.818 227.183 184.536 225.675C194.539 222.47 204.542 219.455 214.356 216.25C234.173 210.03 253.99 203.81 273.807 197.589C276.26 196.835 278.714 196.081 281.167 195.327C281.733 195.139 282.111 194.385 281.922 193.819C277.959 171.766 274.373 149.523 271.164 127.281C267.767 105.039 264.747 82.7963 262.105 60.3655C260.595 47.9249 259.085 35.2957 257.764 22.8551C257.764 21.9127 257.009 21.1587 256.066 21.5357Z" fill="#2ECC71"/>
<path d="M355.718 0.989857C321.18 5.89071 286.264 7.96414 251.349 7.39866C241.535 7.21017 231.532 6.64468 221.718 6.0792C220.397 6.0792 219.831 7.58715 220.397 8.52963C217.943 28.3215 215.49 48.3019 212.659 68.0938C209.639 87.6972 206.242 107.301 201.524 126.527C199.259 136.14 196.617 145.753 193.597 155.178C192.842 157.44 192.087 159.89 191.332 162.152C190.766 164.037 190.2 166.299 191.143 168.184C192.653 171.766 197.749 173.462 201.146 174.405C205.298 175.536 209.639 175.724 213.791 175.724C218.698 175.724 223.605 175.536 228.512 175.536C238.893 175.347 249.462 175.347 259.842 175.159C280.602 174.97 301.363 174.593 322.123 174.405C324.765 174.405 327.219 174.405 329.861 174.216C330.427 174.216 330.994 173.651 330.994 173.085C333.636 150.843 336.656 128.412 339.864 106.17C343.072 83.9273 346.658 61.685 350.433 39.4427C352.509 27.0021 354.774 14.5614 357.039 2.12082C357.227 1.93233 356.661 0.801362 355.718 0.989857Z" fill="#FFE6B6"/>
<path d="M244.553 48.8671C238.891 48.8671 234.361 44.3433 234.361 38.6885C234.361 33.0336 238.891 28.5098 244.553 28.5098C250.215 28.5098 254.744 33.0336 254.744 38.6885C254.744 44.3433 250.215 48.8671 244.553 48.8671ZM244.553 29.8292C239.646 29.8292 235.494 33.7876 235.494 38.8769C235.494 43.7778 239.457 47.9247 244.553 47.9247C249.46 47.9247 253.612 43.9663 253.612 38.8769C253.612 33.7876 249.649 29.8292 244.553 29.8292Z" fill="white"/>
<path d="M279.656 51.1289C273.994 51.1289 269.465 46.605 269.465 40.9502C269.465 35.2953 273.994 30.7715 279.656 30.7715C285.318 30.7715 289.848 35.2953 289.848 40.9502C289.659 46.605 285.13 51.1289 279.656 51.1289ZM279.656 32.0909C274.749 32.0909 270.597 36.0493 270.597 41.1387C270.597 46.228 274.561 50.1864 279.656 50.1864C284.563 50.1864 288.715 46.228 288.715 41.1387C288.715 36.0493 284.563 32.0909 279.656 32.0909Z" fill="white"/>
<path d="M312.496 49.4326C306.834 49.4326 302.305 44.9087 302.305 39.2539C302.305 33.5991 306.834 29.0752 312.496 29.0752C318.158 29.0752 322.688 33.5991 322.688 39.2539C322.499 44.9087 317.969 49.4326 312.496 49.4326ZM312.496 30.3947C307.589 30.3947 303.437 34.353 303.437 39.4424C303.437 44.5317 307.4 48.4901 312.496 48.4901C317.403 48.4901 321.555 44.5317 321.555 39.4424C321.555 34.353 317.403 30.3947 312.496 30.3947Z" fill="white"/>
<path d="M240.779 84.1157C235.117 84.1157 230.588 79.5918 230.588 73.937C230.588 68.2822 235.117 63.7583 240.779 63.7583C246.441 63.7583 250.971 68.2822 250.971 73.937C250.782 79.5918 246.253 84.1157 240.779 84.1157ZM240.779 65.0778C235.872 65.0778 231.72 69.0361 231.72 74.1255C231.72 79.0263 235.684 83.1732 240.779 83.1732C245.686 83.1732 249.839 79.2148 249.839 74.1255C249.65 69.2246 245.686 65.0778 240.779 65.0778Z" fill="white"/>
<path d="M275.695 86.3774C270.033 86.3774 265.504 81.8535 265.504 76.1987C265.504 70.5439 270.033 66.02 275.695 66.02C281.357 66.02 285.887 70.5439 285.887 76.1987C285.698 81.8535 281.169 86.3774 275.695 86.3774ZM275.695 67.3395C270.788 67.3395 266.636 71.2979 266.636 76.3872C266.636 81.2881 270.6 85.4349 275.695 85.4349C280.602 85.4349 284.755 81.4765 284.755 76.3872C284.755 71.4864 280.602 67.3395 275.695 67.3395Z" fill="white"/>
<path d="M308.533 84.6811C302.871 84.6811 298.342 80.1572 298.342 74.5024C298.342 68.8476 302.871 64.3237 308.533 64.3237C314.195 64.3237 318.725 68.8476 318.725 74.5024C318.536 80.1572 314.007 84.6811 308.533 84.6811ZM308.533 65.6432C303.626 65.6432 299.474 69.6016 299.474 74.6909C299.474 79.5918 303.438 83.7386 308.533 83.7386C313.44 83.7386 317.592 79.7803 317.592 74.6909C317.592 69.7901 313.44 65.6432 308.533 65.6432Z" fill="white"/>
<path d="M236.25 120.118C230.588 120.118 226.059 115.594 226.059 109.939C226.059 104.285 230.588 99.7607 236.25 99.7607C241.912 99.7607 246.442 104.285 246.442 109.939C246.253 115.594 241.723 120.118 236.25 120.118ZM236.25 101.08C231.343 101.08 227.191 105.039 227.191 110.128C227.191 115.217 231.154 119.176 236.25 119.176C241.157 119.176 245.309 115.217 245.309 110.128C245.309 105.039 241.157 101.08 236.25 101.08Z" fill="white"/>
<path d="M271.166 122.38C265.504 122.38 260.975 117.856 260.975 112.201C260.975 106.546 265.504 102.022 271.166 102.022C276.828 102.022 281.358 106.546 281.358 112.201C281.169 117.856 276.639 122.38 271.166 122.38ZM271.166 103.342C266.259 103.342 262.107 107.3 262.107 112.39C262.107 117.29 266.07 121.437 271.166 121.437C276.073 121.437 280.225 117.479 280.225 112.39C280.225 107.3 276.073 103.342 271.166 103.342Z" fill="white"/>
<path d="M304.004 120.684C298.342 120.684 293.812 116.16 293.812 110.505C293.812 104.85 298.342 100.326 304.004 100.326C309.666 100.326 314.196 104.85 314.196 110.505C314.007 116.16 309.477 120.684 304.004 120.684ZM304.004 101.646C299.097 101.646 294.945 105.604 294.945 110.693C294.945 115.594 298.908 119.741 304.004 119.741C308.911 119.741 313.063 115.783 313.063 110.693C313.063 105.604 308.911 101.646 304.004 101.646Z" fill="white"/>
<path d="M227.756 155.744C222.094 155.744 217.564 151.22 217.564 145.565C217.564 139.91 222.094 135.386 227.756 135.386C233.418 135.386 237.947 139.91 237.947 145.565C237.759 151.22 233.229 155.744 227.756 155.744ZM227.756 136.706C222.849 136.706 218.697 140.664 218.697 145.753C218.697 150.654 222.66 154.801 227.756 154.801C232.663 154.801 236.815 150.843 236.815 145.753C236.626 140.664 232.663 136.706 227.756 136.706Z" fill="white"/>
<path d="M262.672 158.005C257.01 158.005 252.48 153.481 252.48 147.827C252.48 142.172 257.01 137.648 262.672 137.648C268.334 137.648 272.864 142.172 272.864 147.827C272.864 153.481 268.334 158.005 262.672 158.005ZM262.672 138.779C257.765 138.779 253.613 142.737 253.613 147.827C253.613 152.727 257.576 156.874 262.672 156.874C267.579 156.874 271.731 152.916 271.731 147.827C271.731 142.926 267.579 138.779 262.672 138.779Z" fill="white"/>
<path d="M295.51 156.309C289.848 156.309 285.318 151.785 285.318 146.13C285.318 140.476 289.848 135.952 295.51 135.952C301.172 135.952 305.701 140.476 305.701 146.13C305.701 151.785 301.172 156.309 295.51 156.309ZM295.51 137.083C290.603 137.083 286.451 141.041 286.451 146.13C286.451 151.031 290.414 155.178 295.51 155.178C300.417 155.178 304.569 151.22 304.569 146.13C304.569 141.23 300.417 137.083 295.51 137.083Z" fill="white"/>
<path d="M251.349 23.7974C250.594 23.0434 249.273 23.0434 248.518 23.7974C246.819 25.4939 245.498 27.5673 243.988 29.6407C243.611 30.2062 243.044 30.9602 242.667 31.7142C242.289 30.5832 241.723 29.2637 241.346 28.1328C240.968 27.1903 239.647 26.8133 238.704 27.3788C237.76 27.9443 237.382 29.0753 237.76 30.2062C238.704 32.6566 239.458 35.1071 240.402 37.5575C240.968 39.0654 243.233 39.0654 243.799 37.746C244.932 35.861 246.064 33.9761 247.196 32.0912C248.329 30.3947 249.839 28.6983 251.16 27.0018C252.103 26.0593 252.103 24.5514 251.349 23.7974Z" fill="#D52B83"/>
<path d="M283.056 65.6435C281.546 65.078 280.413 66.7745 279.658 67.9054C279.092 68.6594 278.337 69.6019 277.771 70.3559C277.205 71.1098 276.45 72.0523 275.884 72.8063C275.695 72.0523 275.318 71.1098 275.129 70.3559C274.751 69.4134 274.563 68.4709 274.185 67.5284C273.808 66.209 273.242 64.701 272.675 63.3816C272.298 62.4391 270.977 62.4391 270.411 62.8161C269.467 63.1931 269.089 64.324 269.467 65.2665C270.599 69.6019 272.109 74.1257 273.43 78.4611C273.619 79.2151 274.374 79.5921 275.129 79.5921C275.884 79.5921 276.45 79.2151 277.016 78.6496C278.526 76.7647 279.847 75.0682 281.168 73.1833C281.923 72.2408 282.489 71.4868 283.244 70.5444C283.811 69.9789 284.377 69.2249 284.565 68.4709C284.565 67.1515 284.188 66.0205 283.056 65.6435Z" fill="#D52B83"/>
<path d="M317.781 59.2347C316.837 58.6692 315.894 59.0462 315.139 59.8002C313.818 61.3081 312.874 63.1931 311.741 64.8895C310.609 66.5859 309.665 68.0939 308.533 69.7903C308.156 69.2249 307.778 68.6594 307.401 68.0939C306.08 66.209 304.947 64.5125 303.626 62.6276C303.06 61.6851 301.739 61.8736 300.984 62.4391C300.229 63.193 300.04 64.5125 300.795 65.2665C300.984 65.455 300.984 65.6435 301.173 66.0205C301.361 66.209 301.361 66.3974 301.55 66.5859C302.682 68.2824 303.815 69.9788 304.947 71.6753C305.513 72.6178 306.08 73.3717 307.023 74.1257C308.156 74.8797 309.477 74.8797 310.609 73.9372C311.364 73.1832 311.93 72.2408 312.496 71.2983C313.251 70.3558 313.818 69.2249 314.572 68.2824C315.327 67.3399 315.894 66.209 316.649 65.2665C317.403 64.1355 318.158 63.0046 318.913 61.8736C319.291 60.9311 318.725 59.8002 317.781 59.2347Z" fill="#D52B83"/>
<path d="M278.148 96.5562C277.015 96.1792 276.072 96.9332 275.506 97.8756C273.618 102.023 271.731 106.169 269.655 110.316C267.579 106.735 266.258 102.588 265.692 98.4411C265.503 97.4986 264.559 96.9332 263.616 97.1217C262.483 97.4986 262.106 98.4411 262.294 99.3836C262.861 105.227 264.937 110.693 268.334 115.594C269.089 116.537 270.787 116.725 271.542 115.594C274.373 110.316 277.204 104.85 279.469 99.1951C279.846 98.2526 279.092 96.9332 278.148 96.5562Z" fill="#D52B83"/>
<path d="M307.78 129.731C305.515 130.108 303.439 131.616 301.929 132.936C300.608 134.067 299.476 135.198 298.343 136.517C296.833 138.402 295.512 140.475 294.38 142.549C291.738 139.91 289.85 136.706 288.152 133.501C287.019 131.428 283.999 133.124 284.754 135.198C286.642 140.098 289.85 144.245 293.814 147.827C294.757 148.581 296.456 148.392 296.833 147.073C297.777 144.245 299.287 141.606 301.363 139.344C302.306 138.402 303.25 137.46 304.383 136.517C304.949 135.952 305.515 135.575 306.081 135.198C307.214 134.444 308.346 133.878 309.29 133.124C310.044 131.805 309.478 129.543 307.78 129.731Z" fill="#D52B83"/>
<path d="M145.847 245.09C137.354 190.426 143.205 159.513 143.205 159.513L103.571 162.906C103.571 162.906 96.588 202.867 91.8697 245.278C91.4923 249.236 94.512 252.818 98.6641 252.818H139.053C143.205 252.818 146.413 249.048 145.847 245.09Z" fill="#FFC9B6"/>
<path d="M136.032 204.375C136.032 204.375 146.79 192.123 158.869 181.002C170.004 170.823 170.381 169.881 166.795 165.168C162.266 158.948 148.488 170.258 148.488 170.258C148.488 170.258 161.7 145.565 166.607 133.124C167.55 130.485 166.229 127.281 163.587 126.715C160.378 125.961 158.302 128.789 153.962 134.255C150.376 138.779 145.469 144.999 145.469 144.999C145.469 144.999 158.491 118.61 152.829 115.406C145.657 111.447 146.035 118.799 133.201 139.721C138.297 119.553 141.505 114.652 134.9 113.521C129.426 112.578 129.238 122.757 118.291 145.376C118.291 145.376 117.725 130.862 114.139 128.789C111.119 127.092 105.835 128.412 105.835 139.91C105.458 148.015 101.494 187.976 101.494 187.976L136.032 204.375Z" fill="#FFC9B6"/>
<path d="M342.694 99.3833L427.435 163.471C427.246 163.66 427.057 164.037 426.868 164.037C423.282 166.487 417.62 162.529 413.657 160.267C408.373 157.063 403.466 153.67 398.37 150.088C388.367 142.737 379.119 134.82 369.871 126.715C365.342 122.757 360.812 118.61 356.283 114.651C351.564 110.504 346.846 106.358 341.939 102.211C341.562 101.834 341.184 101.645 340.807 101.268L342.317 99.5718L342.694 99.3833Z" fill="#49272E"/>
<path d="M406.673 139.156C411.392 142.926 416.11 146.884 420.64 151.031C423.848 154.047 429.321 158.571 427.811 162.718C427.623 163.095 427.623 163.283 427.434 163.472L342.693 99.3835L342.882 99.195L344.203 97.1216C344.581 97.3101 344.958 97.6871 345.336 97.8756C350.62 101.457 355.905 104.85 361.189 108.243C366.285 111.636 371.381 114.84 376.476 118.044C386.668 124.83 397.048 131.616 406.673 139.156Z" fill="#49272E"/>
<path d="M361.19 108.243L356.283 114.652C351.564 110.505 346.846 106.358 341.939 102.211C341.562 101.834 341.184 101.645 340.807 101.268L342.317 99.572L342.505 99.3835L342.694 99.195L344.015 97.1216C344.393 97.3101 344.77 97.6871 345.147 97.8756C350.432 101.457 355.716 104.85 361.19 108.243Z" fill="#FFCF75"/>
<path d="M342.505 99.9491C342.316 99.9491 342.128 100.138 342.316 100.326C342.505 101.08 343.071 101.457 343.638 101.834C344.204 102.399 344.77 102.776 345.525 103.342C346.846 104.473 347.978 105.604 349.3 106.546C351.753 108.62 354.395 111.07 357.038 112.955C357.604 113.332 358.17 112.39 357.792 112.013C355.339 109.751 352.885 107.677 350.243 105.604C348.922 104.473 347.79 103.53 346.469 102.399C345.902 101.834 345.147 101.269 344.581 100.703C343.826 100.326 343.26 99.7606 342.505 99.9491Z" fill="white"/>
<path d="M282.301 53.768C269.656 70.3555 272.864 94.1058 289.661 106.735C306.269 119.364 330.05 116.16 342.695 99.5721C355.34 82.9846 352.131 59.2343 335.334 46.6052C318.726 33.9761 294.946 37.1805 282.301 53.768ZM340.052 97.6872C328.54 112.955 306.647 115.971 291.36 104.284C276.072 92.7863 273.053 70.921 284.754 55.653C296.267 40.3849 318.16 37.369 333.447 49.0557C348.734 60.5538 351.754 82.4191 340.052 97.6872Z" fill="#49272E"/>
<path opacity="0.2" d="M312.498 109.374C330.634 109.374 345.337 94.6897 345.337 76.5758C345.337 58.462 330.634 43.7778 312.498 43.7778C294.361 43.7778 279.658 58.462 279.658 76.5758C279.658 94.6897 294.361 109.374 312.498 109.374Z" fill="white"/>
<path d="M408.563 170.069C408.563 170.069 415.734 167.807 418.565 159.136C423.85 142.36 427.247 112.955 411.016 121.249C386.292 133.689 408.563 170.069 408.563 170.069Z" fill="#FFC9B6"/>
<path d="M422.339 132.747C422.151 132.747 422.151 132.747 421.962 132.747C421.584 132.747 421.396 132.37 421.396 131.993C421.396 131.993 422.151 124.265 418.565 120.872C417.432 119.93 416.489 119.364 415.545 119.553C414.035 119.741 413.091 121.061 413.091 121.061C412.903 121.249 412.525 121.437 412.148 121.249C411.959 121.061 411.77 120.684 411.959 120.307C411.959 120.307 413.28 118.422 415.356 118.233C416.677 118.045 417.998 118.61 419.32 119.93C423.283 123.699 422.528 131.805 422.528 131.993C422.717 132.37 422.528 132.559 422.339 132.747Z" fill="#49272E"/>
<path d="M351 213.8L372.327 175.347C372.515 173.085 371.572 170.823 370.062 169.127C365.91 164.414 358.172 150.089 358.738 143.303C359.304 137.083 367.797 137.648 376.101 105.981C377.989 98.4413 389.69 103.531 389.69 107.489C389.69 108.62 392.144 106.924 392.144 106.924C392.898 105.416 394.597 104.85 396.296 105.227L399.693 106.17C401.958 106.735 402.146 111.636 402.335 114.086L406.11 110.693C419.321 107.677 414.98 140.475 414.036 149.146C413.281 156.686 389.69 229.256 389.69 229.256C389.69 229.256 367.042 217.381 351 213.8Z" fill="#FFC9B6"/>
<path d="M373.269 156.874C369.495 159.325 364.588 158.194 362.134 154.424L342.884 123.888C340.43 120.118 341.562 115.217 345.337 112.767C349.112 110.316 354.019 111.447 356.472 115.217L375.723 145.565C378.176 149.523 377.044 154.424 373.269 156.874Z" fill="#FFC9B6"/>
<path d="M367.607 131.993C367.607 132.182 367.607 132.182 367.418 132.182C367.041 132.37 366.663 132.37 366.474 131.993C365.342 130.485 364.021 128.223 363.077 126.904C360.435 122.757 355.528 113.144 350.432 112.578C348.922 112.39 347.79 112.955 346.657 113.521C346.28 113.709 345.903 113.709 345.714 113.332C345.525 112.955 345.525 112.578 345.903 112.578C347.601 111.824 348.545 111.259 350.621 111.447C356.283 112.201 361.19 121.626 364.021 126.338C364.964 127.846 366.286 129.92 367.418 131.428C367.607 131.616 367.607 131.805 367.607 131.993Z" fill="#49272E"/>
<path d="M388.367 115.217C388.179 115.217 388.179 115.217 387.99 115.217C387.613 115.217 387.424 114.84 387.424 114.463L388.367 109.94C388.367 109.563 388.745 109.374 389.122 109.374C389.5 109.374 389.689 109.751 389.689 110.128L388.745 114.652C388.745 115.029 388.556 115.217 388.367 115.217Z" fill="#49272E"/>
<path d="M402.899 118.422H402.711C402.333 118.422 402.145 118.233 402.145 117.856V113.898C402.145 113.521 402.333 113.333 402.711 113.333C403.088 113.333 403.277 113.521 403.277 113.898V117.856C403.088 118.045 403.088 118.233 402.899 118.422Z" fill="#49272E"/>
<path d="M405.166 49.4331C406.298 46.4172 405.732 43.0243 404.977 39.8199C403.845 34.165 401.391 28.3217 396.296 25.1173C391.389 21.9129 384.972 22.1014 380.442 26.2483C379.121 27.3792 377.989 29.0757 377.234 30.5836C376.479 32.0916 375.535 33.9765 375.535 35.673C375.535 38.6889 378.555 41.1393 381.386 39.6314C382.518 39.0659 383.462 37.7464 383.462 36.427C383.462 35.8615 383.273 35.296 382.896 34.919C383.084 34.7305 383.273 34.165 383.462 33.9765C384.028 33.0341 384.406 32.4686 385.16 31.7146C385.538 31.3376 385.538 31.3376 385.915 31.1491C386.293 30.9606 386.67 30.7721 386.67 30.7721C387.614 30.3951 387.614 30.3951 388.746 30.5836C388.369 30.5836 389.313 30.7721 389.501 30.7721C389.879 30.7721 390.256 30.9606 390.634 31.1491C390.634 31.1491 391.2 31.3376 391.2 31.5261C391.577 31.7146 392.144 32.0916 392.521 32.2801C392.521 32.2801 392.71 32.2801 392.71 32.4686C392.898 32.6571 393.087 32.8456 393.276 33.0341C393.465 33.2226 393.842 33.5995 394.031 33.788C394.597 34.542 395.163 35.296 395.541 36.05C396.484 37.9349 397.051 39.8199 397.428 41.7048C397.805 43.4012 398.372 45.6632 398.183 47.1711C397.994 48.6791 396.673 49.9985 394.975 50.941C393.087 52.072 391.011 52.6375 389.124 53.2029C383.462 54.8994 377.611 57.5383 376.856 64.1356C376.668 66.0205 378.366 67.717 380.253 67.717C382.33 67.717 383.651 65.8321 384.028 63.9471C384.028 63.9471 384.406 63.3816 384.217 63.5701C384.406 63.1931 384.972 62.8162 385.16 62.6277C386.293 61.6852 387.614 61.3082 388.935 60.9312C391.955 59.8002 395.163 59.0463 397.994 57.5383C401.58 55.2764 404.034 52.6375 405.166 49.4331Z" fill="#D52B83"/>
<path d="M378.365 85.6239C378.365 85.2469 378.554 85.0584 378.554 84.6814C378.554 83.9274 378.554 83.3619 378.365 82.7965C378.365 82.7965 378.365 82.7965 378.365 82.608C378.365 82.4195 378.365 82.231 378.177 82.0425C378.177 81.6655 377.988 81.2885 377.799 80.9115C377.61 80.5345 377.233 80.1575 376.856 79.969C376.478 79.7805 376.101 79.5921 375.723 79.5921C375.346 79.4036 374.968 79.4036 374.402 79.5921C374.213 79.7805 373.836 79.7805 373.647 79.7805C373.081 79.969 372.515 80.5345 372.326 80.9115L371.948 81.6655C371.76 82.0425 371.76 82.4195 371.76 82.608C371.76 82.608 371.76 82.608 371.76 82.7965V82.9849V83.1734C371.76 83.1734 371.76 83.1734 371.76 83.3619V83.5504C371.76 83.7389 371.76 83.9274 371.76 84.1159C371.76 84.3044 371.76 84.4929 371.76 84.6814V84.8699C371.76 85.0584 371.76 85.0584 371.76 85.2469C371.76 85.8124 371.949 86.3778 372.326 86.9433C373.081 87.8858 374.402 88.4513 375.534 88.2628C376.101 88.0743 376.667 87.8858 377.233 87.5088C377.799 86.7548 378.177 86.1894 378.365 85.6239Z" fill="#D52B83"/>
</g>
<defs>
<clipPath id="clip0_482_8523">
<rect width="336.131" height="251.828" fill="white" transform="translate(91.8691 0.989746)"/>
</clipPath>
</defs>
</svg>
