<svg width="12" height="12" viewBox="0 0 12 12" fill="none" xmlns="http://www.w3.org/2000/svg">
<path d="M10.5481 3.43874C10.7993 2.91406 10.7637 2.27842 10.3324 1.84714L10.1529 1.66759C9.72161 1.23631 9.06886 1.1677 8.56128 1.45195C8.20404 1.65202 7.44804 1.23602 7.39207 0.966576C7.27454 0.400704 6.72845 0 6.12252 0L5.814 0.015672C5.10451 0.05172 4.54776 0.637488 4.54776 1.34789C4.572 1.656 4.044 1.884 3.7373 1.68355C3.21094 1.15718 2.35752 1.15718 1.83115 1.68355L1.68353 1.83118C1.23216 2.28257 1.17972 2.96731 1.49069 3.4944C1.704 3.85598 1.49599 4.49599 1.14554 4.58215C0.507864 4.73894 0 5.208 0 5.89915V6.12228C0 6.73438 0.445872 7.19107 1.00051 7.38782C1.57598 7.59197 1.5306 8.43612 1.47161 8.53728C1.17062 9.05333 1.24126 9.72653 1.68355 10.1688L1.83118 10.3164C2.27124 10.7565 2.92848 10.8078 3.45497 10.5329C3.83201 10.336 4.53602 10.704 4.59442 11.0049C4.70758 11.5879 5.2733 12 5.89567 12H6.08772C6.69785 12 7.21445 11.5996 7.38905 11.0472C7.50324 10.6859 8.05603 10.32 8.60592 10.5513C9.12905 10.7714 9.7734 10.7119 10.1822 10.3031L10.3165 10.1688C10.8428 9.64246 10.8428 8.78904 10.3165 8.2627C10.08 8.04802 10.384 7.45601 10.6521 7.45224C11.3966 7.45224 12 6.84876 12 6.10435V5.87359C12 5.25374 11.5885 4.70088 11.0094 4.57361C10.62 4.488 10.422 3.702 10.5481 3.43874Z" fill="#2ECC71"/>
<path d="M4.9508 7.83178L3.38669 6.26768C3.19923 6.08021 3.19923 5.7763 3.38669 5.58886C3.57416 5.4014 3.87807 5.4014 4.06551 5.58886L5.2902 6.81356L7.93582 4.16794C8.12328 3.98048 8.4272 3.98048 8.61464 4.16794C8.80208 4.35541 8.8021 4.65932 8.61464 4.84676L5.62964 7.83178C5.43267 7.99985 5.08068 7.97585 4.9508 7.83178Z" fill="white"/>
</svg>
