<svg width="373" height="365" viewBox="0 0 373 365" fill="none" xmlns="http://www.w3.org/2000/svg">
<circle cx="152.382" cy="152.382" r="127.382" transform="matrix(-1 0 0 1 351 59.2646)" stroke="#1B8F74" stroke-width="50"/>
<g clip-path="url(#clip0_482_8307)">
<path d="M345.724 24.0838L236.324 195.094L245.755 201.149L355.154 30.1393L345.724 24.0838Z" fill="#7E9191"/>
<path d="M351.436 28.3359L242.225 198.915L245.865 201.16L355.357 30.0193L351.436 28.3359Z" fill="#667677"/>
<path d="M346.676 24.9697L237.744 195.549L240.264 196.11L349.756 24.9697H346.676Z" fill="#B3C6C6"/>
<path d="M354.237 38.1559C364.754 38.1559 373.279 29.6144 373.279 19.0779C373.279 8.54148 364.754 0 354.237 0C343.721 0 335.195 8.54148 335.195 19.0779C335.195 29.6144 343.721 38.1559 354.237 38.1559Z" fill="#7E9191"/>
<path d="M354.237 0C343.876 0 335.195 8.41674 335.195 19.0779C335.195 29.7391 343.596 38.1559 354.237 38.1559C364.598 38.1559 373.279 29.7391 373.279 19.0779C373.279 8.41674 364.598 0 354.237 0ZM353.397 31.1419C344.996 31.1419 338.276 24.4085 338.276 15.9918C338.276 7.57506 344.996 0.841673 353.397 0.841673C361.798 0.841673 368.519 7.57506 368.519 15.9918C368.519 24.4085 361.518 31.1419 353.397 31.1419Z" fill="#667677"/>
<path d="M351.157 21.0425C355.796 21.0425 359.558 17.2742 359.558 12.6257C359.558 7.97728 355.796 4.20898 351.157 4.20898C346.517 4.20898 342.756 7.97728 342.756 12.6257C342.756 17.2742 346.517 21.0425 351.157 21.0425Z" fill="#B3C6C6"/>
<path d="M281.431 183.204C281.431 166.37 269.67 145.89 254.828 137.473C248.107 133.545 241.947 132.984 237.186 134.948C236.346 135.228 235.786 135.509 235.226 136.07L225.705 141.401L228.785 146.731C228.505 148.415 228.225 150.378 228.225 152.623C228.225 169.456 239.987 189.937 254.828 198.354C256.788 199.476 258.469 200.318 260.429 200.879L263.509 205.929L274.15 200.037C278.631 197.512 281.431 191.62 281.431 183.204Z" fill="#7E9191"/>
<path opacity="0.2" d="M255.108 137.473C248.387 133.545 242.226 132.984 237.466 134.948C236.906 135.228 236.065 135.509 235.505 136.07L225.984 141.401L229.065 146.731C228.785 148.415 228.505 150.378 228.505 152.623C228.505 156.831 229.345 161.04 230.465 165.529C232.425 164.406 234.105 163.565 235.505 162.723C245.306 157.112 255.108 151.22 264.909 145.609C261.828 142.242 258.468 139.717 255.108 137.473Z" fill="#7E9191"/>
<path d="M281.43 183.203C281.43 179.556 280.869 175.909 280.029 172.261C272.749 176.47 265.468 180.678 258.187 184.887C254.547 186.85 250.626 189.376 246.426 191.62C249.226 194.145 252.026 196.389 254.827 198.073C256.787 199.195 258.467 200.037 260.427 200.598L263.508 205.648L274.149 199.756C278.629 197.512 281.43 191.62 281.43 183.203Z" fill="#667677"/>
<path d="M263.267 206.147C273.548 200.126 273.466 180.822 263.085 163.031C252.704 145.24 235.954 135.699 225.673 141.721C215.393 147.742 215.474 167.046 225.856 184.837C236.237 202.628 252.987 212.169 263.267 206.147Z" fill="#A6B9B9"/>
<path d="M241.106 135.789C231.025 129.898 222.064 129.337 215.344 132.984L210.863 135.509C210.303 135.789 210.023 136.07 209.463 136.35C227.105 127.373 246.987 145.609 256.788 159.356C267.429 173.945 276.11 195.268 270.789 213.504C269.109 219.676 265.189 223.323 260.708 226.41C261.268 226.129 261.548 225.848 262.109 225.568C262.109 225.568 268.269 222.201 269.109 221.64C274.43 217.432 277.79 209.857 277.79 199.476C277.79 175.909 261.268 147.573 241.106 135.789Z" fill="#A3B6B7"/>
<path opacity="0.2" d="M255.388 147.293C250.907 142.523 246.147 138.595 241.106 135.509C237.746 133.545 234.665 132.142 231.585 131.301C220.664 137.754 209.463 144.206 199.942 150.098C199.382 152.904 199.102 155.709 199.102 159.076C199.102 165.248 200.222 171.982 202.462 178.434C217.304 169.737 243.906 153.745 252.027 149.256C253.147 148.695 254.267 148.134 255.388 147.293Z" fill="#8B9E9E"/>
<path d="M235.504 222.763C245.865 228.935 255.106 229.216 261.827 225.288C261.827 225.288 262.387 225.007 263.227 224.446C265.467 223.043 267.427 221.921 269.108 221.079C274.428 216.871 277.508 209.296 277.508 199.196C277.508 195.268 276.948 191.34 276.108 187.132C261.547 195.549 242.785 206.771 226.543 216.31C229.623 218.835 232.704 221.079 235.504 222.763Z" fill="#738384"/>
<path d="M73.0876 334.705C78.4082 332.461 83.1687 329.094 88.2093 326.008C92.9698 323.202 102.491 317.872 107.531 315.066C117.332 309.455 127.133 303.844 136.934 298.232C156.537 286.73 176.139 275.507 195.741 264.285C205.542 258.674 243.066 236.229 252.867 230.618C260.988 226.129 267.989 222.482 270.789 212.943C276.109 194.707 267.148 173.384 256.787 158.795C246.986 145.048 226.544 125.97 208.622 136.351C189.02 147.573 141.975 175.629 122.373 186.851C102.771 198.073 83.1687 209.576 63.5666 220.798C53.4855 226.69 38.924 234.826 28.8429 240.438C24.0824 243.243 19.3219 246.049 14.5614 248.854C11.201 250.818 8.68073 252.782 6.72052 256.149C-2.8005 272.141 5.32037 295.146 14.2813 310.016C19.3219 318.433 25.4825 326.008 33.3234 332.18C40.8842 338.072 51.2453 343.402 61.0463 341.158C64.9668 340.316 69.7273 337.23 73.0876 334.705C74.2078 334.144 72.2476 335.547 73.0876 334.705Z" fill="#FFF6D2"/>
<path d="M135.254 299.355C138.614 294.866 140.574 288.413 140.574 280.277C140.574 256.43 123.772 226.971 102.77 214.907C95.4893 210.699 88.7686 209.015 83.168 209.857C82.3279 210.418 81.7678 210.699 80.9277 211.26C86.8084 210.418 93.5291 212.101 101.09 216.31C121.812 228.654 138.894 257.832 138.894 281.68C138.894 289.816 136.934 295.988 133.573 300.477C134.133 299.916 134.694 299.635 135.254 299.355Z" fill="#A58558"/>
<path d="M137.775 297.952C141.135 293.464 143.096 287.011 143.096 278.875C143.096 255.027 126.294 225.569 105.292 213.505C98.0108 209.296 91.2901 207.613 85.6895 208.455C84.8494 209.016 84.2893 209.296 83.4492 209.857C89.3298 209.016 96.0506 210.699 103.611 214.907C124.334 227.252 141.415 256.43 141.415 280.277C141.415 288.414 139.455 294.586 136.095 299.075C136.655 298.514 137.215 298.233 137.775 297.952Z" fill="#FFFDF8"/>
<path d="M203.58 259.797C204.141 259.516 204.701 259.236 205.261 258.674C208.901 254.186 210.861 247.452 210.861 239.316C210.861 215.469 194.059 186.01 173.057 173.946C165.776 169.738 159.056 168.054 153.455 168.896C152.615 169.457 152.055 169.738 151.215 170.299C157.095 169.457 163.816 171.14 171.097 175.349C191.819 187.693 208.901 216.871 208.901 240.719C209.181 248.855 206.941 255.308 203.58 259.797Z" fill="#A58558"/>
<path d="M205.821 258.394C206.381 258.114 206.941 257.833 207.501 257.272C211.141 252.783 213.101 246.05 213.101 237.914C213.101 214.066 196.3 184.608 175.297 172.544C168.017 168.335 161.296 166.652 155.695 167.494C154.855 168.055 154.295 168.335 153.455 168.896C159.336 168.055 166.056 169.738 173.337 173.946C194.059 186.291 211.141 215.469 211.141 239.316C211.141 247.453 209.181 253.905 205.821 258.394Z" fill="#FFFDF8"/>
<path opacity="0.3" d="M256.508 159.077C248.668 147.854 233.826 133.546 218.984 133.826C232.706 136.071 245.867 149.257 253.148 159.638C264.069 174.788 273.03 196.671 267.71 215.469C266.309 220.519 263.509 223.885 260.149 226.691C264.909 223.605 268.55 219.958 270.51 213.505C275.83 194.988 267.15 173.666 256.508 159.077Z" fill="#C19A6B"/>
<path d="M138.055 215.468L176.979 193.304L180.339 202.001C179.219 207.612 178.659 212.101 178.099 215.468C177.819 219.115 177.539 222.201 177.259 224.726C177.259 227.532 176.979 230.057 177.259 232.582C177.259 235.107 177.539 237.351 178.099 239.876C178.379 242.121 179.219 244.365 179.779 246.329L162.417 256.429C161.297 253.343 160.457 250.257 160.457 246.61C160.177 242.962 160.457 239.315 160.737 235.668C161.017 232.021 161.577 228.093 162.417 224.446C163.257 220.518 163.817 217.151 164.658 214.065L155.417 219.396L157.377 224.726L144.495 232.021L138.055 215.468Z" fill="#E62096"/>
<path d="M162.138 257.551L161.857 256.71C160.737 253.624 159.897 250.257 159.617 246.61C159.337 242.962 159.617 239.315 159.897 235.668C160.177 232.021 160.737 228.093 161.577 224.446C162.138 221.359 162.698 218.273 163.538 215.468L156.257 219.676L158.217 225.007L144.216 233.143L137.215 215.187L177.259 192.462L180.9 202.001V202.281C179.779 207.612 179.219 212.382 178.659 215.748C178.379 219.115 178.099 222.482 177.819 225.007C177.819 227.812 177.539 230.337 177.819 232.862C177.819 235.387 178.099 237.632 178.659 239.876C178.939 242.121 179.499 244.365 180.339 246.048L180.619 246.61L162.138 257.551ZM165.778 212.662L165.218 214.345C164.378 217.432 163.538 220.798 162.978 224.726C162.138 228.373 161.857 232.301 161.297 235.948C161.017 239.596 160.737 243.243 161.017 246.89C161.297 249.976 161.857 253.062 162.698 255.868L178.939 246.61C178.379 244.646 177.819 242.682 177.259 240.718C176.979 238.473 176.699 235.948 176.419 233.423C176.419 230.898 176.419 228.373 176.419 225.568C176.699 222.762 176.699 219.676 177.259 216.029C177.539 212.662 178.379 208.173 179.219 202.562L176.419 194.426L138.895 216.029L144.776 231.179L156.537 224.446L154.577 219.115L165.778 212.662Z" fill="black"/>
<path d="M201.623 178.995L240.547 156.831L243.908 165.528C242.787 171.139 242.227 175.628 241.667 178.995C241.387 182.642 241.107 185.729 240.827 188.254C240.827 191.059 240.547 193.584 240.827 196.109C240.827 198.634 241.107 200.879 241.667 203.404C241.947 205.648 242.787 207.893 243.348 209.856L225.986 219.957C224.866 216.87 224.025 213.784 224.025 210.137C223.745 206.49 224.025 202.843 224.305 199.195C224.586 195.548 225.146 191.62 225.986 187.973C226.826 184.045 227.386 180.678 228.226 177.592L218.985 182.923L220.945 188.254L208.064 195.548L201.623 178.995Z" fill="#E62096"/>
<path d="M225.706 220.798L225.426 219.957C224.306 216.871 223.466 213.504 223.186 209.857C222.906 206.209 223.186 202.562 223.466 198.915C223.746 195.268 224.306 191.34 225.146 187.693C225.706 184.606 226.266 181.52 227.106 178.715L219.825 182.923L221.785 188.254L207.784 196.39L200.783 178.715L240.828 155.709L244.468 165.248V165.529C243.348 170.859 242.788 175.629 242.228 178.995C241.948 182.362 241.668 185.729 241.388 188.254C241.388 191.059 241.108 193.584 241.388 196.109C241.388 198.634 241.668 200.879 242.228 203.123C242.508 205.368 243.068 207.612 243.908 209.296L244.188 209.857L225.706 220.798ZM229.066 176.19L228.506 177.873C227.666 180.959 226.826 184.326 226.266 188.254C225.426 191.901 225.146 195.829 224.586 199.476C224.306 203.123 224.026 206.771 224.306 210.418C224.586 213.504 225.146 216.59 225.986 219.396L242.228 210.137C241.668 208.173 241.108 206.209 240.547 204.245C240.267 202.001 239.987 199.476 239.707 196.951C239.707 194.426 239.707 191.901 239.707 189.095C239.987 186.29 239.987 183.204 240.547 179.556C240.828 176.19 241.668 171.701 242.508 166.09L239.427 158.234L201.903 179.837L207.784 194.987L219.545 188.254L218.145 182.362L229.066 176.19Z" fill="black"/>
<path d="M73.6484 252.782L112.573 230.618L115.933 239.315C114.813 244.927 114.253 249.416 113.693 252.782C113.413 256.429 113.133 259.516 112.853 262.041C112.853 264.846 112.573 267.371 112.853 269.896C112.853 272.421 113.133 274.666 113.693 277.191C113.973 279.435 114.813 281.68 115.373 283.644L98.0111 293.744C96.8909 290.658 96.0508 287.571 96.0508 283.924C95.7708 280.277 96.0508 276.63 96.3309 272.982C96.6109 269.335 97.171 265.407 98.0111 261.76C98.8511 257.832 99.4112 254.466 100.251 251.379L91.0103 256.71L92.9705 262.041L80.0891 269.335L73.6484 252.782Z" fill="#E62096"/>
<path d="M97.7313 294.866L97.4512 294.024C96.3311 290.938 95.491 287.571 95.211 283.924C94.931 280.277 95.211 276.63 95.491 272.982C95.7711 269.335 96.3311 265.407 97.1712 261.76C97.7313 258.674 98.2913 255.588 99.1314 252.782L91.8506 256.99L93.8108 262.321L79.8093 270.457L72.8086 252.502L112.853 229.776L116.493 239.315V239.596C115.373 244.926 114.813 249.696 114.253 253.063C113.973 256.429 113.693 259.796 113.413 262.321C113.413 265.127 113.133 267.652 113.413 270.177C113.413 272.702 113.693 274.946 114.253 277.191C114.533 279.435 115.093 281.68 115.933 283.363L116.213 283.924L97.7313 294.866ZM101.092 249.977L100.812 251.66C99.9715 254.746 99.1314 258.113 98.5714 262.041C97.7313 265.688 97.4512 269.616 96.8912 273.263C96.6111 276.91 96.3311 280.557 96.6111 284.205C96.8912 287.291 97.4512 290.377 98.2913 293.182L114.533 283.924C113.973 281.96 113.413 279.996 112.853 278.032C112.573 275.788 112.293 273.263 112.013 270.738C112.013 268.213 112.013 265.688 112.013 262.882C112.293 260.077 112.293 256.99 112.853 253.343C113.133 249.977 113.973 245.488 114.813 239.876L112.013 231.74L74.4888 253.343L80.3694 268.493L92.1307 261.76L90.1705 256.429L101.092 249.977Z" fill="black"/>
<path d="M123.492 299.074H123.212C123.212 299.074 122.932 299.074 122.652 299.074C120.411 299.074 111.731 300.197 100.529 313.944C98.009 317.03 95.7688 320.116 93.8086 323.202C94.6487 322.641 95.4888 322.08 96.3289 321.8C99.9693 314.786 106.97 305.527 112.851 303.844C117.051 302.441 117.051 305.808 115.371 309.455C115.091 310.297 114.531 310.858 114.251 311.7C114.811 311.419 115.371 311.138 115.651 310.858C115.651 310.577 115.651 310.297 115.931 310.016C116.211 309.175 117.051 308.052 117.611 307.772C118.171 307.491 118.451 307.772 118.171 308.894C117.891 309.174 117.891 309.736 117.611 310.016C118.731 309.175 120.131 308.613 121.252 307.772C123.772 303.844 126.292 299.916 128.252 295.988C127.132 295.988 125.172 297.391 123.492 299.074Z" fill="#FFE54D"/>
<path d="M128.813 295.146C127.973 294.305 125.172 296.269 123.212 298.233C121.812 297.952 112.571 297.671 99.6897 313.383C96.6094 317.03 94.0891 320.677 92.1289 324.044C92.689 323.763 93.249 323.483 93.8091 323.202C95.7693 320.116 98.0095 317.03 100.53 313.944C111.731 299.916 120.132 299.074 122.652 299.074C123.212 299.074 123.212 299.074 123.212 299.074H123.492H123.772C125.733 297.391 127.413 296.269 128.253 295.988C128.253 295.708 128.533 295.708 128.533 295.427H128.813C129.093 295.708 128.533 297.11 127.693 298.794C126.573 300.758 125.452 303.002 125.452 303.002C125.452 303.002 125.172 304.124 124.332 305.808C124.612 305.808 124.612 305.527 124.892 305.527C125.452 304.124 125.733 303.283 125.733 303.283C129.653 295.988 129.093 295.427 128.813 295.146Z" fill="#BF5926"/>
<path d="M127.972 295.707C125.732 299.915 123.212 303.843 120.691 307.49C121.531 306.929 122.372 306.368 123.212 306.088C124.052 304.124 124.332 303.002 124.332 302.721C126.292 299.915 127.972 296.549 127.972 295.707Z" fill="#FFE54D"/>
<path d="M127.972 295.707C125.732 299.915 123.212 303.843 120.691 307.49C121.531 306.929 122.372 306.368 123.212 306.088C124.052 304.124 124.332 303.002 124.332 302.721C126.292 299.915 127.972 296.549 127.972 295.707Z" fill="#FFE54D"/>
<path d="M127.412 298.793C128.252 297.11 128.812 295.707 128.532 295.427H128.252C128.252 295.707 127.972 295.707 127.972 295.988H128.252C128.252 296.83 126.572 300.196 124.892 303.002C124.892 303.002 124.332 304.124 123.771 306.368C124.052 306.368 124.052 306.088 124.332 306.088C124.892 304.405 125.452 303.282 125.452 303.282C125.452 303.282 126.292 300.757 127.412 298.793Z" fill="#BF5926"/>
<path d="M127.412 298.793C128.252 297.11 128.812 295.707 128.532 295.427H128.252C128.252 295.707 127.972 295.707 127.972 295.988H128.252C128.252 296.83 126.572 300.196 124.892 303.002C124.892 303.002 124.332 304.124 123.771 306.368C124.052 306.368 124.052 306.088 124.332 306.088C124.892 304.405 125.452 303.282 125.452 303.282C125.452 303.282 126.292 300.757 127.412 298.793Z" fill="#FFE54D"/>
<path d="M112.573 303.563C106.972 305.527 99.9712 314.505 96.0508 321.519C100.251 319.274 104.452 316.749 107.252 315.066C109.492 313.944 111.452 312.541 113.693 311.419C114.253 310.577 114.533 309.735 114.813 309.174C116.773 305.527 116.773 302.441 112.573 303.563Z" fill="#FFE54D"/>
<path opacity="0.7" d="M112.573 303.563C106.972 305.527 99.9712 314.505 96.0508 321.519C100.251 319.274 104.452 316.749 107.252 315.066C109.492 313.944 111.452 312.541 113.693 311.419C114.253 310.577 114.533 309.735 114.813 309.174C116.773 305.527 116.773 302.441 112.573 303.563Z" fill="#FFE54D"/>
<path d="M117.331 307.771C116.771 308.051 115.931 309.174 115.651 310.015C115.371 310.296 115.371 310.576 115.371 310.857C115.931 310.576 116.491 310.296 117.051 309.735C117.331 309.454 117.611 308.893 117.611 308.612C117.891 307.771 117.891 307.21 117.331 307.771Z" fill="#FFE54D"/>
<path d="M117.331 307.771C116.771 308.051 115.931 309.174 115.651 310.015C115.371 310.296 115.371 310.576 115.371 310.857C115.931 310.576 116.491 310.296 117.051 309.735C117.331 309.454 117.611 308.893 117.611 308.612C117.891 307.771 117.891 307.21 117.331 307.771Z" fill="#FFE54D"/>
<path d="M187.619 262.041H187.339C187.339 262.041 187.059 262.041 186.779 262.041C184.538 262.041 175.857 263.163 164.656 276.91C162.136 279.997 159.896 283.083 157.936 285.888C158.776 285.327 159.616 284.766 160.736 284.205C164.376 277.191 171.377 268.213 176.978 266.249C181.178 264.846 181.178 268.213 179.498 271.86C179.218 272.421 178.938 272.983 178.658 273.824C179.218 273.544 179.498 273.263 180.058 272.983C180.058 272.702 180.058 272.702 180.338 272.421C180.618 271.58 181.458 270.458 182.018 270.177C182.578 269.896 182.858 270.177 182.578 271.299C182.578 271.58 182.298 271.58 182.298 271.86C183.418 271.019 184.818 270.458 185.939 269.616C188.459 265.969 190.699 262.041 192.659 258.394C191.539 259.235 189.579 260.357 187.619 262.041Z" fill="#FFE54D"/>
<path d="M193.219 258.112C192.379 257.271 189.579 259.234 187.618 261.198C186.218 260.918 176.977 260.637 164.096 276.348C161.016 279.996 158.495 283.643 156.535 287.01C157.095 286.729 157.655 286.449 158.215 286.168C160.176 283.362 162.416 280.276 164.936 277.19C176.137 263.162 184.538 262.321 187.058 262.321C187.618 262.321 187.618 262.321 187.618 262.321H187.899H188.179C190.139 260.637 191.819 259.515 192.659 259.234C192.659 258.954 192.939 258.954 192.939 258.673H193.219C193.499 258.954 192.939 260.357 192.099 262.04C190.979 264.004 189.859 266.248 189.859 266.248C189.859 266.248 189.579 267.09 189.019 268.773C189.299 268.773 189.299 268.493 189.579 268.493C190.139 267.371 190.139 266.529 190.139 266.529C194.059 258.954 193.219 258.393 193.219 258.112Z" fill="#BF5926"/>
<path d="M192.38 258.674C190.139 262.602 187.899 266.529 185.379 270.177C186.219 269.616 187.059 269.335 187.899 268.774C188.459 267.091 189.019 265.968 189.019 265.968C190.699 263.163 192.38 259.516 192.38 258.674Z" fill="#FFE54D"/>
<path d="M192.38 258.674C190.139 262.602 187.899 266.529 185.379 270.177C186.219 269.616 187.059 269.335 187.899 268.774C188.459 267.091 189.019 265.968 189.019 265.968C190.699 263.163 192.38 259.516 192.38 258.674Z" fill="#FFE54D"/>
<path d="M191.82 261.76C192.66 260.077 193.22 258.674 192.94 258.394H192.66C192.66 258.674 192.38 258.674 192.38 258.955H192.66C192.66 259.796 190.98 263.163 189.3 265.969C189.3 265.969 189.02 267.091 188.18 268.774C188.46 268.774 188.46 268.494 188.74 268.494C189.3 267.091 189.58 265.969 189.58 265.969C189.58 265.969 190.7 263.724 191.82 261.76Z" fill="#BF5926"/>
<path d="M191.82 261.76C192.66 260.077 193.22 258.674 192.94 258.394H192.66C192.66 258.674 192.38 258.674 192.38 258.955H192.66C192.66 259.796 190.98 263.163 189.3 265.969C189.3 265.969 189.02 267.091 188.18 268.774C188.46 268.774 188.46 268.494 188.74 268.494C189.3 267.091 189.58 265.969 189.58 265.969C189.58 265.969 190.7 263.724 191.82 261.76Z" fill="#FFE54D"/>
<path d="M176.978 266.81C171.377 268.774 164.377 277.471 160.736 284.766C166.617 281.399 172.498 277.752 178.658 274.385C178.938 273.824 179.218 273.263 179.498 272.421C181.179 268.493 181.179 265.407 176.978 266.81Z" fill="#FFE54D"/>
<path opacity="0.7" d="M176.978 266.81C171.377 268.774 164.377 277.471 160.736 284.766C166.617 281.399 172.498 277.752 178.658 274.385C178.938 273.824 179.218 273.263 179.498 272.421C181.179 268.493 181.179 265.407 176.978 266.81Z" fill="#FFE54D"/>
<path d="M181.458 270.738C180.898 271.018 180.058 272.141 179.778 272.982C179.778 273.263 179.778 273.263 179.498 273.543C180.058 273.263 180.898 272.702 181.458 272.421C181.458 272.141 181.738 272.141 181.738 271.86C182.298 270.738 182.298 270.457 181.458 270.738Z" fill="#FFE54D"/>
<path d="M181.458 270.738C180.898 271.018 180.058 272.141 179.778 272.982C179.778 273.263 179.778 273.263 179.498 273.543C180.058 273.263 180.898 272.702 181.458 272.421C181.458 272.141 181.738 272.141 181.738 271.86C182.298 270.738 182.298 270.457 181.458 270.738Z" fill="#FFE54D"/>
<path d="M251.466 225.568H251.186C251.186 225.568 250.906 225.568 250.626 225.568C248.386 225.568 239.705 226.69 228.504 240.438C226.263 243.243 224.303 245.768 222.623 248.293C223.463 247.732 224.303 247.452 225.143 246.891C229.064 239.877 235.504 232.021 240.825 230.057C245.025 228.654 245.025 232.021 243.345 235.668C243.345 235.668 243.345 235.949 243.065 235.949C243.345 235.668 243.905 235.388 244.185 235.388C244.465 234.827 245.025 234.265 245.586 233.985C245.866 233.704 246.146 233.985 246.146 234.265C247.826 233.143 249.506 232.302 250.626 231.46C252.586 228.374 254.546 225.288 255.947 221.921C255.387 222.763 253.426 224.165 251.466 225.568Z" fill="#FFE54D"/>
<path d="M257.065 221.921C256.225 221.079 253.425 223.043 251.465 225.007C250.065 224.726 240.824 224.446 227.942 240.157C225.422 243.524 222.902 246.61 220.941 249.696C221.501 249.415 222.062 249.135 222.622 248.574C224.302 246.049 226.262 243.243 228.502 240.718C239.703 226.69 248.104 225.849 250.625 225.849C251.185 225.849 251.185 225.849 251.185 225.849H251.465H251.745C253.705 224.165 255.385 223.043 256.225 222.762C256.225 222.482 256.505 222.482 256.505 222.201H256.785C257.065 222.482 256.785 223.604 255.945 225.007C255.665 225.568 255.385 225.849 255.385 226.41C255.385 226.69 255.105 226.971 255.105 226.971C254.265 228.654 253.425 229.776 253.425 229.776C253.425 229.776 253.425 230.057 253.145 230.618C253.425 230.618 253.425 230.338 253.705 230.338C253.705 230.057 253.705 230.057 253.705 230.057C257.905 222.762 257.065 221.921 257.065 221.921Z" fill="#BF5926"/>
<path d="M256.226 222.482C254.265 225.849 252.585 228.935 250.625 232.021C251.185 231.741 251.745 231.18 252.305 230.899C252.585 230.057 252.865 229.496 252.865 229.496C254.545 226.691 256.226 223.324 256.226 222.482Z" fill="#FFE54D"/>
<path d="M256.226 222.482C254.265 225.849 252.585 228.935 250.625 232.021C251.185 231.741 251.745 231.18 252.305 230.899C252.585 230.057 252.865 229.496 252.865 229.496C254.545 226.691 256.226 223.324 256.226 222.482Z" fill="#FFE54D"/>
<path d="M254.825 226.971C254.825 226.69 255.105 226.41 255.105 226.41C255.385 225.848 255.665 225.568 255.665 225.007C256.225 223.604 256.785 222.482 256.505 222.201H256.225C256.225 222.482 255.945 222.482 255.945 222.762H256.225C256.225 223.604 254.545 226.971 252.865 229.776C252.865 229.776 252.585 230.337 252.305 231.179C252.585 231.179 252.585 230.898 252.865 230.898C253.145 230.337 253.145 230.057 253.145 230.057C253.145 230.057 253.985 228.373 254.825 226.971Z" fill="#BF5926"/>
<path d="M254.825 226.971C254.825 226.69 255.105 226.41 255.105 226.41C255.385 225.848 255.665 225.568 255.665 225.007C256.225 223.604 256.785 222.482 256.505 222.201H256.225C256.225 222.482 255.945 222.482 255.945 222.762H256.225C256.225 223.604 254.545 226.971 252.865 229.776C252.865 229.776 252.585 230.337 252.305 231.179C252.585 231.179 252.585 230.898 252.865 230.898C253.145 230.337 253.145 230.057 253.145 230.057C253.145 230.057 253.985 228.373 254.825 226.971Z" fill="#FFE54D"/>
<path d="M240.826 230.338C235.506 232.021 229.065 240.158 225.145 247.171C231.585 243.244 238.026 239.596 243.066 236.51C243.066 236.51 243.066 236.23 243.346 236.23C245.027 232.302 245.027 228.935 240.826 230.338Z" fill="#FFE54D"/>
<path opacity="0.7" d="M240.826 230.338C235.506 232.021 229.065 240.158 225.145 247.171C231.585 243.244 238.026 239.596 243.066 236.51C243.066 236.51 243.066 236.23 243.346 236.23C245.027 232.302 245.027 228.935 240.826 230.338Z" fill="#FFE54D"/>
<path d="M245.304 234.546C244.744 234.826 244.464 235.387 243.904 235.948C244.464 235.668 245.304 235.107 245.865 234.826C246.145 234.265 245.865 234.265 245.304 234.546Z" fill="#FFE54D"/>
<path d="M245.304 234.546C244.744 234.826 244.464 235.387 243.904 235.948C244.464 235.668 245.304 235.107 245.865 234.826C246.145 234.265 245.865 234.265 245.304 234.546Z" fill="#FFE54D"/>
<g opacity="0.3">
<path d="M252.866 230.619C260.987 226.13 267.988 222.483 270.788 212.944C273.028 205.649 272.748 197.794 271.068 190.219C249.226 202.844 201.341 231.18 180.899 242.964C159.896 255.028 138.614 267.372 117.612 279.436C106.971 285.608 91.289 294.306 80.6478 300.478C75.6073 303.564 70.5667 306.37 65.2462 309.456C61.6058 311.42 58.8055 313.945 56.5652 317.311C52.3648 324.325 51.2447 332.742 52.3648 341.439C55.1651 341.72 57.6854 341.72 60.4857 341.159C64.9661 340.037 69.7267 337.231 73.087 334.706C78.4076 332.462 83.1681 329.095 88.2086 326.009C92.9692 323.203 102.49 317.873 107.531 315.067C117.332 309.456 127.133 303.845 136.934 298.234C156.536 286.731 176.138 275.508 195.74 264.286C205.541 258.675 243.065 236.511 252.866 230.619Z" fill="#C19A6B"/>
</g>
<path d="M58.2461 230.9L61.6065 237.914L83.1688 225.569L71.1275 223.605L58.2461 230.9Z" fill="#39BEC8"/>
<path d="M57.125 231.18L47.8841 229.777C45.0838 231.461 42.0034 233.144 39.2031 234.827L60.2054 238.194L57.125 231.18Z" fill="#39BEC8"/>
<path d="M83.4475 225.008L77.8469 212.663C75.0466 214.346 71.9663 216.03 69.166 217.713L71.6863 223.044L83.4475 225.008Z" fill="#39BEC8"/>
<path d="M69.1678 223.044L67.2076 218.555C65.8074 219.396 64.4073 220.238 63.2871 220.799C59.3667 223.044 54.6062 225.569 49.8457 228.374L57.1265 229.496L69.1678 223.044Z" fill="#39BEC8"/>
<path d="M57.125 231.179L48.1641 229.496L57.125 231.179Z" fill="#39BEC8"/>
<path d="M56.845 230.619L57.9651 230.338L58.2451 230.899L71.1265 223.605L70.0064 223.324L70.2864 222.763L71.4066 223.043L68.8863 217.713C68.3262 217.993 67.7662 218.274 67.2061 218.835L69.1663 223.043L57.125 230.057L49.8442 228.935C49.2842 229.216 48.7241 229.496 48.1641 230.057L57.4051 231.46L56.845 230.619Z" fill="#137F91"/>
<path d="M70.2878 222.764L70.0078 223.325L71.1279 223.605L83.1692 225.569L83.7293 225.289L83.4493 225.008L71.408 223.044L70.2878 222.764Z" fill="#137F91"/>
<path d="M57.9658 230.339L56.8457 230.619L57.1257 231.181L60.4861 238.194H61.0462L61.6062 237.914L58.2459 230.9L57.9658 230.339Z" fill="#137F91"/>
<path d="M85.9686 225.569L79.5279 211.541C78.9679 211.822 78.4078 212.102 77.8478 212.663L83.4484 225.008L83.7284 225.288L83.1683 225.569L61.606 237.913L61.046 238.194H60.4859L39.2036 234.547C38.6436 234.827 38.0835 235.108 37.5234 235.669L61.606 239.597L85.9686 225.569Z" fill="#137F91"/>
<path d="M150.376 186.291L144.495 173.946C141.415 175.63 138.615 177.313 135.814 178.996L138.335 184.327L150.376 186.291Z" fill="#39BEC8"/>
<path d="M125.172 192.462L128.532 199.476L150.095 187.132L138.053 185.168L125.172 192.462Z" fill="#39BEC8"/>
<path d="M128.533 201.16L104.73 197.233L128.533 201.16Z" fill="#39BEC8"/>
<path d="M124.052 192.744L115.091 191.341C112.291 193.024 109.21 194.708 106.41 196.391L127.412 199.758L124.052 192.744Z" fill="#39BEC8"/>
<path d="M124.053 192.744L115.092 191.06L124.053 192.744Z" fill="#39BEC8"/>
<path d="M136.094 184.608L134.133 180.119C129.653 182.925 125.452 185.169 122.092 187.133C120.412 188.255 118.452 189.097 116.771 190.219L124.052 191.341L136.094 184.608Z" fill="#39BEC8"/>
<path d="M123.773 191.902L124.893 191.621L125.173 192.182L138.054 184.888L136.934 184.607L137.214 184.046L138.334 184.327L135.814 178.996C135.254 179.277 134.694 179.557 134.134 180.118L136.094 184.607L124.053 191.621L116.772 190.499C116.212 190.78 115.652 191.06 115.092 191.621L124.053 193.024L123.773 191.902Z" fill="#137F91"/>
<path d="M137.214 184.327L136.934 184.888L138.054 185.169L150.095 187.133L150.375 186.852V186.291L138.334 184.608L137.214 184.327Z" fill="#137F91"/>
<path d="M124.894 191.902H123.773L124.053 192.744L127.414 199.477L127.974 199.758L128.534 199.477L125.174 192.463L124.894 191.902Z" fill="#137F91"/>
<path d="M128.533 201.161L152.896 187.413L146.175 173.105C145.615 173.385 145.055 173.666 144.495 174.227L150.375 186.572L150.655 186.852L150.095 187.133L128.533 199.477L127.973 199.758H127.413L106.411 196.11C105.851 196.391 105.291 196.672 104.73 197.233L128.533 201.161Z" fill="#137F91"/>
<path d="M213.103 149.538L207.222 137.193C204.702 138.596 201.901 140.279 198.541 142.243L201.061 147.574L213.103 149.538Z" fill="#39BEC8"/>
<path d="M187.059 155.709L178.098 154.307C175.298 155.99 172.498 157.673 169.697 159.357L190.419 162.723L187.059 155.709Z" fill="#39BEC8"/>
<path d="M188.18 155.43L191.26 162.443L212.822 150.099L201.061 148.135L188.18 155.43Z" fill="#39BEC8"/>
<path d="M187.059 155.709L178.098 154.307L187.059 155.709Z" fill="#39BEC8"/>
<path d="M199.099 147.574L196.859 143.085C191.819 146.171 185.938 149.538 179.777 153.185L186.778 154.307L199.099 147.574Z" fill="#39BEC8"/>
<path d="M186.78 155.149L187.9 154.868L188.18 155.429L201.061 148.135L199.941 147.854L200.221 147.293L201.341 147.574L198.821 142.243C198.261 142.524 197.701 142.804 197.141 143.365L199.101 147.574L187.06 154.307L180.059 153.185C179.499 153.465 178.939 153.746 178.379 154.307L187.34 155.71L186.78 155.149Z" fill="#137F91"/>
<path d="M200.221 147.293L199.941 148.135H201.062L212.823 150.099L213.383 149.818L213.103 149.537L201.062 147.574L200.221 147.293Z" fill="#137F91"/>
<path d="M187.899 154.868L186.779 155.149L187.059 155.71L190.14 162.724H190.7L191.26 162.443L188.179 155.43L187.899 154.868Z" fill="#137F91"/>
<path d="M215.623 150.379L209.183 136.352C208.903 136.352 208.623 136.632 208.343 136.632C208.063 136.913 207.783 136.913 207.503 137.193L213.383 149.538L213.663 149.818L212.823 150.099L191.261 162.443L190.701 162.724H190.141L169.418 159.357C168.858 159.638 168.298 159.918 167.738 160.48L191.261 164.407L215.623 150.379Z" fill="#137F91"/>
<path opacity="0.3" d="M18.4822 255.308C29.9634 248.855 46.7653 239.316 58.2465 232.863C80.6489 219.957 103.051 207.052 125.454 194.146C147.856 181.24 201.622 149.257 224.024 136.351C225.144 135.79 225.984 135.229 227.105 134.948C220.944 132.985 214.503 133.265 208.623 136.632C189.021 147.854 141.975 175.91 122.373 187.132C102.771 198.355 83.1692 209.857 63.5671 221.08C53.486 226.971 38.9244 235.108 28.8433 240.719C24.0828 243.524 19.3223 246.33 14.5618 249.136C11.2014 251.099 8.68117 253.063 6.72096 256.43C5.32081 258.955 4.20069 261.48 3.64062 264.286C8.12111 261.199 13.4417 258.394 18.4822 255.308Z" fill="#C19A6B"/>
<path d="M65.0387 338.849C79.3248 330.481 79.1998 303.637 64.7597 278.89C50.3195 254.143 27.0322 240.865 12.7461 249.233C-1.53994 257.6 -1.41501 284.445 13.0252 309.192C27.4654 333.939 50.7526 347.217 65.0387 338.849Z" fill="#A3B6B7"/>
<g opacity="0.1">
<path d="M38.9242 251.94C30.2432 246.89 22.1224 245.768 15.6817 248.012C9.24098 250.537 4.48047 256.429 2.80029 265.126C2.24023 267.371 2.24023 270.176 2.24023 272.982C2.24023 282.802 5.32056 293.743 10.0811 303.843L61.6066 274.104C55.4459 264.846 47.6051 256.99 38.9242 251.94Z" fill="white"/>
<path d="M75.609 315.346C75.609 308.893 74.4889 302.16 72.2487 295.707L23.5234 323.482C28.2839 328.813 33.6045 333.302 38.9251 336.388C42.8455 338.632 46.4859 340.035 49.8463 340.877L73.9288 327.13C75.049 323.763 75.609 319.835 75.609 315.346Z" fill="white"/>
</g>
<path d="M63.5658 309.456C63.5658 292.622 51.8046 272.142 36.963 263.725C30.2422 259.797 24.0816 259.236 19.3211 261.2C18.481 261.481 17.9209 261.761 17.3609 262.322L7.83984 267.653L11.2002 272.983C10.9202 274.667 10.6401 276.631 10.6401 278.875C10.6401 295.709 22.4014 316.189 37.243 324.606C39.2032 325.728 40.8834 326.57 42.8436 327.131L45.9239 332.181L56.5651 326.289C60.7655 323.484 63.5658 317.592 63.5658 309.456Z" fill="#8B9E9E"/>
<path opacity="0.2" d="M36.963 263.725C30.2422 259.797 24.0816 259.236 19.3211 261.2C18.481 261.481 17.9209 261.761 17.3609 262.322L7.83984 267.653L11.2002 272.983C10.9202 274.667 10.6401 276.631 10.6401 278.875C10.6401 283.084 11.4802 287.292 12.6004 291.781C14.5606 290.659 16.2407 289.817 17.6409 288.975C27.4419 283.364 37.243 277.472 47.044 271.861C43.9637 268.494 40.6034 265.689 36.963 263.725Z" fill="#8B9E9E"/>
<path d="M63.5663 309.455C63.5663 305.808 63.0062 302.161 62.1661 298.514C54.8853 302.722 47.6045 306.93 40.3238 311.139C36.6834 313.103 32.763 315.628 28.5625 317.872C31.3628 320.397 34.1631 322.642 36.9634 324.325C38.9236 325.447 40.6038 326.289 42.564 326.85L45.6443 331.9L56.2855 326.008C60.766 323.483 63.5663 317.592 63.5663 309.455Z" fill="#738384"/>
<path d="M45.3377 332.083C55.6184 326.062 55.5368 306.758 45.1554 288.967C34.7741 271.176 18.0243 261.635 7.74365 267.657C-2.53699 273.678 -2.45536 292.982 7.92596 310.773C18.3073 328.564 35.0571 338.105 45.3377 332.083Z" fill="#B3C6C6"/>
<path d="M43.4044 247.452C36.9637 243.804 30.803 242.121 25.2024 242.121C21.562 244.366 17.9216 246.329 14.2812 248.574C20.7219 245.488 29.4029 246.329 38.9239 251.941C59.0861 263.724 75.6078 292.06 75.6078 315.347C75.6078 327.972 70.5673 336.669 63.0065 339.755C66.6469 338.352 69.7272 336.669 77.288 331.9C80.0883 327.411 81.7685 321.238 81.7685 313.663C81.7685 289.255 64.6867 259.796 43.4044 247.452Z" fill="#8B9E9E"/>
<path d="M38.9236 251.941C32.763 248.293 26.8823 246.891 21.8418 246.891C26.6023 247.171 31.9229 248.574 37.5235 251.941C57.6856 263.724 74.2074 292.06 74.2074 315.347C74.2074 331.619 66.3666 340.877 54.6053 341.439C66.9266 342 75.6076 332.18 75.6076 315.347C75.6076 292.06 59.0858 263.724 38.9236 251.941Z" fill="#D5EEEF"/>
<path d="M74.4871 303.563C75.3272 307.491 75.6072 311.419 75.6072 315.066C75.6072 327.691 70.5667 336.389 63.0059 339.475C63.5659 339.194 64.126 338.914 64.9661 338.633C65.5261 338.352 65.8062 338.072 66.3662 337.791C70.0066 335.547 73.647 333.583 77.2874 331.338C80.0877 326.85 81.7679 320.677 81.7679 313.383C81.7679 308.894 81.2078 304.405 80.0877 299.916C78.6875 300.758 77.5674 301.319 76.1673 302.16C75.6072 303.002 75.0472 303.283 74.4871 303.563Z" fill="#738384"/>
<path opacity="0.4" d="M60.2066 292.622C62.4468 298.233 63.567 304.125 63.567 309.456C63.567 317.592 60.7667 323.483 56.0062 326.289L45.645 331.9C42.8447 333.864 39.2044 334.425 35.0039 333.584C36.4041 334.425 37.5242 335.267 38.9243 336.109C47.3252 341.159 55.1661 342.281 61.6068 340.317C64.6871 335.547 66.6473 328.814 66.6473 320.678C66.6473 305.808 60.2066 292.622 60.2066 292.622Z" fill="#738384"/>
<g opacity="0.1">
<path d="M26.6029 269.616C12.0413 261.199 0 267.932 0 284.766C0 291.78 1.96021 299.074 5.32057 306.369L42.2845 285.327C38.0841 278.594 32.4835 272.982 26.6029 269.616Z" fill="white"/>
<path d="M52.9266 315.347C52.9266 310.297 51.8065 305.247 50.1263 299.916L14.5625 320.116C18.2029 324.325 22.1233 327.972 26.6038 330.216C28.564 331.338 30.5242 332.18 32.2044 332.741L52.3666 321.238C52.6466 319.555 52.9266 317.591 52.9266 315.347Z" fill="white"/>
</g>
<path d="M26.6016 269.616C24.3613 268.213 22.1211 267.372 19.8809 266.811C21.281 267.372 22.9612 268.213 24.6414 269.055C39.2029 277.472 51.2442 297.952 51.2442 314.786C51.2442 329.094 42.8433 336.108 31.3621 332.742C43.6834 337.511 53.2044 330.497 53.2044 315.347C52.9244 298.514 41.1631 278.033 26.6016 269.616Z" fill="#D5EEEF"/>
<path opacity="0.2" d="M43.4041 247.452C41.4439 246.33 39.2036 245.208 37.2434 244.366C35.0032 245.769 32.7629 246.891 30.8027 248.013C33.323 248.855 36.1233 249.977 38.9236 251.661C44.2442 254.747 49.5647 259.236 54.0452 264.286C56.0054 263.164 57.9656 262.041 59.6458 260.919C54.8853 255.589 49.2847 250.819 43.4041 247.452Z" fill="#8B9E9E"/>
<path d="M263.508 224.166C262.948 224.446 262.668 224.727 262.108 225.007C261.548 225.288 260.988 225.849 260.428 226.129C260.988 225.849 261.268 225.568 261.828 225.288C261.828 225.288 267.989 221.921 268.829 221.36C269.109 221.079 269.109 221.079 269.389 220.799C267.709 221.921 263.508 224.166 263.508 224.166Z" fill="#D5EEEF"/>
<path d="M369.639 7.85547C371.6 10.661 372.44 14.3083 372.44 17.9556C372.44 28.3362 364.039 37.0335 353.398 37.0335C346.957 37.0335 341.356 33.9473 337.996 29.1779C341.356 34.5085 347.237 38.1557 353.958 38.1557C364.319 38.1557 373 29.739 373 19.0778C373 14.8694 371.88 11.2222 369.639 7.85547Z" fill="#7E9191"/>
</g>
<defs>
<clipPath id="clip0_482_8307">
<rect width="373" height="342" fill="white"/>
</clipPath>
</defs>
</svg>
