<svg width="20" height="20" viewBox="0 0 20 20" fill="none" xmlns="http://www.w3.org/2000/svg">
<path fill-rule="evenodd" clip-rule="evenodd" d="M16.6667 10.8337V15.0003C16.6667 15.6634 16.4033 16.2993 15.9344 16.7681C15.4656 17.2369 14.8297 17.5003 14.1667 17.5003H10.8333V10.8337H16.6667ZM9.16667 10.8337V17.5003H5.83334C5.17029 17.5003 4.53441 17.2369 4.06557 16.7681C3.59673 16.2993 3.33333 15.6634 3.33333 15.0003V10.8337H9.16667ZM7.5 1.66699C7.97299 1.66643 8.44066 1.76679 8.87177 1.96137C9.30288 2.15594 9.68752 2.44026 10 2.79533C10.3125 2.44026 10.6971 2.15594 11.1282 1.96137C11.5593 1.76679 12.027 1.66643 12.5 1.66699H12.9167C13.2482 1.66699 13.5661 1.79869 13.8006 2.03311C14.035 2.26753 14.1667 2.58547 14.1667 2.91699V3.33366C14.1667 3.94116 14.0042 4.51033 13.7208 5.00033H15.8333C16.2754 5.00033 16.6993 5.17592 17.0118 5.48848C17.3244 5.80104 17.5 6.22497 17.5 6.66699V8.33366C17.5 8.63699 17.4192 8.92199 17.2767 9.16699H10.8333V6.66699C10.8333 6.44598 10.7455 6.23402 10.5893 6.07774C10.433 5.92146 10.221 5.83366 10 5.83366C9.77899 5.83366 9.56703 5.92146 9.41075 6.07774C9.25447 6.23402 9.16667 6.44598 9.16667 6.66699V9.16699H2.72333C2.57667 8.91379 2.49962 8.62628 2.5 8.33366V6.66699C2.5 6.22497 2.6756 5.80104 2.98816 5.48848C3.30072 5.17592 3.72464 5.00033 4.16667 5.00033H6.27917C5.98621 4.4938 5.8324 3.91881 5.83334 3.33366V2.91699C5.83334 2.58547 5.96503 2.26753 6.19945 2.03311C6.43387 1.79869 6.75181 1.66699 7.08333 1.66699H7.5ZM7.5 3.33366C7.5 3.77569 7.6756 4.19961 7.98816 4.51217C8.30072 4.82473 8.72464 5.00033 9.16667 5.00033C9.16667 4.5583 8.99107 4.13438 8.67851 3.82182C8.36595 3.50926 7.94203 3.33366 7.5 3.33366ZM12.5 3.33366C12.058 3.33366 11.6341 3.50926 11.3215 3.82182C11.0089 4.13438 10.8333 4.5583 10.8333 5.00033C11.2754 5.00033 11.6993 4.82473 12.0118 4.51217C12.3244 4.19961 12.5 3.77569 12.5 3.33366Z" fill="#2ECC71"/>
</svg>
