<svg width="12" height="12" viewBox="0 0 12 12" fill="none" xmlns="http://www.w3.org/2000/svg">
<path fill-rule="evenodd" clip-rule="evenodd" d="M4.68067 0.356507C5.0202 0.124263 5.42197 0 5.83333 0C6.2447 0 6.64647 0.124263 6.986 0.356507L10.7777 2.95117C11.0516 3.13857 11.2758 3.38992 11.4307 3.68348C11.5856 3.97703 11.6666 4.30392 11.6667 4.63584V9.54634C11.6667 10.0878 11.4516 10.6071 11.0687 10.99C10.6858 11.3729 10.1665 11.588 9.625 11.588H2.04167C1.50018 11.588 0.980877 11.3729 0.59799 10.99C0.215104 10.6071 0 10.0878 0 9.54634V4.63584C8.01175e-05 4.30392 0.0810824 3.97703 0.23599 3.68348C0.390898 3.38992 0.61504 3.13857 0.889 2.95117L4.68067 0.356507ZM4.375 8.96301C4.29765 8.96301 4.22346 8.99374 4.16876 9.04844C4.11406 9.10313 4.08333 9.17732 4.08333 9.25467C4.08333 9.33203 4.11406 9.40622 4.16876 9.46091C4.22346 9.51561 4.29765 9.54634 4.375 9.54634H7.29167C7.36902 9.54634 7.44321 9.51561 7.49791 9.46091C7.55261 9.40622 7.58333 9.33203 7.58333 9.25467C7.58333 9.17732 7.55261 9.10313 7.49791 9.04844C7.44321 8.99374 7.36902 8.96301 7.29167 8.96301H4.375Z" fill="#CE1B22"/>
</svg>
