<svg width="18" height="18" viewBox="0 0 18 18" fill="none" xmlns="http://www.w3.org/2000/svg">
<path d="M8.99935 13.1665C9.23546 13.1665 9.43352 13.0865 9.59352 12.9265C9.75352 12.7665 9.83324 12.5687 9.83268 12.3332V8.99984C9.83268 8.76373 9.75268 8.56567 9.59268 8.40567C9.43268 8.24567 9.23491 8.16595 8.99935 8.1665C8.76324 8.1665 8.56518 8.2465 8.40518 8.40651C8.24518 8.5665 8.16546 8.76428 8.16602 8.99984V12.3332C8.16602 12.5693 8.24602 12.7673 8.40602 12.9273C8.56602 13.0873 8.76379 13.1671 8.99935 13.1665ZM8.99935 6.49984C9.23546 6.49984 9.43352 6.41984 9.59352 6.25984C9.75352 6.09984 9.83324 5.90206 9.83268 5.6665C9.83268 5.43039 9.75268 5.23234 9.59268 5.07234C9.43268 4.91234 9.23491 4.83262 8.99935 4.83317C8.76324 4.83317 8.56518 4.91317 8.40518 5.07317C8.24518 5.23317 8.16546 5.43095 8.16602 5.6665C8.16602 5.90262 8.24602 6.10067 8.40602 6.26067C8.56602 6.42067 8.76379 6.50039 8.99935 6.49984ZM8.99935 17.3332C7.84657 17.3332 6.76324 17.1143 5.74935 16.6765C4.73546 16.2387 3.85352 15.6451 3.10352 14.8957C2.35352 14.1457 1.7599 13.2637 1.32268 12.2498C0.88546 11.2359 0.666571 10.1526 0.666016 8.99984C0.666016 7.84706 0.884905 6.76373 1.32268 5.74984C1.76046 4.73595 2.35407 3.854 3.10352 3.104C3.85352 2.354 4.73546 1.76039 5.74935 1.32317C6.76324 0.885948 7.84657 0.667059 8.99935 0.666504C10.1521 0.666504 11.2355 0.885393 12.2493 1.32317C13.2632 1.76095 14.1452 2.35456 14.8952 3.104C15.6452 3.854 16.2391 4.73595 16.6769 5.74984C17.1146 6.76373 17.3332 7.84706 17.3327 8.99984C17.3327 10.1526 17.1138 11.2359 16.676 12.2498C16.2382 13.2637 15.6446 14.1457 14.8952 14.8957C14.1452 15.6457 13.2632 16.2396 12.2493 16.6773C11.2355 17.1151 10.1521 17.3337 8.99935 17.3332Z" fill="#2ECC71"/>
</svg>
