<svg width="194" height="45" viewBox="0 0 194 45" fill="none" xmlns="http://www.w3.org/2000/svg">
<path d="M147.006 18.1016V9.10498H150.058V18.1016H147.006ZM150.058 39H157.456V23.7046L154.562 21.1045L157.456 18.5044V7.65234L152.951 3.14795H139.609V39H147.006V24.0464H150.058V39ZM161.191 3.14795V39H168.588V3.14795H161.191ZM173.593 18.7974L178.085 23.3506H184.042V33.0552H180.991V25.499H173.593V34.4956L178.085 39H186.936L191.44 34.4956V21.8003L187.143 17.4058H180.991V9.10498H184.042V15.1475H191.44V7.65234L186.936 3.14795H178.085L173.593 7.65234V18.7974Z" fill="#CE1B22"/>
<path d="M2.9585 39H16.3008L20.8052 34.4956V7.65234L16.3008 3.14795H2.9585V39ZM10.356 9.10498H13.4077V33.0552H10.356V9.10498ZM33.2075 18.1016V9.10498H36.2593V18.1016H33.2075ZM36.2593 39H43.6567V23.7046L40.7637 21.1045L43.6567 18.5044V7.65234L39.1523 3.14795H25.8101V39H33.2075V24.0464H36.2593V39ZM57.7925 27.0981H54.7407V9.10498H57.7925V27.0981ZM57.7925 33.0552V39H65.1899V3.14795H51.8354L47.3433 7.55469V33.0552V39H54.7407V33.0552H57.7925ZM79.0938 21.0557V27.0005H80.644V33.0552H77.5923V9.10498H80.644V18.1016H88.0415V7.65234L83.5371 3.14795H74.687L70.1948 7.65234V34.4956L74.687 39H83.5371L88.0415 34.4956V21.0557H79.0938Z" fill="white"/>
<path d="M99.0045 20.4855C99.1264 16.8632 100.56 13.4085 103.039 10.7641L103.031 10.7572L98.7867 6.51299C95.1838 10.2865 93.1201 15.2696 93 20.4855H99.002H99.0045ZM103.765 10.0387C106.409 7.56028 109.863 6.12667 113.486 6.00453C113.485 6.00141 113.485 5.99822 113.486 5.99509V0C108.27 0.120143 103.288 2.18356 99.5147 5.78587L103.758 10.031L103.765 10.0387ZM124.236 31.9604C121.592 34.4394 118.137 35.8734 114.514 35.9955C114.515 35.9986 114.515 36.0018 114.514 36.0049V42C119.732 41.8811 124.716 39.8173 128.49 36.2133L124.246 31.9682L124.236 31.9604ZM113.486 35.9955C109.863 35.8736 106.408 34.4396 103.763 31.9604L103.757 31.9682L99.513 36.2133C103.287 39.8173 108.272 41.8812 113.489 42V36.0049C113.487 36.002 113.486 35.9988 113.486 35.9955ZM103.039 31.235C100.56 28.5909 99.1267 25.1365 99.0045 21.5145H93.0026C93.1207 26.7313 95.1837 31.7158 98.7867 35.4904L103.031 31.2453C103.033 31.2413 103.035 31.2378 103.039 31.235ZM128.995 21.5145C128.874 25.1368 127.44 28.5915 124.961 31.2359C124.964 31.2374 124.967 31.2394 124.969 31.2419L129.213 35.4904C132.817 31.7162 134.881 26.7317 135 21.5145H128.998H128.995ZM124.961 10.765C127.44 13.4091 128.873 16.8635 128.995 20.4855H134.997C134.878 15.2702 132.815 10.2876 129.213 6.51384L124.969 10.7581L124.961 10.765ZM114.514 6.00453C118.137 6.12644 121.592 7.56006 124.236 10.0387L124.243 10.031L128.486 5.78587C124.713 2.18335 119.73 0.119919 114.514 0V5.99509C114.515 5.99822 114.515 6.00141 114.514 6.00453Z" fill="white"/>
<path d="M119.299 18.1491L120.213 19.0597L120.224 19.0704C121.673 20.5272 121.667 22.8833 120.211 24.3329C118.969 25.5689 117.037 25.7807 115.557 24.8431L116.072 27.6023C116.082 27.6564 116.087 27.7115 116.087 27.7666C116.087 28.2605 115.686 28.6606 115.192 28.6603H112.807C112.752 28.6603 112.697 28.6553 112.643 28.6452C112.157 28.5548 111.837 28.0878 111.927 27.6023L112.436 24.8585C110.96 25.7895 109.037 25.577 107.8 24.3463C106.335 22.8886 106.329 20.5195 107.787 19.0546L108.706 18.138L113.182 13.6751C113.632 13.2255 114.362 13.2255 114.812 13.6751L119.299 18.1491Z" fill="#CE1B22"/>
</svg>
