<svg width="16" height="16" viewBox="0 0 16 16" fill="none" xmlns="http://www.w3.org/2000/svg">
<path d="M15.7217 14.3857L13.4636 12.137C14.4957 10.8221 15.0558 9.19842 15.0537 7.52685C15.0537 6.03818 14.6122 4.58294 13.7852 3.34516C12.9581 2.10737 11.7826 1.14264 10.4072 0.57295C9.03189 0.00326124 7.5185 -0.145795 6.05843 0.14463C4.59837 0.435054 3.25721 1.15192 2.20456 2.20456C1.15192 3.25721 0.435054 4.59837 0.14463 6.05843C-0.145795 7.5185 0.00326124 9.03189 0.57295 10.4072C1.14264 11.7826 2.10737 12.9581 3.34516 13.7852C4.58294 14.6122 6.03818 15.0537 7.52685 15.0537C9.19842 15.0558 10.8221 14.4957 12.137 13.4636L14.3857 15.7217C14.4731 15.8099 14.5772 15.8799 14.6919 15.9276C14.8065 15.9754 14.9295 16 15.0537 16C15.1779 16 15.3009 15.9754 15.4155 15.9276C15.5302 15.8799 15.6342 15.8099 15.7217 15.7217C15.8099 15.6342 15.8799 15.5302 15.9276 15.4155C15.9754 15.3009 16 15.1779 16 15.0537C16 14.9295 15.9754 14.8065 15.9276 14.6919C15.8799 14.5772 15.8099 14.4731 15.7217 14.3857ZM1.88171 7.52685C1.88171 6.41034 2.2128 5.31892 2.83309 4.39058C3.45339 3.46224 4.33503 2.73869 5.36655 2.31142C6.39806 1.88416 7.53311 1.77236 8.62816 1.99018C9.7232 2.208 10.7291 2.74565 11.5186 3.53514C12.308 4.32462 12.8457 5.33049 13.0635 6.42554C13.2813 7.52058 13.1695 8.65563 12.7423 9.68714C12.315 10.7187 11.5915 11.6003 10.6631 12.2206C9.73478 12.8409 8.64335 13.172 7.52685 13.172C6.02966 13.172 4.5938 12.5772 3.53514 11.5186C2.47647 10.4599 1.88171 9.02403 1.88171 7.52685Z" fill="black"/>
</svg>
