<svg width="20" height="20" viewBox="0 0 20 20" fill="none" xmlns="http://www.w3.org/2000/svg">
<path d="M12.7099 2.1557L15.4402 3.73205L16.7962 2.3761L13.2062 0.303436L12.7099 2.1557ZM8.42489 1.85227H11.5775L12.0738 0H7.92857L8.42489 1.85227ZM4.56221 3.73205L7.2925 2.1557L6.79618 0.303436L3.20626 2.3761L4.56221 3.73205ZM2.15688 7.29125L3.73326 4.561L2.37731 3.20505L0.304688 6.79493L2.15688 7.29125ZM17.6251 3.20505L16.2692 4.561L17.8455 7.29125L19.6977 6.79493L17.6251 3.20505ZM10.0012 6.89434L8.98354 8.95634L6.70799 9.28701L8.35463 10.892L7.96589 13.1584L10.0012 12.0884L12.0365 13.1584L11.6478 10.892L13.2944 9.28701L11.0188 8.95634L10.0012 6.89434Z" fill="#2E3066"/>
<path d="M16.9754 8.13102L15.1063 4.89369L11.869 3.02466H8.13091L4.89358 4.89369L3.02451 8.13102V11.8691L4.89358 15.1064L8.13091 16.9754H11.869L15.1063 15.1064L16.9754 11.8691V8.13102ZM14.7798 9.47508L12.9062 11.3014L13.4101 14.2393L12.6384 14.8L9.99998 13.4129L7.36159 14.8L6.58981 14.2393L7.09376 11.3014L4.95919 9.22077L5.25395 8.31355L8.20383 7.88491L9.52304 5.21186H10.4769L11.7961 7.88491L14.7459 8.31351L15.0401 9.21897L14.7798 9.47508ZM3.73201 15.4391L2.15563 12.7088L0.303436 13.2051L2.37606 16.795L3.73201 15.4391ZM17.8443 12.7088L16.2679 15.4391L17.6239 16.795L19.6965 13.2051L17.8443 12.7088ZM15.439 16.268L12.7087 17.8444L13.205 19.6966L16.7949 17.624L15.439 16.268ZM18.1477 8.42375V11.5764L19.9999 12.0727V7.92742L18.1477 8.42375ZM7.29125 17.8444L4.56096 16.268L3.20501 17.624L6.79493 19.6966L7.29125 17.8444ZM1.85219 11.5764V8.42375L0 7.92742V12.0727L1.85219 11.5764ZM11.5763 18.1478H8.42364L7.92732 20.0001H12.0726L11.5763 18.1478Z" fill="#2E3066"/>
</svg>
