<svg width="20" height="14" viewBox="0 0 20 14" fill="none" xmlns="http://www.w3.org/2000/svg">
<path d="M18.8288 2.31128H18.6829V10.2547C18.6829 11.547 17.6315 12.5984 16.3391 12.5984H2.49023V12.7443C2.49023 13.3915 3.01488 13.9162 3.66211 13.9162H18.8288C19.476 13.9162 20.0006 13.3915 20.0006 12.7443V3.48315C20.0006 2.83593 19.476 2.31128 18.8288 2.31128Z" fill="#2E3066"/>
<path d="M17.5104 10.2547V1.25586C17.5104 0.608672 16.9857 0.0839844 16.3385 0.0839844H1.17188C0.524648 0.0839844 0 0.608672 0 1.25586V10.2547C0 10.9019 0.524648 11.4266 1.17188 11.4266H16.3385C16.9857 11.4266 17.5104 10.902 17.5104 10.2547ZM1.86723 2.10922H4.90195V3.28109H1.86723V2.10922ZM6.2 5.7707H1.86723V4.59883H6.2V5.7707ZM15.6067 9.52293H14.4348V8.35106H15.6067V9.52293Z" fill="#2E3066"/>
</svg>
