<svg width="20" height="20" viewBox="0 0 20 20" fill="none" xmlns="http://www.w3.org/2000/svg">
<path d="M0 19.5297H20V9.64498H0V19.5297ZM13.7697 11.7136H18.028V12.9751L16.8884 14.7566C16.429 15.4739 16.185 16.3079 16.1855 17.1597V17.6344H15.0136V17.1597C15.0136 16.0821 15.3205 15.0328 15.9012 14.1251L16.6943 12.8854H14.9416V14.0223H13.7697V11.7136ZM7.87082 11.7136H12.1292V12.9751L10.9896 14.7566C10.5302 15.4739 10.2862 16.3079 10.2866 17.1597V17.6344H9.11477V17.1597C9.11477 16.0822 9.42168 15.0328 10.0024 14.1251L10.7954 12.8854H9.04266V14.0223H7.87078L7.87082 11.7136ZM1.89379 11.7136H6.15215V12.9751L5.0125 14.7566C4.5531 15.4739 4.30915 16.3079 4.30961 17.1597V17.6344H3.13773V17.1597C3.13773 16.0821 3.44465 15.0328 4.02535 14.1251L4.81836 12.8854H3.06566V14.0223H1.89379V11.7136ZM1.15637 7.98701L3.02738 7.56205L4.8984 7.98701L5.07242 6.07623L6.05473 4.42807L4.29129 3.67209L3.02738 2.22857L1.76348 3.67209L0 4.42807L0.982305 6.07623L1.15637 7.98701ZM8.12898 6.22865L10 5.80369L11.871 6.22865L12.0451 4.31787L13.0274 2.66978L11.2639 1.91377L10 0.470215L8.73609 1.91377L6.97262 2.66978L7.95492 4.31787L8.12898 6.22865ZM15.1016 7.98701L16.9726 7.56205L18.8436 7.98701L19.0177 6.07623L20 4.42807L18.2365 3.67209L16.9726 2.22857L15.7087 3.67209L13.9453 4.42807L14.9276 6.07623L15.1016 7.98701Z" fill="#2E3066"/>
</svg>
