<svg width="40" height="40" viewBox="0 0 40 40" fill="none" xmlns="http://www.w3.org/2000/svg">
<path d="M37.3943 8.80689V8.75769C36.893 6.39606 35.0384 4.47724 32.6324 3.88684L19.7501 0.196802H19.7C19.1988 0.0492005 18.6474 0 18.1461 0C16.8429 0 15.6399 0.393604 14.5872 1.08241C14.5872 1.08241 14.5371 1.08241 14.5371 1.13161L2.65741 9.6433C0.55215 11.0701 -0.450357 13.5793 0.151147 16.0394L3.65992 30.7503C4.16117 32.8659 5.81531 34.6371 7.9707 35.326L20.0509 39.7048H20.101C20.7526 39.9016 21.4043 40 22.106 40C23.4594 40 24.8128 39.5572 25.9156 38.77L25.9657 38.7208L37.5948 29.2743C39.4494 27.8475 40.3517 25.4859 39.9005 23.2226L37.3943 8.80689ZM32.0308 20.7626C31.9807 20.4674 31.8303 20.1722 31.68 19.9754C31.5797 19.877 31.4795 19.7786 31.4293 19.7294C31.3792 19.6802 31.3291 19.6802 31.2288 19.631C31.1787 19.631 31.1286 19.5818 31.0283 19.5818C30.5271 19.4834 30.076 19.6802 29.7752 19.877C29.4745 20.0246 29.3241 20.1722 29.3241 20.1722C29.3241 20.1722 29.3742 20.123 29.4243 20.0738C29.4745 20.0246 29.5747 19.877 29.675 19.7786C29.7752 19.6802 29.9757 19.5326 30.1762 19.385C30.3767 19.2866 30.6775 19.139 31.0283 19.1882C31.1286 19.1882 31.1787 19.1882 31.279 19.2374C31.4293 19.2866 31.4293 19.2866 31.5296 19.3358C31.7301 19.4342 31.8805 19.5326 32.0308 19.6802C32.3316 19.9754 32.5321 20.3198 32.6324 20.7134C32.883 21.5006 32.7827 22.337 32.5822 23.1242C32.5321 23.3702 32.482 23.4686 32.3817 23.7146C32.2815 23.9114 32.1812 24.1082 32.081 24.2558C31.8805 24.6002 31.5797 24.8954 31.3291 25.1907C31.0283 25.4367 30.6775 25.6827 30.3266 25.7811C29.9757 25.8795 29.5747 25.8795 29.2238 25.7319C28.9231 25.5843 28.6724 25.3875 28.5722 25.1414C28.4218 24.9446 28.3717 24.6986 28.3216 24.551C28.2714 24.4034 28.2714 24.2558 28.2714 24.1574C28.2714 24.059 28.2714 24.0098 28.2714 24.0098C28.2714 24.0098 28.3216 24.2066 28.4719 24.5018C28.6223 24.797 28.9231 25.1907 29.4243 25.2891C29.6248 25.3383 29.9256 25.2891 30.1762 25.1907C30.4268 25.0923 30.6775 24.8954 30.9281 24.6494C31.1787 24.4034 31.3291 24.1574 31.5296 23.813C31.6298 23.6654 31.68 23.5178 31.7802 23.3702C31.8303 23.2226 31.9306 23.0258 31.9807 22.8782C32.081 22.1402 32.1311 21.4022 32.0308 20.7626ZM20.6023 38.1796L8.52207 33.8007C6.91806 33.3087 5.66493 31.9803 5.31405 30.4059L1.80528 15.695C1.35415 13.8745 2.10603 12.0049 3.65992 10.9717L15.4895 2.41082C16.2414 1.86962 17.1938 1.62362 18.096 1.62362C18.497 1.62362 18.898 1.67282 19.2489 1.77122C19.2489 1.77122 21.304 2.16482 24.4118 2.90283C25.9657 3.24723 27.7201 3.73924 29.675 4.23124C30.6273 4.47724 31.6298 4.72325 32.6324 5.01845C33.7351 5.36285 34.7376 6.05166 35.4394 6.98647C35.7902 7.47847 36.0409 7.97048 36.1912 8.56089C36.2414 8.70849 36.2414 8.75769 36.2915 9.00369L36.3416 9.39729C36.3918 9.6433 36.4419 9.8893 36.492 10.1353C36.6424 11.1193 36.7928 12.1525 36.9431 13.0873C37.2439 15.0061 37.4945 16.8266 37.695 18.3518C38.096 21.4514 38.2464 23.5178 38.2464 23.5178C38.2464 23.5178 37.695 21.5006 37.0434 18.4502C36.6925 16.925 36.3416 15.1538 35.9907 13.2349C35.7902 12.3001 35.5897 11.3161 35.4394 10.2829C35.3892 10.0369 35.3391 9.7909 35.289 9.5449L35.2389 9.15129C35.2389 9.10209 35.1887 8.90529 35.1386 8.80689C34.9882 8.41328 34.7877 7.97048 34.5371 7.57688C34.2865 7.23247 33.9857 6.93727 33.685 6.69127L22.106 14.9569C19.5496 16.7774 17.4945 16.6298 16.2915 16.433L2.55716 13.8253L15.5396 18.401C16.7928 18.8438 18.9481 19.6802 19.4995 22.1402C19.4995 22.1894 19.4995 22.2386 19.5496 22.2878L22.9582 38.3272C22.6574 38.3764 22.4068 38.3764 22.106 38.3764C21.6048 38.3764 21.1035 38.3272 20.6023 38.1796Z" fill="#2ECC71"/>
<path d="M18.3468 12.0537C16.8431 12.3489 15.7403 13.2345 15.8907 13.9725C16.0411 14.7105 17.3944 15.1041 18.8982 14.7597C20.402 14.4645 21.5047 13.5789 21.3543 12.8409C21.204 12.1029 19.8506 11.7585 18.3468 12.0537Z" fill="#2ECC71"/>
<path d="M18.3962 10.3809C19.9 10.0857 21.0028 9.20012 20.8524 8.46211C20.702 7.72411 19.3486 7.3305 17.8449 7.6749C16.3411 7.97011 15.2383 8.85572 15.3887 9.59372C15.5391 10.3317 16.8925 10.6761 18.3962 10.3809Z" fill="#2ECC71"/>
<path d="M17.8962 5.9532C19.4 5.65799 20.5028 4.77239 20.3524 4.03438C20.202 3.29637 18.8486 2.90277 17.3449 3.24717C15.8411 3.54237 14.7383 4.42798 14.8887 5.16599C15.0391 5.904 16.3925 6.2976 17.8962 5.9532Z" fill="#2ECC71"/>
<path d="M6.41719 18.3028C5.61519 17.1219 4.41218 16.5315 3.81068 16.9251C3.20917 17.3188 3.40968 18.598 4.21168 19.7788C5.01369 20.9596 6.21669 21.55 6.8182 21.1564C7.4197 20.7628 7.2192 19.4836 6.41719 18.3028Z" fill="#2ECC71"/>
<path d="M15.8899 21.3037C15.0878 20.1229 13.8848 19.5325 13.2833 19.9261C12.6818 20.3197 12.8823 21.5989 13.6843 22.7798C14.4863 23.9606 15.6893 24.551 16.2909 24.1574C16.8924 23.7638 16.742 22.4845 15.8899 21.3037Z" fill="#2ECC71"/>
<path d="M10.0255 24.0589C9.42402 24.4525 9.62452 25.7317 10.4265 26.9125C11.2285 28.0933 12.4315 28.6837 13.033 28.2901C13.6345 27.8965 13.434 26.6173 12.632 25.4365C11.7799 24.2557 10.627 23.6161 10.0255 24.0589Z" fill="#2ECC71"/>
<path d="M6.6681 27.9954C6.0666 28.389 6.2671 29.6682 7.0691 30.849C7.87111 32.0299 9.07412 32.6203 9.67562 32.2267C10.2771 31.8331 10.0766 30.5538 9.27462 29.373C8.42249 28.2414 7.2696 27.6018 6.6681 27.9954Z" fill="#2ECC71"/>
<path d="M16.3927 31.3411C15.7912 31.7347 15.9917 33.0139 16.7937 34.1947C17.5957 35.3755 18.7987 35.9659 19.4002 35.5723C20.0017 35.1787 19.8012 33.8995 18.9992 32.7187C18.1471 31.5379 16.9942 30.8983 16.3927 31.3411Z" fill="#2ECC71"/>
</svg>
