<svg width="40" height="40" viewBox="0 0 40 40" fill="none" xmlns="http://www.w3.org/2000/svg">
<g clip-path="url(#clip0_482_20922)">
<path d="M37.3923 8.80689V8.75769C36.891 6.39606 35.0364 4.47724 32.6304 3.88684L19.7482 0.196802H19.6981C19.1968 0.0492005 18.6454 0 18.1442 0C16.8409 0 15.6379 0.393604 14.5853 1.08241C14.5853 1.08241 14.5352 1.08241 14.5352 1.13161L2.65546 9.6433C0.550197 11.0701 -0.45231 13.5793 0.149194 16.0394L3.65797 30.7503C4.15922 32.8659 5.81335 34.6371 7.96874 35.326L20.0489 39.7048H20.0991C20.7507 39.9016 21.4023 40 22.1041 40C23.4575 40 24.8108 39.5572 25.9136 38.77L25.9637 38.7208L37.5928 29.2743C39.4474 27.8475 40.3497 25.4859 39.8986 23.2226L37.3923 8.80689ZM32.0289 20.7626C31.9788 20.4674 31.8284 20.1722 31.678 19.9754C31.5778 19.877 31.4775 19.7786 31.4274 19.7294C31.3773 19.6802 31.3271 19.6802 31.2269 19.631C31.1768 19.631 31.1266 19.5818 31.0264 19.5818C30.5251 19.4834 30.074 19.6802 29.7733 19.877C29.4725 20.0246 29.3221 20.1722 29.3221 20.1722C29.3221 20.1722 29.3723 20.123 29.4224 20.0738C29.4725 20.0246 29.5728 19.877 29.673 19.7786C29.7733 19.6802 29.9738 19.5326 30.1743 19.385C30.3748 19.2866 30.6755 19.139 31.0264 19.1882C31.1266 19.1882 31.1768 19.1882 31.277 19.2374C31.4274 19.2866 31.4274 19.2866 31.5276 19.3358C31.7281 19.4342 31.8785 19.5326 32.0289 19.6802C32.3296 19.9754 32.5301 20.3198 32.6304 20.7134C32.881 21.5006 32.7808 22.337 32.5803 23.1242C32.5301 23.3702 32.48 23.4686 32.3798 23.7146C32.2795 23.9114 32.1793 24.1082 32.079 24.2558C31.8785 24.6002 31.5778 24.8954 31.3271 25.1907C31.0264 25.4367 30.6755 25.6827 30.3246 25.7811C29.9738 25.8795 29.5728 25.8795 29.2219 25.7319C28.9211 25.5843 28.6705 25.3875 28.5702 25.1414C28.4199 24.9446 28.3697 24.6986 28.3196 24.551C28.2695 24.4034 28.2695 24.2558 28.2695 24.1574C28.2695 24.059 28.2695 24.0098 28.2695 24.0098C28.2695 24.0098 28.3196 24.2066 28.47 24.5018C28.6204 24.797 28.9211 25.1907 29.4224 25.2891C29.6229 25.3383 29.9236 25.2891 30.1743 25.1907C30.4249 25.0923 30.6755 24.8954 30.9261 24.6494C31.1768 24.4034 31.3271 24.1574 31.5276 23.813C31.6279 23.6654 31.678 23.5178 31.7783 23.3702C31.8284 23.2226 31.9286 23.0258 31.9788 22.8782C32.079 22.1402 32.1291 21.4022 32.0289 20.7626ZM20.6003 38.1796L8.52012 33.8007C6.91611 33.3087 5.66298 31.9803 5.3121 30.4059L1.80333 15.695C1.3522 13.8745 2.10408 12.0049 3.65797 10.9717L15.4875 2.41082C16.2394 1.86962 17.1918 1.62362 18.0941 1.62362C18.4951 1.62362 18.8961 1.67282 19.2469 1.77122C19.2469 1.77122 21.3021 2.16482 24.4098 2.90283C25.9637 3.24723 27.7181 3.73924 29.673 4.23124C30.6254 4.47724 31.6279 4.72325 32.6304 5.01845C33.7332 5.36285 34.7357 6.05166 35.4374 6.98647C35.7883 7.47847 36.0389 7.97048 36.1893 8.56089C36.2394 8.70849 36.2394 8.75769 36.2895 9.00369L36.3397 9.39729C36.3898 9.6433 36.4399 9.8893 36.49 10.1353C36.6404 11.1193 36.7908 12.1525 36.9412 13.0873C37.2419 15.0061 37.4926 16.8266 37.6931 18.3518C38.0941 21.4514 38.2444 23.5178 38.2444 23.5178C38.2444 23.5178 37.6931 21.5006 37.0414 18.4502C36.6905 16.925 36.3397 15.1538 35.9888 13.2349C35.7883 12.3001 35.5878 11.3161 35.4374 10.2829C35.3873 10.0369 35.3372 9.7909 35.287 9.5449L35.2369 9.15129C35.2369 9.10209 35.1868 8.90529 35.1367 8.80689C34.9863 8.41328 34.7858 7.97048 34.5352 7.57688C34.2845 7.23247 33.9838 6.93727 33.683 6.69127L22.1041 14.9569C19.5477 16.7774 17.4926 16.6298 16.2895 16.433L2.55521 13.8253L15.5377 18.401C16.7908 18.8438 18.9462 19.6802 19.4976 22.1402C19.4976 22.1894 19.4976 22.2386 19.5477 22.2878L22.9562 38.3272C22.6555 38.3764 22.4048 38.3764 22.1041 38.3764C21.6028 38.3764 21.1016 38.3272 20.6003 38.1796Z" fill="#D52B83"/>
<path d="M18.3449 12.0537C16.8411 12.3489 15.7383 13.2345 15.8887 13.9725C16.0391 14.7105 17.3925 15.1041 18.8962 14.7597C20.4 14.4645 21.5028 13.5789 21.3524 12.8409C21.202 12.1029 19.8486 11.7585 18.3449 12.0537Z" fill="#D52B83"/>
<path d="M18.3962 10.3809C19.9 10.0857 21.0028 9.20012 20.8524 8.46211C20.702 7.72411 19.3486 7.3305 17.8449 7.6749C16.3411 7.97011 15.2383 8.85572 15.3887 9.59372C15.5391 10.3317 16.8925 10.6761 18.3962 10.3809Z" fill="#D52B83"/>
<path d="M17.8962 5.9532C19.4 5.65799 20.5028 4.77239 20.3524 4.03438C20.202 3.29637 18.8486 2.90277 17.3449 3.24717C15.8411 3.54237 14.7383 4.42798 14.8887 5.16599C15.0391 5.904 16.3925 6.2976 17.8962 5.9532Z" fill="#D52B83"/>
<path d="M6.41329 18.3028C5.61128 17.1219 4.40828 16.5315 3.80677 16.9251C3.20527 17.3188 3.40577 18.598 4.20777 19.7788C5.00978 20.9596 6.21279 21.55 6.81429 21.1564C7.4158 20.7628 7.21529 19.4836 6.41329 18.3028Z" fill="#D52B83"/>
<path d="M15.8859 21.3037C15.0839 20.1229 13.8809 19.5325 13.2794 19.9261C12.6779 20.3197 12.8784 21.5989 13.6804 22.7798C14.4824 23.9606 15.6854 24.551 16.2869 24.1574C16.8885 23.7638 16.7381 22.4845 15.8859 21.3037Z" fill="#D52B83"/>
<path d="M10.0216 24.0589C9.42011 24.4525 9.62061 25.7317 10.4226 26.9125C11.2246 28.0933 12.4276 28.6837 13.0291 28.2901C13.6306 27.8965 13.4301 26.6173 12.6281 25.4365C11.776 24.2557 10.6231 23.6161 10.0216 24.0589Z" fill="#D52B83"/>
<path d="M6.66615 27.9954C6.06464 28.389 6.26514 29.6682 7.06715 30.849C7.86915 32.0299 9.07216 32.6203 9.67367 32.2267C10.2752 31.8331 10.0747 30.5538 9.27266 29.373C8.42053 28.2414 7.26765 27.6018 6.66615 27.9954Z" fill="#D52B83"/>
<path d="M16.3888 31.3411C15.7873 31.7347 15.9878 33.0139 16.7898 34.1947C17.5918 35.3755 18.7948 35.9659 19.3963 35.5723C19.9978 35.1787 19.7973 33.8995 18.9953 32.7187C18.1432 31.5379 16.9903 30.8983 16.3888 31.3411Z" fill="#D52B83"/>
</g>
<defs>
<clipPath id="clip0_482_20922">
<rect width="40" height="40" fill="white"/>
</clipPath>
</defs>
</svg>
