<svg width="19" height="20" viewBox="0 0 19 20" fill="none" xmlns="http://www.w3.org/2000/svg">
<path d="M4.6875 5.85938C5.58242 5.85938 6.3707 5.61508 7.02164 5.30336C6.36078 6.5468 5.9648 7.98617 5.88625 9.47055C3.24387 9.75414 1.17188 11.9709 1.17188 14.6875C1.17188 17.5954 3.53746 20 6.44531 20C7.34117 20 8.1993 19.7477 8.96895 19.3254C7.775 18.1549 7.03125 16.4877 7.03125 14.6875C7.03125 12.8873 7.775 11.2591 8.96895 10.0887C8.37633 9.76348 7.73055 9.54238 7.05629 9.45648C7.31109 5.31496 10.4388 1.89879 14.4716 1.27547C13.4445 2.71742 12.8906 4.43801 12.8906 6.24453V9.47332C10.2611 9.76914 8.20312 11.9801 8.20312 14.6875C8.20312 17.5954 10.5687 20 13.4766 20C16.3844 20 18.75 17.5954 18.75 14.6875C18.75 11.9801 16.692 9.76914 14.0625 9.47328V6.24449C14.0625 4.26348 14.8338 2.40098 16.2346 1.0002L17.2348 0H15.8203C13.0682 0 10.574 1.12227 8.76937 2.93258C8.29559 2.47773 6.77641 1.17188 4.6875 1.17188C2.21559 1.17188 0.524141 3.01375 0.442344 3.09219L0 3.51562L0.442344 3.93906C0.524141 4.0175 2.21563 5.85938 4.6875 5.85938ZM13.4766 12.9297C12.5073 12.9297 11.7188 13.7183 11.7188 14.6875H10.5469C10.5469 13.0722 11.8612 11.7578 13.4766 11.7578V12.9297ZM6.44531 12.9297C5.47605 12.9297 4.6875 13.7183 4.6875 14.6875H3.51562C3.51562 13.0722 4.83 11.7578 6.44531 11.7578V12.9297Z" fill="white"/>
</svg>
