<svg width="14" height="14" viewBox="0 0 14 14" fill="none" xmlns="http://www.w3.org/2000/svg">
<path d="M13.7565 12.5875L11.7807 10.6199C12.6838 9.46938 13.1738 8.04862 13.172 6.58599C13.172 5.28341 12.7857 4.01007 12.062 2.92701C11.3384 1.84395 10.3098 0.999809 9.10634 0.501331C7.90291 0.00285358 6.57868 -0.127571 5.30113 0.126551C4.02357 0.380673 2.85006 1.00793 1.92899 1.92899C1.00793 2.85006 0.380673 4.02357 0.126551 5.30113C-0.127571 6.57868 0.00285358 7.90291 0.501331 9.10634C0.999809 10.3098 1.84395 11.3384 2.92701 12.062C4.01007 12.7857 5.28341 13.172 6.58599 13.172C8.04862 13.1738 9.46938 12.6838 10.6199 11.7807L12.5875 13.7565C12.664 13.8336 12.7551 13.8949 12.8554 13.9367C12.9557 13.9785 13.0633 14 13.172 14C13.2807 14 13.3883 13.9785 13.4886 13.9367C13.5889 13.8949 13.68 13.8336 13.7565 13.7565C13.8336 13.68 13.8949 13.5889 13.9367 13.4886C13.9785 13.3883 14 13.2807 14 13.172C14 13.0633 13.9785 12.9557 13.9367 12.8554C13.8949 12.7551 13.8336 12.664 13.7565 12.5875ZM1.6465 6.58599C1.6465 5.60905 1.9362 4.65405 2.47895 3.84176C3.02171 3.02946 3.79316 2.39635 4.69573 2.0225C5.5983 1.64864 6.59147 1.55082 7.54964 1.74141C8.5078 1.932 9.38794 2.40244 10.0787 3.09324C10.7695 3.78404 11.24 4.66418 11.4306 5.62234C11.6212 6.58051 11.5233 7.57368 11.1495 8.47625C10.7756 9.37883 10.1425 10.1503 9.33022 10.693C8.51793 11.2358 7.56293 11.5255 6.58599 11.5255C5.27596 11.5255 4.01958 11.0051 3.09324 10.0787C2.16691 9.1524 1.6465 7.89603 1.6465 6.58599Z" fill="black"/>
</svg>
