<svg width="20" height="14" viewBox="0 0 20 14" fill="none" xmlns="http://www.w3.org/2000/svg">
<path d="M18.8288 2.31152H18.6829V10.2549C18.6829 11.5473 17.6315 12.5987 16.3391 12.5987H2.49023V12.7445C2.49023 13.3918 3.01488 13.9164 3.66211 13.9164H18.8288C19.476 13.9164 20.0006 13.3918 20.0006 12.7445V3.4834C20.0006 2.83617 19.476 2.31152 18.8288 2.31152Z" fill="white"/>
<path d="M17.5104 10.2547V1.25586C17.5104 0.608672 16.9857 0.0839844 16.3385 0.0839844H1.17188C0.524648 0.0839844 0 0.608672 0 1.25586V10.2547C0 10.9019 0.524648 11.4266 1.17188 11.4266H16.3385C16.9857 11.4266 17.5104 10.902 17.5104 10.2547ZM1.86723 2.10922H4.90195V3.28109H1.86723V2.10922ZM6.2 5.7707H1.86723V4.59883H6.2V5.7707ZM15.6067 9.52293H14.4348V8.35106H15.6067V9.52293Z" fill="white"/>
</svg>
