<svg width="20" height="20" viewBox="0 0 20 20" fill="none" xmlns="http://www.w3.org/2000/svg">
<path d="M0 19.5302H20V9.64547H0V19.5302ZM13.7697 11.7141H18.028V12.9756L16.8884 14.7571C16.429 15.4744 16.185 16.3084 16.1855 17.1602V17.6349H15.0136V17.1602C15.0136 16.0826 15.3205 15.0333 15.9012 14.1256L16.6943 12.8859H14.9416V14.0228H13.7697V11.7141ZM7.87082 11.7141H12.1292V12.9756L10.9896 14.7571C10.5302 15.4744 10.2862 16.3084 10.2866 17.1602V17.6349H9.11477V17.1602C9.11477 16.0827 9.42168 15.0333 10.0024 14.1256L10.7954 12.8859H9.04266V14.0228H7.87078L7.87082 11.7141ZM1.89379 11.7141H6.15215V12.9756L5.0125 14.7571C4.5531 15.4744 4.30915 16.3084 4.30961 17.1602V17.6349H3.13773V17.1602C3.13773 16.0826 3.44465 15.0333 4.02535 14.1256L4.81836 12.8859H3.06566V14.0228H1.89379V11.7141ZM1.15637 7.9875L3.02738 7.56254L4.8984 7.9875L5.07242 6.07672L6.05473 4.42855L4.29129 3.67258L3.02738 2.22906L1.76348 3.67258L0 4.42855L0.982305 6.07672L1.15637 7.9875ZM8.12898 6.22914L10 5.80418L11.871 6.22914L12.0451 4.31836L13.0274 2.67027L11.2639 1.91426L10 0.470703L8.73609 1.91426L6.97262 2.67027L7.95492 4.31836L8.12898 6.22914ZM15.1016 7.9875L16.9726 7.56254L18.8436 7.9875L19.0177 6.07672L20 4.42855L18.2365 3.67258L16.9726 2.22906L15.7087 3.67258L13.9453 4.42855L14.9276 6.07672L15.1016 7.9875Z" fill="white"/>
</svg>
