<svg width="16" height="17" viewBox="0 0 16 17" fill="none" xmlns="http://www.w3.org/2000/svg">
<path fill-rule="evenodd" clip-rule="evenodd" d="M14.6667 9.83366V14.0003C14.6667 14.6634 14.4033 15.2993 13.9344 15.7681C13.4656 16.2369 12.8297 16.5003 12.1667 16.5003H8.83333V9.83366H14.6667ZM7.16667 9.83366V16.5003H3.83334C3.17029 16.5003 2.53441 16.2369 2.06557 15.7681C1.59673 15.2993 1.33333 14.6634 1.33333 14.0003V9.83366H7.16667ZM5.5 0.666995C5.97299 0.666433 6.44066 0.766791 6.87177 0.961367C7.30288 1.15594 7.68752 1.44026 8 1.79533C8.31248 1.44026 8.69712 1.15594 9.12823 0.961367C9.55935 0.766791 10.027 0.666433 10.5 0.666995H10.9167C11.2482 0.666995 11.5661 0.798691 11.8006 1.03311C12.035 1.26753 12.1667 1.58547 12.1667 1.91699V2.33366C12.1667 2.94116 12.0042 3.51033 11.7208 4.00033H13.8333C14.2754 4.00033 14.6993 4.17592 15.0118 4.48848C15.3244 4.80104 15.5 5.22497 15.5 5.66699V7.33366C15.5 7.63699 15.4192 7.92199 15.2767 8.16699H8.83333V5.66699C8.83333 5.44598 8.74554 5.23402 8.58926 5.07774C8.43298 4.92146 8.22102 4.83366 8 4.83366C7.77899 4.83366 7.56703 4.92146 7.41075 5.07774C7.25447 5.23402 7.16667 5.44598 7.16667 5.66699V8.16699H0.723335C0.576672 7.91379 0.49962 7.62628 0.500001 7.33366V5.66699C0.500001 5.22497 0.675596 4.80104 0.988157 4.48848C1.30072 4.17592 1.72464 4.00033 2.16667 4.00033H4.27917C3.98621 3.4938 3.8324 2.91881 3.83334 2.33366V1.91699C3.83334 1.58547 3.96503 1.26753 4.19945 1.03311C4.43387 0.798691 4.75181 0.666995 5.08333 0.666995H5.5ZM5.5 2.33366C5.5 2.77569 5.6756 3.19961 5.98816 3.51217C6.30072 3.82473 6.72464 4.00033 7.16667 4.00033C7.16667 3.5583 6.99107 3.13438 6.67851 2.82182C6.36595 2.50926 5.94203 2.33366 5.5 2.33366ZM10.5 2.33366C10.058 2.33366 9.63405 2.50926 9.32149 2.82182C9.00893 3.13438 8.83333 3.5583 8.83333 4.00033C9.27536 4.00033 9.69929 3.82473 10.0118 3.51217C10.3244 3.19961 10.5 2.77569 10.5 2.33366Z" fill="#2ECC71"/>
</svg>
