<svg width="18" height="16" viewBox="0 0 18 16" fill="none" xmlns="http://www.w3.org/2000/svg">
<path d="M9 0.6875C13.4655 0.6875 17.0625 3.9815 17.0625 8C17.0625 12.0185 13.4655 15.3125 9 15.3125C7.9365 15.3125 6.921 15.125 5.9925 14.786L5.99025 14.7853C5.95955 14.7741 5.92649 14.771 5.89425 14.7762L2.71725 15.305C2.63018 15.3197 2.54089 15.3136 2.45661 15.2873C2.37234 15.261 2.29545 15.2152 2.23218 15.1536C2.16892 15.092 2.12106 15.0164 2.09249 14.9328C2.06392 14.8493 2.05545 14.7602 2.06775 14.6727L2.39925 12.287C2.40264 12.2623 2.40106 12.2372 2.39462 12.2131C2.38819 12.189 2.37701 12.1665 2.36175 12.1467L2.35875 12.143C1.46025 10.964 0.9375 9.53675 0.9375 8C0.9375 3.9815 4.5345 0.6875 9 0.6875ZM5.9775 8.3975L7.72725 10.148C7.77949 10.2003 7.84151 10.2417 7.90978 10.27C7.97805 10.2983 8.05123 10.3129 8.12512 10.3129C8.19902 10.3129 8.2722 10.2983 8.34047 10.27C8.40874 10.2417 8.47076 10.2003 8.523 10.148L12.0225 6.64775C12.125 6.54171 12.1818 6.39965 12.1806 6.25216C12.1794 6.10467 12.1203 5.96356 12.016 5.85922C11.9118 5.75488 11.7707 5.69566 11.6232 5.69431C11.4758 5.69295 11.3336 5.74958 11.2275 5.852L8.12475 8.95475L6.7725 7.6025C6.7203 7.5503 6.65833 7.50889 6.59013 7.48064C6.52192 7.45239 6.44882 7.43785 6.375 7.43785C6.30118 7.43785 6.22808 7.45239 6.15987 7.48064C6.09167 7.50889 6.0297 7.5503 5.9775 7.6025C5.9253 7.6547 5.88389 7.71667 5.85564 7.78487C5.82739 7.85308 5.81285 7.92618 5.81285 8C5.81285 8.07382 5.82739 8.14692 5.85564 8.21513C5.88389 8.28333 5.9253 8.3453 5.9775 8.3975Z" fill="#2ECC71"/>
</svg>
