<svg width="31" height="31" viewBox="0 0 31 31" fill="none" xmlns="http://www.w3.org/2000/svg">
<path d="M15.0078 30.0044C6.72331 30.0044 0.0078125 23.2889 0.0078125 15.0044C0.0078125 6.71989 6.72331 0.00439453 15.0078 0.00439453C23.2923 0.00439453 30.0078 6.71989 30.0078 15.0044C30.0078 23.2889 23.2923 30.0044 15.0078 30.0044ZM12.0828 13.5044C12.2128 12.8664 12.5066 12.2732 12.9353 11.7833C13.3641 11.2933 13.9131 10.9234 14.5282 10.71C15.1433 10.4966 15.8034 10.447 16.4435 10.5661C17.0836 10.6852 17.6817 10.969 18.1788 11.3894L20.7288 9.68989C19.8527 8.73553 18.7204 8.05348 17.4671 7.72515C16.2138 7.39682 14.8926 7.4361 13.661 7.83828C12.4295 8.24047 11.3397 8.98857 10.5218 9.99329C9.70385 10.998 9.19234 12.2169 9.04831 13.5044H7.50781V16.5044H9.04831C9.19209 17.7922 9.70354 19.0115 10.5216 20.0165C11.3396 21.0215 12.4296 21.7698 13.6614 22.172C14.8933 22.5743 16.2149 22.6134 17.4683 22.2848C18.7218 21.9562 19.8542 21.2737 20.7303 20.3189L18.1788 18.6179C17.6817 19.0383 17.0836 19.322 16.4435 19.4412C15.8034 19.5603 15.1433 19.5107 14.5282 19.2973C13.9131 19.0839 13.3641 18.714 12.9353 18.224C12.5066 17.7341 12.2128 17.1409 12.0828 16.5029H19.5078V13.5029H12.0828V13.5044Z" fill="#37CBD5"/>
</svg>
