<svg width="22" height="24" viewBox="0 0 22 24" fill="none" xmlns="http://www.w3.org/2000/svg">
<path d="M9.61328 21.7642V22.0169C9.61328 22.7829 10.24 23.4096 11.006 23.4096C11.772 23.4096 12.3987 22.7829 12.3987 22.0169V21.7642H9.61328Z" fill="#8479C2"/>
<path d="M10.8601 22.0169V21.7642H9.61328V22.0169C9.61328 22.7829 10.24 23.4096 11.006 23.4096C11.2298 23.4096 11.4415 23.3558 11.6294 23.261C11.1743 23.0312 10.8601 22.5591 10.8601 22.0169Z" fill="#6E60B8"/>
<path d="M13.3704 20.0693H8.64143C8.31144 20.0693 8.04297 20.3378 8.04297 20.6678V21.1772C8.04297 21.5072 8.31144 21.7757 8.64143 21.7757H13.3703C13.7003 21.7757 13.9688 21.5072 13.9688 21.1772V20.6678C13.9688 20.3378 13.7004 20.0693 13.3704 20.0693Z" fill="#EFECEF"/>
<path d="M13.3704 20.9227H8.64143C8.37117 20.9227 8.14244 20.7425 8.0684 20.4961C8.05158 20.5518 8.04301 20.6097 8.04297 20.6679V21.1774C8.04297 21.5074 8.31144 21.7758 8.64143 21.7758H13.3703C13.7003 21.7758 13.9688 21.5074 13.9688 21.1774V20.6679C13.9688 20.6082 13.9597 20.5506 13.9433 20.4961C13.8693 20.7425 13.6406 20.9227 13.3704 20.9227Z" fill="#E2DFE2"/>
<path d="M13.8305 18.3857H8.18245C7.85245 18.3857 7.58398 18.6542 7.58398 18.9842V19.4936C7.58398 19.8236 7.85245 20.0921 8.18245 20.0921H13.8305C14.1605 20.0921 14.429 19.8236 14.429 19.4936V18.9842C14.429 18.6542 14.1605 18.3857 13.8305 18.3857Z" fill="#EFECEF"/>
<path d="M13.8305 19.2391H8.18245C7.91223 19.2391 7.6835 19.059 7.60942 18.8125C7.59259 18.8682 7.58402 18.9261 7.58398 18.9843V19.4938C7.58398 19.8238 7.85245 20.0922 8.18245 20.0922H13.8305C14.1605 20.0922 14.429 19.8238 14.429 19.4938V18.9843C14.429 18.9246 14.4199 18.867 14.4036 18.8125C14.3295 19.059 14.1008 19.2391 13.8305 19.2391Z" fill="#E2DFE2"/>
<path d="M11.0158 0.554694C7.04773 0.549497 3.81441 3.77845 3.81445 7.7465C3.8145 10.3843 5.23492 12.6901 7.35244 13.9416C7.72846 14.1638 7.95605 14.5711 7.95605 15.0079V16.7596C8.02767 16.7296 8.10453 16.7143 8.18216 16.7143H13.8303C13.9104 16.7143 13.9867 16.7305 14.0564 16.7596V15.0078C14.0564 14.5659 14.2925 14.1598 14.6725 13.9341C16.7831 12.681 18.198 10.3791 18.198 7.74636C18.198 3.77772 14.9833 0.55989 11.0158 0.554694Z" fill="#FFE07D"/>
<path d="M16.0233 6.33788C15.65 4.94703 14.6912 3.78414 13.3925 3.14737C13.3518 3.12745 13.3154 3.09971 13.2855 3.06572C13.2555 3.03174 13.2325 2.99218 13.2178 2.94931C13.2031 2.90643 13.1971 2.86109 13.1999 2.81586C13.2028 2.77063 13.2145 2.72641 13.2344 2.68573C13.2544 2.64504 13.2822 2.60868 13.3162 2.57873C13.3502 2.54878 13.3898 2.52583 13.4327 2.51118C13.4755 2.49654 13.5209 2.49049 13.5661 2.49338C13.6113 2.49627 13.6555 2.50804 13.6962 2.52803C15.1737 3.25245 16.2647 4.57597 16.6895 6.15909C16.7132 6.24744 16.7008 6.34159 16.6551 6.42082C16.6094 6.50006 16.5341 6.5579 16.4458 6.58161C16.3574 6.60532 16.2633 6.59296 16.184 6.54725C16.1048 6.50154 16.047 6.42623 16.0233 6.33788Z" fill="#FFEAC8"/>
<path d="M9.85679 15.0079C9.85679 14.5711 9.6292 14.1638 9.25322 13.9416C7.1357 12.6902 5.71524 10.3844 5.71524 7.74654C5.71519 4.10325 8.44097 1.08349 11.9584 0.617465C11.6459 0.576096 11.331 0.555128 11.0158 0.554694C7.04773 0.549497 3.81441 3.77845 3.81445 7.7465C3.8145 10.3843 5.23492 12.6901 7.35243 13.9416C7.72846 14.1638 7.95605 14.5711 7.95605 15.0079V16.7596C8.02767 16.7296 8.10453 16.7142 8.18216 16.7143H9.85679V15.0079Z" fill="#FFC250"/>
<path d="M13.8305 16.7026H8.18245C7.85245 16.7026 7.58398 16.9711 7.58398 17.3011V17.8105C7.58398 18.1405 7.85245 18.409 8.18245 18.409H13.8305C14.1605 18.409 14.429 18.1405 14.429 17.8105V17.3011C14.429 16.9711 14.1605 16.7026 13.8305 16.7026Z" fill="#EFECEF"/>
<path d="M13.8305 17.556H8.18245C7.91223 17.556 7.6835 17.3758 7.60942 17.1294C7.59259 17.1851 7.58402 17.243 7.58398 17.3012V17.8107C7.58398 18.1407 7.85245 18.4091 8.18245 18.4091H13.8305C14.1605 18.4091 14.429 18.1407 14.429 17.8107V17.3012C14.429 17.2415 14.4199 17.1839 14.4036 17.1294C14.3295 17.3758 14.1008 17.556 13.8305 17.556Z" fill="#E2DFE2"/>
<path d="M2.14071 7.9069H0.95427C0.862798 7.9069 0.775073 7.87057 0.710392 7.80589C0.645712 7.74121 0.609375 7.65348 0.609375 7.56201C0.609375 7.47054 0.645712 7.38281 0.710392 7.31813C0.775073 7.25345 0.862798 7.21711 0.95427 7.21711H2.14071C2.23218 7.21711 2.31991 7.25345 2.38459 7.31813C2.44927 7.38281 2.48561 7.47054 2.48561 7.56201C2.48561 7.65348 2.44927 7.74121 2.38459 7.80589C2.31991 7.87057 2.23218 7.9069 2.14071 7.9069ZM2.47935 5.71825L1.37008 5.29724C1.32755 5.2813 1.2886 5.25713 1.25545 5.22609C1.22229 5.19506 1.19559 5.15779 1.17688 5.11641C1.15817 5.07504 1.14781 5.03037 1.1464 4.98499C1.14499 4.9396 1.15256 4.89438 1.16867 4.85192C1.18479 4.80946 1.20912 4.77061 1.24029 4.73758C1.27146 4.70455 1.30884 4.67801 1.35029 4.65946C1.39174 4.64092 1.43645 4.63074 1.48184 4.62952C1.52723 4.6283 1.57242 4.63605 1.61481 4.65233L2.72409 5.07334C2.76661 5.08928 2.80557 5.11345 2.83872 5.14449C2.87187 5.17552 2.89857 5.21279 2.91729 5.25417C2.936 5.29554 2.94636 5.34021 2.94776 5.38559C2.94917 5.43098 2.9416 5.4762 2.92549 5.51866C2.90938 5.56112 2.88504 5.59997 2.85388 5.633C2.82271 5.66603 2.78533 5.69257 2.74388 5.71112C2.70242 5.72966 2.65772 5.73984 2.61232 5.74106C2.56693 5.74228 2.52174 5.73453 2.47935 5.71825ZM1.16999 10.2716C1.13754 10.1861 1.14039 10.0912 1.17791 10.0077C1.21543 9.92433 1.28456 9.85923 1.37008 9.82678L2.47935 9.40577C2.56478 9.37375 2.65941 9.37688 2.74253 9.41447C2.82565 9.45207 2.89049 9.52106 2.92286 9.60636C2.95523 9.69165 2.95249 9.78629 2.91523 9.86957C2.87798 9.95284 2.80925 10.018 2.72409 10.0507L1.61481 10.4717C1.52929 10.5041 1.43438 10.5013 1.35096 10.4638C1.26754 10.4262 1.20245 10.3571 1.16999 10.2716ZM21.0564 7.9069H19.8699C19.7785 7.9069 19.6907 7.87057 19.6261 7.80589C19.5614 7.74121 19.525 7.65348 19.525 7.56201C19.525 7.47054 19.5614 7.38281 19.6261 7.31813C19.6907 7.25345 19.7785 7.21711 19.8699 7.21711H21.0564C21.1479 7.21711 21.2356 7.25345 21.3003 7.31813C21.365 7.38281 21.4013 7.47054 21.4013 7.56201C21.4013 7.65348 21.365 7.74121 21.3003 7.80589C21.2356 7.87057 21.1479 7.9069 21.0564 7.9069ZM19.0865 5.51816C19.0541 5.43264 19.0569 5.33773 19.0944 5.25431C19.132 5.17089 19.2011 5.10579 19.2866 5.07334L20.3959 4.65233C20.4383 4.63605 20.4835 4.6283 20.5289 4.62952C20.5742 4.63074 20.619 4.64092 20.6604 4.65946C20.7019 4.67801 20.7392 4.70455 20.7704 4.73758C20.8016 4.77061 20.8259 4.80946 20.842 4.85192C20.8581 4.89438 20.8657 4.9396 20.8643 4.98499C20.8629 5.03037 20.8525 5.07504 20.8338 5.11641C20.8151 5.15779 20.7884 5.19506 20.7552 5.22609C20.7221 5.25713 20.6831 5.2813 20.6406 5.29724L19.5313 5.71825C19.4458 5.75069 19.3509 5.74783 19.2675 5.71031C19.1841 5.67279 19.119 5.60367 19.0865 5.51816ZM20.3959 10.4717L19.2866 10.0507C19.2441 10.0347 19.2052 10.0106 19.172 9.97953C19.1389 9.9485 19.1122 9.91123 19.0935 9.86985C19.0747 9.82848 19.0644 9.78381 19.063 9.73842C19.0616 9.69303 19.0691 9.64781 19.0852 9.60536C19.1014 9.5629 19.1257 9.52404 19.1569 9.49102C19.188 9.45799 19.2254 9.43144 19.2669 9.4129C19.3083 9.39436 19.353 9.38418 19.3984 9.38296C19.4438 9.38173 19.489 9.38949 19.5314 9.40577L20.6407 9.82678C20.6832 9.84271 20.7221 9.86689 20.7553 9.89792C20.7884 9.92896 20.8151 9.96623 20.8339 10.0076C20.8526 10.049 20.8629 10.0936 20.8643 10.139C20.8657 10.1844 20.8582 10.2296 20.8421 10.2721C20.826 10.3146 20.8016 10.3534 20.7704 10.3864C20.7393 10.4195 20.7019 10.446 20.6604 10.4646C20.619 10.4831 20.5743 10.4933 20.5289 10.4945C20.4835 10.4957 20.4383 10.488 20.3959 10.4717Z" fill="#FFC250"/>
<path d="M13.6854 2.5237C13.6447 2.50335 13.6004 2.49126 13.555 2.48812C13.5096 2.48499 13.464 2.49087 13.4209 2.50544C13.3778 2.52 13.3379 2.54296 13.3037 2.57298C13.2695 2.60301 13.2416 2.6395 13.2216 2.68037C13.2015 2.72124 13.1898 2.76567 13.187 2.8111C13.1842 2.85653 13.1904 2.90207 13.2053 2.94507C13.2202 2.98808 13.2435 3.02772 13.2738 3.0617C13.3041 3.09567 13.3408 3.12332 13.3818 3.14304C14.6804 3.77985 15.6393 4.94275 16.0125 6.33355C16.0243 6.3773 16.0445 6.41831 16.0721 6.45424C16.0997 6.49016 16.1341 6.5203 16.1733 6.54294C16.2125 6.56557 16.2559 6.58026 16.3008 6.58615C16.3457 6.59205 16.3913 6.58904 16.4351 6.5773C16.4788 6.56556 16.5198 6.54532 16.5557 6.51773C16.5917 6.49014 16.6218 6.45575 16.6444 6.41651C16.6671 6.37727 16.6818 6.33396 16.6877 6.28905C16.6936 6.24414 16.6906 6.19851 16.6788 6.15476C16.2539 4.5716 15.1629 3.24812 13.6854 2.5237ZM2.47584 7.55756C2.47584 7.46609 2.4395 7.37837 2.37482 7.31368C2.31014 7.249 2.22242 7.21267 2.13094 7.21267H0.944505C0.753985 7.21267 0.599609 7.36709 0.599609 7.55756C0.599609 7.74804 0.753985 7.90246 0.944505 7.90246H2.13094C2.22242 7.90246 2.31014 7.86612 2.37482 7.80144C2.4395 7.73676 2.47584 7.64903 2.47584 7.55756ZM2.71432 5.06884L1.60505 4.64784C1.42708 4.58033 1.22782 4.66982 1.16023 4.84793C1.09263 5.02603 1.18221 5.2252 1.36031 5.29275L2.46959 5.71375C2.55501 5.74577 2.64964 5.74264 2.73276 5.70505C2.81589 5.66746 2.88073 5.59846 2.9131 5.51317C2.94546 5.42788 2.94272 5.33323 2.90547 5.24996C2.86821 5.16668 2.79948 5.10156 2.71432 5.06884ZM2.46959 9.40128L1.36031 9.82228C1.27515 9.855 1.20642 9.92012 1.16917 10.0034C1.13191 10.0867 1.12917 10.1813 1.16154 10.2666C1.19391 10.3519 1.25875 10.4209 1.34187 10.4585C1.42499 10.4961 1.51962 10.4992 1.60505 10.4672L2.71432 10.0462C2.79948 10.0135 2.86821 9.94835 2.90547 9.86507C2.94272 9.7818 2.94546 9.68716 2.9131 9.60186C2.88073 9.51657 2.81589 9.44758 2.73276 9.40998C2.64964 9.37239 2.55501 9.36926 2.46959 9.40128ZM21.0467 7.21267H19.8602C19.6697 7.21267 19.5153 7.36709 19.5153 7.55756C19.5153 7.74804 19.6697 7.90246 19.8602 7.90246H21.0467C21.2372 7.90246 21.3916 7.74804 21.3916 7.55756C21.3916 7.36709 21.2372 7.21267 21.0467 7.21267ZM19.5216 5.7138L20.6309 5.2928C20.7161 5.26008 20.7848 5.19496 20.822 5.11168C20.8593 5.02841 20.862 4.93376 20.8297 4.84847C20.7973 4.76318 20.7325 4.69418 20.6493 4.65659C20.5662 4.619 20.4716 4.61587 20.3862 4.64789L19.2769 5.06889C19.1917 5.1016 19.123 5.16673 19.0857 5.25C19.0485 5.33328 19.0457 5.42792 19.0781 5.51321C19.1105 5.59851 19.1753 5.6675 19.2584 5.7051C19.3416 5.74269 19.4362 5.74582 19.5216 5.7138ZM20.6309 9.82228L19.5216 9.40128C19.4361 9.36884 19.3412 9.37169 19.2578 9.40921C19.1744 9.44674 19.1093 9.51585 19.0768 9.60137C19.0607 9.64371 19.0531 9.68881 19.0545 9.73408C19.0559 9.77935 19.0661 9.82392 19.0847 9.86522C19.1033 9.90653 19.1298 9.94377 19.1628 9.97482C19.1958 10.0059 19.2345 10.0301 19.2769 10.0462L20.3862 10.4672C20.4716 10.4992 20.5662 10.4961 20.6493 10.4585C20.7325 10.4209 20.7973 10.3519 20.8297 10.2666C20.862 10.1813 20.8593 10.0867 20.822 10.0034C20.7848 9.92012 20.7161 9.855 20.6309 9.82228Z" fill="black"/>
<path d="M11.7622 0.937679C14.877 1.28455 17.3506 3.69519 17.7777 6.79984C17.7839 6.84471 17.7988 6.88793 17.8217 6.92703C17.8446 6.96612 17.8749 7.00033 17.911 7.02769C17.9471 7.05506 17.9882 7.07504 18.032 7.08651C18.0759 7.09798 18.1215 7.1007 18.1664 7.09452C18.2112 7.08835 18.2545 7.07341 18.2936 7.05054C18.3326 7.02766 18.3669 6.99731 18.3942 6.96122C18.4216 6.92513 18.4416 6.884 18.453 6.84018C18.4645 6.79636 18.4672 6.75071 18.461 6.70585C18.2348 5.06074 17.4526 3.51303 16.2586 2.34784C15.0627 1.18062 13.4929 0.436386 11.8385 0.25212C11.7476 0.241997 11.6564 0.268403 11.585 0.325528C11.5135 0.382654 11.4677 0.46582 11.4576 0.556731C11.4474 0.647642 11.4738 0.738851 11.531 0.810292C11.5881 0.881734 11.6713 0.927557 11.7622 0.937679ZM18.1893 8.0187C18.0004 8.00274 17.8325 8.14314 17.8163 8.33292C17.6288 10.5247 16.3838 12.506 14.4858 13.6329C14.0017 13.9203 13.7009 14.4453 13.7009 15.0031V16.3647H12.2413V13.6229C12.2415 13.4637 12.2943 13.3091 12.3914 13.1829L12.885 12.5439C13.0752 12.2969 13.1785 11.994 13.1791 11.6822V9.18845C13.2705 9.1884 13.3582 9.15204 13.4228 9.08737C13.4875 9.02269 13.5238 8.93499 13.5238 8.84355C13.5238 8.75211 13.4875 8.66441 13.4228 8.59974C13.3582 8.53506 13.2705 8.4987 13.1791 8.49866V8.46104C13.1791 8.27057 13.0247 8.11615 12.8342 8.11615C12.6436 8.11615 12.4893 8.27057 12.4893 8.46104V8.49861H9.50201V8.46104C9.50201 8.27057 9.34763 8.11615 9.15711 8.11615C8.96659 8.11615 8.81222 8.27057 8.81222 8.46104V8.49861C8.72075 8.49861 8.63302 8.53495 8.56834 8.59963C8.50366 8.66431 8.46732 8.75203 8.46732 8.84351C8.46732 8.93498 8.50366 9.0227 8.56834 9.08738C8.63302 9.15206 8.72075 9.1884 8.81222 9.1884V11.6822C8.81276 11.9939 8.91611 12.2968 9.10625 12.5439L9.59982 13.1828C9.69691 13.309 9.7497 13.4637 9.75001 13.6229V16.3646H8.29042V15.0031C8.29042 14.444 7.99422 13.9217 7.51739 13.6398C5.43956 12.4119 4.14882 10.1518 4.14877 7.74163C4.14873 4.25107 6.7628 1.32612 10.2293 0.937955C10.4186 0.916756 10.5549 0.746102 10.5337 0.556823C10.5125 0.367545 10.3424 0.231196 10.1525 0.252442C8.32477 0.457125 6.63556 1.32755 5.3961 2.7034C4.14694 4.09007 3.45894 5.87934 3.45898 7.74163C3.45908 10.4903 4.93569 12.9153 7.16638 14.2337C7.4342 14.3919 7.60058 14.6868 7.60058 15.003V16.5616C7.38146 16.7323 7.23968 16.9978 7.23968 17.2964V17.8059C7.23968 18.0282 7.31822 18.2324 7.44869 18.3928C7.31339 18.5585 7.23955 18.7659 7.23968 18.9798V19.4892C7.23968 19.8566 7.45388 20.174 7.76351 20.3257C7.72125 20.4332 7.69948 20.5477 7.69931 20.6632V21.1726C7.69931 21.6864 8.11732 22.1045 8.63117 22.1045H9.26045C9.30855 23.0199 10.0684 23.7499 10.9956 23.7499C11.9228 23.7499 12.6827 23.0198 12.7308 22.1045H13.3601C13.8739 22.1045 14.2919 21.6864 14.2919 21.1726V20.6632C14.2919 20.5441 14.2686 20.4305 14.2277 20.3257C14.5373 20.174 14.7515 19.8566 14.7515 19.4892V18.9798C14.7515 18.7575 14.673 18.5532 14.5425 18.3928C14.6778 18.2271 14.7517 18.0198 14.7515 17.8059V17.2964C14.7515 16.9978 14.6098 16.7322 14.3906 16.5616V15.003C14.3906 14.6875 14.5621 14.3897 14.838 14.2259C16.9269 12.9856 18.2973 10.8046 18.5036 8.3916C18.5113 8.30048 18.4826 8.21001 18.4236 8.14009C18.3647 8.07017 18.2804 8.0265 18.1893 8.0187ZM9.65206 12.1224C9.55497 11.9962 9.5022 11.8415 9.50192 11.6823V9.18854H12.4892V11.6823C12.4892 11.8407 12.4359 11.997 12.339 12.1223L11.8455 12.7613C11.6553 13.0084 11.5519 13.3113 11.5514 13.623V16.3648H10.4397V13.623C10.4391 13.3113 10.3357 13.0084 10.1456 12.7613L9.65206 12.1224ZM10.9955 23.0602C10.4488 23.0602 9.99857 22.6394 9.95175 22.1046H12.0394C11.9926 22.6393 11.5423 23.0602 10.9955 23.0602ZM13.6021 21.1727C13.602 21.2369 13.5765 21.2984 13.5311 21.3438C13.4857 21.3892 13.4242 21.4147 13.36 21.4148H8.63113C8.56695 21.4147 8.50542 21.3892 8.46004 21.3438C8.41466 21.2984 8.38913 21.2369 8.38906 21.1727V20.6633C8.38913 20.5991 8.41466 20.5376 8.46004 20.4922C8.50542 20.4468 8.56695 20.4213 8.63113 20.4212H13.36C13.4242 20.4213 13.4857 20.4468 13.5311 20.4922C13.5765 20.5376 13.602 20.5991 13.6021 20.6633V21.1727ZM14.0617 19.4894C14.0616 19.5536 14.0361 19.6151 13.9907 19.6605C13.9453 19.7059 13.8838 19.7314 13.8196 19.7314H8.17154C8.10736 19.7314 8.04581 19.7059 8.00042 19.6605C7.95503 19.6151 7.9295 19.5536 7.92943 19.4894V18.9799C7.9295 18.9157 7.95503 18.8542 8.00042 18.8088C8.04581 18.7634 8.10736 18.7379 8.17154 18.7379H13.8196C13.8838 18.7379 13.9453 18.7634 13.9907 18.8088C14.0361 18.8542 14.0616 18.9157 14.0617 18.9799V19.4894ZM14.0617 17.806C14.0616 17.8702 14.0361 17.9317 13.9907 17.9771C13.9453 18.0225 13.8838 18.048 13.8196 18.0481H8.17154C8.10736 18.048 8.04581 18.0225 8.00042 17.9771C7.95503 17.9317 7.9295 17.8702 7.92943 17.806V17.2966C7.92943 17.1592 8.04467 17.0545 8.17154 17.0545H13.8196C13.952 17.0545 14.0617 17.164 14.0617 17.2966V17.806Z" fill="black"/>
</svg>
