<svg width="32" height="32" viewBox="0 0 32 32" fill="none" xmlns="http://www.w3.org/2000/svg">
<path d="M10.7307 6.86004L11.8124 8.79837C12.7874 10.5484 12.3957 12.8417 10.8591 14.38C10.8591 14.38 8.9924 16.245 12.3757 19.6267C15.7541 23.005 17.6207 21.1434 17.6207 21.1434C19.1591 19.605 21.4541 19.2134 23.2024 20.1884L25.1407 21.2717C27.7824 22.745 28.0941 26.4484 25.7724 28.7717C24.3774 30.165 22.6674 31.2517 20.7791 31.3217C17.5991 31.4434 12.1974 30.6384 6.77907 25.2217C1.3624 19.8034 0.557403 14.4017 0.67907 11.2217C0.750737 9.33337 1.83574 7.62337 3.22907 6.22837C5.5524 3.9067 9.25574 4.21837 10.7291 6.8617L10.7307 6.86004ZM16.1007 1.13337C16.1543 0.806205 16.3355 0.513658 16.6045 0.319931C16.8736 0.126203 17.2085 0.0471203 17.5357 0.100037C17.5774 0.108371 17.7141 0.133371 17.7857 0.150037C17.9274 0.180037 18.1257 0.230037 18.3724 0.300037C18.8674 0.445037 19.5591 0.683371 20.3891 1.06337C22.0491 1.82504 24.2574 3.1567 26.5507 5.44837C28.8441 7.7417 30.1757 9.9517 30.9374 11.6117C31.3174 12.4417 31.5541 13.1317 31.6991 13.6284C31.7721 13.8779 31.835 14.1304 31.8874 14.385L31.8957 14.4367C31.9506 14.7668 31.8736 15.1052 31.6812 15.3789C31.4888 15.6527 31.1965 15.8398 30.8674 15.9C30.5411 15.953 30.207 15.8746 29.9384 15.6818C29.6698 15.4891 29.4884 15.1978 29.4341 14.8717C29.4 14.6875 29.3549 14.5055 29.2991 14.3267C29.1288 13.7543 28.9171 13.1951 28.6657 12.6534C28.0157 11.2367 26.8457 9.28004 24.7824 7.2167C22.7207 5.15337 20.7624 3.98504 19.3457 3.33504C18.8046 3.08374 18.2459 2.87207 17.6741 2.7017C17.4987 2.65223 17.322 2.60777 17.1441 2.56837C16.8164 2.51425 16.5231 2.33343 16.3276 2.06495C16.1321 1.79646 16.05 1.46186 16.0991 1.13337H16.1007Z" fill="#2ECC71"/>
<path fill-rule="evenodd" clip-rule="evenodd" d="M16.4781 6.88349C16.5231 6.72555 16.5987 6.57801 16.7007 6.44931C16.8026 6.3206 16.929 6.21325 17.0724 6.13339C17.2159 6.05353 17.3737 6.00271 17.5369 5.98386C17.7 5.965 17.8652 5.97847 18.0231 6.02349L18.0281 6.02515L18.0331 6.02682L18.0465 6.03015L18.0798 6.04015L18.1731 6.07349C18.6161 6.24413 19.0437 6.4521 19.4515 6.69515C20.2665 7.17849 21.3798 7.97849 22.6881 9.28849C23.9965 10.5968 24.7981 11.7102 25.2815 12.5252C25.5231 12.9335 25.6831 13.2652 25.7865 13.5085C25.8419 13.6358 25.8919 13.7653 25.9365 13.8968L25.9448 13.9302L25.9498 13.9435V13.9485L25.9515 13.9502C25.9515 13.9502 25.9515 13.9535 24.7515 14.2968L25.9515 13.9535C26.0361 14.2689 25.994 14.6048 25.8341 14.8895C25.6742 15.1743 25.4093 15.3851 25.0959 15.477C24.7826 15.5689 24.4458 15.5345 24.1574 15.3812C23.8691 15.228 23.6522 14.968 23.5531 14.6568L23.5481 14.6402C23.4309 14.3499 23.2916 14.0691 23.1315 13.8002C22.7581 13.1718 22.0865 12.2218 20.9198 11.0552C19.7531 9.88849 18.8048 9.21849 18.1765 8.84682C17.9076 8.6866 17.6267 8.5473 17.3365 8.43015L17.3198 8.42349C17.005 8.32883 16.7401 8.11396 16.5825 7.8254C16.425 7.53684 16.3875 7.19951 16.4781 6.88349Z" fill="#2ECC71"/>
</svg>
