<svg width="44" height="24" viewBox="0 0 44 24" fill="none" xmlns="http://www.w3.org/2000/svg">
<path d="M6.97852 8.87515H2.81185C2.25931 8.87515 1.72941 9.09464 1.33871 9.48534C0.948009 9.87605 0.728516 10.4059 0.728516 10.9585C0.728516 11.511 0.948009 12.0409 1.33871 12.4316C1.72941 12.8223 2.25931 13.0418 2.81185 13.0418H6.97852C7.53105 13.0418 8.06095 12.8223 8.45165 12.4316C8.84235 12.0409 9.06185 11.511 9.06185 10.9585C9.06185 10.4059 8.84235 9.87605 8.45165 9.48534C8.06095 9.09464 7.53105 8.87515 6.97852 8.87515ZM41.9368 2.95848V2.83348C41.3399 2.10388 40.5857 1.51874 39.7307 1.12188C38.8756 0.725024 37.9419 0.52672 36.9993 0.541817H20.4785C18.9477 0.528068 17.4651 1.07664 16.3118 2.08348C15.2348 3.03251 14.5266 4.33078 14.3118 5.75015L12.4785 16.1668C12.3209 17.0664 12.3623 17.9896 12.5998 18.8714C12.8374 19.7533 13.2653 20.5723 13.8535 21.271C14.4386 21.9673 15.1687 22.5275 15.9927 22.9125C16.8167 23.2976 17.7148 23.4981 18.6243 23.5002H35.166C36.6519 23.5226 38.0973 23.0149 39.2427 22.068C40.3881 21.1211 41.1586 19.7971 41.416 18.3335L43.2493 7.91682C43.3937 7.04453 43.3514 6.15153 43.1252 5.29681C42.8989 4.44209 42.4939 3.6451 41.9368 2.95848ZM36.2285 4.70848L29.1452 10.4585C28.7264 10.796 28.1933 10.9585 27.6574 10.9119C27.1215 10.8653 26.6244 10.6132 26.2702 10.2085L21.416 4.70848H36.2285ZM37.2285 17.5627C37.1442 18.0518 36.888 18.4948 36.506 18.8118C36.1241 19.1288 35.6415 19.299 35.1452 19.2918H18.6243C18.3218 19.2893 18.0234 19.2209 17.75 19.0913C17.4766 18.9618 17.2346 18.7743 17.041 18.5418C16.8469 18.3106 16.7054 18.0399 16.6262 17.7485C16.5471 17.4571 16.5322 17.152 16.5827 16.8543L18.2493 7.41682L23.1452 12.9585C24.2108 14.1697 25.7035 14.9219 27.311 15.0578C28.9185 15.1937 30.5163 14.7027 31.7702 13.6877L38.9368 7.83348L37.2285 17.5627ZM9.06185 0.541817H2.81185C2.25931 0.541817 1.72941 0.761311 1.33871 1.15201C0.948009 1.54271 0.728516 2.07262 0.728516 2.62515C0.728516 3.17769 0.948009 3.70759 1.33871 4.09829C1.72941 4.48899 2.25931 4.70848 2.81185 4.70848H9.06185C9.61438 4.70848 10.1443 4.48899 10.535 4.09829C10.9257 3.70759 11.1452 3.17769 11.1452 2.62515C11.1452 2.07262 10.9257 1.54271 10.535 1.15201C10.1443 0.761311 9.61438 0.541817 9.06185 0.541817Z" fill="#2ECC71"/>
</svg>
