<svg width="50" height="50" viewBox="0 0 50 50" fill="none" xmlns="http://www.w3.org/2000/svg">
<g clip-path="url(#clip0_482_18825)">
<path d="M48.0353 28.0496C47.6662 28.1039 47.2937 28.1313 46.9207 28.1314C43.4339 28.1314 40.483 25.8504 39.4709 22.7C39.2979 22.1615 38.858 21.7469 38.3023 21.641C32.5118 20.5386 28.1331 15.455 28.1331 9.34356C28.1331 6.77676 28.9079 4.39258 30.2333 2.40684C30.5484 1.93467 30.2854 1.30577 29.7286 1.19551C28.1719 0.887327 26.5887 0.73229 25.0018 0.732621C11.5992 0.732621 0.734375 11.5975 0.734375 25C0.734375 38.4024 11.5992 49.2674 25.0018 49.2674C37.0808 49.2674 47.0687 40.475 48.9473 28.9238C49.0326 28.3996 48.5606 27.9725 48.0353 28.0496Z" fill="#F5B97D"/>
<path d="M14.041 20.3027C15.7701 20.3027 17.1719 18.901 17.1719 17.1719C17.1719 15.4427 15.7701 14.041 14.041 14.041C12.3119 14.041 10.9102 15.4427 10.9102 17.1719C10.9102 18.901 12.3119 20.3027 14.041 20.3027Z" fill="#CD916E"/>
<path d="M15.6064 35.1767C16.9036 35.1767 17.9551 34.1251 17.9551 32.828C17.9551 31.5309 16.9036 30.4794 15.6064 30.4794C14.3093 30.4794 13.2578 31.5309 13.2578 32.828C13.2578 34.1251 14.3093 35.1767 15.6064 35.1767Z" fill="#CD916E"/>
<path d="M35.081 7.07764L34.8564 8.4252C34.6718 9.53272 35.297 10.616 36.3483 11.0103L38.3366 11.7559C39.65 12.2483 41.0994 11.4873 41.4396 10.1265L42.1483 7.29151C42.59 5.52461 40.9396 3.94913 39.195 4.47247L36.7225 5.21426C36.3021 5.34046 35.9255 5.58193 35.6353 5.91128C35.3452 6.24064 35.1532 6.6447 35.081 7.07764ZM43.0052 15.6063L42.0598 16.079C41.3183 16.4497 40.9943 17.3342 41.3209 18.0961L42.0816 19.8708C42.5421 20.9453 43.975 21.1544 44.7234 20.2564L45.947 18.788C46.5207 18.0995 46.4006 17.0709 45.6836 16.5332L44.6448 15.7541C44.4122 15.5796 44.1356 15.4734 43.846 15.4473C43.5564 15.4212 43.2653 15.4762 43.0052 15.6063Z" fill="#F5B97D"/>
<path d="M47.7021 12.4746C48.5667 12.4746 49.2676 11.7737 49.2676 10.9091C49.2676 10.0446 48.5667 9.3437 47.7021 9.3437C46.8376 9.3437 46.1367 10.0446 46.1367 10.9091C46.1367 11.7737 46.8376 12.4746 47.7021 12.4746Z" fill="#F5B97D"/>
<path d="M27.9373 46.3319C14.5348 46.3319 3.66992 35.467 3.66992 22.0645C3.66992 16.1106 5.81748 10.6607 9.37578 6.43843C4.09336 10.89 0.734375 17.5514 0.734375 25.0001C0.734375 38.4025 11.5992 49.2674 25.0018 49.2674C32.4551 49.2674 39.1091 45.9168 43.5562 40.639C39.3385 44.1912 33.8934 46.3319 27.9373 46.3319ZM38.6862 9.93911C37.3731 9.44673 36.5922 8.0937 36.8228 6.71031L37.0904 5.10445L36.724 5.21441C36.3036 5.34056 35.9269 5.582 35.6367 5.91136C35.3466 6.24072 35.1545 6.64481 35.0823 7.07779L34.8577 8.42534C34.6731 9.53286 35.2983 10.6162 36.3496 11.0104L38.338 11.756C39.3925 12.1514 40.5247 11.7304 41.1101 10.8481L38.6862 9.93911ZM43.7532 18.8621L42.8918 16.852C42.73 16.4745 42.7165 16.0725 42.8146 15.7022L42.0611 16.0789C41.3197 16.4496 40.9957 17.334 41.3223 18.096L42.0829 19.8707C42.5435 20.9452 43.9764 21.1544 44.7247 20.2562L45.0288 19.8913C44.4907 19.7816 43.9987 19.4351 43.7532 18.8621Z" fill="#E3AA75"/>
<path d="M15.7049 18.6397C13.9755 18.6397 12.5736 17.2378 12.5736 15.5085C12.5736 15.0754 12.6617 14.6629 12.8207 14.2878C11.6979 14.7637 10.9102 15.8758 10.9102 17.172C10.9102 18.9013 12.3121 20.3032 14.0414 20.3032C15.3377 20.3032 16.4498 19.5154 16.9256 18.3927C16.5394 18.5562 16.1243 18.6402 15.7049 18.6397ZM16.8302 33.9537C15.5331 33.9537 14.4817 32.9022 14.4817 31.6053C14.4817 31.274 14.552 30.9598 14.6757 30.6739C13.8425 31.0347 13.2586 31.8627 13.2586 32.8284C13.2586 34.1255 14.3101 35.1769 15.607 35.1769C16.5729 35.1769 17.4008 34.593 17.7615 33.7598C17.4677 33.8876 17.1506 33.9536 16.8302 33.9537Z" fill="#B67F5F"/>
<path d="M30.4785 38.3073C32.2076 38.3073 33.6094 36.9056 33.6094 35.1765C33.6094 33.4473 32.2076 32.0456 30.4785 32.0456C28.7494 32.0456 27.3477 33.4473 27.3477 35.1765C27.3477 36.9056 28.7494 38.3073 30.4785 38.3073Z" fill="#CD916E"/>
<path d="M32.1424 36.6444C30.413 36.6444 29.0111 35.2424 29.0111 33.5131C29.0111 33.08 29.0992 32.6675 29.2582 32.2924C28.1354 32.7683 27.3477 33.8804 27.3477 35.1766C27.3477 36.9059 28.7496 38.3079 30.4789 38.3079C31.7752 38.3079 32.8873 37.5201 33.3631 36.3973C32.9769 36.5609 32.5618 36.6449 32.1424 36.6444Z" fill="#B67F5F"/>
<path d="M24.1826 22.6513C25.0472 22.6513 25.748 21.9505 25.748 21.0859C25.748 20.2213 25.0472 19.5205 24.1826 19.5205C23.3181 19.5205 22.6172 20.2213 22.6172 21.0859C22.6172 21.9505 23.3181 22.6513 24.1826 22.6513Z" fill="#CD916E"/>
<path d="M14.0403 13.3081C11.9099 13.3081 10.1767 15.0414 10.1767 17.1717C10.1767 19.3021 11.91 21.0354 14.0403 21.0354C16.1708 21.0354 17.9041 19.3021 17.9041 17.1717C17.9041 15.0414 16.1707 13.3081 14.0403 13.3081ZM14.0403 19.5707C12.7176 19.5707 11.6415 18.4945 11.6415 17.1718C11.6415 15.8492 12.7177 14.773 14.0403 14.773C15.363 14.773 16.4393 15.8492 16.4393 17.1718C16.4393 18.4945 15.363 19.5707 14.0403 19.5707ZM26.6157 35.1767C26.6157 37.3072 28.349 39.0404 30.4794 39.0404C32.6098 39.0404 34.3431 37.3071 34.3431 35.1767C34.3431 33.0463 32.6098 31.313 30.4794 31.313C28.349 31.313 26.6157 33.0462 26.6157 35.1767ZM30.4795 32.7778C31.8023 32.7778 32.8783 33.854 32.8783 35.1766C32.8783 36.4993 31.8022 37.5754 30.4795 37.5754C29.1568 37.5754 28.0807 36.4993 28.0807 35.1766C28.0807 33.854 29.1567 32.7778 30.4795 32.7778ZM15.6059 29.7473C13.907 29.7473 12.525 31.1294 12.525 32.8283C12.525 34.5271 13.907 35.9091 15.6059 35.9091C17.3047 35.9091 18.6868 34.5271 18.6868 32.8283C18.6868 31.1294 17.3047 29.7473 15.6059 29.7473ZM15.6059 34.4443C14.7147 34.4443 13.9898 33.7194 13.9898 32.8283C13.9898 31.9372 14.7147 31.2122 15.6059 31.2122C16.497 31.2122 17.222 31.9372 17.222 32.8283C17.222 33.7194 16.497 34.4443 15.6059 34.4443ZM21.9189 21.0859C21.9189 22.3531 22.9499 23.3839 24.217 23.3839C25.4841 23.3839 26.515 22.353 26.515 21.0859C26.515 19.8188 25.4841 18.7878 24.217 18.7878C22.9499 18.7878 21.9189 19.8188 21.9189 21.0859ZM24.217 20.2527C24.6765 20.2527 25.0502 20.6265 25.0502 21.0859C25.0502 21.5453 24.6764 21.9191 24.217 21.9191C23.7576 21.9191 23.3838 21.5453 23.3838 21.0859C23.3838 20.6265 23.7575 20.2527 24.217 20.2527ZM39.0911 32.778C39.2159 32.7779 39.3387 32.7459 39.4476 32.6851C39.5566 32.6242 39.6483 32.5365 39.7138 32.4303C39.7794 32.3241 39.8167 32.2029 39.8223 32.0782C39.8279 31.9535 39.8015 31.8295 39.7456 31.7178L38.9628 30.1521C38.9198 30.0661 38.8603 29.9893 38.7876 29.9263C38.715 29.8633 38.6306 29.8152 38.5393 29.7848C38.4481 29.7543 38.3517 29.7422 38.2558 29.749C38.1599 29.7559 38.0662 29.7815 37.9802 29.8246C37.8941 29.8676 37.8174 29.9271 37.7544 29.9998C37.6914 30.0724 37.6433 30.1568 37.6129 30.248C37.5825 30.3393 37.5703 30.4356 37.5771 30.5316C37.584 30.6275 37.6096 30.7212 37.6526 30.8072L38.4355 32.3729C38.4963 32.4947 38.5899 32.5971 38.7057 32.6687C38.8215 32.7402 38.955 32.7781 39.0911 32.778ZM30.4801 28.081C30.5936 28.081 30.7056 28.0545 30.807 28.0036L32.3727 27.2208C32.4587 27.1777 32.5354 27.1182 32.5984 27.0456C32.6615 26.9729 32.7095 26.8885 32.74 26.7973C32.7704 26.706 32.7825 26.6097 32.7757 26.5138C32.7689 26.4178 32.7432 26.3242 32.7002 26.2381C32.6572 26.1521 32.5977 26.0754 32.525 26.0123C32.4524 25.9493 32.368 25.9012 32.2768 25.8708C32.1855 25.8404 32.0891 25.8282 31.9932 25.8351C31.8973 25.8419 31.8036 25.8676 31.7176 25.9106L30.152 26.6934C30.0659 26.7364 29.9892 26.7959 29.9262 26.8686C29.8632 26.9413 29.8151 27.0256 29.7847 27.1169C29.7542 27.2081 29.7421 27.3045 29.7489 27.4004C29.7557 27.4963 29.7814 27.59 29.8244 27.676C29.8853 27.7978 29.9789 27.9002 30.0947 27.9717C30.2105 28.0433 30.344 28.0811 30.4801 28.081ZM8.68829 26.1103C8.73129 26.1963 8.79082 26.2731 8.86348 26.3361C8.93614 26.3991 9.0205 26.4472 9.11175 26.4776C9.203 26.508 9.29934 26.5202 9.39528 26.5133C9.49122 26.5065 9.58488 26.4809 9.6709 26.4378C9.75694 26.3948 9.83365 26.3353 9.89668 26.2626C9.9597 26.19 10.0078 26.1056 10.0382 26.0144C10.0686 25.9231 10.0808 25.8268 10.0739 25.7309C10.0671 25.6349 10.0415 25.5413 9.99844 25.4552L9.21563 23.8896C9.17263 23.8036 9.11311 23.7268 9.04045 23.6638C8.96779 23.6008 8.88343 23.5527 8.79218 23.5223C8.70093 23.4918 8.60458 23.4797 8.50864 23.4865C8.41269 23.4934 8.31903 23.519 8.23301 23.5621C8.14698 23.6051 8.07026 23.6646 8.00724 23.7373C7.94421 23.8099 7.89612 23.8943 7.86571 23.9855C7.83529 24.0768 7.82315 24.1731 7.82997 24.2691C7.83679 24.365 7.86245 24.4587 7.90547 24.5447L8.68829 26.1103ZM20.7582 38.4356L19.1926 39.2184C19.1065 39.2614 19.0298 39.3209 18.9668 39.3936C18.9038 39.4663 18.8557 39.5506 18.8253 39.6419C18.7949 39.7331 18.7827 39.8295 18.7895 39.9254C18.7964 40.0213 18.822 40.115 18.865 40.201C18.908 40.2871 18.9676 40.3638 19.0402 40.4268C19.1129 40.4898 19.1973 40.5379 19.2885 40.5683C19.3798 40.5988 19.4761 40.6109 19.572 40.6041C19.668 40.5972 19.7616 40.5716 19.8477 40.5286L21.4133 39.7458C21.4993 39.7028 21.576 39.6432 21.6391 39.5706C21.7021 39.4979 21.7502 39.4135 21.7806 39.3223C21.811 39.231 21.8231 39.1347 21.8163 39.0388C21.8095 38.9428 21.7838 38.8492 21.7408 38.7631C21.6978 38.6771 21.6383 38.6004 21.5656 38.5374C21.493 38.4743 21.4086 38.4263 21.3174 38.3958C21.2261 38.3654 21.1298 38.3533 21.0338 38.3601C20.9379 38.3669 20.8442 38.3926 20.7582 38.4356ZM21.6036 8.82574L20.8208 8.04282C20.6835 7.90549 20.4972 7.82833 20.3029 7.82833C20.1087 7.82833 19.9224 7.90549 19.7851 8.04282C19.6477 8.18018 19.5706 8.36646 19.5706 8.5607C19.5706 8.75493 19.6477 8.94121 19.7851 9.07857L20.568 9.86148C20.6359 9.9296 20.7166 9.98363 20.8055 10.0205C20.8944 10.0573 20.9896 10.0762 21.0858 10.076C21.2307 10.076 21.3723 10.033 21.4927 9.95253C21.6131 9.87205 21.707 9.75766 21.7624 9.62384C21.8178 9.49002 21.8323 9.34277 21.804 9.20071C21.7758 9.05865 21.706 8.92816 21.6036 8.82574ZM18.2193 26.0477C18.082 26.1851 18.0048 26.3713 18.0048 26.5656C18.0048 26.7598 18.082 26.9461 18.2193 27.0835L19.0022 27.8663C19.1451 28.0092 19.3326 28.0808 19.52 28.0808C19.7074 28.0808 19.8949 28.0093 20.0379 27.8663C20.1752 27.7289 20.2524 27.5426 20.2524 27.3484C20.2524 27.1542 20.1752 26.9679 20.0379 26.8305L19.2551 26.0477C19.1177 25.9104 18.9314 25.8332 18.7372 25.8332C18.543 25.8332 18.3567 25.9104 18.2193 26.0477ZM27.3986 43.0048V43.7876C27.3986 43.9819 27.4758 44.1682 27.6132 44.3055C27.7505 44.4429 27.9368 44.5201 28.1311 44.5201C28.3253 44.5201 28.5116 44.4429 28.649 44.3055C28.7863 44.1682 28.8635 43.9819 28.8635 43.7876V43.0048C28.8635 42.8106 28.7863 42.6243 28.649 42.4869C28.5116 42.3496 28.3253 42.2724 28.1311 42.2724C27.9368 42.2724 27.7505 42.3496 27.6132 42.4869C27.4758 42.6243 27.3986 42.8106 27.3986 43.0048ZM23.9521 14.5584L24.7349 13.7756C24.8722 13.6383 24.9494 13.452 24.9494 13.2578C24.9494 13.0635 24.8722 12.8772 24.7349 12.7399C24.5975 12.6026 24.4112 12.5254 24.217 12.5254C24.0228 12.5254 23.8365 12.6026 23.6991 12.7399L22.9163 13.5227C22.8139 13.6251 22.7441 13.7556 22.7159 13.8977C22.6876 14.0398 22.7021 14.187 22.7576 14.3209C22.813 14.4547 22.9069 14.5691 23.0273 14.6495C23.1477 14.73 23.2893 14.773 23.4342 14.773C23.5304 14.7731 23.6257 14.7542 23.7145 14.7174C23.8034 14.6806 23.8841 14.6266 23.9521 14.5584ZM36.0905 11.6959L38.0789 12.4416C38.4247 12.5712 38.7909 12.6375 39.1602 12.6375C39.6593 12.6376 40.151 12.5165 40.593 12.2845C40.9772 12.0825 41.3144 11.8017 41.5827 11.4605C41.8509 11.1192 42.0441 10.7251 42.1495 10.3041L42.8582 7.46909C43.1304 6.38052 42.8083 5.26812 41.9967 4.49331C41.185 3.71841 40.0588 3.44839 38.984 3.77085L36.5115 4.51265C35.3948 4.84761 34.5494 5.80708 34.3578 6.95708L34.1332 8.30464C33.8918 9.75386 34.7149 11.18 36.0905 11.6959ZM35.5782 8.54556L35.8028 7.198C35.9033 6.59478 36.3468 6.09146 36.9325 5.91577L39.405 5.17398C39.5581 5.12781 39.7171 5.10425 39.877 5.10406C40.2842 5.10406 40.6777 5.25943 40.9853 5.55298C41.4109 5.95933 41.5799 6.54282 41.4372 7.11382L40.7285 9.94878C40.6152 10.4017 40.3253 10.7707 39.912 10.9876C39.4987 11.2046 39.0305 11.2339 38.5933 11.0701L36.6049 10.3244C35.8833 10.0538 35.4516 9.30572 35.5782 8.54556ZM41.7316 15.4238C40.6448 15.9671 40.1685 17.2676 40.6471 18.3845L41.4077 20.1592C41.7252 20.8999 42.3907 21.4116 43.1881 21.528C43.3001 21.5443 43.4132 21.5526 43.5264 21.5526C44.2027 21.5526 44.8427 21.2562 45.2854 20.7251L46.509 19.2568C46.9162 18.768 47.0999 18.1508 47.0261 17.519C46.9522 16.8872 46.6314 16.3289 46.1224 15.9472L45.0836 15.1681C44.3828 14.6424 43.4606 14.5592 42.677 14.9511L41.7316 15.4238ZM43.3322 16.2613C43.4481 16.203 43.576 16.1726 43.7057 16.1725C43.882 16.1725 44.0569 16.2292 44.2047 16.3399L45.2435 17.119C45.3342 17.1865 45.4101 17.2719 45.4665 17.3699C45.5228 17.468 45.5585 17.5765 45.5711 17.6889C45.5846 17.8012 45.575 17.915 45.5427 18.0234C45.5105 18.1318 45.4563 18.2324 45.3836 18.319L44.16 19.7874C43.9701 20.0152 43.6929 20.1212 43.3995 20.0784C43.1061 20.0356 42.8708 19.8546 42.754 19.5821L41.9934 17.8074C41.9098 17.612 41.904 17.3921 41.9771 17.1926C42.0502 16.9931 42.1967 16.829 42.3866 16.7338L43.3322 16.2613C43.3321 16.2613 43.3321 16.2613 43.3322 16.2613ZM47.7016 13.2073C48.9688 13.2073 49.9996 12.1763 49.9996 10.9092C49.9996 9.64214 48.9687 8.61128 47.7016 8.61128C46.4345 8.61128 45.4035 9.64224 45.4035 10.9093C45.4035 12.1764 46.4344 13.2073 47.7016 13.2073ZM47.7016 10.0761C48.161 10.0761 48.5348 10.45 48.5348 10.9093C48.5348 11.3687 48.1609 11.7425 47.7016 11.7425C47.2422 11.7425 46.8684 11.3687 46.8684 10.9093C46.8684 10.4499 47.2421 10.0761 47.7016 10.0761Z" fill="black"/>
<path d="M47.9273 27.3249C47.5935 27.3739 47.2566 27.3986 46.9192 27.3988C43.8262 27.3988 41.1128 25.4205 40.1667 22.4758C39.908 21.6708 39.2455 21.0752 38.4378 20.9214C32.8903 19.8652 28.8639 14.996 28.8639 9.34346C28.8639 7.00928 29.5475 4.75108 30.841 2.81319C31.1247 2.38809 31.1779 1.8545 30.9834 1.38575C30.7884 0.916116 30.3719 0.57637 29.8693 0.476859C27.3775 -0.0165984 24.8208 -0.127634 22.2706 0.147073C17.1671 0.696585 12.4103 2.80157 8.51442 6.23477C8.44115 6.29804 8.38114 6.3752 8.33788 6.4618C8.29461 6.5484 8.26894 6.64272 8.26236 6.73931C8.25577 6.83589 8.2684 6.93282 8.2995 7.02449C8.33061 7.11617 8.37958 7.20076 8.44359 7.27339C8.5076 7.34602 8.58537 7.40524 8.6724 7.44763C8.75944 7.49001 8.85401 7.51472 8.95066 7.52033C9.0473 7.52594 9.1441 7.51233 9.23545 7.4803C9.32681 7.44826 9.4109 7.39843 9.48288 7.33369C13.1505 4.10176 17.6265 2.12032 22.4273 1.60362C24.8304 1.34483 27.2385 1.44932 29.5847 1.91397C29.6018 1.91739 29.6207 1.92403 29.6304 1.94746C29.6396 1.96963 29.6321 1.98594 29.6225 2.0002C28.1679 4.17969 27.3991 6.71905 27.3991 9.34356C27.3991 15.6985 31.9263 21.173 38.1637 22.3605C38.4444 22.4139 38.6775 22.6298 38.772 22.9239C39.9134 26.4767 43.1876 28.8637 46.9192 28.8637C47.3248 28.8637 47.7355 28.8335 48.1401 28.7741C48.1941 28.7661 48.2216 28.798 48.2228 28.8062C47.5168 33.148 45.5985 37.2012 42.6755 40.5278C42.5472 40.6738 42.4822 40.8647 42.4947 41.0585C42.5073 41.2524 42.5963 41.4333 42.7422 41.5616C42.8881 41.6898 43.079 41.7548 43.2729 41.7423C43.4668 41.7298 43.6477 41.6408 43.7759 41.4948C46.8807 37.9612 48.9184 33.655 49.6687 29.0414C49.745 28.5723 49.5969 28.1084 49.2623 27.7686C48.9176 27.4186 48.4186 27.2527 47.9273 27.3249ZM40.5284 42.6763C36.2373 46.4531 30.7166 48.536 25.0002 48.535C21.7036 48.535 18.5153 47.867 15.5238 46.5494C12.6336 45.2766 10.0637 43.4617 7.88591 41.1554C5.71149 38.8527 4.04977 36.1888 2.94684 33.2374C1.79997 30.1683 1.31491 26.93 1.50505 23.6125C1.80143 18.4412 3.87223 13.4234 7.33591 9.4833C7.39941 9.41107 7.44807 9.32704 7.47909 9.236C7.51012 9.14497 7.52291 9.04871 7.51674 8.95273C7.51056 8.85675 7.48554 8.76293 7.4431 8.67662C7.40066 8.59031 7.34164 8.51321 7.2694 8.44971C7.19718 8.38619 7.11315 8.33753 7.02211 8.30649C6.93107 8.27546 6.83481 8.26266 6.73883 8.26884C6.64284 8.27501 6.54902 8.30004 6.46271 8.34248C6.3764 8.38493 6.2993 8.44396 6.23581 8.51621C2.5571 12.7008 0.357683 18.0322 0.0426435 23.5287C-0.159212 27.0505 0.356218 30.4895 1.57477 33.7502C2.74655 36.8857 4.51159 39.7156 6.82096 42.161C9.13395 44.6105 11.8634 46.5379 14.9335 47.89C18.1122 49.2899 21.4991 49.9997 25.0002 49.9997C31.0728 50.0007 36.9375 47.788 41.496 43.776C41.5692 43.7128 41.6293 43.6356 41.6726 43.5491C41.7159 43.4625 41.7416 43.3682 41.7482 43.2717C41.7549 43.1751 41.7423 43.0782 41.7113 42.9865C41.6802 42.8949 41.6314 42.8103 41.5674 42.7376C41.5035 42.6649 41.4258 42.6057 41.3388 42.5632C41.2518 42.5208 41.1573 42.496 41.0607 42.4903C40.9641 42.4846 40.8673 42.4981 40.7759 42.53C40.6846 42.5619 40.6004 42.6116 40.5284 42.6763Z" fill="black"/>
</g>
<defs>
<clipPath id="clip0_482_18825">
<rect width="50" height="50" fill="white"/>
</clipPath>
</defs>
</svg>
