<svg width="42" height="42" viewBox="0 0 42 42" fill="none" xmlns="http://www.w3.org/2000/svg">
<path d="M22.785 36.3476C22.785 37.4676 23.8175 38.3251 24.9025 38.0801C26.8625 37.6251 28.7175 36.8551 30.3625 35.8051C31.29 35.2101 31.43 33.8801 30.6425 33.0926C30.0825 32.5326 29.19 32.3926 28.525 32.8126C27.1775 33.6701 25.69 34.3001 24.0975 34.6501C23.31 34.8251 22.785 35.5426 22.785 36.3476ZM7.05249 21.0001C7.05249 14.3676 11.69 8.8026 17.9025 7.3676C18.6725 7.1926 19.215 6.4751 19.215 5.6876C19.215 4.5676 18.165 3.7101 17.08 3.9726C13.2328 4.86449 9.80116 7.03332 7.34457 10.1255C4.88798 13.2177 3.55132 17.0509 3.55249 21.0001C3.55249 29.2951 9.32749 36.2426 17.08 38.0451C18.165 38.3076 19.215 37.4501 19.215 36.3301C19.215 35.5251 18.6725 34.8251 17.9025 34.6501C11.69 33.1976 7.05249 27.6326 7.05249 21.0001ZM36.3825 19.2501C37.5025 19.2501 38.36 18.2176 38.115 17.1326C37.66 15.1726 36.89 13.3351 35.84 11.6726C35.245 10.7276 33.915 10.6051 33.1275 11.3926C32.5675 11.9526 32.4275 12.8451 32.865 13.5101C33.7225 14.8401 34.3525 16.3276 34.7025 17.9376C34.86 18.7251 35.5775 19.2501 36.3825 19.2501ZM30.3625 6.2126C28.7 5.1626 26.8625 4.3926 24.9025 3.9376C23.8175 3.6926 22.785 4.5501 22.785 5.6526C22.785 6.4401 23.31 7.1751 24.08 7.3326C25.6725 7.6826 27.1775 8.3301 28.5075 9.1701C29.19 9.5901 30.065 9.4676 30.625 8.8901C30.8139 8.71186 30.9595 8.49273 31.0505 8.24951C31.1416 8.00629 31.1758 7.74544 31.1505 7.48697C31.1251 7.22849 31.0409 6.97925 30.9044 6.75835C30.7678 6.53745 30.5824 6.35076 30.3625 6.2126ZM33.11 30.6076C33.8975 31.3951 35.2275 31.2726 35.8225 30.3276C36.8725 28.6826 37.6425 26.8276 38.0975 24.8676C38.3425 23.7826 37.485 22.7501 36.3825 22.7501C35.595 22.7501 34.86 23.2751 34.7025 24.0451C34.3525 25.6376 33.705 27.1426 32.865 28.4726C32.41 29.1551 32.55 30.0476 33.11 30.6076Z" fill="#2ECC71"/>
<path d="M28 19.425C28 15.0675 24.675 12.25 21 12.25C17.325 12.25 14 15.0675 14 19.425C14 22.0675 15.925 25.165 19.7925 28.7C20.475 29.33 21.5075 29.33 22.2075 28.7C26.075 25.1475 28 22.0675 28 19.425ZM21 21C20.5174 20.9791 20.0615 20.7727 19.7274 20.4239C19.3932 20.075 19.2067 19.6106 19.2067 19.1275C19.2067 18.6444 19.3932 18.18 19.7274 17.8311C20.0615 17.4823 20.5174 17.2759 21 17.255C21.4826 17.2759 21.9385 17.4823 22.2726 17.8311C22.6068 18.18 22.7933 18.6444 22.7933 19.1275C22.7933 19.6106 22.6068 20.075 22.2726 20.4239C21.9385 20.7727 21.4826 20.9791 21 21Z" fill="#2ECC71"/>
</svg>
