<svg width="31" height="30" viewBox="0 0 31 30" fill="none" xmlns="http://www.w3.org/2000/svg">
<path d="M15.0078 30C6.72331 30 0.0078125 23.2845 0.0078125 15C0.0078125 6.7155 6.72331 0 15.0078 0C23.2923 0 30.0078 6.7155 30.0078 15C30.0078 23.2845 23.2923 30 15.0078 30ZM12.0828 13.5C12.2128 12.862 12.5066 12.2688 12.9353 11.7789C13.3641 11.2889 13.9131 10.919 14.5282 10.7056C15.1433 10.4922 15.8034 10.4426 16.4435 10.5617C17.0836 10.6808 17.6817 10.9646 18.1788 11.385L20.7288 9.6855C19.8527 8.73114 18.7204 8.04908 17.4671 7.72076C16.2138 7.39243 14.8926 7.4317 13.661 7.83389C12.4295 8.23607 11.3397 8.98418 10.5218 9.98889C9.70385 10.9936 9.19234 12.2125 9.04831 13.5H7.50781V16.5H9.04831C9.19209 17.7878 9.70353 19.0071 10.5216 20.0121C11.3396 21.0171 12.4296 21.7654 13.6614 22.1676C14.8933 22.5699 16.2149 22.609 17.4683 22.2804C18.7218 21.9518 19.8542 21.2693 20.7303 20.3145L18.1788 18.6135C17.6817 19.0339 17.0836 19.3177 16.4435 19.4368C15.8034 19.5559 15.1433 19.5063 14.5282 19.2929C13.9131 19.0795 13.3641 18.7096 12.9353 18.2196C12.5066 17.7297 12.2128 17.1365 12.0828 16.4985H19.5078V13.4985H12.0828V13.5Z" fill="#D52B83"/>
</svg>
