<svg width="26" height="26" viewBox="0 0 26 26" fill="none" xmlns="http://www.w3.org/2000/svg">
<path d="M13.0007 0.5L13.8032 0.50625L14.5732 0.5275L14.947 0.54375L15.6707 0.58625L16.362 0.64375C22.2207 1.2125 24.6745 3.56 25.3195 9.27625L25.357 9.63875L25.4145 10.33L25.4657 11.2387L25.4732 11.4263L25.4945 12.1975L25.5007 13L25.4945 13.8025L25.4732 14.5725L25.457 14.9462L25.4145 15.67L25.357 16.3612C24.7882 22.22 22.4407 24.6737 16.7245 25.3187L16.362 25.3563L15.6707 25.4137L14.762 25.465L14.5745 25.4725L13.8032 25.4938L13.0007 25.5L12.1982 25.4938L11.4282 25.4725L11.0545 25.4562L10.3307 25.4137L9.63945 25.3563C3.7807 24.7875 1.32695 22.44 0.681953 16.7238L0.644453 16.3612L0.586953 15.67L0.535703 14.7613L0.528203 14.5737L0.506953 13.8025L0.501953 13.405V12.595L0.506953 12.1975L0.528203 11.4275L0.544453 11.0538L0.586953 10.33L0.644453 9.63875C1.2132 3.78 3.5607 1.32625 9.27695 0.68125L9.63945 0.64375L10.3307 0.58625L11.2395 0.535L11.427 0.5275L12.1982 0.50625C12.4607 0.5025 12.7282 0.5 13.0007 0.5ZM13.0007 11.75H11.7507L11.6045 11.7587C11.3006 11.7949 11.0206 11.9412 10.8175 12.17C10.6143 12.3987 10.5021 12.694 10.5021 13C10.5021 13.306 10.6143 13.6013 10.8175 13.83C11.0206 14.0588 11.3006 14.2051 11.6045 14.2413L11.7507 14.25V18L11.7595 18.1463C11.7924 18.4253 11.9183 18.6851 12.117 18.8837C12.3156 19.0824 12.5754 19.2083 12.8545 19.2412L13.0007 19.25H14.2507L14.397 19.2412C14.676 19.2083 14.9358 19.0824 15.1344 18.8837C15.3331 18.6851 15.459 18.4253 15.492 18.1463L15.5007 18L15.492 17.8538C15.4621 17.5987 15.3544 17.3591 15.1835 17.1674C15.0126 16.9757 14.7869 16.8414 14.537 16.7825L14.397 16.7575L14.2507 16.75V13L14.242 12.8538C14.209 12.5747 14.0831 12.3149 13.8844 12.1163C13.6858 11.9176 13.426 11.7917 13.147 11.7587L13.0007 11.75ZM13.0132 8L12.8545 8.00875C12.5506 8.04489 12.2706 8.19119 12.0675 8.41996C11.8643 8.64872 11.7521 8.94405 11.7521 9.25C11.7521 9.55595 11.8643 9.85128 12.0675 10.08C12.2706 10.3088 12.5506 10.4551 12.8545 10.4913L13.0007 10.5L13.1595 10.4913C13.4633 10.4551 13.7433 10.3088 13.9464 10.08C14.1496 9.85128 14.2618 9.55595 14.2618 9.25C14.2618 8.94405 14.1496 8.64872 13.9464 8.41996C13.7433 8.19119 13.4633 8.04489 13.1595 8.00875L13.0132 8Z" fill="#BADE2A"/>
</svg>
