<svg width="30" height="30" viewBox="0 0 30 30" fill="none" xmlns="http://www.w3.org/2000/svg">
<path d="M15.0007 2.5L15.8032 2.50625L16.5732 2.5275L16.947 2.54375L17.6707 2.58625L18.362 2.64375C24.2207 3.2125 26.6745 5.56 27.3195 11.2762L27.357 11.6388L27.4145 12.33L27.4657 13.2387L27.4732 13.4263L27.4945 14.1975L27.5007 15L27.4945 15.8025L27.4732 16.5725L27.457 16.9462L27.4145 17.67L27.357 18.3612C26.7882 24.22 24.4407 26.6737 18.7245 27.3187L18.362 27.3563L17.6707 27.4137L16.762 27.465L16.5745 27.4725L15.8032 27.4938L15.0007 27.5L14.1982 27.4938L13.4282 27.4725L13.0545 27.4562L12.3307 27.4137L11.6395 27.3563C5.7807 26.7875 3.32695 24.44 2.68195 18.7238L2.64445 18.3612L2.58695 17.67L2.5357 16.7613L2.5282 16.5737L2.50695 15.8025L2.50195 15.405V14.595L2.50695 14.1975L2.5282 13.4275L2.54445 13.0538L2.58695 12.33L2.64445 11.6388C3.2132 5.78 5.5607 3.32625 11.277 2.68125L11.6395 2.64375L12.3307 2.58625L13.2395 2.535L13.427 2.5275L14.1982 2.50625C14.4607 2.5025 14.7282 2.5 15.0007 2.5ZM15.0007 13.75H13.7507L13.6045 13.7587C13.3006 13.7949 13.0206 13.9412 12.8175 14.17C12.6143 14.3987 12.5021 14.694 12.5021 15C12.5021 15.306 12.6143 15.6013 12.8175 15.83C13.0206 16.0588 13.3006 16.2051 13.6045 16.2413L13.7507 16.25V20L13.7595 20.1463C13.7924 20.4253 13.9183 20.6851 14.117 20.8837C14.3156 21.0824 14.5754 21.2083 14.8545 21.2412L15.0007 21.25H16.2507L16.397 21.2412C16.676 21.2083 16.9358 21.0824 17.1344 20.8837C17.3331 20.6851 17.459 20.4253 17.492 20.1463L17.5007 20L17.492 19.8538C17.4621 19.5987 17.3544 19.3591 17.1835 19.1674C17.0126 18.9757 16.7869 18.8414 16.537 18.7825L16.397 18.7575L16.2507 18.75V15L16.242 14.8538C16.209 14.5747 16.0831 14.3149 15.8844 14.1163C15.6858 13.9176 15.426 13.7917 15.147 13.7587L15.0007 13.75ZM15.0132 10L14.8545 10.0087C14.5506 10.0449 14.2706 10.1912 14.0675 10.42C13.8643 10.6487 13.7521 10.944 13.7521 11.25C13.7521 11.556 13.8643 11.8513 14.0675 12.08C14.2706 12.3088 14.5506 12.4551 14.8545 12.4913L15.0007 12.5L15.1595 12.4913C15.4633 12.4551 15.7433 12.3088 15.9464 12.08C16.1496 11.8513 16.2618 11.556 16.2618 11.25C16.2618 10.944 16.1496 10.6487 15.9464 10.42C15.7433 10.1912 15.4633 10.0449 15.1595 10.0087L15.0132 10Z" fill="#37CBD5"/>
</svg>
