<svg width="83" height="83" viewBox="0 0 83 83" fill="none" xmlns="http://www.w3.org/2000/svg">
<path d="M9.28398 43.3157L28.5815 53.1719C29.1521 53.4572 30.3971 54.1575 31.0974 53.0163C31.7458 51.9529 30.6565 51.0969 30.1377 50.7079L7.67585 33.5113C6.04179 32.2144 5.67866 29.6985 6.92366 27.9866C8.16866 26.1969 10.7624 25.6782 12.5262 26.8972L35.3512 43.2638C35.7662 43.575 36.9074 44.405 37.7374 43.4454C38.5674 42.5375 37.6596 41.5 37.2965 41.111L16.1055 18.7529C14.5752 17.0669 14.679 14.2657 16.728 12.3722C18.3621 10.8679 21.2412 10.816 22.7974 12.4241L43.6252 34.1079C43.9365 34.4191 44.8962 35.4047 45.8818 34.6785C46.8934 33.9004 46.1671 32.7591 45.9855 32.3182L33.0427 10.8419C32.1609 9.46723 32.1349 6.64004 34.5212 5.21348C36.9852 3.76098 39.3455 5.21348 40.2534 6.74379L54.6487 29.88C56.6977 33.3038 59.914 36.1829 62.7671 37.5316C64.9718 38.5691 66.6837 37.2463 66.969 34.9379C67.4099 31.3585 68.1102 26.9232 69.3552 23.1882C70.6521 19.2716 75.2171 17.3263 79.1077 19.2975L77.7849 24.511C76.4621 29.8022 76.3065 35.3529 77.2143 40.7479C77.9924 45.261 78.7705 51.071 78.6668 56.2325C78.5371 64.0138 73.2977 67.4116 68.603 71.6394C48.3459 90.0291 33.6133 65.0254 26.4287 61.4719L5.54898 49.8779C3.78523 48.8663 3.39616 46.506 4.43366 44.7941C5.44523 43.1341 7.52023 42.4079 9.28398 43.3157Z" fill="#FFD869"/>
<path d="M73.0398 19.1939C73.6623 19.3236 74.2589 19.5052 74.8555 19.7905L73.5327 25.0039C72.2098 30.2952 72.0542 35.8458 72.962 41.2408C73.7402 45.7539 74.5183 51.5639 74.4145 56.7255C74.2848 64.5067 69.0455 67.9045 64.3508 72.1324C60.512 75.608 56.8808 77.5274 53.457 78.3314C58.0739 78.4092 63.1317 76.6195 68.5786 71.6655C73.2733 67.4377 78.4867 64.0399 78.6423 56.2586C78.7461 51.0711 77.968 45.2611 77.1898 40.7739C76.2561 35.3789 76.4377 29.8283 77.7605 24.537L79.0833 19.3236C77.0861 18.312 74.8814 18.3639 73.0398 19.1939Z" fill="#F2C34E"/>
<path d="M72.9866 38.6729C73.7647 43.186 74.5428 48.996 74.4391 54.1575C74.3094 61.9388 69.07 65.3366 64.3753 69.5644C56.2828 76.9047 49.0722 77.3197 42.8731 74.9594C49.9281 79.2391 58.5913 80.7694 68.6031 71.6654C73.2978 67.4375 78.5112 64.0397 78.6669 56.2585C78.7706 51.071 77.9925 45.261 77.2144 40.7738C76.3066 35.3788 72.0528 33.2779 72.9866 38.6729ZM18.5438 12.891L41.6281 36.6757C41.9394 36.9869 42.8991 37.9725 43.8847 37.2463C44.8962 36.4682 44.17 35.3269 43.9884 34.886L42.9769 33.2L22.7975 12.45C21.3709 10.9716 18.8809 10.8938 17.2209 12.0091C17.7137 12.2166 18.1547 12.5019 18.5438 12.891ZM8.065 27.5197L33.38 45.65C33.8469 45.9872 35.1178 46.895 36.0256 45.8316C36.8297 44.9757 36.1812 43.99 35.7403 43.4713L12.7597 27.001C11.2294 25.9375 9.05063 26.0932 7.54625 27.2344C7.72781 27.3382 7.90937 27.416 8.065 27.5197ZM35.9997 7.21066L50.395 30.3469C52.4441 33.7707 55.6603 36.6497 58.5134 37.9985C60.0437 38.7247 61.3406 38.2579 62.0928 37.1425C59.4212 35.69 56.5681 33.0444 54.6487 29.88L40.2534 6.74379C39.3456 5.21348 36.9853 3.76098 34.5212 5.21348C34.3656 5.29129 34.2619 5.39504 34.1322 5.49879C34.9362 5.93973 35.6106 6.56223 35.9997 7.21066ZM27.1291 55.5841C27.7775 55.9213 29.2559 56.7254 30.06 55.4025C30.3713 54.8838 30.2934 54.4429 30.1119 54.0538L9.5175 43.5232C7.88344 42.6932 6.06781 43.0563 4.79688 44.1716L27.1291 55.5841Z" fill="#F2C34E"/>
<path d="M53.8195 79.6543C44.482 79.6543 36.8823 72.4437 31.5911 67.4377C29.3086 65.259 27.3114 63.3915 25.8589 62.6652L4.92733 51.0452C3.83795 50.4227 3.05983 49.4112 2.74858 48.1662C2.38545 46.8174 2.61889 45.3649 3.3192 44.1458C4.69389 41.8115 7.49514 40.9555 9.85545 42.1487L29.153 52.0049C29.3605 52.1087 29.8533 52.3421 30.0089 52.3421C29.9311 52.2643 29.7236 52.0568 29.3345 51.7455L6.87264 34.549C5.81219 33.6832 5.11662 32.4499 4.92437 31.0946C4.73211 29.7392 5.05728 28.3611 5.83514 27.2346C6.6392 26.0933 7.91014 25.2633 9.36264 25.0299C10.7633 24.7705 12.138 25.0818 13.2273 25.8599L36.0783 42.2265C36.5451 42.5896 36.7267 42.6155 36.7786 42.6155C36.7526 42.5896 36.7008 42.3821 36.3636 42.019L15.1467 19.6608C13.0717 17.3265 13.357 13.7212 15.8211 11.4387C18.0258 9.44147 21.7089 9.49335 23.7061 11.5424L44.5339 33.2262C44.897 33.5893 45.0526 33.6412 45.1305 33.6671C45.1045 33.5374 44.9229 33.1743 44.8711 33.0446L31.9023 11.5424C31.202 10.479 30.9686 8.92272 31.3058 7.5221C31.643 6.09554 32.5248 4.92835 33.8217 4.15022C36.7526 2.41241 39.943 3.7871 41.3436 6.12147L55.7129 29.2577C57.5286 32.2924 60.5114 35.0937 63.2867 36.4424C63.6758 36.624 64.2723 36.7796 64.7392 36.5202C65.2061 36.2608 65.5433 35.6643 65.647 34.8343C66.062 31.618 66.7364 26.8455 68.0851 22.8512C68.8114 20.6205 70.4973 18.8308 72.702 17.923C74.9326 17.0152 77.4745 17.119 79.6792 18.2083C80.2239 18.4937 80.5092 19.0902 80.3536 19.6868L79.0308 24.9002C77.7598 29.984 77.5783 35.2752 78.4861 40.5924C79.5495 46.6877 80.0423 51.979 79.9645 56.3365C79.8348 63.6768 75.5033 67.4377 71.3014 71.0949C70.7048 71.6137 70.0823 72.1583 69.4858 72.703C63.8833 77.7349 58.618 79.6543 53.8195 79.6543ZM7.65077 44.2237C6.82077 44.2237 6.04264 44.6646 5.57577 45.4687V45.4946C5.21264 46.0912 5.10889 46.8433 5.26452 47.5177C5.36827 47.9068 5.62764 48.4515 6.19827 48.7887L27.052 60.3827C28.8158 61.2387 30.9167 63.2358 33.3548 65.5702C41.6289 73.4034 52.9376 84.1415 67.722 70.7318C68.3445 70.1612 68.967 69.6424 69.5895 69.0977C73.6876 65.5183 77.2411 62.4577 77.3708 56.2587C77.4486 52.0827 76.9558 46.9471 75.9442 41.0074C74.9586 35.3271 75.1661 29.6727 76.5148 24.2258L77.5523 20.1018C76.2814 19.7127 74.9326 19.7646 73.6876 20.2833C72.1833 20.9058 71.042 22.1249 70.5492 23.6293C69.2783 27.4421 68.6039 32.0071 68.2148 35.1196C68.0073 36.7537 67.2033 38.0765 66.0101 38.7508C64.8948 39.3733 63.5201 39.3733 62.1973 38.7508C58.9292 37.1946 55.6092 34.0562 53.5342 30.5805L39.1389 7.44428C38.7239 6.76991 37.1417 5.16179 35.1705 6.35491C34.5338 6.72221 34.066 7.32405 33.8673 8.03172C33.6686 8.73939 33.7546 9.49672 34.107 10.1418L47.0758 31.644C48.217 33.9005 47.4648 35.0677 46.6608 35.6902C45.9604 36.209 44.5339 36.8315 42.7183 35.0418L21.8645 13.3321C20.827 12.2946 18.752 12.2946 17.6108 13.3321C16.0286 14.8105 16.0805 16.8077 17.0661 17.8971L38.2311 40.2033C39.8133 41.8633 39.502 43.4196 38.672 44.3274C38.3089 44.7424 36.8823 46.0652 34.548 44.3015L11.723 27.9608C11.2042 27.5977 10.5298 27.4421 9.80358 27.5718C9.05139 27.7015 8.37702 28.1165 7.96202 28.713C7.13202 29.8802 7.36545 31.618 8.45483 32.4999L30.8908 49.6705C32.9658 51.3046 32.7323 52.7571 32.1617 53.6649C31.5651 54.6505 30.3461 55.5583 27.9858 54.3133L8.66233 44.4312C8.35108 44.3015 8.01389 44.2237 7.65077 44.2237ZM20.412 74.8559C16.6724 74.8484 13.0081 73.8045 9.82593 71.8403C6.64375 69.876 4.06826 67.0682 2.38545 63.7287C2.23768 63.4185 2.21738 63.0629 2.32892 62.7379C2.44045 62.413 2.67493 62.1448 2.98202 61.9908C3.63045 61.6796 4.40858 61.939 4.71983 62.5615C6.22735 65.5446 8.55158 68.0378 11.4217 69.7507C14.2918 71.4636 17.5896 72.3256 20.9308 72.2362C21.657 72.2621 22.2536 72.7808 22.2536 73.5071C22.2606 73.6783 22.2329 73.8492 22.1721 74.0094C22.1114 74.1696 22.0189 74.3159 21.9002 74.4395C21.7815 74.5631 21.639 74.6614 21.4813 74.7285C21.3236 74.7955 21.154 74.8301 20.9826 74.8299C20.8011 74.8559 20.6195 74.8559 20.412 74.8559ZM20.2823 68.4233H20.1526C17.698 68.1827 15.3387 67.3487 13.2781 65.9931C11.2176 64.6375 9.51778 62.801 8.32514 60.6421C8.24193 60.4926 8.18931 60.328 8.17038 60.1579C8.15144 59.9878 8.16656 59.8157 8.21484 59.6515C8.26313 59.4873 8.34362 59.3344 8.45162 59.2017C8.55962 59.0689 8.69297 58.959 8.84389 58.8783C9.46639 58.5412 10.2705 58.7487 10.6076 59.3971C12.6048 63.0283 16.288 65.4405 20.412 65.8555C21.1123 65.9333 21.657 66.5558 21.5792 67.2821C21.5014 67.9305 20.9308 68.4233 20.2823 68.4233Z" fill="#455A64"/>
<path d="M63.8825 21.2171C63.234 21.2171 62.6634 20.7242 62.5856 20.0499C62.2142 16.7291 60.9081 13.5819 58.819 10.974C56.7299 8.36613 53.9437 6.4046 50.7841 5.31737C50.624 5.26288 50.4762 5.17738 50.3491 5.06576C50.2221 4.95415 50.1183 4.81861 50.0436 4.66687C49.9689 4.51513 49.9249 4.35018 49.914 4.18142C49.9031 4.01266 49.9255 3.8434 49.98 3.68331C50.0345 3.52322 50.12 3.37543 50.2316 3.24839C50.3432 3.12134 50.4788 3.01752 50.6305 2.94286C50.7822 2.86819 50.9472 2.82414 51.1159 2.81323C51.2847 2.80232 51.454 2.82475 51.6141 2.87925C58.9803 5.39519 64.2975 12.0352 65.1534 19.7905C65.2312 20.4908 64.7125 21.1392 64.0122 21.2171H63.8825ZM57.5797 22.5139C56.9572 22.5139 56.3865 22.0471 56.3087 21.3986C56.003 19.3758 55.2106 17.4574 53.9998 15.8084C52.789 14.1593 51.196 12.8289 49.3575 11.9314C49.0479 11.7801 48.8112 11.512 48.6993 11.1861C48.5874 10.8602 48.6096 10.5032 48.7609 10.1936C48.9123 9.88407 49.1804 9.64731 49.5063 9.53543C49.8322 9.42355 50.1892 9.44572 50.4987 9.59706C52.7124 10.6822 54.6305 12.287 56.0894 14.2743C57.5483 16.2616 58.5046 18.5725 58.8766 21.0096C58.9803 21.7099 58.4875 22.3842 57.7872 22.488C57.7094 22.488 57.6575 22.5139 57.5797 22.5139Z" fill="#455A64"/>
</svg>
