<svg width="35" height="35" viewBox="0 0 35 35" fill="none" xmlns="http://www.w3.org/2000/svg">
<path d="M32.7192 7.70603V7.66298C32.2806 5.59656 30.6578 3.91759 28.5526 3.40098L17.2806 0.172202H17.2368C16.7982 0.0430504 16.3157 0 15.8771 0C14.7368 0 13.6842 0.344403 12.7631 0.947109C12.7631 0.947109 12.7192 0.947109 12.7192 0.99016L2.3245 8.43788C0.482399 9.68635 -0.394795 11.8819 0.131521 14.0344L3.2017 26.9065C3.64029 28.7577 5.08766 30.3075 6.97363 30.9102L17.5438 34.7417H17.5877C18.1578 34.9139 18.728 35 19.342 35C20.5263 35 21.7105 34.6125 22.6754 33.9237L22.7192 33.8807L32.8947 25.615C34.5175 24.3665 35.307 22.3001 34.9122 20.3198L32.7192 7.70603ZM28.0263 18.1673C27.9824 17.909 27.8508 17.6507 27.7192 17.4785C27.6315 17.3924 27.5438 17.3063 27.4999 17.2632C27.4561 17.2202 27.4122 17.2202 27.3245 17.1771C27.2806 17.1771 27.2368 17.1341 27.1491 17.1341C26.7105 17.048 26.3157 17.2202 26.0526 17.3924C25.7894 17.5215 25.6578 17.6507 25.6578 17.6507C25.6578 17.6507 25.7017 17.6076 25.7456 17.5646C25.7894 17.5215 25.8771 17.3924 25.9649 17.3063C26.0526 17.2202 26.228 17.091 26.4034 16.9619C26.5789 16.8758 26.842 16.7466 27.1491 16.7897C27.2368 16.7897 27.2806 16.7897 27.3684 16.8327C27.4999 16.8758 27.4999 16.8758 27.5877 16.9188C27.7631 17.0049 27.8947 17.091 28.0263 17.2202C28.2894 17.4785 28.4649 17.7798 28.5526 18.1242C28.7719 18.813 28.6842 19.5449 28.5087 20.2337C28.4649 20.449 28.421 20.5351 28.3333 20.7503C28.2456 20.9225 28.1578 21.0947 28.0701 21.2239C27.8947 21.5252 27.6315 21.7835 27.4122 22.0418C27.1491 22.2571 26.842 22.4723 26.535 22.5584C26.228 22.6445 25.8771 22.6445 25.5701 22.5154C25.307 22.3862 25.0877 22.214 24.9999 21.9988C24.8684 21.8266 24.8245 21.6113 24.7806 21.4822C24.7368 21.353 24.7368 21.2239 24.7368 21.1378C24.7368 21.0517 24.7368 21.0086 24.7368 21.0086C24.7368 21.0086 24.7806 21.1808 24.9122 21.4391C25.0438 21.6974 25.307 22.0418 25.7456 22.1279C25.921 22.171 26.1841 22.1279 26.4034 22.0418C26.6227 21.9557 26.842 21.7835 27.0613 21.5683C27.2806 21.353 27.4122 21.1378 27.5877 20.8364C27.6754 20.7073 27.7192 20.5781 27.807 20.449C27.8508 20.3198 27.9385 20.1476 27.9824 20.0184C28.0701 19.3727 28.114 18.7269 28.0263 18.1673ZM18.0263 33.4071L7.45608 29.5756C6.05257 29.1451 4.95608 27.9828 4.64906 26.6052L1.57889 13.7331C1.18415 12.1402 1.84205 10.5043 3.2017 9.60025L13.5526 2.10947C14.2105 1.63592 15.0438 1.42066 15.8333 1.42066C16.1841 1.42066 16.535 1.46371 16.842 1.54982C16.842 1.54982 18.6403 1.89422 21.3596 2.53998C22.7192 2.84133 24.2543 3.27183 25.9649 3.70234C26.7982 3.91759 27.6754 4.13284 28.5526 4.39114C29.5175 4.6925 30.3947 5.2952 31.0087 6.11316C31.3157 6.54366 31.535 6.97417 31.6666 7.49077C31.7105 7.61993 31.7105 7.66298 31.7543 7.87823L31.7982 8.22263C31.842 8.43788 31.8859 8.65314 31.9298 8.86839C32.0613 9.7294 32.1929 10.6335 32.3245 11.4514C32.5877 13.1304 32.807 14.7232 32.9824 16.0578C33.3333 18.77 33.4649 20.5781 33.4649 20.5781C33.4649 20.5781 32.9824 18.813 32.4122 16.1439C32.1052 14.8093 31.7982 13.2595 31.4912 11.5806C31.3157 10.7626 31.1403 9.9016 31.0087 8.99754C30.9648 8.78229 30.921 8.56704 30.8771 8.35178L30.8333 8.00738C30.8333 7.96433 30.7894 7.79213 30.7456 7.70603C30.614 7.36162 30.4385 6.97417 30.2192 6.62977C29.9999 6.32841 29.7368 6.07011 29.4736 5.85486L19.342 13.0873C17.1052 14.6802 15.307 14.551 14.2543 14.3788L2.23678 12.0972L13.5964 16.1009C14.6929 16.4883 16.5789 17.2202 17.0613 19.3727C17.0613 19.4157 17.0613 19.4588 17.1052 19.5018L20.0877 33.5363C19.8245 33.5793 19.6052 33.5793 19.342 33.5793C18.9034 33.5793 18.4649 33.5363 18.0263 33.4071Z" fill="#2ECC71"/>
<path d="M16.0518 10.5478C14.736 10.8061 13.7711 11.581 13.9026 12.2268C14.0342 12.8725 15.2184 13.2169 16.5342 12.9156C17.85 12.6573 18.8149 11.8824 18.6833 11.2366C18.5518 10.5909 17.3675 10.2895 16.0518 10.5478Z" fill="#2ECC71"/>
<path d="M16.0967 9.08356C17.4125 8.82526 18.3774 8.05035 18.2458 7.40459C18.1143 6.75884 16.93 6.41443 15.6143 6.71579C14.2985 6.97409 13.3336 7.749 13.4651 8.39475C13.5967 9.04051 14.7809 9.34186 16.0967 9.08356Z" fill="#2ECC71"/>
<path d="M15.6574 5.20929C16.9732 4.95099 17.9381 4.17608 17.8066 3.53032C17.675 2.88457 16.4908 2.54016 15.175 2.84152C13.8592 3.09982 12.8943 3.87473 13.0259 4.52048C13.1574 5.16624 14.3417 5.51064 15.6574 5.20929Z" fill="#2ECC71"/>
<path d="M5.61407 16.0148C4.91231 14.9816 3.85968 14.465 3.33337 14.8094C2.80705 15.1538 2.98249 16.2731 3.68424 17.3063C4.386 18.3395 5.43863 18.8561 5.96495 18.5117C6.49126 18.1673 6.31582 17.048 5.61407 16.0148Z" fill="#2ECC71"/>
<path d="M13.9033 18.6408C13.2015 17.6076 12.1489 17.091 11.6226 17.4354C11.0962 17.7798 11.2717 18.8991 11.9734 19.9323C12.6752 20.9655 13.7278 21.4821 14.2541 21.1377C14.7804 20.7933 14.6489 19.674 13.9033 18.6408Z" fill="#2ECC71"/>
<path d="M8.77087 21.052C8.24455 21.3964 8.41999 22.5157 9.12174 23.5489C9.8235 24.5821 10.8761 25.0987 11.4024 24.7543C11.9288 24.4099 11.7533 23.2906 11.0516 22.2574C10.306 21.2242 9.29718 20.6645 8.77087 21.052Z" fill="#2ECC71"/>
<path d="M5.83141 24.4955C5.3051 24.8399 5.48054 25.9592 6.18229 26.9924C6.88405 28.0256 7.93668 28.5422 8.46299 28.1978C8.98931 27.8534 8.81387 26.7341 8.11212 25.7009C7.3665 24.7108 6.35773 24.1511 5.83141 24.4955Z" fill="#2ECC71"/>
<path d="M14.3431 27.4236C13.8168 27.768 13.9923 28.8873 14.694 29.9205C15.3958 30.9537 16.4484 31.4703 16.9747 31.1259C17.501 30.7815 17.3256 29.6622 16.6238 28.629C15.8782 27.5958 14.8694 27.0361 14.3431 27.4236Z" fill="#2ECC71"/>
</svg>
