<svg width="491" height="345" viewBox="0 0 491 345" fill="none" xmlns="http://www.w3.org/2000/svg">
<circle cx="380.5" cy="110.5" r="95.5" stroke="#FCF7E7" stroke-width="30"/>
<circle cx="152.382" cy="191.647" r="127.382" stroke="#EFF9F3" stroke-width="50"/>
<g clip-path="url(#clip0_482_16628)">
<path d="M57.6309 162.519L80.7793 133.654L263.311 256.712L441.668 133.654L468.231 162.899L263.311 306.466L57.6309 162.519Z" fill="#E7E5E5"/>
<path d="M58.01 162.519L236.367 283.298C236.367 283.298 253.444 296.212 262.931 295.072L263.31 279.88C263.31 279.88 74.7073 157.582 66.3586 151.505L58.01 162.519Z" fill="#D8D6D6"/>
<path d="M468.232 164.038L289.875 284.817C289.875 284.817 272.798 297.731 263.311 296.591L262.932 281.399C262.932 281.399 451.535 159.101 459.883 153.024L468.232 164.038Z" fill="#D8D6D6"/>
<path d="M483.031 153.024L281.147 289.755C281.147 289.755 263.311 301.909 245.475 289.755L43.5902 153.024L35.6211 164.418L228.398 294.692C228.398 294.692 240.921 318.62 263.311 318.62C285.7 318.62 298.223 294.692 298.223 294.692L491.001 164.418L483.031 153.024Z" fill="#FFC23A"/>
<path d="M455.708 149.226C457.226 149.226 398.786 121.5 398.786 121.5C262.551 125.298 263.69 281.779 263.69 281.779C263.69 281.779 346.038 150.365 455.708 149.226Z" fill="#D8D6D6"/>
<path d="M400.304 87.3173C401.822 86.9375 338.069 82 338.069 82C214.357 137.832 263.69 281.779 263.69 281.779C263.69 281.779 297.843 128.337 400.304 87.3173Z" fill="#C3C1C1"/>
<path d="M203.351 261.269L193.105 271.144L228.397 295.072C228.397 295.072 238.643 319 263.31 319C263.31 319 285.699 317.861 298.222 295.072L334.653 270.385L325.165 261.269L281.525 289.755C281.525 289.755 267.105 301.149 245.854 289.755L203.351 261.269Z" fill="#F9A431"/>
</g>
<defs>
<clipPath id="clip0_482_16628">
<rect width="455" height="237" fill="white" transform="translate(36 82)"/>
</clipPath>
</defs>
</svg>
