<svg width="516" height="305" viewBox="0 0 516 305" fill="none" xmlns="http://www.w3.org/2000/svg">
<circle cx="197.382" cy="152.382" r="127.382" stroke="#EFF9F3" stroke-width="50"/>
<path d="M406.959 194.877C405.395 194.877 403.992 194.547 402.748 193.888C401.504 193.228 400.534 192.314 399.837 191.146C399.14 189.959 398.791 188.621 398.791 187.133C398.791 185.644 399.14 184.316 399.837 183.147C400.534 181.979 401.495 181.065 402.72 180.406C403.963 179.746 405.377 179.417 406.959 179.417C408.448 179.417 409.748 179.718 410.86 180.321C411.99 180.924 412.838 181.791 413.404 182.921L410.69 184.504C410.257 183.807 409.71 183.289 409.051 182.95C408.41 182.592 407.704 182.413 406.931 182.413C405.612 182.413 404.519 182.846 403.652 183.713C402.786 184.561 402.352 185.701 402.352 187.133C402.352 188.565 402.776 189.714 403.624 190.581C404.491 191.429 405.593 191.853 406.931 191.853C407.704 191.853 408.41 191.683 409.051 191.344C409.71 190.986 410.257 190.458 410.69 189.761L413.404 191.344C412.819 192.475 411.962 193.351 410.832 193.973C409.72 194.576 408.429 194.877 406.959 194.877ZM430.991 179.586V194.679H427.627V192.729C427.043 193.445 426.318 193.982 425.451 194.34C424.603 194.698 423.661 194.877 422.625 194.877C421.155 194.877 419.836 194.557 418.668 193.916C417.518 193.275 416.614 192.371 415.954 191.203C415.314 190.034 414.993 188.678 414.993 187.133C414.993 185.588 415.314 184.24 415.954 183.091C416.614 181.923 417.518 181.018 418.668 180.378C419.836 179.737 421.155 179.417 422.625 179.417C423.604 179.417 424.499 179.586 425.31 179.925C426.139 180.264 426.855 180.764 427.458 181.423V179.586H430.991ZM423.02 191.853C424.32 191.853 425.394 191.419 426.242 190.553C427.09 189.686 427.514 188.546 427.514 187.133C427.514 185.719 427.09 184.579 426.242 183.713C425.394 182.846 424.32 182.413 423.02 182.413C421.72 182.413 420.646 182.846 419.798 183.713C418.969 184.579 418.555 185.719 418.555 187.133C418.555 188.546 418.969 189.686 419.798 190.553C420.646 191.419 421.72 191.853 423.02 191.853ZM440.277 194.877C439.052 194.877 437.856 194.717 436.687 194.397C435.519 194.076 434.586 193.671 433.889 193.181L435.246 190.496C435.924 190.948 436.734 191.316 437.677 191.598C438.638 191.862 439.58 191.994 440.503 191.994C442.613 191.994 443.669 191.438 443.669 190.327C443.669 189.799 443.395 189.431 442.849 189.224C442.321 189.017 441.464 188.819 440.277 188.631C439.033 188.442 438.016 188.226 437.224 187.981C436.452 187.736 435.773 187.312 435.189 186.709C434.624 186.087 434.341 185.23 434.341 184.137C434.341 182.705 434.935 181.565 436.122 180.717C437.328 179.85 438.948 179.417 440.983 179.417C442.02 179.417 443.056 179.539 444.092 179.784C445.129 180.01 445.977 180.321 446.636 180.717L445.28 183.402C443.998 182.648 442.557 182.271 440.955 182.271C439.919 182.271 439.127 182.431 438.581 182.752C438.053 183.053 437.79 183.458 437.79 183.967C437.79 184.532 438.072 184.937 438.638 185.182C439.222 185.409 440.117 185.625 441.323 185.833C442.529 186.021 443.518 186.238 444.29 186.483C445.063 186.728 445.722 187.142 446.269 187.726C446.834 188.31 447.117 189.139 447.117 190.213C447.117 191.627 446.504 192.757 445.28 193.605C444.055 194.453 442.387 194.877 440.277 194.877ZM450.159 179.586H453.692V194.679H450.159V179.586ZM451.94 177.099C451.299 177.099 450.762 176.901 450.329 176.505C449.896 176.091 449.679 175.582 449.679 174.979C449.679 174.376 449.896 173.877 450.329 173.481C450.762 173.067 451.299 172.859 451.94 172.859C452.581 172.859 453.118 173.057 453.551 173.453C453.984 173.83 454.201 174.31 454.201 174.894C454.201 175.516 453.984 176.044 453.551 176.477C453.137 176.892 452.599 177.099 451.94 177.099ZM466.893 179.417C468.797 179.417 470.323 179.972 471.472 181.084C472.622 182.196 473.196 183.845 473.196 186.03V194.679H469.663V186.483C469.663 185.164 469.352 184.174 468.731 183.515C468.109 182.837 467.223 182.497 466.074 182.497C464.774 182.497 463.747 182.893 462.993 183.684C462.239 184.457 461.862 185.578 461.862 187.048V194.679H458.329V179.586H461.693V181.536C462.277 180.839 463.012 180.312 463.897 179.954C464.783 179.596 465.782 179.417 466.893 179.417ZM484.6 194.877C483.073 194.877 481.698 194.547 480.473 193.888C479.248 193.228 478.287 192.314 477.59 191.146C476.912 189.959 476.573 188.621 476.573 187.133C476.573 185.644 476.912 184.316 477.59 183.147C478.287 181.979 479.248 181.065 480.473 180.406C481.698 179.746 483.073 179.417 484.6 179.417C486.145 179.417 487.53 179.746 488.754 180.406C489.979 181.065 490.931 181.979 491.609 183.147C492.306 184.316 492.655 185.644 492.655 187.133C492.655 188.621 492.306 189.959 491.609 191.146C490.931 192.314 489.979 193.228 488.754 193.888C487.53 194.547 486.145 194.877 484.6 194.877ZM484.6 191.853C485.9 191.853 486.974 191.419 487.822 190.553C488.67 189.686 489.094 188.546 489.094 187.133C489.094 185.719 488.67 184.579 487.822 183.713C486.974 182.846 485.9 182.413 484.6 182.413C483.3 182.413 482.225 182.846 481.378 183.713C480.548 184.579 480.134 185.719 480.134 187.133C480.134 188.546 480.548 189.686 481.378 190.553C482.225 191.419 483.3 191.853 484.6 191.853Z" fill="#53B9B1"/>
<path d="M4.06297 155.92C5.09932 156.533 6.21811 157.051 7.41934 157.475C8.62057 157.899 9.82179 158.111 11.023 158.111C13.7317 158.111 15.5571 157.287 16.4992 155.638C17.4649 153.989 17.9477 151.54 17.9477 148.289V117.022C18.6779 116.881 19.4905 116.786 20.3855 116.739C21.3041 116.692 22.0814 116.669 22.7173 116.669C23.3768 116.669 24.1305 116.692 24.9784 116.739C25.8499 116.786 26.6625 116.881 27.4162 117.022V147.229C27.4162 149.914 27.2042 152.399 26.7803 154.684C26.3799 156.969 25.6144 158.959 24.4838 160.655C23.3768 162.327 21.8105 163.634 19.7849 164.576C17.7829 165.518 15.1802 165.99 11.9769 165.99C10.1398 165.99 8.1966 165.742 6.14745 165.248C4.12186 164.729 2.30824 163.964 0.706604 162.951C0.918585 161.726 1.30722 160.49 1.8725 159.241C2.46134 157.97 3.19149 156.863 4.06297 155.92ZM33.9748 126.914L34.3281 126.526H43.1253V134.016C43.1253 134.675 43.1371 135.288 43.1606 135.853C43.1842 136.395 43.196 137.042 43.196 137.796V154.154C43.196 154.884 43.1842 155.532 43.1606 156.097C43.1371 156.639 43.1253 157.239 43.1253 157.899V165.389H39.3803C37.708 165.389 36.389 164.906 35.4233 163.94C34.4576 162.951 33.9748 161.632 33.9748 159.983V126.914ZM57.4694 142C57.6578 142.566 57.7873 143.202 57.858 143.908C57.9287 144.591 57.964 145.168 57.964 145.639C57.964 146.181 57.9287 146.805 57.858 147.512C57.7873 148.195 57.6578 148.819 57.4694 149.384H47.4356C46.9174 149.384 46.1873 149.384 45.2451 149.384C44.303 149.384 43.3491 149.384 42.3834 149.384C41.4177 149.361 40.6051 149.337 39.9456 149.314V142.142C40.6051 142.118 41.4177 142.095 42.3834 142.071C43.3491 142.047 44.303 142.036 45.2451 142.036C46.1873 142.012 46.9174 142 47.4356 142H57.4694ZM61.179 126.526C61.2968 127.209 61.3675 127.857 61.391 128.469C61.4146 129.081 61.4263 129.658 61.4263 130.2C61.4263 130.742 61.3675 131.354 61.2497 132.037C61.1555 132.72 60.9788 133.415 60.7197 134.122H47.4356C46.9174 134.122 46.1873 134.122 45.2451 134.122C44.303 134.098 43.3491 134.075 42.3834 134.051C41.4177 134.028 40.6051 134.004 39.9456 133.98V126.526H61.179ZM62.3803 157.758C62.3803 160.608 61.9327 162.598 61.0377 163.728C60.1662 164.835 58.6706 165.389 56.5508 165.389H40.0516V158.111C41.1586 158.064 42.089 158.017 42.8427 157.97C43.6199 157.899 44.3736 157.852 45.1038 157.828C45.834 157.781 46.7054 157.758 47.7182 157.758H62.3803ZM99.3631 151.08C99.3631 155.909 97.9145 159.654 95.0175 162.315C92.1439 164.953 88.0221 166.272 82.6519 166.272C77.3053 166.272 73.1834 164.953 70.2863 162.315C67.3893 159.654 65.9407 155.909 65.9407 151.08V126.596L66.3647 126.172H69.7917C71.6289 126.172 73.0068 126.632 73.9253 127.55C74.8439 128.469 75.3032 130 75.3032 132.143V151.08C75.3032 153.53 75.8803 155.438 77.0344 156.804C78.2121 158.17 80.0846 158.853 82.6519 158.853C85.2663 158.853 87.1388 158.17 88.2694 156.804C89.4 155.438 89.9653 153.53 89.9653 151.08V126.526C90.7425 126.384 91.5433 126.29 92.3677 126.243C93.1921 126.196 93.9222 126.172 94.5582 126.172C95.147 126.172 95.9125 126.208 96.8546 126.278C97.7968 126.326 98.6329 126.42 99.3631 126.561V151.08ZM101.585 127.974C102.763 127.197 103.928 126.679 105.083 126.42C106.26 126.161 107.226 126.031 107.98 126.031C109.275 126.031 110.347 126.326 111.195 126.914C112.043 127.503 112.914 128.434 113.809 129.705L137.056 163.799C135.926 164.623 134.748 165.165 133.523 165.424C132.299 165.683 131.321 165.813 130.591 165.813C129.319 165.813 128.236 165.518 127.341 164.93C126.446 164.317 125.562 163.375 124.691 162.103L101.585 127.974ZM126.457 126.526C127.093 126.361 127.741 126.267 128.4 126.243C129.084 126.196 129.79 126.172 130.52 126.172C131.18 126.172 131.945 126.22 132.817 126.314C133.712 126.408 134.536 126.573 135.29 126.808L135.431 127.303L122.536 146.593L119.109 150.126L109.287 165.283C108.745 165.401 108.097 165.495 107.344 165.566C106.59 165.636 105.872 165.672 105.189 165.672C103.304 165.672 101.703 165.436 100.384 164.965L100.066 164.47L114.162 143.237L117.766 139.633L126.457 126.526Z" fill="black"/>
<path d="M282.97 121.533C282.828 122.923 282.298 124.265 281.38 125.561C280.485 126.833 279.566 127.786 278.624 128.422C276.905 127.221 274.985 126.244 272.865 125.49C270.745 124.736 268.637 124.359 266.541 124.359C264.091 124.359 261.925 124.948 260.04 126.126C258.156 127.304 256.684 129.188 255.624 131.779C254.564 134.346 254.034 137.738 254.034 141.954C254.034 147.819 255.118 152.141 257.285 154.92C259.475 157.676 262.666 159.054 266.859 159.054C269.261 159.054 271.452 158.806 273.43 158.312C275.409 157.817 276.987 157.37 278.165 156.969L283.076 163.682C281.686 164.177 280.049 164.659 278.165 165.13C276.28 165.578 274.231 165.943 272.017 166.226C269.827 166.508 267.566 166.65 265.234 166.65C261.512 166.65 258.321 166.037 255.659 164.813C253.021 163.588 250.866 161.857 249.194 159.619C247.522 157.381 246.285 154.755 245.484 151.74C244.683 148.726 244.283 145.428 244.283 141.848C244.283 137.467 244.884 133.675 246.085 130.472C247.31 127.268 248.958 124.63 251.031 122.558C253.127 120.485 255.471 118.942 258.062 117.929C260.676 116.917 263.361 116.41 266.117 116.41C269.226 116.41 272.241 116.881 275.162 117.823C278.106 118.766 280.708 120.002 282.97 121.533ZM274.137 151.917C274.137 150.268 274.184 148.62 274.278 146.971C274.373 145.322 274.608 143.826 274.985 142.484L283.076 145.204V163.682L274.137 163.823V151.917ZM276.645 139.233C279.048 139.233 280.72 139.775 281.662 140.859C282.605 141.942 283.076 143.391 283.076 145.204V147.218H269.544C268.626 147.218 267.813 147.1 267.106 146.865C266.423 146.629 265.893 146.229 265.516 145.664C265.14 145.075 264.951 144.25 264.951 143.19C264.951 142.554 265.022 141.883 265.163 141.177C265.304 140.446 265.469 139.799 265.658 139.233H276.645Z" fill="black"/>
<path d="M318.955 138.492C318.955 140.258 318.554 141.836 317.754 143.226C316.976 144.615 315.964 145.781 314.715 146.723C313.49 147.666 312.207 148.278 310.864 148.561C312.089 149.008 313.09 149.656 313.867 150.504C314.645 151.328 315.316 152.388 315.881 153.684L318.107 158.7C318.531 159.666 319.002 160.549 319.52 161.35C320.038 162.151 320.592 162.822 321.181 163.364C320.592 164.118 319.72 164.789 318.566 165.378C317.412 165.943 316.187 166.226 314.892 166.226C313.479 166.226 312.36 165.884 311.536 165.201C310.711 164.495 309.981 163.399 309.345 161.915L306.059 154.425C305.518 153.177 304.846 152.341 304.046 151.917C303.268 151.469 302.161 151.246 300.724 151.246H293.835V144.18C294.777 144.18 295.849 144.168 297.05 144.144C298.251 144.121 299.394 144.097 300.477 144.074C301.561 144.05 302.385 144.038 302.95 144.038C304.623 144.038 305.918 143.779 306.837 143.261C307.779 142.743 308.426 142.072 308.78 141.247C309.157 140.423 309.345 139.575 309.345 138.704C309.345 137.808 309.157 136.961 308.78 136.16C308.403 135.359 307.779 134.723 306.907 134.252C306.036 133.757 304.846 133.51 303.339 133.51C302.42 133.51 301.514 133.498 300.619 133.475C299.747 133.451 298.852 133.439 297.933 133.439V165.66C297.156 165.802 296.344 165.896 295.496 165.943C294.671 165.99 293.941 166.014 293.305 166.014C292.716 166.014 291.974 165.99 291.079 165.943C290.184 165.896 289.372 165.802 288.642 165.66V127.257L288.995 126.868C291.68 126.797 294.212 126.738 296.591 126.691C298.97 126.644 301.36 126.621 303.763 126.621C306.613 126.621 309.192 127.009 311.5 127.786C313.808 128.564 315.622 129.836 316.941 131.602C318.284 133.345 318.955 135.642 318.955 138.492Z" fill="black"/>
<path d="M333.083 126.903C334.026 126.762 334.991 126.668 335.981 126.621C336.993 126.573 337.888 126.55 338.666 126.55C339.396 126.55 340.208 126.573 341.103 126.621C341.998 126.668 342.929 126.762 343.895 126.903L357.532 165.201C356.849 165.554 355.977 165.814 354.918 165.978C353.881 166.143 352.998 166.226 352.268 166.226C351.114 166.226 350.054 166.002 349.088 165.554C348.146 165.107 347.392 163.976 346.827 162.163L341.457 146.088C341.127 144.957 340.762 143.697 340.362 142.307C339.985 140.918 339.608 139.528 339.231 138.138C338.878 136.749 338.548 135.465 338.242 134.287H337.853C337.382 135.96 336.852 137.844 336.263 139.94C335.698 142.036 335.168 143.862 334.673 145.416L327.855 165.696C327.266 165.814 326.63 165.908 325.947 165.978C325.264 166.049 324.569 166.084 323.862 166.084C323.061 166.084 322.261 166.026 321.46 165.908C320.659 165.79 320.011 165.625 319.517 165.413L319.163 164.919L333.083 126.903ZM333.366 157.994C333.083 157.994 332.718 157.994 332.271 157.994C331.847 157.97 331.411 157.958 330.964 157.958C330.516 157.935 330.151 157.923 329.868 157.923H325.77L328.703 150.574H332.271C332.53 150.574 332.86 150.574 333.26 150.574C333.684 150.551 334.096 150.539 334.497 150.539C334.921 150.516 335.262 150.504 335.521 150.504H340.679C340.962 150.504 341.28 150.516 341.633 150.539C342.01 150.539 342.375 150.551 342.729 150.574C343.105 150.574 343.435 150.574 343.718 150.574H347.498L350.148 157.923H345.908C345.626 157.923 345.272 157.935 344.848 157.958C344.424 157.958 344.001 157.97 343.577 157.994C343.153 157.994 342.811 157.994 342.552 157.994H333.366Z" fill="black"/>
<path d="M351.424 134.535C351.282 133.828 351.188 133.168 351.141 132.556C351.094 131.92 351.07 131.331 351.07 130.79C351.07 130.271 351.094 129.671 351.141 128.988C351.188 128.281 351.282 127.586 351.424 126.903H402.35C402.491 127.445 402.597 128.057 402.667 128.74C402.762 129.4 402.809 129.953 402.809 130.401C402.809 131.743 402.444 132.768 401.714 133.475C401.007 134.181 399.782 134.535 398.039 134.535H395.495C395.024 134.535 394.388 134.523 393.588 134.499C392.787 134.476 371.986 134.464 371.562 134.464H362.305C361.834 134.464 361.175 134.476 360.327 134.499C359.502 134.523 358.855 134.535 358.384 134.535H351.424ZM362.235 138.739C362.235 137.985 362.246 137.29 362.27 136.654C362.293 135.995 362.305 135.265 362.305 134.464V130.79H371.562V134.464C371.562 135.265 371.574 135.995 371.597 136.654C371.621 137.29 371.632 137.985 371.632 138.739V165.66C371.044 165.778 370.278 165.861 369.336 165.908C368.394 165.978 367.593 166.014 366.934 166.014C366.298 166.014 365.52 165.978 364.602 165.908C363.683 165.861 362.894 165.778 362.235 165.66V138.739Z" fill="black"/>
<path d="M436.941 151.458C436.941 156.286 435.493 160.031 432.596 162.693C429.722 165.331 425.6 166.65 420.23 166.65C414.884 166.65 410.762 165.331 407.865 162.693C404.968 160.031 403.519 156.286 403.519 151.458V126.974L403.943 126.55H407.37C409.207 126.55 410.585 127.009 411.504 127.928C412.422 128.846 412.882 130.377 412.882 132.521V151.458C412.882 153.907 413.459 155.815 414.613 157.181C415.79 158.547 417.663 159.23 420.23 159.23C422.845 159.23 424.717 158.547 425.848 157.181C426.978 155.815 427.544 153.907 427.544 151.458V126.903C428.321 126.762 429.122 126.668 429.946 126.621C430.77 126.573 431.501 126.55 432.137 126.55C432.725 126.55 433.491 126.585 434.433 126.656C435.375 126.703 436.211 126.797 436.941 126.939V151.458Z" fill="black"/>
<path d="M443.423 126.903C444.153 126.762 444.978 126.668 445.896 126.621C446.839 126.573 447.604 126.55 448.193 126.55C448.829 126.55 449.559 126.573 450.383 126.621C451.231 126.668 452.044 126.762 452.821 126.903V165.66C452.044 165.802 451.231 165.896 450.383 165.943C449.559 165.99 448.829 166.014 448.193 166.014C447.604 166.014 446.839 165.99 445.896 165.943C444.978 165.896 444.153 165.802 443.423 165.66V126.903Z" fill="black"/>
<path d="M455.139 134.535C454.998 133.828 454.903 133.168 454.856 132.556C454.809 131.92 454.786 131.331 454.786 130.79C454.786 130.271 454.809 129.671 454.856 128.988C454.903 128.281 454.998 127.586 455.139 126.903H485.876C486.018 127.445 486.124 128.057 486.194 128.74C486.288 129.4 486.336 129.953 486.336 130.401C486.336 131.743 485.97 132.768 485.24 133.475C484.534 134.181 483.309 134.535 481.566 134.535H479.022C478.551 134.535 477.915 134.523 477.114 134.499C476.314 134.476 475.701 134.464 475.277 134.464H466.021C465.55 134.464 464.89 134.476 464.042 134.499C463.218 134.523 462.57 134.535 462.099 134.535H455.139ZM465.95 138.739C465.95 137.985 465.962 137.29 465.985 136.654C466.009 135.995 466.021 135.265 466.021 134.464V130.79H475.277V134.464C475.277 135.265 475.289 135.995 475.312 136.654C475.336 137.29 475.348 137.985 475.348 138.739V165.66C474.759 165.778 473.993 165.861 473.051 165.908C472.109 165.978 471.308 166.014 470.649 166.014C470.013 166.014 469.236 165.978 468.317 165.908C467.399 165.861 466.609 165.778 465.95 165.66V138.739Z" fill="black"/>
<path d="M483.901 162.622C483.901 161.845 484.055 160.997 484.361 160.078C484.667 159.16 485.079 158.3 485.597 157.499C486.139 156.698 486.728 156.098 487.364 155.697C489.036 156.639 490.92 157.476 493.017 158.206C495.136 158.936 497.315 159.289 499.553 159.266C500.636 159.266 501.614 159.101 502.485 158.771C503.357 158.441 504.051 157.982 504.57 157.393C505.088 156.781 505.347 156.051 505.347 155.203C505.347 154.308 505.005 153.507 504.322 152.8C503.639 152.094 502.568 151.481 501.107 150.963L494.854 148.561C493.017 147.925 491.344 147.136 489.837 146.194C488.353 145.228 487.175 144.062 486.304 142.696C485.432 141.33 484.997 139.716 484.997 137.856C484.997 135.571 485.597 133.534 486.799 131.743C488 129.93 489.707 128.517 491.921 127.504C494.159 126.467 496.82 125.938 499.906 125.914C502.497 125.914 505.064 126.22 507.608 126.833C510.175 127.445 512.33 128.14 514.073 128.917C514.073 130.26 513.791 131.59 513.225 132.909C512.66 134.205 511.883 135.241 510.894 136.018C509.174 135.241 507.302 134.605 505.276 134.111C503.274 133.592 501.437 133.333 499.765 133.333C498.21 133.357 496.997 133.71 496.126 134.393C495.254 135.076 494.818 135.936 494.818 136.972C494.818 137.867 495.184 138.55 495.914 139.021C496.667 139.493 497.668 139.952 498.917 140.399L505.064 142.731C508.126 143.838 510.611 145.369 512.519 147.324C514.427 149.279 515.381 151.705 515.381 154.602C515.381 157.099 514.709 159.254 513.367 161.068C512.024 162.858 510.175 164.235 507.82 165.201C505.465 166.143 502.744 166.626 499.659 166.65C496.126 166.673 492.993 166.249 490.261 165.378C487.529 164.506 485.409 163.588 483.901 162.622Z" fill="black"/>
<g clip-path="url(#clip0_482_16775)">
<path d="M234.065 115.891V115.775C232.876 110.173 228.477 105.621 222.769 104.22L192.21 95.4668H192.091C190.902 95.1167 189.594 95 188.405 95C185.314 95 182.46 95.9337 179.963 97.5677C179.963 97.5677 179.844 97.5677 179.844 97.6844L151.663 117.876C146.669 121.26 144.291 127.212 145.718 133.048L154.042 167.945C155.231 172.964 159.155 177.165 164.268 178.799L192.924 189.187H193.043C194.588 189.653 196.134 189.887 197.799 189.887C201.009 189.887 204.22 188.836 206.836 186.969L206.955 186.852L234.541 164.444C238.94 161.059 241.081 155.457 240.01 150.088L234.065 115.891ZM221.342 144.252C221.223 143.552 220.867 142.852 220.51 142.385C220.272 142.152 220.034 141.918 219.915 141.801C219.796 141.685 219.678 141.685 219.44 141.568C219.321 141.568 219.202 141.451 218.964 141.451C217.775 141.218 216.705 141.685 215.992 142.152C215.278 142.502 214.921 142.852 214.921 142.852C214.921 142.852 215.04 142.735 215.159 142.618C215.278 142.502 215.516 142.152 215.754 141.918C215.992 141.685 216.467 141.335 216.943 140.985C217.418 140.751 218.132 140.401 218.964 140.518C219.202 140.518 219.321 140.518 219.559 140.634C219.915 140.751 219.915 140.751 220.153 140.868C220.629 141.101 220.986 141.335 221.342 141.685C222.056 142.385 222.531 143.202 222.769 144.136C223.364 146.003 223.126 147.987 222.65 149.855C222.531 150.438 222.412 150.672 222.175 151.255C221.937 151.722 221.699 152.189 221.461 152.539C220.986 153.356 220.272 154.056 219.678 154.757C218.964 155.34 218.132 155.924 217.299 156.157C216.467 156.39 215.516 156.39 214.684 156.04C213.97 155.69 213.376 155.223 213.138 154.64C212.781 154.173 212.662 153.589 212.543 153.239C212.424 152.889 212.424 152.539 212.424 152.306C212.424 152.072 212.424 151.955 212.424 151.955C212.424 151.955 212.543 152.422 212.9 153.123C213.257 153.823 213.97 154.757 215.159 154.99C215.635 155.107 216.348 154.99 216.943 154.757C217.537 154.523 218.132 154.056 218.726 153.473C219.321 152.889 219.678 152.306 220.153 151.489C220.391 151.138 220.51 150.788 220.748 150.438C220.867 150.088 221.104 149.621 221.223 149.271C221.461 147.52 221.58 145.77 221.342 144.252ZM194.232 185.568L165.575 175.181C161.77 174.014 158.798 170.863 157.966 167.128L149.642 132.231C148.572 127.913 150.356 123.478 154.042 121.027L182.103 100.719C183.887 99.4351 186.146 98.8515 188.286 98.8515C189.238 98.8515 190.189 98.9682 191.021 99.2016C191.021 99.2016 195.896 100.135 203.269 101.886C206.955 102.703 211.116 103.87 215.754 105.037C218.013 105.621 220.391 106.204 222.769 106.905C225.385 107.722 227.763 109.356 229.428 111.573C230.26 112.74 230.855 113.907 231.211 115.308C231.33 115.658 231.33 115.775 231.449 116.358L231.568 117.292C231.687 117.876 231.806 118.459 231.925 119.043C232.282 121.377 232.638 123.828 232.995 126.045C233.708 130.597 234.303 134.915 234.779 138.534C235.73 145.886 236.087 150.788 236.087 150.788C236.087 150.788 234.779 146.003 233.233 138.767C232.401 135.149 231.568 130.947 230.736 126.396C230.26 124.178 229.785 121.844 229.428 119.393C229.309 118.809 229.19 118.226 229.071 117.642L228.952 116.708C228.952 116.592 228.833 116.125 228.714 115.891C228.358 114.958 227.882 113.907 227.288 112.974C226.693 112.157 225.98 111.456 225.266 110.873L197.799 130.48C191.735 134.799 186.86 134.449 184.006 133.982L151.426 127.796L182.222 138.65C185.195 139.701 190.308 141.685 191.616 147.52C191.616 147.637 191.616 147.754 191.735 147.871L199.82 185.919C199.107 186.035 198.512 186.035 197.799 186.035C196.61 186.035 195.421 185.919 194.232 185.568Z" fill="url(#paint0_linear_482_16775)"/>
<path d="M188.881 123.595C185.313 124.296 182.697 126.396 183.054 128.147C183.411 129.898 186.621 130.831 190.188 130.014C193.756 129.314 196.372 127.213 196.015 125.463C195.658 123.712 192.448 122.895 188.881 123.595Z" fill="url(#paint1_linear_482_16775)"/>
<path d="M189.001 119.626C192.568 118.926 195.184 116.825 194.827 115.074C194.471 113.324 191.26 112.39 187.693 113.207C184.126 113.907 181.51 116.008 181.867 117.759C182.223 119.509 185.434 120.326 189.001 119.626Z" fill="url(#paint2_linear_482_16775)"/>
<path d="M187.81 109.123C191.377 108.422 193.993 106.321 193.636 104.571C193.279 102.82 190.069 101.886 186.502 102.703C182.934 103.404 180.319 105.504 180.675 107.255C181.032 109.006 184.242 109.94 187.81 109.123Z" fill="url(#paint3_linear_482_16775)"/>
<path d="M160.583 138.417C158.681 135.616 155.827 134.215 154.4 135.149C152.973 136.083 153.449 139.117 155.351 141.918C157.254 144.719 160.108 146.12 161.534 145.186C162.961 144.252 162.486 141.218 160.583 138.417Z" fill="url(#paint4_linear_482_16775)"/>
<path d="M183.054 145.536C181.152 142.735 178.298 141.334 176.871 142.268C175.444 143.202 175.92 146.236 177.822 149.037C179.725 151.838 182.578 153.239 184.005 152.305C185.432 151.372 185.075 148.337 183.054 145.536Z" fill="url(#paint5_linear_482_16775)"/>
<path d="M169.142 152.072C167.715 153.006 168.191 156.041 170.093 158.842C171.996 161.643 174.85 163.043 176.277 162.11C177.703 161.176 177.228 158.142 175.325 155.34C173.304 152.539 170.569 151.022 169.142 152.072Z" fill="url(#paint6_linear_482_16775)"/>
<path d="M161.173 161.409C159.747 162.343 160.222 165.377 162.125 168.178C164.027 170.98 166.881 172.38 168.308 171.446C169.735 170.513 169.259 167.478 167.357 164.677C165.335 161.993 162.6 160.475 161.173 161.409Z" fill="url(#paint7_linear_482_16775)"/>
<path d="M184.244 169.346C182.817 170.28 183.293 173.315 185.195 176.116C187.098 178.917 189.951 180.317 191.378 179.384C192.805 178.45 192.329 175.415 190.427 172.614C188.406 169.813 185.671 168.296 184.244 169.346Z" fill="url(#paint8_linear_482_16775)"/>
</g>
<defs>
<linearGradient id="paint0_linear_482_16775" x1="192.796" y1="95" x2="192.796" y2="189.887" gradientUnits="userSpaceOnUse">
<stop stop-color="#25A375"/>
<stop offset="1" stop-color="#37CBD5"/>
</linearGradient>
<linearGradient id="paint1_linear_482_16775" x1="189.535" y1="123.345" x2="189.535" y2="130.314" gradientUnits="userSpaceOnUse">
<stop stop-color="#25A375"/>
<stop offset="1" stop-color="#37CBD5"/>
</linearGradient>
<linearGradient id="paint2_linear_482_16775" x1="188.347" y1="112.908" x2="188.347" y2="119.876" gradientUnits="userSpaceOnUse">
<stop stop-color="#25A375"/>
<stop offset="1" stop-color="#37CBD5"/>
</linearGradient>
<linearGradient id="paint3_linear_482_16775" x1="187.156" y1="102.404" x2="187.156" y2="109.422" gradientUnits="userSpaceOnUse">
<stop stop-color="#25A375"/>
<stop offset="1" stop-color="#37CBD5"/>
</linearGradient>
<linearGradient id="paint4_linear_482_16775" x1="157.967" y1="134.861" x2="157.967" y2="145.474" gradientUnits="userSpaceOnUse">
<stop stop-color="#25A375"/>
<stop offset="1" stop-color="#37CBD5"/>
</linearGradient>
<linearGradient id="paint5_linear_482_16775" x1="180.455" y1="141.98" x2="180.455" y2="152.593" gradientUnits="userSpaceOnUse">
<stop stop-color="#25A375"/>
<stop offset="1" stop-color="#37CBD5"/>
</linearGradient>
<linearGradient id="paint6_linear_482_16775" x1="172.709" y1="151.738" x2="172.709" y2="162.398" gradientUnits="userSpaceOnUse">
<stop stop-color="#25A375"/>
<stop offset="1" stop-color="#37CBD5"/>
</linearGradient>
<linearGradient id="paint7_linear_482_16775" x1="164.741" y1="161.133" x2="164.741" y2="171.734" gradientUnits="userSpaceOnUse">
<stop stop-color="#25A375"/>
<stop offset="1" stop-color="#37CBD5"/>
</linearGradient>
<linearGradient id="paint8_linear_482_16775" x1="187.811" y1="169.012" x2="187.811" y2="179.672" gradientUnits="userSpaceOnUse">
<stop stop-color="#25A375"/>
<stop offset="1" stop-color="#37CBD5"/>
</linearGradient>
<clipPath id="clip0_482_16775">
<rect width="94.8868" height="94.8868" fill="white" transform="translate(145.359 95)"/>
</clipPath>
</defs>
</svg>
